<svg width="615" height="62" viewBox="0 0 615 62" fill="none" xmlns="http://www.w3.org/2000/svg">
<path d="M11.275 41.265H10.275V42.265H11.275V41.265ZM11.275 11.235V10.235H10.275V11.235H11.275ZM19.66 11.235H20.66V10.235H19.66V11.235ZM19.66 41.265V42.265H20.66V41.265H19.66ZM0.0300002 30.215H-0.97V31.215H0.0300002V30.215ZM0.0300002 22.285V21.285H-0.97V22.285H0.0300002ZM30.97 22.285H31.97V21.285H30.97V22.285ZM30.97 30.215V31.215H31.97V30.215H30.97ZM12.275 41.265V11.235H10.275V41.265H12.275ZM11.275 12.235H19.66V10.235H11.275V12.235ZM18.66 11.235V41.265H20.66V11.235H18.66ZM19.66 40.265H11.275V42.265H19.66V40.265ZM1.03 30.215V22.285H-0.97V30.215H1.03ZM0.0300002 23.285H30.97V21.285H0.0300002V23.285ZM29.97 22.285V30.215H31.97V22.285H29.97ZM30.97 29.215H0.0300002V31.215H30.97V29.215ZM44.0914 49L43.1767 48.5957L42.556 50H44.0914V49ZM62.4214 7.53L63.2789 7.0155L62.2865 5.36157L61.5067 7.12572L62.4214 7.53ZM65.1514 12.08V13.08H66.9176L66.0089 11.5655L65.1514 12.08ZM40.6464 12.08L39.9204 11.3923L38.3215 13.08H40.6464V12.08ZM45.3264 7.14H46.3264V4.63041L44.6004 6.45225L45.3264 7.14ZM45.3264 19.49V20.49H46.3264V19.49H45.3264ZM35.9664 19.49H34.9664V20.49H35.9664V19.49ZM35.9664 3.5V2.5H34.9664V3.5H35.9664ZM72.4314 3.5H73.4314V2.5H72.4314V3.5ZM72.4314 10.325L73.3477 10.7254L73.4314 10.5339V10.325H72.4314ZM55.5314 49V50H56.1857L56.4477 49.4004L55.5314 49ZM45.006 49.4043L63.336 7.93428L61.5067 7.12572L43.1767 48.5957L45.006 49.4043ZM61.5639 8.04449L64.2939 12.5945L66.0089 11.5655L63.2789 7.0155L61.5639 8.04449ZM65.1514 11.08H40.6464V13.08H65.1514V11.08ZM41.3723 12.7677L46.0523 7.82774L44.6004 6.45225L39.9204 11.3923L41.3723 12.7677ZM44.3264 7.14V19.49H46.3264V7.14H44.3264ZM45.3264 18.49H35.9664V20.49H45.3264V18.49ZM36.9664 19.49V3.5H34.9664V19.49H36.9664ZM35.9664 4.5H72.4314V2.5H35.9664V4.5ZM71.4314 3.5V10.325H73.4314V3.5H71.4314ZM71.515 9.92458L54.615 48.5996L56.4477 49.4004L73.3477 10.7254L71.515 9.92458ZM55.5314 48H44.0914V50H55.5314V48ZM105.862 61.61L105.027 62.1605L105.324 62.61H105.862V61.61ZM99.8172 47.96L98.8509 48.2177L98.8536 48.2272L99.8172 47.96ZM99.8172 14.42L98.8524 14.1569L98.851 14.1623L99.8172 14.42ZM105.862 0.769997V-0.230003H105.33L105.033 0.211006L105.862 0.769997ZM115.547 0.769997L116.421 1.25695L117.25 -0.230003H115.547V0.769997ZM109.567 15.59L110.536 15.8365L110.537 15.8345L109.567 15.59ZM109.567 46.855L108.598 47.0995L108.598 47.1015L109.567 46.855ZM115.547 61.61V62.61H117.25L116.421 61.123L115.547 61.61ZM106.697 61.0595C104.162 57.214 102.187 52.7621 100.781 47.6928L98.8536 48.2272C100.308 53.4713 102.363 58.1193 105.027 62.1605L106.697 61.0595ZM100.783 47.7023C99.4215 42.5951 98.7372 37.0925 98.7372 31.19H96.7372C96.7372 37.2475 97.4395 42.9249 98.851 48.2177L100.783 47.7023ZM98.7372 31.19C98.7372 25.2875 99.4215 19.7849 100.783 14.6777L98.851 14.1623C97.4395 19.4551 96.7372 25.1325 96.7372 31.19H98.7372ZM100.782 14.6831C102.188 9.52779 104.162 5.0813 106.691 1.32899L105.033 0.211006C102.363 4.17203 100.306 8.82553 98.8524 14.1569L100.782 14.6831ZM105.862 1.77H115.547V-0.230003H105.862V1.77ZM114.674 0.283043C111.905 5.24911 109.877 10.2702 108.598 15.3455L110.537 15.8345C111.77 10.9431 113.729 6.08421 116.421 1.25695L114.674 0.283043ZM108.598 15.3435C107.319 20.3695 106.682 25.6527 106.682 31.19H108.682C108.682 25.8073 109.302 20.6905 110.536 15.8365L108.598 15.3435ZM106.682 31.19C106.682 36.7273 107.32 42.0314 108.598 47.0995L110.537 46.6105C109.302 41.7119 108.682 36.5727 108.682 31.19H106.682ZM108.598 47.1015C109.878 52.1334 111.906 57.1321 114.674 62.097L116.421 61.123C113.729 56.2946 111.77 51.4566 110.536 46.6085L108.598 47.1015ZM115.547 60.61H105.862V62.61H115.547V60.61ZM116.97 39.445H115.97V40.445H116.97V39.445ZM116.97 32.36L116.167 31.7635L115.97 32.0291V32.36H116.97ZM138.42 3.5V2.5H137.917L137.617 2.90347L138.42 3.5ZM149.47 3.5L150.279 4.08828L151.434 2.5H149.47V3.5ZM128.475 32.36L128.196 33.3201L128.87 33.5166L129.284 32.9483L128.475 32.36ZM123.34 30.865V29.865L123.061 31.8251L123.34 30.865ZM159.155 30.865H160.155V29.865H159.155V30.865ZM159.155 39.445V40.445H160.155V39.445H159.155ZM141.475 49H140.475V50H141.475V49ZM141.475 39.445L140.476 39.4072L140.475 39.4261V39.445H141.475ZM141.8 30.865L142.799 30.9028L142.8 30.8839V30.865H141.8ZM141.8 22.35V21.35H140.8V22.35H141.8ZM151.745 22.35H152.745V21.35H151.745V22.35ZM151.745 49V50H152.745V49H151.745ZM117.97 39.445V32.36H115.97V39.445H117.97ZM117.773 32.9565L139.223 4.09652L137.617 2.90347L116.167 31.7635L117.773 32.9565ZM138.42 4.5H149.47V2.5H138.42V4.5ZM148.661 2.91172L127.666 31.7717L129.284 32.9483L150.279 4.08828L148.661 2.91172ZM128.755 31.3999L123.62 29.9049L123.061 31.8251L128.196 33.3201L128.755 31.3999ZM123.34 31.865H159.155V29.865H123.34V31.865ZM158.155 30.865V39.445H160.155V30.865H158.155ZM159.155 38.445H116.97V40.445H159.155V38.445ZM142.475 49V39.445H140.475V49H142.475ZM142.474 39.4828L142.799 30.9028L140.801 30.8271L140.476 39.4072L142.474 39.4828ZM142.8 30.865V22.35H140.8V30.865H142.8ZM141.8 23.35H151.745V21.35H141.8V23.35ZM150.745 22.35V49H152.745V22.35H150.745ZM151.745 48H141.475V50H151.745V48ZM188.959 5.32L189.455 4.45176V4.45175L188.959 5.32ZM195.979 12.925L195.082 13.3676L195.085 13.3722L195.979 12.925ZM195.459 38.6L194.582 38.1197L194.578 38.1278L195.459 38.6ZM187.334 46.92L187.816 47.7962L187.334 46.92ZM162.634 46.66L161.741 46.2098L161.337 47.0108L162.09 47.499L162.634 46.66ZM166.534 38.925L167.102 38.1018L166.158 37.4506L165.641 38.4748L166.534 38.925ZM170.564 40.745L170.329 41.7169L170.342 41.7202L170.357 41.7232L170.564 40.745ZM184.344 37.625L183.631 36.9244L183.624 36.9311L184.344 37.625ZM187.789 24.43L186.79 24.4754L187.789 24.43ZM187.464 21.57L188.155 20.8466L185.93 18.7233L186.48 21.7489L187.464 21.57ZM190.324 24.3L191.241 24.6996L191.52 24.0591L191.015 23.5766L190.324 24.3ZM187.204 28.59L187.847 29.3562L187.854 29.3502L187.861 29.3441L187.204 28.59ZM182.524 31.19L182.826 32.1432L182.837 32.1399L182.847 32.1363L182.524 31.19ZM168.614 30.28L168.167 31.1744L168.173 31.1777L168.614 30.28ZM162.959 25.34L162.122 25.8868L162.126 25.8927L162.13 25.8986L162.959 25.34ZM163.154 9.805L162.332 9.23574L162.325 9.24662L163.154 9.805ZM169.394 4.605L169.817 5.5112L169.823 5.50813L169.394 4.605ZM174.789 11.43L175.208 12.338L175.222 12.3314L175.236 12.3244L174.789 11.43ZM172.124 13.77L172.962 14.3163L172.967 14.3082L172.972 14.3L172.124 13.77ZM173.229 22.35L172.558 23.091L172.57 23.1019L172.582 23.1125L173.229 22.35ZM182.914 23.325L183.348 24.226L183.355 24.2228L183.361 24.2194L182.914 23.325ZM185.709 20.855L184.861 20.325V20.325L185.709 20.855ZM185.709 13.9L184.845 14.4039L184.858 14.4254L184.871 14.4463L185.709 13.9ZM183.044 11.495L182.584 12.3828L182.597 12.3896L182.61 12.396L183.044 11.495ZM178.104 3.72C182.169 3.72 185.609 4.55723 188.463 6.18824L189.455 4.45175C186.243 2.6161 182.446 1.72 178.104 1.72V3.72ZM188.463 6.18824C191.312 7.81619 193.518 10.1973 195.082 13.3675L196.876 12.4825C195.147 8.97937 192.673 6.29047 189.455 4.45176L188.463 6.18824ZM195.085 13.3722C196.642 16.4876 197.449 20.4396 197.449 25.275H199.449C199.449 20.2304 198.609 15.9491 196.874 12.4778L195.085 13.3722ZM197.449 25.275C197.449 30.3938 196.476 34.6608 194.582 38.1197L196.336 39.0803C198.429 35.2592 199.449 30.6429 199.449 25.275H197.449ZM194.578 38.1278C192.715 41.6052 190.142 44.2345 186.852 46.0438L187.816 47.7962C191.46 45.7922 194.303 42.8748 196.341 39.0722L194.578 38.1278ZM186.852 46.0438C183.555 47.857 179.696 48.78 175.244 48.78V50.78C179.979 50.78 184.179 49.7963 187.816 47.7962L186.852 46.0438ZM175.244 48.78C172.934 48.78 170.714 48.5281 168.583 48.0266L168.125 49.9734C170.414 50.5119 172.787 50.78 175.244 50.78V48.78ZM168.583 48.0266C166.465 47.5281 164.669 46.7879 163.178 45.821L162.09 47.499C163.806 48.6121 165.824 49.4319 168.125 49.9734L168.583 48.0266ZM163.527 47.1102L167.427 39.3752L165.641 38.4748L161.741 46.2098L163.527 47.1102ZM165.966 39.7482C167.32 40.6817 168.775 41.3403 170.329 41.7169L170.8 39.7731C169.493 39.4564 168.262 38.9017 167.102 38.1018L165.966 39.7482ZM170.357 41.7232C171.859 42.042 173.424 42.2 175.049 42.2V40.2C173.554 40.2 172.129 40.0547 170.772 39.7668L170.357 41.7232ZM175.049 42.2C179.168 42.2 182.546 40.9326 185.064 38.3189L183.624 36.9311C181.549 39.084 178.73 40.2 175.049 40.2V42.2ZM185.058 38.3256C187.644 35.6911 188.854 31.8657 188.854 27.03H186.854C186.854 31.5543 185.724 34.7923 183.631 36.9244L185.058 38.3256ZM188.854 27.03C188.854 26.232 188.832 25.3499 188.788 24.3846L186.79 24.4754C186.833 25.4168 186.854 26.268 186.854 27.03H188.854ZM188.788 24.3846C188.743 23.3858 188.629 22.3879 188.448 21.3911L186.48 21.7489C186.646 22.6588 186.749 23.5675 186.79 24.4754L188.788 24.3846ZM186.774 22.2934L189.634 25.0234L191.015 23.5766L188.155 20.8466L186.774 22.2934ZM189.407 23.9004C188.728 25.4593 187.775 26.7668 186.547 27.8359L187.861 29.3441C189.32 28.0732 190.447 26.5207 191.241 24.6996L189.407 23.9004ZM186.561 27.8238C185.319 28.8658 183.869 29.674 182.201 30.2437L182.847 32.1363C184.732 31.4927 186.402 30.5676 187.847 29.3562L186.561 27.8238ZM182.222 30.2368C180.559 30.764 178.67 31.035 176.544 31.035V33.035C178.838 33.035 180.936 32.7427 182.826 32.1432L182.222 30.2368ZM176.544 31.035C173.779 31.035 171.288 30.4789 169.055 29.3823L168.173 31.1777C170.706 32.4211 173.503 33.035 176.544 33.035V31.035ZM169.061 29.3856C166.872 28.2909 165.12 26.7585 163.789 24.7814L162.13 25.8986C163.658 28.1682 165.676 29.9291 168.167 31.1744L169.061 29.3856ZM163.796 24.7932C162.529 22.8527 161.879 20.5564 161.879 17.865H159.879C159.879 20.8936 160.616 23.5807 162.122 25.8868L163.796 24.7932ZM161.879 17.865C161.879 14.9135 162.594 12.4281 163.984 10.3634L162.325 9.24662C160.681 11.6886 159.879 14.5765 159.879 17.865H161.879ZM163.976 10.3742C165.431 8.27356 167.37 6.65322 169.817 5.51118L168.971 3.69881C166.218 4.98344 163.998 6.82977 162.332 9.23579L163.976 10.3742ZM169.823 5.50813C172.322 4.32028 175.077 3.72 178.104 3.72V1.72C174.804 1.72 171.753 2.37638 168.965 3.70186L169.823 5.50813ZM178.754 9.585C177.114 9.585 175.633 9.89005 174.342 10.5356L175.236 12.3244C176.199 11.8433 177.361 11.585 178.754 11.585V9.585ZM174.37 10.522C173.069 11.1226 172.031 12.0329 171.276 13.24L172.972 14.3C173.518 13.4271 174.256 12.7774 175.208 12.338L174.37 10.522ZM171.286 13.2237C170.514 14.4083 170.149 15.7971 170.149 17.345H172.149C172.149 16.1195 172.434 15.125 172.962 14.3163L171.286 13.2237ZM170.149 17.345C170.149 19.6723 170.937 21.6224 172.558 23.091L173.901 21.609C172.748 20.5642 172.149 19.1777 172.149 17.345H170.149ZM172.582 23.1125C174.234 24.5143 176.368 25.17 178.884 25.17V23.17C176.721 23.17 175.084 22.6124 173.876 21.5875L172.582 23.1125ZM178.884 25.17C180.526 25.17 182.022 24.8646 183.348 24.226L182.48 22.424C181.467 22.9121 180.276 23.17 178.884 23.17V25.17ZM183.361 24.2194C184.721 23.5395 185.799 22.5973 186.557 21.385L184.861 20.325C184.319 21.1927 183.534 21.8972 182.467 22.4306L183.361 24.2194ZM186.557 21.385C187.312 20.1764 187.684 18.8207 187.684 17.345H185.684C185.684 18.4693 185.406 19.4536 184.861 20.325L186.557 21.385ZM187.684 17.345C187.684 15.8697 187.312 14.5279 186.547 13.3537L184.871 14.4463C185.406 15.2655 185.684 16.2203 185.684 17.345H187.684ZM186.573 13.3961C185.858 12.1702 184.813 11.2367 183.478 10.594L182.61 12.396C183.615 12.8799 184.347 13.5498 184.845 14.4039L186.573 13.3961ZM183.504 10.6072C182.158 9.90896 180.56 9.585 178.754 9.585V11.585C180.328 11.585 181.59 11.8677 182.584 12.3828L183.504 10.6072ZM209.546 48.545L209.275 49.5075L209.283 49.5098L209.291 49.5119L209.546 48.545ZM201.616 44.905L200.727 44.4464L200.328 45.2199L201.039 45.722L201.616 44.905ZM205.776 36.845L206.363 36.0354L205.421 35.3525L204.887 36.3864L205.776 36.845ZM211.756 39.835L211.445 40.7855L211.45 40.7872L211.756 39.835ZM224.951 39.38L225.516 40.2047L224.951 39.38ZM223.066 29.825L222.766 30.779L222.774 30.7813L223.066 29.825ZM204.996 29.11L204 29.019L203.9 30.11H204.996V29.11ZM207.336 3.5V2.5H206.423L206.34 3.409L207.336 3.5ZM235.091 3.5H236.091V2.5H235.091V3.5ZM235.091 11.95V12.95H236.091V11.95H235.091ZM211.106 11.95L210.445 11.1996L208.458 12.95H211.106V11.95ZM216.566 7.14L217.562 7.22861L217.784 4.73432L215.905 6.38964L216.566 7.14ZM214.941 25.405L214.28 26.1554L215.762 27.461L215.937 25.4936L214.941 25.405ZM209.481 20.595V19.595H206.833L208.82 21.3454L209.481 20.595ZM229.956 22.48L229.538 23.3884L229.546 23.3923L229.555 23.3962L229.956 22.48ZM236.001 27.485L236.861 26.9757L236.001 27.485ZM235.871 42.175L236.73 42.6871L236.734 42.6799L235.871 42.175ZM229.631 47.7L230.078 48.5944L230.084 48.5917L229.631 47.7ZM218.971 48.78C215.895 48.78 212.839 48.3799 209.801 47.5781L209.291 49.5119C212.492 50.3568 215.72 50.78 218.971 50.78V48.78ZM209.817 47.5825C206.83 46.7411 204.295 45.5718 202.193 44.088L201.039 45.722C203.357 47.3582 206.108 48.6155 209.275 49.5075L209.817 47.5825ZM202.504 45.3636L206.664 37.3036L204.887 36.3864L200.727 44.4464L202.504 45.3636ZM205.189 37.6546C207.015 38.9785 209.103 40.02 211.445 40.7855L212.067 38.8845C209.902 38.1767 208.003 37.2248 206.363 36.0354L205.189 37.6546ZM211.45 40.7872C213.843 41.5546 216.264 41.94 218.711 41.94V39.94C216.478 39.94 214.262 39.5888 212.061 38.8828L211.45 40.7872ZM218.711 41.94C221.472 41.94 223.775 41.3988 225.516 40.2047L224.385 38.5553C223.093 39.4412 221.237 39.94 218.711 39.94V41.94ZM225.516 40.2047C227.309 38.9753 228.226 37.2128 228.226 35.025H226.226C226.226 36.5638 225.626 37.7047 224.385 38.5553L225.516 40.2047ZM228.226 35.025C228.226 33.672 227.872 32.4362 227.148 31.3503L225.484 32.4597C225.973 33.1938 226.226 34.038 226.226 35.025H228.226ZM227.148 31.3503C226.363 30.1734 225.034 29.3809 223.358 28.8686L222.774 30.7813C224.217 31.2225 225.055 31.8166 225.484 32.4597L227.148 31.3503ZM223.366 28.871C221.706 28.3493 219.442 28.11 216.631 28.11V30.11C219.366 30.11 221.393 30.3474 222.766 30.779L223.366 28.871ZM216.631 28.11H204.996V30.11H216.631V28.11ZM205.992 29.201L208.332 3.59099L206.34 3.409L204 29.019L205.992 29.201ZM207.336 4.5H235.091V2.5H207.336V4.5ZM234.091 3.5V11.95H236.091V3.5H234.091ZM235.091 10.95H211.106V12.95H235.091V10.95ZM211.767 12.7004L217.227 7.89035L215.905 6.38964L210.445 11.1996L211.767 12.7004ZM215.57 7.05138L213.945 25.3164L215.937 25.4936L217.562 7.22861L215.57 7.05138ZM215.602 24.6546L210.142 19.8446L208.82 21.3454L214.28 26.1554L215.602 24.6546ZM209.481 21.595H219.101V19.595H209.481V21.595ZM219.101 21.595C223.529 21.595 226.988 22.2146 229.538 23.3884L230.374 21.5716C227.464 20.2321 223.686 19.595 219.101 19.595V21.595ZM229.555 23.3962C232.181 24.5448 234.013 26.089 235.14 27.9943L236.861 26.9757C235.476 24.6343 233.278 22.8418 230.357 21.5638L229.555 23.3962ZM235.14 27.9943C236.298 29.9499 236.886 32.1761 236.886 34.7H238.886C238.886 31.8506 238.217 29.2668 236.861 26.9757L235.14 27.9943ZM236.886 34.7C236.886 37.211 236.26 39.5282 235.008 41.6701L236.734 42.6799C238.168 40.2285 238.886 37.5623 238.886 34.7H236.886ZM235.012 41.6629C233.784 43.7234 231.861 45.4463 229.178 46.8083L230.084 48.5917C233.034 47.0937 235.271 45.1333 236.73 42.6871L235.012 41.6629ZM229.184 46.8056C226.593 48.1008 223.207 48.78 218.971 48.78V50.78C223.401 50.78 227.122 50.0725 230.078 48.5944L229.184 46.8056ZM249.958 61.61V62.61H250.487L250.784 62.1731L249.958 61.61ZM240.273 61.61L239.406 61.1114L238.544 62.61H240.273V61.61ZM246.318 46.855L245.348 46.6105L245.347 46.6165L246.318 46.855ZM246.318 15.59L245.346 15.8266L245.349 15.8365L246.318 15.59ZM240.273 0.769997V-0.230003H238.544L239.406 1.26861L240.273 0.769997ZM249.958 0.769997L250.779 0.198391L250.48 -0.230003H249.958V0.769997ZM256.068 14.42L255.101 14.6757L255.102 14.6777L256.068 14.42ZM256.068 47.96L257.034 48.2197L257.034 48.2177L256.068 47.96ZM249.958 60.61H240.273V62.61H249.958V60.61ZM241.14 62.1086C243.998 57.1395 246.051 52.1341 247.289 47.0935L245.347 46.6165C244.158 51.4559 242.181 56.2872 239.406 61.1114L241.14 62.1086ZM247.288 47.0995C248.566 42.0314 249.203 36.7273 249.203 31.19H247.203C247.203 36.5727 246.584 41.7119 245.348 46.6105L247.288 47.0995ZM249.203 31.19C249.203 25.6527 248.566 20.3695 247.287 15.3435L245.349 15.8365C246.584 20.6905 247.203 25.8073 247.203 31.19H249.203ZM247.29 15.3534C246.052 10.2695 243.999 5.24178 241.14 0.271381L239.406 1.26861C242.18 6.09155 244.158 10.9439 245.346 15.8266L247.29 15.3534ZM240.273 1.77H249.958V-0.230003H240.273V1.77ZM249.138 1.3416C251.748 5.08879 253.74 9.52827 255.101 14.6757L257.035 14.1643C255.623 8.82506 253.542 4.16454 250.779 0.198391L249.138 1.3416ZM255.102 14.6777C256.464 19.7849 257.148 25.2875 257.148 31.19H259.148C259.148 25.1325 258.446 19.4551 257.034 14.1623L255.102 14.6777ZM257.148 31.19C257.148 37.0925 256.464 42.5951 255.102 47.7023L257.034 48.2177C258.446 42.9249 259.148 37.2475 259.148 31.19H257.148ZM255.102 47.7003C253.741 52.7615 251.748 57.2066 249.132 61.0469L250.784 62.1731C253.541 58.1268 255.621 53.4718 257.034 48.2197L255.102 47.7003ZM283.472 49H282.472V50H283.472V49ZM283.472 42.175L282.786 41.448L282.472 41.7439V42.175H283.472ZM301.022 25.6L300.351 24.859L300.343 24.8659L300.336 24.873L301.022 25.6ZM304.077 22.22L304.915 22.7663L304.077 22.22ZM305.377 19.49L304.424 19.1889L304.416 19.212L304.41 19.2355L305.377 19.49ZM303.882 13.055L303.247 13.8277L303.262 13.84L303.278 13.8517L303.882 13.055ZM293.157 12.665L292.749 11.7521L292.74 11.7563L293.157 12.665ZM289.062 16.11L288.521 16.9507L289.318 17.4641L289.873 16.6955L289.062 16.11ZM281.392 11.17L280.56 10.6153L279.997 11.4606L280.851 12.0107L281.392 11.17ZM288.672 4.995L288.235 4.09563L288.672 4.995ZM308.302 4.41L307.893 5.32251L307.902 5.32673L307.912 5.33075L308.302 4.41ZM314.217 9.025L313.396 9.59607L313.4 9.60202L313.405 9.60791L314.217 9.025ZM315.777 20.595L314.81 20.3391L314.808 20.3492L314.805 20.3594L315.777 20.595ZM313.567 25.145L312.749 24.5701L312.744 24.5775L312.739 24.5851L313.567 25.145ZM308.757 30.54L308.073 29.8109L308.071 29.8121L308.757 30.54ZM294.197 44.255L293.312 44.7201L293.924 45.8857L294.883 44.9829L294.197 44.255ZM292.182 40.42V39.42H290.527L291.297 40.8851L292.182 40.42ZM317.857 40.42H318.857V39.42H317.857V40.42ZM317.857 49V50H318.857V49H317.857ZM284.472 49V42.175H282.472V49H284.472ZM284.159 42.902L301.709 26.327L300.336 24.873L282.786 41.448L284.159 42.902ZM301.694 26.341C303.112 25.0556 304.199 23.8634 304.915 22.7663L303.24 21.6737C302.655 22.5699 301.706 23.6311 300.351 24.859L301.694 26.341ZM304.915 22.7663C305.602 21.7127 306.092 20.7035 306.344 19.7445L304.41 19.2355C304.229 19.9232 303.852 20.7339 303.24 21.6737L304.915 22.7663ZM306.331 19.7911C306.614 18.8932 306.767 18.032 306.767 17.215H304.767C304.767 17.7847 304.66 18.4401 304.424 19.1889L306.331 19.7911ZM306.767 17.215C306.767 15.1368 306.033 13.4315 304.487 12.2583L303.278 13.8517C304.245 14.5852 304.767 15.6532 304.767 17.215H306.767ZM304.517 12.2823C303.053 11.0794 300.987 10.56 298.487 10.56V12.56C300.754 12.56 302.285 13.0372 303.247 13.8277L304.517 12.2823ZM298.487 10.56C296.448 10.56 294.531 10.9548 292.749 11.7522L293.566 13.5778C295.076 12.9019 296.713 12.56 298.487 12.56V10.56ZM292.74 11.7563C290.966 12.5714 289.47 13.8377 288.251 15.5245L289.873 16.6955C290.908 15.2623 292.142 14.2319 293.575 13.5737L292.74 11.7563ZM289.604 15.2693L281.934 10.3293L280.851 12.0107L288.521 16.9507L289.604 15.2693ZM282.224 11.7247C283.848 9.28852 286.131 7.34208 289.109 5.89436L288.235 4.09563C284.973 5.68125 282.403 7.85147 280.56 10.6153L282.224 11.7247ZM289.109 5.89436C292.071 4.45451 295.514 3.72 299.462 3.72V1.72C295.264 1.72 291.513 2.50216 288.235 4.09563L289.109 5.89436ZM299.462 3.72C302.732 3.72 305.534 4.26506 307.893 5.32251L308.711 3.49749C306.043 2.3016 302.952 1.72 299.462 1.72V3.72ZM307.912 5.33075C310.32 6.3513 312.132 7.77887 313.396 9.59607L315.038 8.45393C313.529 6.28446 311.397 4.63536 308.692 3.48925L307.912 5.33075ZM313.405 9.60791C314.697 11.4096 315.362 13.5824 315.362 16.175H317.362C317.362 13.221 316.597 10.6271 315.03 8.44209L313.405 9.60791ZM315.362 16.175C315.362 17.559 315.179 18.9464 314.81 20.3391L316.744 20.8509C317.155 19.2969 317.362 17.7376 317.362 16.175H315.362ZM314.805 20.3594C314.496 21.6346 313.826 23.0371 312.749 24.5701L314.385 25.7199C315.561 24.0462 316.365 22.4154 316.749 20.8306L314.805 20.3594ZM312.739 24.5851C311.712 26.1044 310.166 27.8457 308.073 29.8109L309.442 31.2691C311.595 29.2477 313.256 27.3923 314.396 25.7049L312.739 24.5851ZM308.071 29.8121L293.511 43.5271L294.883 44.9829L309.443 31.2679L308.071 29.8121ZM295.082 43.7899L293.067 39.9549L291.297 40.8851L293.312 44.7201L295.082 43.7899ZM292.182 41.42H317.857V39.42H292.182V41.42ZM316.857 40.42V49H318.857V40.42H316.857ZM317.857 48H283.472V50H317.857V48ZM327.532 48.545L327.264 49.5086L327.277 49.5119L327.532 48.545ZM319.602 44.905L318.71 44.452L318.322 45.2159L319.018 45.7165L319.602 44.905ZM323.697 36.845L324.284 36.0354L323.336 35.348L322.805 36.392L323.697 36.845ZM329.742 39.835L329.437 40.7872L329.742 39.835ZM342.937 39.38L343.503 40.2047L342.937 39.38ZM331.887 29.5H330.887V30.5H331.887V29.5ZM331.887 22.545L331.137 21.8834L330.887 22.1669V22.545H331.887ZM344.562 8.18L345.517 7.8836L344.99 6.18396L343.812 7.51838L344.562 8.18ZM345.732 11.95V12.95H347.089L346.687 11.6536L345.732 11.95ZM321.877 11.95H320.877V12.95H321.877V11.95ZM321.877 3.5V2.5H320.877V3.5H321.877ZM353.727 3.5H354.727V2.5H353.727V3.5ZM353.727 10.325L354.479 10.9847L354.727 10.7016V10.325H353.727ZM341.117 24.69L340.62 25.5576L341.329 25.9642L341.869 25.3497L341.117 24.69ZM335.787 21.635V20.635H332.031L335.29 22.5026L335.787 21.635ZM351.517 25.405L350.857 26.1562L351.517 25.405ZM353.792 42.305L354.647 42.8244L354.651 42.8171L353.792 42.305ZM347.617 47.7L347.17 46.8056L347.617 47.7ZM336.957 48.78C333.882 48.78 330.826 48.3799 327.787 47.5781L327.277 49.5119C330.478 50.3568 333.706 50.78 336.957 50.78V48.78ZM327.8 47.5815C324.77 46.7399 322.239 45.5716 320.186 44.0935L319.018 45.7165C321.298 47.3584 324.054 48.6168 327.264 49.5085L327.8 47.5815ZM320.494 45.358L324.589 37.298L322.805 36.392L318.71 44.452L320.494 45.358ZM323.11 37.6546C324.939 38.9807 327.052 40.0223 329.437 40.7872L330.047 38.8828C327.839 38.1744 325.922 37.2226 324.284 36.0354L323.11 37.6546ZM329.437 40.7872C331.829 41.5546 334.25 41.94 336.697 41.94V39.94C334.464 39.94 332.248 39.5888 330.047 38.8828L329.437 40.7872ZM336.697 41.94C339.458 41.94 341.761 41.3988 343.503 40.2047L342.371 38.5553C341.079 39.4412 339.223 39.94 336.697 39.94V41.94ZM343.503 40.2047C345.288 38.9806 346.212 37.2438 346.212 35.09H344.212C344.212 36.5762 343.62 37.6994 342.371 38.5553L343.503 40.2047ZM346.212 35.09C346.212 33.0536 345.401 31.3851 343.793 30.1919L342.601 31.7981C343.68 32.5982 344.212 33.6598 344.212 35.09H346.212ZM343.793 30.1919C342.187 29.0005 339.753 28.5 336.697 28.5V30.5C339.621 30.5 341.52 30.9961 342.601 31.7981L343.793 30.1919ZM336.697 28.5H331.887V30.5H336.697V28.5ZM332.887 29.5V22.545H330.887V29.5H332.887ZM332.637 23.2066L345.312 8.84162L343.812 7.51838L331.137 21.8834L332.637 23.2066ZM343.607 8.4764L344.777 12.2464L346.687 11.6536L345.517 7.8836L343.607 8.4764ZM345.732 10.95H321.877V12.95H345.732V10.95ZM322.877 11.95V3.5H320.877V11.95H322.877ZM321.877 4.5H353.727V2.5H321.877V4.5ZM352.727 3.5V10.325H354.727V3.5H352.727ZM352.975 9.66529L340.365 24.0303L341.869 25.3497L354.479 10.9847L352.975 9.66529ZM341.614 23.8224L336.284 20.7674L335.29 22.5026L340.62 25.5576L341.614 23.8224ZM335.787 22.635H338.842V20.635H335.787V22.635ZM338.842 22.635C344.3 22.635 348.249 23.8639 350.857 26.1562L352.177 24.6538C349.065 21.9194 344.564 20.635 338.842 20.635V22.635ZM350.857 26.1562C353.492 28.472 354.807 31.4226 354.807 35.09H356.807C356.807 30.8708 355.262 27.3646 352.177 24.6538L350.857 26.1562ZM354.807 35.09C354.807 37.4615 354.187 39.6902 352.933 41.7929L354.651 42.8171C356.084 40.4131 356.807 37.8318 356.807 35.09H354.807ZM352.937 41.7856C351.71 43.8052 349.809 45.4862 347.17 46.8056L348.064 48.5944C350.972 47.1405 353.188 45.2248 354.647 42.8244L352.937 41.7856ZM347.17 46.8056C344.579 48.1008 341.193 48.78 336.957 48.78V50.78C341.388 50.78 345.108 50.0725 348.064 48.5944L347.17 46.8056ZM359.961 49H358.961V50H359.961V49ZM359.961 42.175L359.275 41.448L358.961 41.7439V42.175H359.961ZM377.511 25.6L376.84 24.859L376.832 24.8659L376.825 24.873L377.511 25.6ZM380.566 22.22L381.404 22.7663L380.566 22.22ZM381.866 19.49L380.913 19.1889L380.906 19.212L380.899 19.2355L381.866 19.49ZM380.371 13.055L379.737 13.8277L379.752 13.84L379.767 13.8517L380.371 13.055ZM369.646 12.665L369.238 11.7521L369.229 11.7563L369.646 12.665ZM365.551 16.11L365.01 16.9507L365.807 17.4641L366.362 16.6955L365.551 16.11ZM357.881 11.17L357.049 10.6153L356.486 11.4606L357.34 12.0107L357.881 11.17ZM365.161 4.995L364.724 4.09563L365.161 4.995ZM384.791 4.41L384.382 5.32251L384.392 5.32673L384.401 5.33075L384.791 4.41ZM390.706 9.025L389.885 9.59607L389.89 9.60202L389.894 9.60791L390.706 9.025ZM392.266 20.595L391.3 20.3391L391.297 20.3492L391.295 20.3594L392.266 20.595ZM390.056 25.145L389.238 24.5701L389.233 24.5775L389.228 24.5851L390.056 25.145ZM385.246 30.54L384.562 29.8109L384.561 29.8121L385.246 30.54ZM370.686 44.255L369.801 44.7201L370.414 45.8857L371.372 44.9829L370.686 44.255ZM368.671 40.42V39.42H367.016L367.786 40.8851L368.671 40.42ZM394.346 40.42H395.346V39.42H394.346V40.42ZM394.346 49V50H395.346V49H394.346ZM360.961 49V42.175H358.961V49H360.961ZM360.648 42.902L378.198 26.327L376.825 24.873L359.275 41.448L360.648 42.902ZM378.183 26.341C379.601 25.0556 380.688 23.8634 381.404 22.7663L379.729 21.6737C379.144 22.5699 378.195 23.6311 376.84 24.859L378.183 26.341ZM381.404 22.7663C382.091 21.7127 382.581 20.7035 382.833 19.7445L380.899 19.2355C380.718 19.9232 380.342 20.7339 379.729 21.6737L381.404 22.7663ZM382.82 19.7911C383.104 18.8932 383.256 18.032 383.256 17.215H381.256C381.256 17.7847 381.149 18.4401 380.913 19.1889L382.82 19.7911ZM383.256 17.215C383.256 15.1368 382.522 13.4315 380.976 12.2583L379.767 13.8517C380.734 14.5852 381.256 15.6532 381.256 17.215H383.256ZM381.006 12.2823C379.542 11.0794 377.477 10.56 374.976 10.56V12.56C377.243 12.56 378.774 13.0372 379.737 13.8277L381.006 12.2823ZM374.976 10.56C372.937 10.56 371.02 10.9548 369.238 11.7522L370.055 13.5778C371.566 12.9019 373.202 12.56 374.976 12.56V10.56ZM369.229 11.7563C367.455 12.5714 365.959 13.8377 364.741 15.5245L366.362 16.6955C367.397 15.2623 368.631 14.2319 370.064 13.5737L369.229 11.7563ZM366.093 15.2693L358.423 10.3293L357.34 12.0107L365.01 16.9507L366.093 15.2693ZM358.713 11.7247C360.338 9.28852 362.62 7.34208 365.599 5.89436L364.724 4.09563C361.462 5.68125 358.892 7.85147 357.049 10.6153L358.713 11.7247ZM365.599 5.89436C368.561 4.45451 372.003 3.72 375.951 3.72V1.72C371.753 1.72 368.002 2.50216 364.724 4.09563L365.599 5.89436ZM375.951 3.72C379.222 3.72 382.023 4.26506 384.382 5.32251L385.2 3.49749C382.533 2.3016 379.441 1.72 375.951 1.72V3.72ZM384.401 5.33075C386.81 6.3513 388.621 7.77887 389.885 9.59607L391.527 8.45393C390.018 6.28446 387.886 4.63536 385.182 3.48925L384.401 5.33075ZM389.894 9.60791C391.186 11.4096 391.851 13.5824 391.851 16.175H393.851C393.851 13.221 393.086 10.6271 391.519 8.44209L389.894 9.60791ZM391.851 16.175C391.851 17.559 391.668 18.9464 391.3 20.3391L393.233 20.8509C393.644 19.2969 393.851 17.7376 393.851 16.175H391.851ZM391.295 20.3594C390.985 21.6346 390.315 23.0371 389.238 24.5701L390.875 25.7199C392.051 24.0462 392.854 22.4154 393.238 20.8306L391.295 20.3594ZM389.228 24.5851C388.201 26.1044 386.655 27.8457 384.562 29.8109L385.931 31.2691C388.084 29.2477 389.745 27.3923 390.885 25.7049L389.228 24.5851ZM384.561 29.8121L370.001 43.5271L371.372 44.9829L385.932 31.2679L384.561 29.8121ZM371.572 43.7899L369.557 39.9549L367.786 40.8851L369.801 44.7201L371.572 43.7899ZM368.671 41.42H394.346V39.42H368.671V41.42ZM393.346 40.42V49H395.346V40.42H393.346ZM394.346 48H359.961V50H394.346V48ZM399.346 34.765H398.346V35.765H399.346V34.765ZM399.346 26.64V25.64H398.346V26.64H399.346ZM417.741 26.64H418.741V25.64H417.741V26.64ZM417.741 34.765V35.765H418.741V34.765H417.741ZM400.346 34.765V26.64H398.346V34.765H400.346ZM399.346 27.64H417.741V25.64H399.346V27.64ZM416.741 26.64V34.765H418.741V26.64H416.741ZM417.741 33.765H399.346V35.765H417.741V33.765ZM450.419 5.32L450.915 4.45176V4.45175L450.419 5.32ZM457.439 12.925L456.542 13.3676L456.545 13.3722L457.439 12.925ZM456.919 38.6L456.042 38.1197L456.038 38.1278L456.919 38.6ZM448.794 46.92L449.276 47.7962L448.794 46.92ZM424.094 46.66L423.201 46.2098L422.797 47.0108L423.55 47.499L424.094 46.66ZM427.994 38.925L428.562 38.1018L427.618 37.4506L427.101 38.4748L427.994 38.925ZM432.024 40.745L431.788 41.7169L431.802 41.7202L431.817 41.7232L432.024 40.745ZM445.804 37.625L445.09 36.9244L445.084 36.9311L445.804 37.625ZM449.249 24.43L448.25 24.4754L449.249 24.43ZM448.924 21.57L449.615 20.8466L447.39 18.7233L447.94 21.7489L448.924 21.57ZM451.784 24.3L452.701 24.6996L452.98 24.0591L452.475 23.5766L451.784 24.3ZM448.664 28.59L449.307 29.3562L449.314 29.3502L449.321 29.3441L448.664 28.59ZM443.984 31.19L444.286 32.1432L444.297 32.1399L444.307 32.1363L443.984 31.19ZM430.074 30.28L429.627 31.1744L429.633 31.1777L430.074 30.28ZM424.419 25.34L423.582 25.8868L423.586 25.8927L423.59 25.8986L424.419 25.34ZM424.614 9.805L423.792 9.23574L423.784 9.24662L424.614 9.805ZM430.854 4.605L431.277 5.5112L431.283 5.50813L430.854 4.605ZM436.249 11.43L436.668 12.338L436.682 12.3314L436.696 12.3244L436.249 11.43ZM433.584 13.77L434.422 14.3163L434.427 14.3082L434.432 14.3L433.584 13.77ZM434.689 22.35L434.018 23.091L434.03 23.1019L434.042 23.1125L434.689 22.35ZM444.374 23.325L444.808 24.226L444.815 24.2228L444.821 24.2194L444.374 23.325ZM447.169 20.855L446.321 20.325V20.325L447.169 20.855ZM447.169 13.9L446.305 14.4039L446.318 14.4254L446.331 14.4463L447.169 13.9ZM444.504 11.495L444.044 12.3828L444.057 12.3896L444.07 12.396L444.504 11.495ZM439.564 3.72C443.629 3.72 447.069 4.55723 449.923 6.18824L450.915 4.45175C447.703 2.6161 443.906 1.72 439.564 1.72V3.72ZM449.923 6.18824C452.772 7.81619 454.978 10.1973 456.542 13.3675L458.336 12.4825C456.607 8.97937 454.133 6.29047 450.915 4.45176L449.923 6.18824ZM456.545 13.3722C458.102 16.4876 458.909 20.4396 458.909 25.275H460.909C460.909 20.2304 460.069 15.9491 458.333 12.4778L456.545 13.3722ZM458.909 25.275C458.909 30.3938 457.936 34.6608 456.042 38.1197L457.796 39.0803C459.889 35.2592 460.909 30.6429 460.909 25.275H458.909ZM456.038 38.1278C454.175 41.6052 451.602 44.2345 448.312 46.0438L449.276 47.7962C452.92 45.7922 455.763 42.8748 457.801 39.0722L456.038 38.1278ZM448.312 46.0438C445.015 47.857 441.156 48.78 436.704 48.78V50.78C441.439 50.78 445.639 49.7963 449.276 47.7962L448.312 46.0438ZM436.704 48.78C434.394 48.78 432.174 48.5281 430.043 48.0266L429.585 49.9734C431.874 50.5119 434.247 50.78 436.704 50.78V48.78ZM430.043 48.0266C427.925 47.5281 426.129 46.7879 424.638 45.821L423.55 47.499C425.266 48.6121 427.284 49.4319 429.585 49.9734L430.043 48.0266ZM424.987 47.1102L428.887 39.3752L427.101 38.4748L423.201 46.2098L424.987 47.1102ZM427.426 39.7482C428.78 40.6817 430.235 41.3403 431.788 41.7169L432.26 39.7731C430.953 39.4564 429.722 38.9017 428.562 38.1018L427.426 39.7482ZM431.817 41.7232C433.319 42.042 434.884 42.2 436.509 42.2V40.2C435.014 40.2 433.589 40.0547 432.232 39.7668L431.817 41.7232ZM436.509 42.2C440.628 42.2 444.005 40.9326 446.524 38.3189L445.084 36.9311C443.009 39.084 440.19 40.2 436.509 40.2V42.2ZM446.518 38.3256C449.104 35.6911 450.314 31.8657 450.314 27.03H448.314C448.314 31.5543 447.184 34.7923 445.09 36.9244L446.518 38.3256ZM450.314 27.03C450.314 26.232 450.292 25.3499 450.248 24.3846L448.25 24.4754C448.293 25.4168 448.314 26.268 448.314 27.03H450.314ZM450.248 24.3846C450.203 23.3858 450.089 22.3879 449.908 21.3911L447.94 21.7489C448.106 22.6588 448.209 23.5675 448.25 24.4754L450.248 24.3846ZM448.234 22.2934L451.094 25.0234L452.475 23.5766L449.615 20.8466L448.234 22.2934ZM450.867 23.9004C450.188 25.4593 449.235 26.7668 448.007 27.8359L449.321 29.3441C450.78 28.0732 451.907 26.5207 452.701 24.6996L450.867 23.9004ZM448.021 27.8238C446.779 28.8658 445.329 29.674 443.661 30.2437L444.307 32.1363C446.192 31.4927 447.862 30.5676 449.307 29.3562L448.021 27.8238ZM443.682 30.2368C442.019 30.764 440.13 31.035 438.004 31.035V33.035C440.298 33.035 442.396 32.7427 444.286 32.1432L443.682 30.2368ZM438.004 31.035C435.239 31.035 432.748 30.4789 430.515 29.3823L429.633 31.1777C432.166 32.4211 434.962 33.035 438.004 33.035V31.035ZM430.521 29.3856C428.332 28.2909 426.58 26.7585 425.249 24.7814L423.59 25.8986C425.118 28.1682 427.136 29.9291 429.627 31.1744L430.521 29.3856ZM425.256 24.7932C423.989 22.8527 423.339 20.5564 423.339 17.865H421.339C421.339 20.8936 422.076 23.5807 423.582 25.8868L425.256 24.7932ZM423.339 17.865C423.339 14.9135 424.054 12.4281 425.444 10.3634L423.784 9.24662C422.141 11.6886 421.339 14.5765 421.339 17.865H423.339ZM425.436 10.3742C426.891 8.27356 428.83 6.65322 431.277 5.51118L430.431 3.69881C427.678 4.98344 425.458 6.82977 423.792 9.23579L425.436 10.3742ZM431.283 5.50813C433.782 4.32028 436.537 3.72 439.564 3.72V1.72C436.264 1.72 433.213 2.37638 430.425 3.70186L431.283 5.50813ZM440.214 9.585C438.573 9.585 437.093 9.89005 435.802 10.5356L436.696 12.3244C437.659 11.8433 438.821 11.585 440.214 11.585V9.585ZM435.83 10.522C434.529 11.1226 433.491 12.0329 432.736 13.24L434.432 14.3C434.978 13.4271 435.716 12.7774 436.668 12.338L435.83 10.522ZM432.746 13.2237C431.974 14.4083 431.609 15.7971 431.609 17.345H433.609C433.609 16.1195 433.894 15.125 434.422 14.3163L432.746 13.2237ZM431.609 17.345C431.609 19.6723 432.397 21.6224 434.018 23.091L435.361 21.609C434.208 20.5642 433.609 19.1777 433.609 17.345H431.609ZM434.042 23.1125C435.694 24.5143 437.828 25.17 440.344 25.17V23.17C438.18 23.17 436.544 22.6124 435.336 21.5875L434.042 23.1125ZM440.344 25.17C441.986 25.17 443.482 24.8646 444.808 24.226L443.94 22.424C442.927 22.9121 441.736 23.17 440.344 23.17V25.17ZM444.821 24.2194C446.181 23.5395 447.259 22.5973 448.017 21.385L446.321 20.325C445.779 21.1927 444.994 21.8972 443.927 22.4306L444.821 24.2194ZM448.017 21.385C448.772 20.1764 449.144 18.8207 449.144 17.345H447.144C447.144 18.4693 446.866 19.4536 446.321 20.325L448.017 21.385ZM449.144 17.345C449.144 15.8697 448.772 14.5279 448.007 13.3537L446.331 14.4463C446.866 15.2655 447.144 16.2203 447.144 17.345H449.144ZM448.033 13.3961C447.318 12.1702 446.273 11.2367 444.938 10.594L444.07 12.396C445.075 12.8799 445.807 13.5498 446.305 14.4039L448.033 13.3961ZM444.964 10.6072C443.618 9.90896 442.02 9.585 440.214 9.585V11.585C441.788 11.585 443.05 11.8677 444.044 12.3828L444.964 10.6072ZM474.451 47.05L473.916 47.8952L473.925 47.9008L474.451 47.05ZM467.496 38.99L466.595 39.4238L467.496 38.99ZM467.496 13.51L468.397 13.9438L467.496 13.51ZM474.451 5.515L474.976 6.36584L474.985 6.36019L474.451 5.515ZM494.471 5.515L493.931 6.35658L493.938 6.36125L493.945 6.3658L494.471 5.515ZM501.426 13.51L500.525 13.9438V13.9438L501.426 13.51ZM501.426 38.99L500.525 38.5562L501.426 38.99ZM494.471 47.05L495.002 47.8973L495.005 47.8952L494.471 47.05ZM489.076 39.38L488.48 38.5769L488.474 38.5816L488.467 38.5864L489.076 39.38ZM492.196 34.635L491.255 34.2963L491.252 34.3047L491.249 34.3131L492.196 34.635ZM492.196 17.865L491.249 18.1869L491.252 18.1953L491.255 18.2037L492.196 17.865ZM489.076 13.12L488.467 13.9136L488.474 13.9184L488.48 13.9231L489.076 13.12ZM479.846 13.12L479.25 12.3169L479.244 12.3216L479.237 12.3264L479.846 13.12ZM476.726 17.865L475.785 17.5263L475.782 17.5347L475.779 17.5431L476.726 17.865ZM476.726 34.635L475.779 34.9569L475.782 34.9653L475.785 34.9737L476.726 34.635ZM479.846 39.38L479.237 40.1736L479.244 40.1784L479.25 40.1831L479.846 39.38ZM484.461 48.78C480.905 48.78 477.753 47.9142 474.976 46.1992L473.925 47.9008C477.042 49.8258 480.563 50.78 484.461 50.78V48.78ZM474.985 46.2048C472.215 44.453 470.015 41.9178 468.397 38.5562L466.595 39.4238C468.356 43.0822 470.793 45.9203 473.916 47.8952L474.985 46.2048ZM468.397 38.5562C466.788 35.2138 465.961 31.1237 465.961 26.25H463.961C463.961 31.343 464.824 35.7462 466.595 39.4238L468.397 38.5562ZM465.961 26.25C465.961 21.3763 466.788 17.2862 468.397 13.9438L466.595 13.0762C464.824 16.7538 463.961 21.157 463.961 26.25H465.961ZM468.397 13.9438C470.015 10.5837 472.212 8.07333 474.976 6.3658L473.925 4.6642C470.797 6.59667 468.357 9.41632 466.595 13.0762L468.397 13.9438ZM474.985 6.36019C477.761 4.60502 480.91 3.72 484.461 3.72V1.72C480.559 1.72 477.034 2.69831 473.916 4.6698L474.985 6.36019ZM484.461 3.72C488.058 3.72 491.203 4.60623 493.931 6.35658L495.011 4.67341C491.932 2.69711 488.404 1.72 484.461 1.72V3.72ZM493.945 6.3658C496.71 8.07333 498.907 10.5837 500.525 13.9438L502.327 13.0762C500.565 9.41632 498.125 6.59667 494.996 4.6642L493.945 6.3658ZM500.525 13.9438C502.134 17.2862 502.961 21.3763 502.961 26.25H504.961C504.961 21.157 504.098 16.7538 502.327 13.0762L500.525 13.9438ZM502.961 26.25C502.961 31.1237 502.134 35.2138 500.525 38.5562L502.327 39.4238C504.098 35.7462 504.961 31.343 504.961 26.25H502.961ZM500.525 38.5562C498.906 41.9178 496.707 44.453 493.936 46.2048L495.005 47.8952C498.128 45.9203 500.565 43.0822 502.327 39.4238L500.525 38.5562ZM493.94 46.2027C491.211 47.9131 488.062 48.78 484.461 48.78V50.78C488.399 50.78 491.924 49.8269 495.002 47.8973L493.94 46.2027ZM484.461 41.875C486.438 41.875 488.195 41.3157 489.684 40.1736L488.467 38.5864C487.357 39.4377 486.037 39.875 484.461 39.875V41.875ZM489.672 40.1831C491.228 39.0282 492.364 37.2469 493.143 34.9569L491.249 34.3131C490.554 36.3565 489.61 37.7384 488.48 38.5769L489.672 40.1831ZM493.137 34.9737C493.97 32.6592 494.366 29.7381 494.366 26.25H492.366C492.366 29.6086 491.982 32.2775 491.255 34.2963L493.137 34.9737ZM494.366 26.25C494.366 22.7619 493.97 19.8408 493.137 17.5263L491.255 18.2037C491.982 20.2225 492.366 22.8914 492.366 26.25H494.366ZM493.143 17.5431C492.364 15.2531 491.228 13.4718 489.672 12.3169L488.48 13.9231C489.61 14.7616 490.554 16.1435 491.249 18.1869L493.143 17.5431ZM489.684 12.3264C488.195 11.1843 486.438 10.625 484.461 10.625V12.625C486.037 12.625 487.357 13.0623 488.467 13.9136L489.684 12.3264ZM484.461 10.625C482.521 10.625 480.772 11.1875 479.25 12.3169L480.442 13.9231C481.606 13.0592 482.934 12.625 484.461 12.625V10.625ZM479.237 12.3264C477.735 13.478 476.605 15.2494 475.785 17.5263L477.667 18.2037C478.407 16.1473 479.356 14.7553 480.454 13.9136L479.237 12.3264ZM475.779 17.5431C474.994 19.8513 474.621 22.766 474.621 26.25H476.621C476.621 22.8874 476.984 20.2121 477.673 18.1869L475.779 17.5431ZM474.621 26.25C474.621 29.734 474.994 32.6487 475.779 34.9569L477.673 34.3131C476.984 32.2879 476.621 29.6126 476.621 26.25H474.621ZM475.785 34.9737C476.605 37.2506 477.735 39.022 479.237 40.1736L480.454 38.5864C479.356 37.7447 478.407 36.3527 477.667 34.2963L475.785 34.9737ZM479.25 40.1831C480.772 41.3125 482.521 41.875 484.461 41.875V39.875C482.934 39.875 481.606 39.4408 480.442 38.5769L479.25 40.1831ZM510.112 34.765H509.112V35.765H510.112V34.765ZM510.112 26.64V25.64H509.112V26.64H510.112ZM528.507 26.64H529.507V25.64H528.507V26.64ZM528.507 34.765V35.765H529.507V34.765H528.507ZM511.112 34.765V26.64H509.112V34.765H511.112ZM510.112 27.64H528.507V25.64H510.112V27.64ZM527.507 26.64V34.765H529.507V26.64H527.507ZM528.507 33.765H510.112V35.765H528.507V33.765ZM544.021 47.05L543.487 47.8952L543.496 47.9008L544.021 47.05ZM537.066 38.99L536.165 39.4238L537.066 38.99ZM537.066 13.51L537.967 13.9438L537.066 13.51ZM544.021 5.515L544.547 6.36584L544.556 6.36019L544.021 5.515ZM564.041 5.515L563.501 6.35658L563.508 6.36125L563.516 6.3658L564.041 5.515ZM570.996 13.51L570.095 13.9438V13.9438L570.996 13.51ZM570.996 38.99L570.095 38.5562L570.996 38.99ZM564.041 47.05L564.572 47.8973L564.576 47.8952L564.041 47.05ZM558.646 39.38L558.05 38.5769L558.044 38.5816L558.038 38.5864L558.646 39.38ZM561.766 34.635L560.825 34.2963L560.822 34.3047L560.819 34.3131L561.766 34.635ZM561.766 17.865L560.819 18.1869L560.822 18.1953L560.825 18.2037L561.766 17.865ZM558.646 13.12L558.038 13.9136L558.044 13.9184L558.05 13.9231L558.646 13.12ZM549.416 13.12L548.82 12.3169L548.814 12.3216L548.808 12.3264L549.416 13.12ZM546.296 17.865L545.355 17.5263L545.352 17.5347L545.349 17.5431L546.296 17.865ZM546.296 34.635L545.349 34.9569L545.352 34.9653L545.355 34.9737L546.296 34.635ZM549.416 39.38L548.808 40.1736L548.814 40.1784L548.82 40.1831L549.416 39.38ZM554.031 48.78C550.475 48.78 547.323 47.9142 544.547 46.1992L543.496 47.9008C546.612 49.8258 550.133 50.78 554.031 50.78V48.78ZM544.556 46.2048C541.785 44.453 539.586 41.9178 537.967 38.5562L536.165 39.4238C537.927 43.0822 540.364 45.9203 543.487 47.8952L544.556 46.2048ZM537.967 38.5562C536.358 35.2138 535.531 31.1237 535.531 26.25H533.531C533.531 31.343 534.394 35.7462 536.165 39.4238L537.967 38.5562ZM535.531 26.25C535.531 21.3763 536.358 17.2862 537.967 13.9438L536.165 13.0762C534.394 16.7538 533.531 21.157 533.531 26.25H535.531ZM537.967 13.9438C539.585 10.5837 541.782 8.07333 544.547 6.3658L543.496 4.6642C540.367 6.59667 537.927 9.41632 536.165 13.0762L537.967 13.9438ZM544.556 6.36019C547.331 4.60502 550.48 3.72 554.031 3.72V1.72C550.129 1.72 546.604 2.69831 543.487 4.6698L544.556 6.36019ZM554.031 3.72C557.628 3.72 560.774 4.60623 563.501 6.35658L564.581 4.67341C561.502 2.69711 557.974 1.72 554.031 1.72V3.72ZM563.516 6.3658C566.28 8.07333 568.477 10.5837 570.095 13.9438L571.897 13.0762C570.135 9.41632 567.695 6.59667 564.567 4.6642L563.516 6.3658ZM570.095 13.9438C571.704 17.2862 572.531 21.3763 572.531 26.25H574.531C574.531 21.157 573.668 16.7538 571.897 13.0762L570.095 13.9438ZM572.531 26.25C572.531 31.1237 571.704 35.2138 570.095 38.5562L571.897 39.4238C573.668 35.7462 574.531 31.343 574.531 26.25H572.531ZM570.095 38.5562C568.477 41.9178 566.277 44.453 563.507 46.2048L564.576 47.8952C567.699 45.9203 570.136 43.0822 571.897 39.4238L570.095 38.5562ZM563.51 46.2027C560.782 47.9131 557.633 48.78 554.031 48.78V50.78C557.969 50.78 561.494 49.8269 564.572 47.8973L563.51 46.2027ZM554.031 41.875C556.008 41.875 557.765 41.3157 559.255 40.1736L558.038 38.5864C556.927 39.4377 555.608 39.875 554.031 39.875V41.875ZM559.242 40.1831C560.799 39.0282 561.934 37.2469 562.713 34.9569L560.819 34.3131C560.125 36.3565 559.18 37.7384 558.05 38.5769L559.242 40.1831ZM562.707 34.9737C563.54 32.6592 563.936 29.7381 563.936 26.25H561.936C561.936 29.6086 561.552 32.2775 560.825 34.2963L562.707 34.9737ZM563.936 26.25C563.936 22.7619 563.54 19.8408 562.707 17.5263L560.825 18.2037C561.552 20.2225 561.936 22.8914 561.936 26.25H563.936ZM562.713 17.5431C561.934 15.2531 560.799 13.4718 559.242 12.3169L558.05 13.9231C559.18 14.7616 560.125 16.1435 560.819 18.1869L562.713 17.5431ZM559.255 12.3264C557.765 11.1843 556.008 10.625 554.031 10.625V12.625C555.608 12.625 556.927 13.0623 558.038 13.9136L559.255 12.3264ZM554.031 10.625C552.091 10.625 550.343 11.1875 548.82 12.3169L550.012 13.9231C551.176 13.0592 552.504 12.625 554.031 12.625V10.625ZM548.808 12.3264C547.306 13.478 546.175 15.2494 545.355 17.5263L547.237 18.2037C547.977 16.1473 548.927 14.7553 550.025 13.9136L548.808 12.3264ZM545.349 17.5431C544.565 19.8513 544.191 22.766 544.191 26.25H546.191C546.191 22.8874 546.554 20.2121 547.243 18.1869L545.349 17.5431ZM544.191 26.25C544.191 29.734 544.565 32.6487 545.349 34.9569L547.243 34.3131C546.554 32.2879 546.191 29.6126 546.191 26.25H544.191ZM545.355 34.9737C546.175 37.2506 547.306 39.022 548.808 40.1736L550.025 38.5864C548.927 37.7447 547.977 36.3527 547.237 34.2963L545.355 34.9737ZM548.82 40.1831C550.343 41.3125 552.091 41.875 554.031 41.875V39.875C552.504 39.875 551.176 39.4408 550.012 38.5769L548.82 40.1831ZM605.492 5.32L605.988 4.45176V4.45175L605.492 5.32ZM612.512 12.925L611.616 13.3676L611.618 13.3722L612.512 12.925ZM611.992 38.6L611.115 38.1197L611.111 38.1278L611.992 38.6ZM603.867 46.92L604.349 47.7962L603.867 46.92ZM579.167 46.66L578.274 46.2098L577.871 47.0108L578.623 47.499L579.167 46.66ZM583.067 38.925L583.635 38.1018L582.691 37.4506L582.174 38.4748L583.067 38.925ZM587.097 40.745L586.862 41.7169L586.876 41.7202L586.89 41.7232L587.097 40.745ZM600.877 37.625L600.164 36.9244L600.157 36.9311L600.877 37.625ZM604.322 24.43L603.323 24.4754L604.322 24.43ZM603.997 21.57L604.688 20.8466L602.463 18.7233L603.013 21.7489L603.997 21.57ZM606.857 24.3L607.774 24.6996L608.053 24.0591L607.548 23.5766L606.857 24.3ZM603.737 28.59L604.38 29.3562L604.387 29.3502L604.394 29.3441L603.737 28.59ZM599.057 31.19L599.36 32.1432L599.37 32.1399L599.38 32.1363L599.057 31.19ZM585.147 30.28L584.7 31.1744L584.707 31.1777L585.147 30.28ZM579.492 25.34L578.655 25.8868L578.659 25.8927L578.663 25.8986L579.492 25.34ZM579.687 9.805L578.865 9.23574L578.858 9.24662L579.687 9.805ZM585.927 4.605L586.35 5.5112L586.357 5.50813L585.927 4.605ZM591.322 11.43L591.741 12.338L591.756 12.3314L591.77 12.3244L591.322 11.43ZM588.657 13.77L589.495 14.3163L589.5 14.3082L589.505 14.3L588.657 13.77ZM589.762 22.35L589.091 23.091L589.103 23.1019L589.115 23.1125L589.762 22.35ZM599.447 23.325L599.881 24.226L599.888 24.2228L599.895 24.2194L599.447 23.325ZM602.242 20.855L601.394 20.325V20.325L602.242 20.855ZM602.242 13.9L601.379 14.4039L601.391 14.4254L601.405 14.4463L602.242 13.9ZM599.577 11.495L599.117 12.3828L599.13 12.3896L599.143 12.396L599.577 11.495ZM594.637 3.72C598.702 3.72 602.142 4.55723 604.996 6.18824L605.988 4.45175C602.776 2.6161 598.979 1.72 594.637 1.72V3.72ZM604.996 6.18824C607.845 7.81619 610.051 10.1973 611.616 13.3675L613.409 12.4825C611.68 8.97937 609.206 6.29047 605.988 4.45176L604.996 6.18824ZM611.618 13.3722C613.176 16.4876 613.982 20.4396 613.982 25.275H615.982C615.982 20.2304 615.142 15.9491 613.407 12.4778L611.618 13.3722ZM613.982 25.275C613.982 30.3938 613.009 34.6608 611.115 38.1197L612.869 39.0803C614.962 35.2592 615.982 30.6429 615.982 25.275H613.982ZM611.111 38.1278C609.248 41.6052 606.675 44.2345 603.385 46.0438L604.349 47.7962C607.993 45.7922 610.837 42.8748 612.874 39.0722L611.111 38.1278ZM603.385 46.0438C600.089 47.857 596.229 48.78 591.777 48.78V50.78C596.512 50.78 600.713 49.7963 604.349 47.7962L603.385 46.0438ZM591.777 48.78C589.467 48.78 587.248 48.5281 585.116 48.0266L584.658 49.9734C586.947 50.5119 589.321 50.78 591.777 50.78V48.78ZM585.116 48.0266C582.998 47.5281 581.202 46.7879 579.711 45.821L578.623 47.499C580.339 48.6121 582.357 49.4319 584.658 49.9734L585.116 48.0266ZM580.06 47.1102L583.96 39.3752L582.174 38.4748L578.274 46.2098L580.06 47.1102ZM582.5 39.7482C583.853 40.6817 585.308 41.3403 586.862 41.7169L587.333 39.7731C586.026 39.4564 584.795 38.9017 583.635 38.1018L582.5 39.7482ZM586.89 41.7232C588.392 42.042 589.957 42.2 591.582 42.2V40.2C590.087 40.2 588.662 40.0547 587.305 39.7668L586.89 41.7232ZM591.582 42.2C595.701 42.2 599.079 40.9326 601.597 38.3189L600.157 36.9311C598.083 39.084 595.263 40.2 591.582 40.2V42.2ZM601.591 38.3256C604.177 35.6911 605.387 31.8657 605.387 27.03H603.387C603.387 31.5543 602.257 34.7923 600.164 36.9244L601.591 38.3256ZM605.387 27.03C605.387 26.232 605.365 25.3499 605.321 24.3846L603.323 24.4754C603.366 25.4168 603.387 26.268 603.387 27.03H605.387ZM605.321 24.3846C605.276 23.3858 605.162 22.3879 604.981 21.3911L603.013 21.7489C603.179 22.6588 603.282 23.5675 603.323 24.4754L605.321 24.3846ZM603.307 22.2934L606.167 25.0234L607.548 23.5766L604.688 20.8466L603.307 22.2934ZM605.941 23.9004C605.261 25.4593 604.308 26.7668 603.081 27.8359L604.394 29.3441C605.853 28.0732 606.98 26.5207 607.774 24.6996L605.941 23.9004ZM603.095 27.8238C601.852 28.8658 600.402 29.674 598.734 30.2437L599.38 32.1363C601.266 31.4927 602.936 30.5676 604.38 29.3562L603.095 27.8238ZM598.755 30.2368C597.092 30.764 595.203 31.035 593.077 31.035V33.035C595.371 33.035 597.469 32.7427 599.36 32.1432L598.755 30.2368ZM593.077 31.035C590.312 31.035 587.822 30.4789 585.588 29.3823L584.707 31.1777C587.24 32.4211 590.036 33.035 593.077 33.035V31.035ZM585.595 29.3856C583.405 28.2909 581.653 26.7585 580.322 24.7814L578.663 25.8986C580.191 28.1682 582.209 29.9291 584.7 31.1744L585.595 29.3856ZM580.33 24.7932C579.062 22.8527 578.412 20.5564 578.412 17.865H576.412C576.412 20.8936 577.149 23.5807 578.655 25.8868L580.33 24.7932ZM578.412 17.865C578.412 14.9135 579.127 12.4281 580.517 10.3634L578.858 9.24662C577.214 11.6886 576.412 14.5765 576.412 17.865H578.412ZM580.51 10.3742C581.964 8.27356 583.903 6.65322 586.35 5.51118L585.504 3.69881C582.752 4.98344 580.531 6.82977 578.865 9.23579L580.51 10.3742ZM586.357 5.50813C588.855 4.32028 591.61 3.72 594.637 3.72V1.72C591.338 1.72 588.286 2.37638 585.498 3.70186L586.357 5.50813ZM595.287 9.585C593.647 9.585 592.166 9.89005 590.875 10.5356L591.77 12.3244C592.732 11.8433 593.895 11.585 595.287 11.585V9.585ZM590.903 10.522C589.602 11.1226 588.564 12.0329 587.809 13.24L589.505 14.3C590.051 13.4271 590.789 12.7774 591.741 12.338L590.903 10.522ZM587.82 13.2237C587.047 14.4083 586.682 15.7971 586.682 17.345H588.682C588.682 16.1195 588.967 15.125 589.495 14.3163L587.82 13.2237ZM586.682 17.345C586.682 19.6723 587.47 21.6224 589.091 23.091L590.434 21.609C589.281 20.5642 588.682 19.1777 588.682 17.345H586.682ZM589.115 23.1125C590.767 24.5143 592.901 25.17 595.417 25.17V23.17C593.254 23.17 591.617 22.6124 590.409 21.5875L589.115 23.1125ZM595.417 25.17C597.059 25.17 598.555 24.8646 599.881 24.226L599.013 22.424C598 22.9121 596.809 23.17 595.417 23.17V25.17ZM599.895 24.2194C601.254 23.5395 602.333 22.5973 603.09 21.385L601.394 20.325C600.852 21.1927 600.067 21.8972 599 22.4306L599.895 24.2194ZM603.09 21.385C603.846 20.1764 604.217 18.8207 604.217 17.345H602.217C602.217 18.4693 601.939 19.4536 601.394 20.325L603.09 21.385ZM604.217 17.345C604.217 15.8697 603.846 14.5279 603.08 13.3537L601.405 14.4463C601.939 15.2655 602.217 16.2203 602.217 17.345H604.217ZM603.106 13.3961C602.391 12.1702 601.346 11.2367 600.011 10.594L599.143 12.396C600.149 12.8799 600.88 13.5498 601.379 14.4039L603.106 13.3961ZM600.038 10.6072C598.691 9.90896 597.094 9.585 595.287 9.585V11.585C596.861 11.585 598.124 11.8677 599.117 12.3828L600.038 10.6072Z" fill="#02735E"/>
</svg>
