<svg width="611" height="62" viewBox="0 0 611 62" fill="none" xmlns="http://www.w3.org/2000/svg">
<path d="M11.275 41.265H10.275V42.265H11.275V41.265ZM11.275 11.235V10.235H10.275V11.235H11.275ZM19.66 11.235H20.66V10.235H19.66V11.235ZM19.66 41.265V42.265H20.66V41.265H19.66ZM0.0300002 30.215H-0.97V31.215H0.0300002V30.215ZM0.0300002 22.285V21.285H-0.97V22.285H0.0300002ZM30.97 22.285H31.97V21.285H30.97V22.285ZM30.97 30.215V31.215H31.97V30.215H30.97ZM12.275 41.265V11.235H10.275V41.265H12.275ZM11.275 12.235H19.66V10.235H11.275V12.235ZM18.66 11.235V41.265H20.66V11.235H18.66ZM19.66 40.265H11.275V42.265H19.66V40.265ZM1.03 30.215V22.285H-0.97V30.215H1.03ZM0.0300002 23.285H30.97V21.285H0.0300002V23.285ZM29.97 22.285V30.215H31.97V22.285H29.97ZM30.97 29.215H0.0300002V31.215H30.97V29.215ZM44.0914 49L43.1767 48.5957L42.556 50H44.0914V49ZM62.4214 7.53L63.2789 7.0155L62.2865 5.36157L61.5067 7.12572L62.4214 7.53ZM65.1514 12.08V13.08H66.9176L66.0089 11.5655L65.1514 12.08ZM40.6464 12.08L39.9204 11.3923L38.3215 13.08H40.6464V12.08ZM45.3264 7.14H46.3264V4.63041L44.6004 6.45225L45.3264 7.14ZM45.3264 19.49V20.49H46.3264V19.49H45.3264ZM35.9664 19.49H34.9664V20.49H35.9664V19.49ZM35.9664 3.5V2.5H34.9664V3.5H35.9664ZM72.4314 3.5H73.4314V2.5H72.4314V3.5ZM72.4314 10.325L73.3477 10.7254L73.4314 10.5339V10.325H72.4314ZM55.5314 49V50H56.1857L56.4477 49.4004L55.5314 49ZM45.006 49.4043L63.336 7.93427L61.5067 7.12572L43.1767 48.5957L45.006 49.4043ZM61.5639 8.04449L64.2939 12.5945L66.0089 11.5655L63.2789 7.0155L61.5639 8.04449ZM65.1514 11.08H40.6464V13.08H65.1514V11.08ZM41.3723 12.7677L46.0523 7.82774L44.6004 6.45225L39.9204 11.3923L41.3723 12.7677ZM44.3264 7.14V19.49H46.3264V7.14H44.3264ZM45.3264 18.49H35.9664V20.49H45.3264V18.49ZM36.9664 19.49V3.5H34.9664V19.49H36.9664ZM35.9664 4.5H72.4314V2.5H35.9664V4.5ZM71.4314 3.5V10.325H73.4314V3.5H71.4314ZM71.515 9.92458L54.615 48.5996L56.4477 49.4004L73.3477 10.7254L71.515 9.92458ZM55.5314 48H44.0914V50H55.5314V48ZM105.862 61.61L105.027 62.1605L105.324 62.61H105.862V61.61ZM99.8172 47.96L98.8509 48.2177L98.8536 48.2272L99.8172 47.96ZM99.8172 14.42L98.8524 14.1569L98.851 14.1623L99.8172 14.42ZM105.862 0.769997V-0.230003H105.33L105.033 0.211004L105.862 0.769997ZM115.547 0.769997L116.421 1.25695L117.25 -0.230003H115.547V0.769997ZM109.567 15.59L110.536 15.8365L110.537 15.8345L109.567 15.59ZM109.567 46.855L108.598 47.0995L108.598 47.1015L109.567 46.855ZM115.547 61.61V62.61H117.25L116.421 61.123L115.547 61.61ZM106.697 61.0595C104.162 57.214 102.187 52.7621 100.781 47.6928L98.8536 48.2272C100.308 53.4713 102.363 58.1193 105.027 62.1605L106.697 61.0595ZM100.783 47.7023C99.4215 42.5951 98.7372 37.0925 98.7372 31.19H96.7372C96.7372 37.2475 97.4395 42.9249 98.851 48.2177L100.783 47.7023ZM98.7372 31.19C98.7372 25.2875 99.4215 19.7849 100.783 14.6777L98.851 14.1623C97.4395 19.4551 96.7372 25.1325 96.7372 31.19H98.7372ZM100.782 14.6831C102.188 9.5278 104.162 5.0813 106.691 1.32899L105.033 0.211004C102.363 4.17203 100.306 8.82553 98.8524 14.1569L100.782 14.6831ZM105.862 1.77H115.547V-0.230003H105.862V1.77ZM114.674 0.283042C111.905 5.24912 109.877 10.2702 108.598 15.3455L110.537 15.8345C111.77 10.9431 113.729 6.08422 116.421 1.25695L114.674 0.283042ZM108.598 15.3435C107.319 20.3695 106.682 25.6527 106.682 31.19H108.682C108.682 25.8073 109.302 20.6905 110.536 15.8365L108.598 15.3435ZM106.682 31.19C106.682 36.7273 107.32 42.0314 108.598 47.0995L110.537 46.6105C109.302 41.7119 108.682 36.5727 108.682 31.19H106.682ZM108.598 47.1015C109.878 52.1334 111.906 57.1321 114.674 62.097L116.421 61.123C113.729 56.2946 111.77 51.4566 110.536 46.6085L108.598 47.1015ZM115.547 60.61H105.862V62.61H115.547V60.61ZM116.97 39.445H115.97V40.445H116.97V39.445ZM116.97 32.36L116.167 31.7635L115.97 32.0291V32.36H116.97ZM138.42 3.5V2.5H137.917L137.617 2.90347L138.42 3.5ZM149.47 3.5L150.279 4.08828L151.434 2.5H149.47V3.5ZM128.475 32.36L128.196 33.3201L128.87 33.5166L129.284 32.9483L128.475 32.36ZM123.34 30.865V29.865L123.061 31.8251L123.34 30.865ZM159.155 30.865H160.155V29.865H159.155V30.865ZM159.155 39.445V40.445H160.155V39.445H159.155ZM141.475 49H140.475V50H141.475V49ZM141.475 39.445L140.476 39.4072L140.475 39.4261V39.445H141.475ZM141.8 30.865L142.799 30.9029L142.8 30.8839V30.865H141.8ZM141.8 22.35V21.35H140.8V22.35H141.8ZM151.745 22.35H152.745V21.35H151.745V22.35ZM151.745 49V50H152.745V49H151.745ZM117.97 39.445V32.36H115.97V39.445H117.97ZM117.773 32.9565L139.223 4.09652L137.617 2.90347L116.167 31.7635L117.773 32.9565ZM138.42 4.5H149.47V2.5H138.42V4.5ZM148.661 2.91172L127.666 31.7717L129.284 32.9483L150.279 4.08828L148.661 2.91172ZM128.755 31.3999L123.62 29.9049L123.061 31.8251L128.196 33.3201L128.755 31.3999ZM123.34 31.865H159.155V29.865H123.34V31.865ZM158.155 30.865V39.445H160.155V30.865H158.155ZM159.155 38.445H116.97V40.445H159.155V38.445ZM142.475 49V39.445H140.475V49H142.475ZM142.474 39.4829L142.799 30.9029L140.801 30.8271L140.476 39.4072L142.474 39.4829ZM142.8 30.865V22.35H140.8V30.865H142.8ZM141.8 23.35H151.745V21.35H141.8V23.35ZM150.745 22.35V49H152.745V22.35H150.745ZM151.745 48H141.475V50H151.745V48ZM188.959 5.32L189.455 4.45175L188.959 5.32ZM195.979 12.925L195.082 13.3676L195.085 13.3722L195.979 12.925ZM195.459 38.6L194.582 38.1197L194.578 38.1278L195.459 38.6ZM187.334 46.92L187.816 47.7962L187.334 46.92ZM162.634 46.66L161.741 46.2098L161.337 47.0108L162.09 47.499L162.634 46.66ZM166.534 38.925L167.102 38.1018L166.158 37.4506L165.641 38.4748L166.534 38.925ZM170.564 40.745L170.329 41.7169L170.342 41.7202L170.357 41.7232L170.564 40.745ZM184.344 37.625L183.631 36.9244L183.624 36.9311L184.344 37.625ZM187.789 24.43L186.79 24.4754L187.789 24.43ZM187.464 21.57L188.155 20.8466L185.93 18.7233L186.48 21.7489L187.464 21.57ZM190.324 24.3L191.241 24.6996L191.52 24.0591L191.015 23.5766L190.324 24.3ZM187.204 28.59L187.847 29.3562L187.854 29.3502L187.861 29.3441L187.204 28.59ZM182.524 31.19L182.826 32.1432L182.837 32.1399L182.847 32.1363L182.524 31.19ZM168.614 30.28L168.167 31.1744L168.173 31.1777L168.614 30.28ZM162.959 25.34L162.122 25.8868L162.126 25.8927L162.13 25.8986L162.959 25.34ZM163.154 9.805L162.332 9.23574L162.325 9.24662L163.154 9.805ZM169.394 4.605L169.817 5.5112L169.823 5.50813L169.394 4.605ZM174.789 11.43L175.208 12.338L175.222 12.3314L175.236 12.3244L174.789 11.43ZM172.124 13.77L172.962 14.3163L172.967 14.3082L172.972 14.3L172.124 13.77ZM173.229 22.35L172.558 23.091L172.57 23.1019L172.582 23.1125L173.229 22.35ZM182.914 23.325L183.348 24.226L183.355 24.2228L183.361 24.2194L182.914 23.325ZM185.709 20.855L184.861 20.325V20.325L185.709 20.855ZM185.709 13.9L184.845 14.4039L184.858 14.4254L184.871 14.4463L185.709 13.9ZM183.044 11.495L182.584 12.3828L182.597 12.3896L182.61 12.396L183.044 11.495ZM178.104 3.72C182.169 3.72 185.609 4.55723 188.463 6.18824L189.455 4.45175C186.243 2.6161 182.446 1.72 178.104 1.72V3.72ZM188.463 6.18824C191.312 7.81619 193.518 10.1973 195.082 13.3675L196.876 12.4825C195.147 8.97938 192.673 6.29047 189.455 4.45175L188.463 6.18824ZM195.085 13.3722C196.642 16.4876 197.449 20.4396 197.449 25.275H199.449C199.449 20.2303 198.609 15.9491 196.874 12.4778L195.085 13.3722ZM197.449 25.275C197.449 30.3938 196.476 34.6608 194.582 38.1197L196.336 39.0803C198.429 35.2592 199.449 30.6429 199.449 25.275H197.449ZM194.578 38.1278C192.715 41.6052 190.142 44.2345 186.852 46.0438L187.816 47.7962C191.46 45.7921 194.303 42.8748 196.341 39.0722L194.578 38.1278ZM186.852 46.0438C183.555 47.857 179.696 48.78 175.244 48.78V50.78C179.979 50.78 184.179 49.7963 187.816 47.7962L186.852 46.0438ZM175.244 48.78C172.934 48.78 170.714 48.5281 168.583 48.0266L168.125 49.9734C170.414 50.5119 172.787 50.78 175.244 50.78V48.78ZM168.583 48.0266C166.465 47.5281 164.669 46.7879 163.178 45.821L162.09 47.499C163.806 48.6121 165.824 49.4319 168.125 49.9734L168.583 48.0266ZM163.527 47.1102L167.427 39.3752L165.641 38.4748L161.741 46.2098L163.527 47.1102ZM165.966 39.7482C167.32 40.6817 168.775 41.3403 170.329 41.7169L170.8 39.7732C169.493 39.4564 168.262 38.9017 167.102 38.1018L165.966 39.7482ZM170.357 41.7232C171.859 42.042 173.424 42.2 175.049 42.2V40.2C173.554 40.2 172.129 40.0547 170.772 39.7668L170.357 41.7232ZM175.049 42.2C179.168 42.2 182.546 40.9326 185.064 38.3189L183.624 36.9311C181.549 39.084 178.73 40.2 175.049 40.2V42.2ZM185.058 38.3256C187.644 35.6911 188.854 31.8657 188.854 27.03H186.854C186.854 31.5543 185.724 34.7923 183.631 36.9244L185.058 38.3256ZM188.854 27.03C188.854 26.232 188.832 25.3499 188.788 24.3846L186.79 24.4754C186.833 25.4168 186.854 26.268 186.854 27.03H188.854ZM188.788 24.3846C188.743 23.3858 188.629 22.3879 188.448 21.3911L186.48 21.7489C186.646 22.6588 186.749 23.5675 186.79 24.4754L188.788 24.3846ZM186.774 22.2934L189.634 25.0234L191.015 23.5766L188.155 20.8466L186.774 22.2934ZM189.407 23.9004C188.728 25.4593 187.775 26.7668 186.547 27.8359L187.861 29.3441C189.32 28.0732 190.447 26.5207 191.241 24.6996L189.407 23.9004ZM186.561 27.8238C185.319 28.8658 183.869 29.674 182.201 30.2436L182.847 32.1363C184.732 31.4927 186.402 30.5676 187.847 29.3562L186.561 27.8238ZM182.222 30.2368C180.559 30.764 178.67 31.035 176.544 31.035V33.035C178.838 33.035 180.936 32.7427 182.826 32.1432L182.222 30.2368ZM176.544 31.035C173.779 31.035 171.288 30.4789 169.055 29.3823L168.173 31.1777C170.706 32.4211 173.503 33.035 176.544 33.035V31.035ZM169.061 29.3856C166.872 28.2909 165.12 26.7585 163.789 24.7814L162.13 25.8986C163.658 28.1682 165.676 29.9291 168.167 31.1744L169.061 29.3856ZM163.796 24.7932C162.529 22.8527 161.879 20.5564 161.879 17.865H159.879C159.879 20.8936 160.616 23.5807 162.122 25.8868L163.796 24.7932ZM161.879 17.865C161.879 14.9135 162.594 12.4281 163.984 10.3634L162.325 9.24662C160.681 11.6886 159.879 14.5765 159.879 17.865H161.879ZM163.976 10.3742C165.431 8.27356 167.37 6.65323 169.817 5.51118L168.971 3.69881C166.218 4.98344 163.998 6.82977 162.332 9.23579L163.976 10.3742ZM169.823 5.50813C172.322 4.32028 175.077 3.72 178.104 3.72V1.72C174.804 1.72 171.753 2.37638 168.965 3.70186L169.823 5.50813ZM178.754 9.585C177.114 9.585 175.633 9.89004 174.342 10.5356L175.236 12.3244C176.199 11.8433 177.361 11.585 178.754 11.585V9.585ZM174.37 10.522C173.069 11.1226 172.031 12.0329 171.276 13.24L172.972 14.3C173.518 13.4271 174.256 12.7774 175.208 12.338L174.37 10.522ZM171.286 13.2237C170.514 14.4083 170.149 15.7971 170.149 17.345H172.149C172.149 16.1195 172.434 15.125 172.962 14.3163L171.286 13.2237ZM170.149 17.345C170.149 19.6723 170.937 21.6224 172.558 23.091L173.901 21.609C172.748 20.5642 172.149 19.1777 172.149 17.345H170.149ZM172.582 23.1125C174.234 24.5143 176.368 25.17 178.884 25.17V23.17C176.721 23.17 175.084 22.6124 173.876 21.5875L172.582 23.1125ZM178.884 25.17C180.526 25.17 182.022 24.8646 183.348 24.226L182.48 22.424C181.467 22.9121 180.276 23.17 178.884 23.17V25.17ZM183.361 24.2194C184.721 23.5395 185.799 22.5973 186.557 21.385L184.861 20.325C184.319 21.1927 183.534 21.8972 182.467 22.4306L183.361 24.2194ZM186.557 21.385C187.312 20.1764 187.684 18.8207 187.684 17.345H185.684C185.684 18.4693 185.406 19.4536 184.861 20.325L186.557 21.385ZM187.684 17.345C187.684 15.8697 187.312 14.5279 186.547 13.3537L184.871 14.4463C185.406 15.2655 185.684 16.2203 185.684 17.345H187.684ZM186.573 13.3961C185.858 12.1702 184.813 11.2367 183.478 10.594L182.61 12.396C183.615 12.8799 184.347 13.5498 184.845 14.4039L186.573 13.3961ZM183.504 10.6072C182.158 9.90896 180.56 9.585 178.754 9.585V11.585C180.328 11.585 181.59 11.8677 182.584 12.3828L183.504 10.6072ZM209.546 48.545L209.275 49.5075L209.283 49.5098L209.291 49.5119L209.546 48.545ZM201.616 44.905L200.727 44.4464L200.328 45.2199L201.039 45.722L201.616 44.905ZM205.776 36.845L206.363 36.0354L205.421 35.3525L204.887 36.3864L205.776 36.845ZM211.756 39.835L211.445 40.7855L211.45 40.7872L211.756 39.835ZM224.951 39.38L225.516 40.2047L224.951 39.38ZM223.066 29.825L222.766 30.779L222.774 30.7813L223.066 29.825ZM204.996 29.11L204 29.019L203.9 30.11H204.996V29.11ZM207.336 3.5V2.5H206.423L206.34 3.40901L207.336 3.5ZM235.091 3.5H236.091V2.5H235.091V3.5ZM235.091 11.95V12.95H236.091V11.95H235.091ZM211.106 11.95L210.445 11.1996L208.458 12.95H211.106V11.95ZM216.566 7.14L217.562 7.22861L217.784 4.73432L215.905 6.38964L216.566 7.14ZM214.941 25.405L214.28 26.1554L215.762 27.461L215.937 25.4936L214.941 25.405ZM209.481 20.595V19.595H206.833L208.82 21.3454L209.481 20.595ZM229.956 22.48L229.538 23.3884L229.546 23.3923L229.555 23.3962L229.956 22.48ZM236.001 27.485L236.861 26.9757L236.001 27.485ZM235.871 42.175L236.73 42.6871L236.734 42.6799L235.871 42.175ZM229.631 47.7L230.078 48.5944L230.084 48.5917L229.631 47.7ZM218.971 48.78C215.895 48.78 212.839 48.3799 209.801 47.5781L209.291 49.5119C212.492 50.3568 215.72 50.78 218.971 50.78V48.78ZM209.817 47.5825C206.83 46.7411 204.295 45.5718 202.193 44.088L201.039 45.722C203.357 47.3582 206.108 48.6155 209.275 49.5075L209.817 47.5825ZM202.504 45.3636L206.664 37.3036L204.887 36.3864L200.727 44.4464L202.504 45.3636ZM205.189 37.6546C207.015 38.9785 209.103 40.02 211.445 40.7855L212.067 38.8845C209.902 38.1767 208.003 37.2248 206.363 36.0354L205.189 37.6546ZM211.45 40.7872C213.843 41.5546 216.264 41.94 218.711 41.94V39.94C216.478 39.94 214.262 39.5888 212.061 38.8828L211.45 40.7872ZM218.711 41.94C221.472 41.94 223.775 41.3988 225.516 40.2047L224.385 38.5553C223.093 39.4412 221.237 39.94 218.711 39.94V41.94ZM225.516 40.2047C227.309 38.9753 228.226 37.2128 228.226 35.025H226.226C226.226 36.5638 225.626 37.7047 224.385 38.5553L225.516 40.2047ZM228.226 35.025C228.226 33.672 227.872 32.4362 227.148 31.3503L225.484 32.4597C225.973 33.1938 226.226 34.038 226.226 35.025H228.226ZM227.148 31.3503C226.363 30.1734 225.034 29.3809 223.358 28.8686L222.774 30.7813C224.217 31.2225 225.055 31.8166 225.484 32.4597L227.148 31.3503ZM223.366 28.871C221.706 28.3493 219.442 28.11 216.631 28.11V30.11C219.366 30.11 221.393 30.3474 222.766 30.779L223.366 28.871ZM216.631 28.11H204.996V30.11H216.631V28.11ZM205.992 29.201L208.332 3.59099L206.34 3.40901L204 29.019L205.992 29.201ZM207.336 4.5H235.091V2.5H207.336V4.5ZM234.091 3.5V11.95H236.091V3.5H234.091ZM235.091 10.95H211.106V12.95H235.091V10.95ZM211.767 12.7004L217.227 7.89036L215.905 6.38964L210.445 11.1996L211.767 12.7004ZM215.57 7.05138L213.945 25.3164L215.937 25.4936L217.562 7.22861L215.57 7.05138ZM215.602 24.6546L210.142 19.8446L208.82 21.3454L214.28 26.1554L215.602 24.6546ZM209.481 21.595H219.101V19.595H209.481V21.595ZM219.101 21.595C223.529 21.595 226.988 22.2146 229.538 23.3884L230.374 21.5716C227.464 20.2321 223.686 19.595 219.101 19.595V21.595ZM229.555 23.3962C232.181 24.5448 234.013 26.089 235.14 27.9943L236.861 26.9757C235.476 24.6343 233.278 22.8418 230.357 21.5638L229.555 23.3962ZM235.14 27.9943C236.298 29.9499 236.886 32.1761 236.886 34.7H238.886C238.886 31.8506 238.217 29.2668 236.861 26.9757L235.14 27.9943ZM236.886 34.7C236.886 37.211 236.26 39.5282 235.008 41.6701L236.734 42.6799C238.168 40.2285 238.886 37.5623 238.886 34.7H236.886ZM235.012 41.6629C233.784 43.7234 231.861 45.4463 229.178 46.8083L230.084 48.5917C233.034 47.0937 235.271 45.1333 236.73 42.6871L235.012 41.6629ZM229.184 46.8056C226.593 48.1008 223.207 48.78 218.971 48.78V50.78C223.401 50.78 227.122 50.0725 230.078 48.5944L229.184 46.8056ZM249.958 61.61V62.61H250.487L250.784 62.1731L249.958 61.61ZM240.273 61.61L239.406 61.1114L238.544 62.61H240.273V61.61ZM246.318 46.855L245.348 46.6105L245.347 46.6165L246.318 46.855ZM246.318 15.59L245.346 15.8266L245.349 15.8365L246.318 15.59ZM240.273 0.769997V-0.230003H238.544L239.406 1.26861L240.273 0.769997ZM249.958 0.769997L250.779 0.198392L250.48 -0.230003H249.958V0.769997ZM256.068 14.42L255.101 14.6757L255.102 14.6777L256.068 14.42ZM256.068 47.96L257.034 48.2197L257.034 48.2177L256.068 47.96ZM249.958 60.61H240.273V62.61H249.958V60.61ZM241.14 62.1086C243.998 57.1395 246.051 52.1341 247.289 47.0935L245.347 46.6165C244.158 51.4559 242.181 56.2872 239.406 61.1114L241.14 62.1086ZM247.288 47.0995C248.566 42.0314 249.203 36.7273 249.203 31.19H247.203C247.203 36.5727 246.584 41.7119 245.348 46.6105L247.288 47.0995ZM249.203 31.19C249.203 25.6527 248.566 20.3695 247.287 15.3435L245.349 15.8365C246.584 20.6905 247.203 25.8073 247.203 31.19H249.203ZM247.29 15.3534C246.052 10.2695 243.999 5.24178 241.14 0.271382L239.406 1.26861C242.18 6.09155 244.158 10.9439 245.346 15.8266L247.29 15.3534ZM240.273 1.77H249.958V-0.230003H240.273V1.77ZM249.138 1.3416C251.748 5.08879 253.74 9.52826 255.101 14.6757L257.035 14.1643C255.623 8.82506 253.542 4.16454 250.779 0.198392L249.138 1.3416ZM255.102 14.6777C256.464 19.7849 257.148 25.2875 257.148 31.19H259.148C259.148 25.1325 258.446 19.4551 257.034 14.1623L255.102 14.6777ZM257.148 31.19C257.148 37.0925 256.464 42.5951 255.102 47.7023L257.034 48.2177C258.446 42.9249 259.148 37.2475 259.148 31.19H257.148ZM255.102 47.7003C253.741 52.7615 251.748 57.2066 249.132 61.0469L250.784 62.1731C253.541 58.1268 255.621 53.4718 257.034 48.2197L255.102 47.7003ZM292.702 48.09L292.323 49.0156L292.336 49.0204L292.702 48.09ZM286.007 43.215L285.209 43.8176L285.215 43.8255L286.007 43.215ZM285.942 28.655L285.163 28.0282L285.161 28.0303L285.942 28.655ZM292.637 24.17L292.966 25.1144L292.979 25.1098L292.637 24.17ZM312.852 24.17L312.51 25.1098L312.519 25.1129L312.527 25.1158L312.852 24.17ZM319.547 28.655L318.76 29.2713L318.767 29.2808L318.775 29.2901L319.547 28.655ZM319.547 43.215L320.339 43.8255L320.345 43.8176L319.547 43.215ZM312.787 48.09L313.154 49.0204L313.161 49.0175L312.787 48.09ZM308.952 40.29L308.352 39.4899L308.341 39.4982L308.952 40.29ZM308.952 30.735L308.341 31.5268L308.354 31.5364L308.367 31.5457L308.952 30.735ZM296.537 30.735L297.133 31.5377L297.141 31.5323L297.148 31.5268L296.537 30.735ZM296.537 40.29L295.926 41.0818H295.926L296.537 40.29ZM293.482 26.51L293.138 27.4489L293.143 27.4507L293.482 26.51ZM287.372 22.35L286.579 22.9588L286.587 22.9691L286.595 22.9792L287.372 22.35ZM287.437 8.83L288.228 9.44148L288.235 9.43283L287.437 8.83ZM293.612 4.345L293.978 5.27566L293.991 5.2703L293.612 4.345ZM311.877 4.345L311.493 5.26807L311.502 5.27191L311.511 5.27556L311.877 4.345ZM318.052 8.83L317.254 9.43283L317.262 9.44277L317.27 9.45252L318.052 8.83ZM318.117 22.35L317.333 21.7298L317.331 21.7322L318.117 22.35ZM307.912 20.27L307.304 19.4764L307.297 19.4814L307.291 19.4865L307.912 20.27ZM307.847 11.95L307.239 12.7436L307.245 12.7484L307.251 12.7531L307.847 11.95ZM297.642 11.95L298.251 12.7436L297.642 11.95ZM297.577 20.27L296.956 21.0535L297.577 20.27ZM302.712 48.78C298.995 48.78 295.788 48.2307 293.069 47.1596L292.336 49.0204C295.337 50.2027 298.802 50.78 302.712 50.78V48.78ZM293.081 47.1645C290.355 46.0493 288.277 44.522 286.799 42.6045L285.215 43.8255C286.944 46.068 289.329 47.7907 292.324 49.0155L293.081 47.1645ZM286.805 42.6124C285.341 40.6732 284.602 38.4178 284.602 35.805H282.602C282.602 38.8255 283.467 41.5102 285.209 43.8176L286.805 42.6124ZM284.602 35.805C284.602 33.1847 285.323 31.0298 286.723 29.2797L285.161 28.0303C283.441 30.1802 282.602 32.7919 282.602 35.805H284.602ZM286.721 29.2818C288.187 27.4593 290.25 26.0608 292.966 25.1143L292.308 23.2257C289.304 24.2725 286.904 25.864 285.163 28.0282L286.721 29.2818ZM292.979 25.1098C295.704 24.1187 298.942 23.61 302.712 23.61V21.61C298.769 21.61 295.29 22.1413 292.295 23.2302L292.979 25.1098ZM302.712 23.61C306.527 23.61 309.786 24.1191 312.51 25.1098L313.194 23.2302C310.198 22.1409 306.697 21.61 302.712 21.61V23.61ZM312.527 25.1158C315.287 26.0632 317.342 27.4599 318.76 29.2713L320.335 28.0387C318.632 25.8634 316.224 24.2702 313.177 23.2242L312.527 25.1158ZM318.775 29.2901C320.214 31.0403 320.952 33.1915 320.952 35.805H322.952C322.952 32.7852 322.087 30.1697 320.32 28.0199L318.775 29.2901ZM320.952 35.805C320.952 38.4178 320.213 40.6732 318.749 42.6124L320.345 43.8176C322.088 41.5102 322.952 38.8255 322.952 35.805H320.952ZM318.755 42.6045C317.28 44.5186 315.183 46.0462 312.413 47.1625L313.161 49.0175C316.198 47.7938 318.608 46.0714 320.339 43.8255L318.755 42.6045ZM312.421 47.1596C309.703 48.2302 306.474 48.78 302.712 48.78V50.78C306.664 50.78 310.151 50.2031 313.154 49.0204L312.421 47.1596ZM302.712 43.045C305.494 43.045 307.816 42.4298 309.563 41.0818L308.341 39.4982C307.055 40.4902 305.217 41.045 302.712 41.045V43.045ZM309.552 41.09C311.377 39.7215 312.292 37.815 312.292 35.48H310.292C310.292 37.2183 309.648 38.5185 308.352 39.49L309.552 41.09ZM312.292 35.48C312.292 33.1443 311.375 31.2515 309.538 29.9243L308.367 31.5457C309.649 32.4718 310.292 33.7424 310.292 35.48H312.292ZM309.563 29.9432C307.816 28.5952 305.494 27.98 302.712 27.98V29.98C305.217 29.98 307.055 30.5348 308.341 31.5268L309.563 29.9432ZM302.712 27.98C299.969 27.98 297.671 28.5972 295.926 29.9432L297.148 31.5268C298.436 30.5328 300.255 29.98 302.712 29.98V27.98ZM295.941 29.9323C294.148 31.2641 293.262 33.1556 293.262 35.48H295.262C295.262 33.731 295.893 32.4593 297.133 31.5377L295.941 29.9323ZM293.262 35.48C293.262 37.8039 294.147 39.709 295.926 41.0818L297.148 39.4982C295.894 38.531 295.262 37.2294 295.262 35.48H293.262ZM295.926 41.0818C297.671 42.4278 299.969 43.045 302.712 43.045V41.045C300.255 41.045 298.436 40.4922 297.148 39.4982L295.926 41.0818ZM302.712 26.94C299.29 26.94 296.333 26.475 293.821 25.5693L293.143 27.4507C295.918 28.4517 299.114 28.94 302.712 28.94V26.94ZM293.826 25.5711C291.365 24.6685 289.49 23.3766 288.149 21.7208L286.595 22.9792C288.201 24.9634 290.399 26.4448 293.138 27.4489L293.826 25.5711ZM288.165 21.7412C286.882 20.0682 286.227 18.0772 286.227 15.72H284.227C284.227 18.4761 285.003 20.9051 286.579 22.9588L288.165 21.7412ZM286.227 15.72C286.227 13.2278 286.906 11.1529 288.228 9.44145L286.646 8.21855C285.022 10.3204 284.227 12.8389 284.227 15.72H286.227ZM288.235 9.43283C289.58 7.65221 291.478 6.25926 293.978 5.27556L293.246 3.41443C290.46 4.51073 288.241 6.10779 286.639 8.22717L288.235 9.43283ZM293.991 5.2703C296.493 4.24504 299.394 3.72 302.712 3.72V1.72C299.184 1.72 296.018 2.27829 293.233 3.41969L293.991 5.2703ZM302.712 3.72C306.122 3.72 309.04 4.24635 311.493 5.26807L312.262 3.42192C309.514 2.27698 306.323 1.72 302.712 1.72V3.72ZM311.511 5.27556C314.011 6.25926 315.909 7.65221 317.254 9.43283L318.85 8.22717C317.249 6.10779 315.03 4.51073 312.243 3.41443L311.511 5.27556ZM317.27 9.45252C318.631 11.1638 319.327 13.2348 319.327 15.72H321.327C321.327 12.8319 320.507 10.3095 318.835 8.20747L317.27 9.45252ZM319.327 15.72C319.327 18.0699 318.655 20.0569 317.333 21.7298L318.902 22.9702C320.526 20.9164 321.327 18.4834 321.327 15.72H319.327ZM317.331 21.7322C316.039 23.376 314.173 24.6659 311.668 25.5693L312.346 27.4507C315.128 26.4474 317.335 24.964 318.903 22.9678L317.331 21.7322ZM311.668 25.5693C309.158 26.4746 306.179 26.94 302.712 26.94V28.94C306.352 28.94 309.57 28.4521 312.346 27.4507L311.668 25.5693ZM302.712 22.765C305.064 22.765 307.044 22.235 308.534 21.0535L307.291 19.4865C306.267 20.2983 304.781 20.765 302.712 20.765V22.765ZM308.521 21.0636C310.084 19.8653 310.862 18.1984 310.862 16.175H308.862C308.862 17.6183 308.341 18.6814 307.304 19.4764L308.521 21.0636ZM310.862 16.175C310.862 14.0708 310.065 12.3507 308.443 11.1469L307.251 12.7531C308.315 13.5427 308.862 14.6392 308.862 16.175H310.862ZM308.456 11.1564C306.935 9.99084 304.99 9.455 302.712 9.455V11.455C304.681 11.455 306.159 11.9158 307.239 12.7436L308.456 11.1564ZM302.712 9.455C300.472 9.455 298.551 9.99341 297.034 11.1564L298.251 12.7436C299.334 11.9132 300.792 11.455 302.712 11.455V9.455ZM297.034 11.1564C295.457 12.3652 294.692 14.0836 294.692 16.175H296.692C296.692 14.6264 297.227 13.5282 298.251 12.7436L297.034 11.1564ZM294.692 16.175C294.692 18.1853 295.439 19.8502 296.956 21.0535L298.199 19.4865C297.202 18.6964 296.692 17.6314 296.692 16.175H294.692ZM296.956 21.0535C298.442 22.2325 300.399 22.765 302.712 22.765V20.765C300.692 20.765 299.225 20.3008 298.199 19.4865L296.956 21.0535ZM334.052 49L333.138 48.5957L332.517 50H334.052V49ZM352.382 7.53L353.24 7.0155L352.247 5.36157L351.468 7.12572L352.382 7.53ZM355.112 12.08V13.08H356.879L355.97 11.5655L355.112 12.08ZM330.607 12.08L329.881 11.3923L328.282 13.08H330.607V12.08ZM335.287 7.14H336.287V4.63041L334.561 6.45225L335.287 7.14ZM335.287 19.49V20.49H336.287V19.49H335.287ZM325.927 19.49H324.927V20.49H325.927V19.49ZM325.927 3.5V2.5H324.927V3.5H325.927ZM362.392 3.5H363.392V2.5H362.392V3.5ZM362.392 10.325L363.309 10.7254L363.392 10.5339V10.325H362.392ZM345.492 49V50H346.147L346.409 49.4004L345.492 49ZM334.967 49.4043L353.297 7.93427L351.468 7.12572L333.138 48.5957L334.967 49.4043ZM351.525 8.04449L354.255 12.5945L355.97 11.5655L353.24 7.0155L351.525 8.04449ZM355.112 11.08H330.607V13.08H355.112V11.08ZM331.333 12.7677L336.013 7.82774L334.561 6.45225L329.881 11.3923L331.333 12.7677ZM334.287 7.14V19.49H336.287V7.14H334.287ZM335.287 18.49H325.927V20.49H335.287V18.49ZM326.927 19.49V3.5H324.927V19.49H326.927ZM325.927 4.5H362.392V2.5H325.927V4.5ZM361.392 3.5V10.325H363.392V3.5H361.392ZM361.476 9.92458L344.576 48.5996L346.409 49.4004L363.309 10.7254L361.476 9.92458ZM345.492 48H334.052V50H345.492V48ZM375.3 47.18L374.804 48.0483L374.81 48.0512L375.3 47.18ZM368.28 39.575L369.177 39.1325L368.28 39.575ZM368.735 13.9L367.858 13.4197L367.854 13.4278L368.735 13.9ZM376.925 5.58L376.448 4.70126L376.443 4.70378L376.925 5.58ZM395.97 3.5L396.199 2.52658V2.52658L395.97 3.5ZM401.69 5.84L402.583 6.29021L402.987 5.48921L402.235 5.00104L401.69 5.84ZM397.79 13.575L397.223 14.3982L398.167 15.0494L398.683 14.0252L397.79 13.575ZM393.76 11.82L393.525 12.7918L393.539 12.7952L393.553 12.7982L393.76 11.82ZM379.915 14.875L379.195 14.1811L379.915 14.875ZM376.47 28.07H375.47V28.0927L375.471 28.1154L376.47 28.07ZM376.86 30.93L376.178 31.6611L378.557 33.881L377.836 30.7084L376.86 30.93ZM373.935 28.2L373.036 27.762L372.713 28.4266L373.253 28.9311L373.935 28.2ZM377.12 23.975L377.775 24.7307L377.782 24.7246L377.789 24.7183L377.12 23.975ZM381.735 21.375L382.038 22.3282L382.045 22.326L382.052 22.3237L381.735 21.375ZM395.645 22.22L396.093 21.3256L395.645 22.22ZM401.235 27.16L400.398 27.7068L400.402 27.7127L400.406 27.7186L401.235 27.16ZM401.04 42.695L400.213 42.1331L400.211 42.1366L401.04 42.695ZM394.865 47.96L395.294 48.8634L395.301 48.8603L394.865 47.96ZM389.47 41.135L389.889 42.043L389.897 42.0395L389.904 42.036L389.47 41.135ZM392.2 38.73L393.048 39.26L392.2 38.73ZM391.03 30.215L390.359 30.956L390.371 30.9669L390.383 30.9775L391.03 30.215ZM381.345 29.24L381.779 30.141L381.793 30.1346L381.806 30.1278L381.345 29.24ZM378.55 31.645L377.718 31.0903L377.713 31.0987L378.55 31.645ZM378.55 38.665L377.702 39.195L377.708 39.2032L377.713 39.2113L378.55 38.665ZM381.28 41.07L380.82 41.9578L380.833 41.9646L380.847 41.971L381.28 41.07ZM386.155 48.78C382.137 48.78 378.693 47.9438 375.791 46.3088L374.81 48.0512C378.061 49.8829 381.854 50.78 386.155 50.78V48.78ZM375.797 46.3118C372.948 44.6838 370.742 42.3027 369.177 39.1325L367.384 40.0175C369.112 43.5206 371.586 46.2095 374.804 48.0482L375.797 46.3118ZM369.177 39.1325C367.616 35.9698 366.81 32.0147 366.81 27.225H364.81C364.81 32.2286 365.651 36.5068 367.384 40.0175L369.177 39.1325ZM366.81 27.225C366.81 22.103 367.763 17.833 369.617 14.3722L367.854 13.4278C365.808 17.247 364.81 21.8603 364.81 27.225H366.81ZM369.612 14.3803C371.519 10.8986 374.116 8.26659 377.407 6.45621L376.443 4.70378C372.802 6.70674 369.938 9.62139 367.858 13.4197L369.612 14.3803ZM377.403 6.45872C380.747 4.64214 384.609 3.72 389.015 3.72V1.72C384.322 1.72 380.124 2.70453 376.448 4.70127L377.403 6.45872ZM389.015 3.72C391.37 3.72 393.611 3.97225 395.741 4.47341L396.199 2.52658C393.909 1.98775 391.514 1.72 389.015 1.72V3.72ZM395.741 4.47341C397.86 4.97189 399.656 5.7121 401.146 6.67896L402.235 5.00104C400.518 3.88789 398.501 3.06811 396.199 2.52658L395.741 4.47341ZM400.797 5.38979L396.897 13.1248L398.683 14.0252L402.583 6.29021L400.797 5.38979ZM398.358 12.7518C396.998 11.8136 395.533 11.1737 393.968 10.8418L393.553 12.7982C394.848 13.073 396.07 13.6031 397.223 14.3982L398.358 12.7518ZM393.996 10.8481C392.484 10.4817 390.91 10.3 389.275 10.3V12.3C390.761 12.3 392.176 12.465 393.525 12.7918L393.996 10.8481ZM389.275 10.3C385.117 10.3 381.716 11.5652 379.195 14.1811L380.635 15.5689C382.708 13.4182 385.548 12.3 389.275 12.3V10.3ZM379.195 14.1811C376.656 16.8161 375.47 20.6389 375.47 25.47H377.47C377.47 20.9411 378.581 17.7005 380.635 15.5689L379.195 14.1811ZM375.47 25.47C375.47 25.4715 375.47 25.473 375.47 25.4746C375.47 25.4761 375.47 25.4776 375.47 25.4791C375.47 25.4807 375.47 25.4822 375.47 25.4837C375.47 25.4852 375.47 25.4868 375.47 25.4883C375.47 25.4898 375.47 25.4913 375.47 25.4929C375.47 25.4944 375.47 25.4959 375.47 25.4975C375.47 25.499 375.47 25.5005 375.47 25.502C375.47 25.5036 375.47 25.5051 375.47 25.5066C375.47 25.5082 375.47 25.5097 375.47 25.5112C375.47 25.5127 375.47 25.5143 375.47 25.5158C375.47 25.5173 375.47 25.5189 375.47 25.5204C375.47 25.5219 375.47 25.5235 375.47 25.525C375.47 25.5265 375.47 25.528 375.47 25.5296C375.47 25.5311 375.47 25.5326 375.47 25.5342C375.47 25.5357 375.47 25.5372 375.47 25.5388C375.47 25.5403 375.47 25.5418 375.47 25.5434C375.47 25.5449 375.47 25.5464 375.47 25.548C375.47 25.5495 375.47 25.5511 375.47 25.5526C375.47 25.5541 375.47 25.5557 375.47 25.5572C375.47 25.5587 375.47 25.5603 375.47 25.5618C375.47 25.5633 375.47 25.5649 375.47 25.5664C375.47 25.5679 375.47 25.5695 375.47 25.571C375.47 25.5726 375.47 25.5741 375.47 25.5756C375.47 25.5772 375.47 25.5787 375.47 25.5803C375.47 25.5818 375.47 25.5833 375.47 25.5849C375.47 25.5864 375.47 25.588 375.47 25.5895C375.47 25.591 375.47 25.5926 375.47 25.5941C375.47 25.5957 375.47 25.5972 375.47 25.5987C375.47 25.6003 375.47 25.6018 375.47 25.6034C375.47 25.6049 375.47 25.6065 375.47 25.608C375.47 25.6095 375.47 25.6111 375.47 25.6126C375.47 25.6142 375.47 25.6157 375.47 25.6173C375.47 25.6188 375.47 25.6204 375.47 25.6219C375.47 25.6234 375.47 25.625 375.47 25.6265C375.47 25.6281 375.47 25.6296 375.47 25.6312C375.47 25.6327 375.47 25.6343 375.47 25.6358C375.47 25.6374 375.47 25.6389 375.47 25.6405C375.47 25.642 375.47 25.6436 375.47 25.6451C375.47 25.6467 375.47 25.6482 375.47 25.6497C375.47 25.6513 375.47 25.6528 375.47 25.6544C375.47 25.6559 375.47 25.6575 375.47 25.659C375.47 25.6606 375.47 25.6621 375.47 25.6637C375.47 25.6653 375.47 25.6668 375.47 25.6684C375.47 25.6699 375.47 25.6715 375.47 25.673C375.47 25.6746 375.47 25.6761 375.47 25.6777C375.47 25.6792 375.47 25.6808 375.47 25.6823C375.47 25.6839 375.47 25.6854 375.47 25.687C375.47 25.6885 375.47 25.6901 375.47 25.6917C375.47 25.6932 375.47 25.6948 375.47 25.6963C375.47 25.6979 375.47 25.6994 375.47 25.701C375.47 25.7026 375.47 25.7041 375.47 25.7057C375.47 25.7072 375.47 25.7088 375.47 25.7103C375.47 25.7119 375.47 25.7135 375.47 25.715C375.47 25.7166 375.47 25.7181 375.47 25.7197C375.47 25.7212 375.47 25.7228 375.47 25.7244C375.47 25.7259 375.47 25.7275 375.47 25.729C375.47 25.7306 375.47 25.7322 375.47 25.7337C375.47 25.7353 375.47 25.7369 375.47 25.7384C375.47 25.74 375.47 25.7415 375.47 25.7431C375.47 25.7447 375.47 25.7462 375.47 25.7478C375.47 25.7494 375.47 25.7509 375.47 25.7525C375.47 25.754 375.47 25.7556 375.47 25.7572C375.47 25.7587 375.47 25.7603 375.47 25.7619C375.47 25.7634 375.47 25.765 375.47 25.7666C375.47 25.7681 375.47 25.7697 375.47 25.7713C375.47 25.7728 375.47 25.7744 375.47 25.776C375.47 25.7775 375.47 25.7791 375.47 25.7807C375.47 25.7822 375.47 25.7838 375.47 25.7854C375.47 25.7869 375.47 25.7885 375.47 25.7901C375.47 25.7916 375.47 25.7932 375.47 25.7948C375.47 25.7964 375.47 25.7979 375.47 25.7995C375.47 25.8011 375.47 25.8026 375.47 25.8042C375.47 25.8058 375.47 25.8073 375.47 25.8089C375.47 25.8105 375.47 25.8121 375.47 25.8136C375.47 25.8152 375.47 25.8168 375.47 25.8184C375.47 25.8199 375.47 25.8215 375.47 25.8231C375.47 25.8246 375.47 25.8262 375.47 25.8278C375.47 25.8294 375.47 25.8309 375.47 25.8325C375.47 25.8341 375.47 25.8357 375.47 25.8372C375.47 25.8388 375.47 25.8404 375.47 25.842C375.47 25.8435 375.47 25.8451 375.47 25.8467C375.47 25.8483 375.47 25.8499 375.47 25.8514C375.47 25.853 375.47 25.8546 375.47 25.8562C375.47 25.8577 375.47 25.8593 375.47 25.8609C375.47 25.8625 375.47 25.8641 375.47 25.8656C375.47 25.8672 375.47 25.8688 375.47 25.8704C375.47 25.872 375.47 25.8735 375.47 25.8751C375.47 25.8767 375.47 25.8783 375.47 25.8799C375.47 25.8814 375.47 25.883 375.47 25.8846C375.47 25.8862 375.47 25.8878 375.47 25.8894C375.47 25.8909 375.47 25.8925 375.47 25.8941C375.47 25.8957 375.47 25.8973 375.47 25.8989C375.47 25.9004 375.47 25.902 375.47 25.9036C375.47 25.9052 375.47 25.9068 375.47 25.9084C375.47 25.91 375.47 25.9115 375.47 25.9131C375.47 25.9147 375.47 25.9163 375.47 25.9179C375.47 25.9195 375.47 25.9211 375.47 25.9227C375.47 25.9242 375.47 25.9258 375.47 25.9274C375.47 25.929 375.47 25.9306 375.47 25.9322C375.47 25.9338 375.47 25.9354 375.47 25.9369C375.47 25.9385 375.47 25.9401 375.47 25.9417C375.47 25.9433 375.47 25.9449 375.47 25.9465C375.47 25.9481 375.47 25.9497 375.47 25.9513C375.47 25.9529 375.47 25.9544 375.47 25.956C375.47 25.9576 375.47 25.9592 375.47 25.9608C375.47 25.9624 375.47 25.964 375.47 25.9656C375.47 25.9672 375.47 25.9688 375.47 25.9704C375.47 25.972 375.47 25.9736 375.47 25.9752C375.47 25.9768 375.47 25.9784 375.47 25.9799C375.47 25.9815 375.47 25.9831 375.47 25.9847C375.47 25.9863 375.47 25.9879 375.47 25.9895C375.47 25.9911 375.47 25.9927 375.47 25.9943C375.47 25.9959 375.47 25.9975 375.47 25.9991C375.47 26.0007 375.47 26.0023 375.47 26.0039C375.47 26.0055 375.47 26.0071 375.47 26.0087C375.47 26.0103 375.47 26.0119 375.47 26.0135C375.47 26.0151 375.47 26.0167 375.47 26.0183C375.47 26.0199 375.47 26.0215 375.47 26.0231C375.47 26.0247 375.47 26.0263 375.47 26.0279C375.47 26.0295 375.47 26.0311 375.47 26.0327C375.47 26.0343 375.47 26.0359 375.47 26.0375C375.47 26.0391 375.47 26.0407 375.47 26.0423C375.47 26.0439 375.47 26.0455 375.47 26.0472C375.47 26.0488 375.47 26.0504 375.47 26.052C375.47 26.0536 375.47 26.0552 375.47 26.0568C375.47 26.0584 375.47 26.06 375.47 26.0616C375.47 26.0632 375.47 26.0648 375.47 26.0664C375.47 26.068 375.47 26.0696 375.47 26.0712C375.47 26.0729 375.47 26.0745 375.47 26.0761C375.47 26.0777 375.47 26.0793 375.47 26.0809C375.47 26.0825 375.47 26.0841 375.47 26.0857C375.47 26.0873 375.47 26.089 375.47 26.0906C375.47 26.0922 375.47 26.0938 375.47 26.0954C375.47 26.097 375.47 26.0986 375.47 26.1002C375.47 26.1018 375.47 26.1035 375.47 26.1051C375.47 26.1067 375.47 26.1083 375.47 26.1099C375.47 26.1115 375.47 26.1131 375.47 26.1147C375.47 26.1164 375.47 26.118 375.47 26.1196C375.47 26.1212 375.47 26.1228 375.47 26.1244C375.47 26.1261 375.47 26.1277 375.47 26.1293C375.47 26.1309 375.47 26.1325 375.47 26.1341C375.47 26.1357 375.47 26.1374 375.47 26.139C375.47 26.1406 375.47 26.1422 375.47 26.1438C375.47 26.1455 375.47 26.1471 375.47 26.1487C375.47 26.1503 375.47 26.1519 375.47 26.1535C375.47 26.1552 375.47 26.1568 375.47 26.1584C375.47 26.16 375.47 26.1616 375.47 26.1633C375.47 26.1649 375.47 26.1665 375.47 26.1681C375.47 26.1698 375.47 26.1714 375.47 26.173C375.47 26.1746 375.47 26.1762 375.47 26.1779C375.47 26.1795 375.47 26.1811 375.47 26.1827C375.47 26.1844 375.47 26.186 375.47 26.1876C375.47 26.1892 375.47 26.1908 375.47 26.1925C375.47 26.1941 375.47 26.1957 375.47 26.1973C375.47 26.199 375.47 26.2006 375.47 26.2022C375.47 26.2039 375.47 26.2055 375.47 26.2071C375.47 26.2087 375.47 26.2104 375.47 26.212C375.47 26.2136 375.47 26.2152 375.47 26.2169C375.47 26.2185 375.47 26.2201 375.47 26.2218C375.47 26.2234 375.47 26.225 375.47 26.2266C375.47 26.2283 375.47 26.2299 375.47 26.2315C375.47 26.2332 375.47 26.2348 375.47 26.2364C375.47 26.238 375.47 26.2397 375.47 26.2413C375.47 26.2429 375.47 26.2446 375.47 26.2462C375.47 26.2478 375.47 26.2495 375.47 26.2511C375.47 26.2527 375.47 26.2544 375.47 26.256C375.47 26.2576 375.47 26.2593 375.47 26.2609C375.47 26.2625 375.47 26.2642 375.47 26.2658C375.47 26.2674 375.47 26.2691 375.47 26.2707C375.47 26.2723 375.47 26.274 375.47 26.2756C375.47 26.2773 375.47 26.2789 375.47 26.2805C375.47 26.2822 375.47 26.2838 375.47 26.2854C375.47 26.2871 375.47 26.2887 375.47 26.2903C375.47 26.292 375.47 26.2936 375.47 26.2953C375.47 26.2969 375.47 26.2985 375.47 26.3002C375.47 26.3018 375.47 26.3035 375.47 26.3051C375.47 26.3067 375.47 26.3084 375.47 26.31C375.47 26.3117 375.47 26.3133 375.47 26.3149C375.47 26.3166 375.47 26.3182 375.47 26.3199C375.47 26.3215 375.47 26.3231 375.47 26.3248C375.47 26.3264 375.47 26.3281 375.47 26.3297C375.47 26.3314 375.47 26.333 375.47 26.3346C375.47 26.3363 375.47 26.3379 375.47 26.3396C375.47 26.3412 375.47 26.3429 375.47 26.3445C375.47 26.3462 375.47 26.3478 375.47 26.3495C375.47 26.3511 375.47 26.3527 375.47 26.3544C375.47 26.356 375.47 26.3577 375.47 26.3593C375.47 26.361 375.47 26.3626 375.47 26.3643C375.47 26.3659 375.47 26.3676 375.47 26.3692C375.47 26.3709 375.47 26.3725 375.47 26.3742C375.47 26.3758 375.47 26.3775 375.47 26.3791C375.47 26.3808 375.47 26.3824 375.47 26.3841C375.47 26.3857 375.47 26.3874 375.47 26.389C375.47 26.3907 375.47 26.3923 375.47 26.394C375.47 26.3956 375.47 26.3973 375.47 26.3989C375.47 26.4006 375.47 26.4022 375.47 26.4039C375.47 26.4055 375.47 26.4072 375.47 26.4088C375.47 26.4105 375.47 26.4121 375.47 26.4138C375.47 26.4155 375.47 26.4171 375.47 26.4188C375.47 26.4204 375.47 26.4221 375.47 26.4237C375.47 26.4254 375.47 26.427 375.47 26.4287C375.47 26.4304 375.47 26.432 375.47 26.4337C375.47 26.4353 375.47 26.437 375.47 26.4386C375.47 26.4403 375.47 26.442 375.47 26.4436C375.47 26.4453 375.47 26.4469 375.47 26.4486C375.47 26.4503 375.47 26.4519 375.47 26.4536C375.47 26.4552 375.47 26.4569 375.47 26.4586C375.47 26.4602 375.47 26.4619 375.47 26.4635C375.47 26.4652 375.47 26.4669 375.47 26.4685C375.47 26.4702 375.47 26.4718 375.47 26.4735C375.47 26.4752 375.47 26.4768 375.47 26.4785C375.47 26.4802 375.47 26.4818 375.47 26.4835C375.47 26.4851 375.47 26.4868 375.47 26.4885C375.47 26.4901 375.47 26.4918 375.47 26.4935C375.47 26.4951 375.47 26.4968 375.47 26.4985C375.47 26.5001 375.47 26.5018 375.47 26.5035C375.47 26.5051 375.47 26.5068 375.47 26.5085C375.47 26.5101 375.47 26.5118 375.47 26.5135C375.47 26.5151 375.47 26.5168 375.47 26.5185C375.47 26.5201 375.47 26.5218 375.47 26.5235C375.47 26.5251 375.47 26.5268 375.47 26.5285C375.47 26.5301 375.47 26.5318 375.47 26.5335C375.47 26.5352 375.47 26.5368 375.47 26.5385C375.47 26.5402 375.47 26.5418 375.47 26.5435C375.47 26.5452 375.47 26.5469 375.47 26.5485C375.47 26.5502 375.47 26.5519 375.47 26.5535C375.47 26.5552 375.47 26.5569 375.47 26.5586C375.47 26.5602 375.47 26.5619 375.47 26.5636C375.47 26.5653 375.47 26.5669 375.47 26.5686C375.47 26.5703 375.47 26.572 375.47 26.5736C375.47 26.5753 375.47 26.577 375.47 26.5787C375.47 26.5803 375.47 26.582 375.47 26.5837C375.47 26.5854 375.47 26.587 375.47 26.5887C375.47 26.5904 375.47 26.5921 375.47 26.5938C375.47 26.5954 375.47 26.5971 375.47 26.5988C375.47 26.6005 375.47 26.6022 375.47 26.6038C375.47 26.6055 375.47 26.6072 375.47 26.6089C375.47 26.6106 375.47 26.6122 375.47 26.6139C375.47 26.6156 375.47 26.6173 375.47 26.619C375.47 26.6206 375.47 26.6223 375.47 26.624C375.47 26.6257 375.47 26.6274 375.47 26.629C375.47 26.6307 375.47 26.6324 375.47 26.6341C375.47 26.6358 375.47 26.6375 375.47 26.6392C375.47 26.6408 375.47 26.6425 375.47 26.6442C375.47 26.6459 375.47 26.6476 375.47 26.6493C375.47 26.6509 375.47 26.6526 375.47 26.6543C375.47 26.656 375.47 26.6577 375.47 26.6594C375.47 26.6611 375.47 26.6628 375.47 26.6644C375.47 26.6661 375.47 26.6678 375.47 26.6695C375.47 26.6712 375.47 26.6729 375.47 26.6746C375.47 26.6763 375.47 26.6779 375.47 26.6796C375.47 26.6813 375.47 26.683 375.47 26.6847C375.47 26.6864 375.47 26.6881 375.47 26.6898C375.47 26.6915 375.47 26.6932 375.47 26.6948C375.47 26.6965 375.47 26.6982 375.47 26.6999C375.47 26.7016 375.47 26.7033 375.47 26.705C375.47 26.7067 375.47 26.7084 375.47 26.7101C375.47 26.7118 375.47 26.7135 375.47 26.7152C375.47 26.7169 375.47 26.7185 375.47 26.7202C375.47 26.7219 375.47 26.7236 375.47 26.7253C375.47 26.727 375.47 26.7287 375.47 26.7304C375.47 26.7321 375.47 26.7338 375.47 26.7355C375.47 26.7372 375.47 26.7389 375.47 26.7406C375.47 26.7423 375.47 26.744 375.47 26.7457C375.47 26.7474 375.47 26.7491 375.47 26.7508C375.47 26.7525 375.47 26.7542 375.47 26.7559C375.47 26.7576 375.47 26.7593 375.47 26.761C375.47 26.7627 375.47 26.7644 375.47 26.7661C375.47 26.7678 375.47 26.7695 375.47 26.7712C375.47 26.7729 375.47 26.7746 375.47 26.7763C375.47 26.778 375.47 26.7797 375.47 26.7814C375.47 26.7831 375.47 26.7848 375.47 26.7865C375.47 26.7882 375.47 26.7899 375.47 26.7916C375.47 26.7933 375.47 26.795 375.47 26.7967C375.47 26.7984 375.47 26.8001 375.47 26.8018C375.47 26.8035 375.47 26.8053 375.47 26.807C375.47 26.8087 375.47 26.8104 375.47 26.8121C375.47 26.8138 375.47 26.8155 375.47 26.8172C375.47 26.8189 375.47 26.8206 375.47 26.8223C375.47 26.824 375.47 26.8257 375.47 26.8274C375.47 26.8292 375.47 26.8309 375.47 26.8326C375.47 26.8343 375.47 26.836 375.47 26.8377C375.47 26.8394 375.47 26.8411 375.47 26.8428C375.47 26.8445 375.47 26.8463 375.47 26.848C375.47 26.8497 375.47 26.8514 375.47 26.8531C375.47 26.8548 375.47 26.8565 375.47 26.8582C375.47 26.8599 375.47 26.8617 375.47 26.8634C375.47 26.8651 375.47 26.8668 375.47 26.8685C375.47 26.8702 375.47 26.8719 375.47 26.8737C375.47 26.8754 375.47 26.8771 375.47 26.8788C375.47 26.8805 375.47 26.8822 375.47 26.8839C375.47 26.8857 375.47 26.8874 375.47 26.8891C375.47 26.8908 375.47 26.8925 375.47 26.8942C375.47 26.896 375.47 26.8977 375.47 26.8994C375.47 26.9011 375.47 26.9028 375.47 26.9046C375.47 26.9063 375.47 26.908 375.47 26.9097C375.47 26.9114 375.47 26.9131 375.47 26.9149C375.47 26.9166 375.47 26.9183 375.47 26.92C375.47 26.9218 375.47 26.9235 375.47 26.9252C375.47 26.9269 375.47 26.9286 375.47 26.9304C375.47 26.9321 375.47 26.9338 375.47 26.9355C375.47 26.9372 375.47 26.939 375.47 26.9407C375.47 26.9424 375.47 26.9441 375.47 26.9459C375.47 26.9476 375.47 26.9493 375.47 26.951C375.47 26.9528 375.47 26.9545 375.47 26.9562C375.47 26.9579 375.47 26.9597 375.47 26.9614C375.47 26.9631 375.47 26.9648 375.47 26.9666C375.47 26.9683 375.47 26.97 375.47 26.9717C375.47 26.9735 375.47 26.9752 375.47 26.9769C375.47 26.9787 375.47 26.9804 375.47 26.9821C375.47 26.9838 375.47 26.9856 375.47 26.9873C375.47 26.989 375.47 26.9908 375.47 26.9925C375.47 26.9942 375.47 26.9959 375.47 26.9977C375.47 26.9994 375.47 27.0011 375.47 27.0029C375.47 27.0046 375.47 27.0063 375.47 27.0081C375.47 27.0098 375.47 27.0115 375.47 27.0133C375.47 27.015 375.47 27.0167 375.47 27.0185C375.47 27.0202 375.47 27.0219 375.47 27.0237C375.47 27.0254 375.47 27.0271 375.47 27.0289C375.47 27.0306 375.47 27.0323 375.47 27.0341C375.47 27.0358 375.47 27.0375 375.47 27.0393C375.47 27.041 375.47 27.0427 375.47 27.0445C375.47 27.0462 375.47 27.0479 375.47 27.0497C375.47 27.0514 375.47 27.0532 375.47 27.0549C375.47 27.0566 375.47 27.0584 375.47 27.0601C375.47 27.0618 375.47 27.0636 375.47 27.0653C375.47 27.0671 375.47 27.0688 375.47 27.0705C375.47 27.0723 375.47 27.074 375.47 27.0758C375.47 27.0775 375.47 27.0792 375.47 27.081C375.47 27.0827 375.47 27.0845 375.47 27.0862C375.47 27.088 375.47 27.0897 375.47 27.0914C375.47 27.0932 375.47 27.0949 375.47 27.0967C375.47 27.0984 375.47 27.1002 375.47 27.1019C375.47 27.1036 375.47 27.1054 375.47 27.1071C375.47 27.1089 375.47 27.1106 375.47 27.1124C375.47 27.1141 375.47 27.1159 375.47 27.1176C375.47 27.1193 375.47 27.1211 375.47 27.1228C375.47 27.1246 375.47 27.1263 375.47 27.1281C375.47 27.1298 375.47 27.1316 375.47 27.1333C375.47 27.1351 375.47 27.1368 375.47 27.1386C375.47 27.1403 375.47 27.1421 375.47 27.1438C375.47 27.1456 375.47 27.1473 375.47 27.1491C375.47 27.1508 375.47 27.1526 375.47 27.1543C375.47 27.1561 375.47 27.1578 375.47 27.1596C375.47 27.1613 375.47 27.1631 375.47 27.1648C375.47 27.1666 375.47 27.1683 375.47 27.1701C375.47 27.1718 375.47 27.1736 375.47 27.1753C375.47 27.1771 375.47 27.1788 375.47 27.1806C375.47 27.1823 375.47 27.1841 375.47 27.1858C375.47 27.1876 375.47 27.1894 375.47 27.1911C375.47 27.1929 375.47 27.1946 375.47 27.1964C375.47 27.1981 375.47 27.1999 375.47 27.2016C375.47 27.2034 375.47 27.2052 375.47 27.2069C375.47 27.2087 375.47 27.2104 375.47 27.2122C375.47 27.2139 375.47 27.2157 375.47 27.2175C375.47 27.2192 375.47 27.221 375.47 27.2227C375.47 27.2245 375.47 27.2262 375.47 27.228C375.47 27.2298 375.47 27.2315 375.47 27.2333C375.47 27.235 375.47 27.2368 375.47 27.2386C375.47 27.2403 375.47 27.2421 375.47 27.2439C375.47 27.2456 375.47 27.2474 375.47 27.2491C375.47 27.2509 375.47 27.2527 375.47 27.2544C375.47 27.2562 375.47 27.2579 375.47 27.2597C375.47 27.2615 375.47 27.2632 375.47 27.265C375.47 27.2668 375.47 27.2685 375.47 27.2703C375.47 27.2721 375.47 27.2738 375.47 27.2756C375.47 27.2774 375.47 27.2791 375.47 27.2809C375.47 27.2827 375.47 27.2844 375.47 27.2862C375.47 27.288 375.47 27.2897 375.47 27.2915C375.47 27.2933 375.47 27.295 375.47 27.2968C375.47 27.2986 375.47 27.3003 375.47 27.3021C375.47 27.3039 375.47 27.3056 375.47 27.3074C375.47 27.3092 375.47 27.3109 375.47 27.3127C375.47 27.3145 375.47 27.3163 375.47 27.318C375.47 27.3198 375.47 27.3216 375.47 27.3233C375.47 27.3251 375.47 27.3269 375.47 27.3287C375.47 27.3304 375.47 27.3322 375.47 27.334C375.47 27.3357 375.47 27.3375 375.47 27.3393C375.47 27.3411 375.47 27.3428 375.47 27.3446C375.47 27.3464 375.47 27.3482 375.47 27.3499C375.47 27.3517 375.47 27.3535 375.47 27.3553C375.47 27.357 375.47 27.3588 375.47 27.3606C375.47 27.3624 375.47 27.3641 375.47 27.3659C375.47 27.3677 375.47 27.3695 375.47 27.3712C375.47 27.373 375.47 27.3748 375.47 27.3766C375.47 27.3784 375.47 27.3801 375.47 27.3819C375.47 27.3837 375.47 27.3855 375.47 27.3873C375.47 27.389 375.47 27.3908 375.47 27.3926C375.47 27.3944 375.47 27.3962 375.47 27.3979C375.47 27.3997 375.47 27.4015 375.47 27.4033C375.47 27.4051 375.47 27.4068 375.47 27.4086C375.47 27.4104 375.47 27.4122 375.47 27.414C375.47 27.4158 375.47 27.4175 375.47 27.4193C375.47 27.4211 375.47 27.4229 375.47 27.4247C375.47 27.4265 375.47 27.4282 375.47 27.43C375.47 27.4318 375.47 27.4336 375.47 27.4354C375.47 27.4372 375.47 27.4389 375.47 27.4407C375.47 27.4425 375.47 27.4443 375.47 27.4461C375.47 27.4479 375.47 27.4497 375.47 27.4515C375.47 27.4532 375.47 27.455 375.47 27.4568C375.47 27.4586 375.47 27.4604 375.47 27.4622C375.47 27.464 375.47 27.4658 375.47 27.4675C375.47 27.4693 375.47 27.4711 375.47 27.4729C375.47 27.4747 375.47 27.4765 375.47 27.4783C375.47 27.4801 375.47 27.4819 375.47 27.4837C375.47 27.4855 375.47 27.4872 375.47 27.489C375.47 27.4908 375.47 27.4926 375.47 27.4944C375.47 27.4962 375.47 27.498 375.47 27.4998C375.47 27.5016 375.47 27.5034 375.47 27.5052C375.47 27.507 375.47 27.5088 375.47 27.5106C375.47 27.5123 375.47 27.5141 375.47 27.5159C375.47 27.5177 375.47 27.5195 375.47 27.5213C375.47 27.5231 375.47 27.5249 375.47 27.5267C375.47 27.5285 375.47 27.5303 375.47 27.5321C375.47 27.5339 375.47 27.5357 375.47 27.5375C375.47 27.5393 375.47 27.5411 375.47 27.5429C375.47 27.5447 375.47 27.5465 375.47 27.5483C375.47 27.5501 375.47 27.5519 375.47 27.5537C375.47 27.5555 375.47 27.5573 375.47 27.5591C375.47 27.5609 375.47 27.5627 375.47 27.5645C375.47 27.5663 375.47 27.5681 375.47 27.5699C375.47 27.5717 375.47 27.5735 375.47 27.5753C375.47 27.5771 375.47 27.5789 375.47 27.5807C375.47 27.5825 375.47 27.5843 375.47 27.5861C375.47 27.5879 375.47 27.5897 375.47 27.5915C375.47 27.5933 375.47 27.5951 375.47 27.5969C375.47 27.5987 375.47 27.6006 375.47 27.6024C375.47 27.6042 375.47 27.606 375.47 27.6078C375.47 27.6096 375.47 27.6114 375.47 27.6132C375.47 27.615 375.47 27.6168 375.47 27.6186C375.47 27.6204 375.47 27.6222 375.47 27.624C375.47 27.6259 375.47 27.6277 375.47 27.6295C375.47 27.6313 375.47 27.6331 375.47 27.6349C375.47 27.6367 375.47 27.6385 375.47 27.6403C375.47 27.6421 375.47 27.644 375.47 27.6458C375.47 27.6476 375.47 27.6494 375.47 27.6512C375.47 27.653 375.47 27.6548 375.47 27.6566C375.47 27.6584 375.47 27.6603 375.47 27.6621C375.47 27.6639 375.47 27.6657 375.47 27.6675C375.47 27.6693 375.47 27.6711 375.47 27.673C375.47 27.6748 375.47 27.6766 375.47 27.6784C375.47 27.6802 375.47 27.682 375.47 27.6838C375.47 27.6857 375.47 27.6875 375.47 27.6893C375.47 27.6911 375.47 27.6929 375.47 27.6947C375.47 27.6966 375.47 27.6984 375.47 27.7002C375.47 27.702 375.47 27.7038 375.47 27.7056C375.47 27.7075 375.47 27.7093 375.47 27.7111C375.47 27.7129 375.47 27.7147 375.47 27.7166C375.47 27.7184 375.47 27.7202 375.47 27.722C375.47 27.7238 375.47 27.7257 375.47 27.7275C375.47 27.7293 375.47 27.7311 375.47 27.7329C375.47 27.7348 375.47 27.7366 375.47 27.7384C375.47 27.7402 375.47 27.7421 375.47 27.7439C375.47 27.7457 375.47 27.7475 375.47 27.7494C375.47 27.7512 375.47 27.753 375.47 27.7548C375.47 27.7566 375.47 27.7585 375.47 27.7603C375.47 27.7621 375.47 27.7639 375.47 27.7658C375.47 27.7676 375.47 27.7694 375.47 27.7712C375.47 27.7731 375.47 27.7749 375.47 27.7767C375.47 27.7786 375.47 27.7804 375.47 27.7822C375.47 27.784 375.47 27.7859 375.47 27.7877C375.47 27.7895 375.47 27.7914 375.47 27.7932C375.47 27.795 375.47 27.7968 375.47 27.7987C375.47 27.8005 375.47 27.8023 375.47 27.8042C375.47 27.806 375.47 27.8078 375.47 27.8097C375.47 27.8115 375.47 27.8133 375.47 27.8151C375.47 27.817 375.47 27.8188 375.47 27.8206C375.47 27.8225 375.47 27.8243 375.47 27.8261C375.47 27.828 375.47 27.8298 375.47 27.8316C375.47 27.8335 375.47 27.8353 375.47 27.8371C375.47 27.839 375.47 27.8408 375.47 27.8426C375.47 27.8445 375.47 27.8463 375.47 27.8481C375.47 27.85 375.47 27.8518 375.47 27.8537C375.47 27.8555 375.47 27.8573 375.47 27.8592C375.47 27.861 375.47 27.8628 375.47 27.8647C375.47 27.8665 375.47 27.8684 375.47 27.8702C375.47 27.872 375.47 27.8739 375.47 27.8757C375.47 27.8775 375.47 27.8794 375.47 27.8812C375.47 27.8831 375.47 27.8849 375.47 27.8867C375.47 27.8886 375.47 27.8904 375.47 27.8923C375.47 27.8941 375.47 27.8959 375.47 27.8978C375.47 27.8996 375.47 27.9015 375.47 27.9033C375.47 27.9052 375.47 27.907 375.47 27.9088C375.47 27.9107 375.47 27.9125 375.47 27.9144C375.47 27.9162 375.47 27.9181 375.47 27.9199C375.47 27.9217 375.47 27.9236 375.47 27.9254C375.47 27.9273 375.47 27.9291 375.47 27.931C375.47 27.9328 375.47 27.9347 375.47 27.9365C375.47 27.9384 375.47 27.9402 375.47 27.942C375.47 27.9439 375.47 27.9457 375.47 27.9476C375.47 27.9494 375.47 27.9513 375.47 27.9531C375.47 27.955 375.47 27.9568 375.47 27.9587C375.47 27.9605 375.47 27.9624 375.47 27.9642C375.47 27.9661 375.47 27.9679 375.47 27.9698C375.47 27.9716 375.47 27.9735 375.47 27.9753C375.47 27.9772 375.47 27.979 375.47 27.9809C375.47 27.9827 375.47 27.9846 375.47 27.9864C375.47 27.9883 375.47 27.9901 375.47 27.992C375.47 27.9938 375.47 27.9957 375.47 27.9975C375.47 27.9994 375.47 28.0013 375.47 28.0031C375.47 28.005 375.47 28.0068 375.47 28.0087C375.47 28.0105 375.47 28.0124 375.47 28.0142C375.47 28.0161 375.47 28.018 375.47 28.0198C375.47 28.0217 375.47 28.0235 375.47 28.0254C375.47 28.0272 375.47 28.0291 375.47 28.0309C375.47 28.0328 375.47 28.0347 375.47 28.0365C375.47 28.0384 375.47 28.0402 375.47 28.0421C375.47 28.044 375.47 28.0458 375.47 28.0477C375.47 28.0495 375.47 28.0514 375.47 28.0532C375.47 28.0551 375.47 28.057 375.47 28.0588C375.47 28.0607 375.47 28.0626 375.47 28.0644C375.47 28.0663 375.47 28.0681 375.47 28.07H377.47C377.47 28.0681 377.47 28.0663 377.47 28.0644C377.47 28.0626 377.47 28.0607 377.47 28.0588C377.47 28.057 377.47 28.0551 377.47 28.0532C377.47 28.0514 377.47 28.0495 377.47 28.0477C377.47 28.0458 377.47 28.044 377.47 28.0421C377.47 28.0402 377.47 28.0384 377.47 28.0365C377.47 28.0347 377.47 28.0328 377.47 28.0309C377.47 28.0291 377.47 28.0272 377.47 28.0254C377.47 28.0235 377.47 28.0217 377.47 28.0198C377.47 28.018 377.47 28.0161 377.47 28.0142C377.47 28.0124 377.47 28.0105 377.47 28.0087C377.47 28.0068 377.47 28.005 377.47 28.0031C377.47 28.0013 377.47 27.9994 377.47 27.9975C377.47 27.9957 377.47 27.9938 377.47 27.992C377.47 27.9901 377.47 27.9883 377.47 27.9864C377.47 27.9846 377.47 27.9827 377.47 27.9809C377.47 27.979 377.47 27.9772 377.47 27.9753C377.47 27.9735 377.47 27.9716 377.47 27.9698C377.47 27.9679 377.47 27.9661 377.47 27.9642C377.47 27.9624 377.47 27.9605 377.47 27.9587C377.47 27.9568 377.47 27.955 377.47 27.9531C377.47 27.9513 377.47 27.9494 377.47 27.9476C377.47 27.9457 377.47 27.9439 377.47 27.942C377.47 27.9402 377.47 27.9384 377.47 27.9365C377.47 27.9347 377.47 27.9328 377.47 27.931C377.47 27.9291 377.47 27.9273 377.47 27.9254C377.47 27.9236 377.47 27.9217 377.47 27.9199C377.47 27.9181 377.47 27.9162 377.47 27.9144C377.47 27.9125 377.47 27.9107 377.47 27.9088C377.47 27.907 377.47 27.9052 377.47 27.9033C377.47 27.9015 377.47 27.8996 377.47 27.8978C377.47 27.8959 377.47 27.8941 377.47 27.8923C377.47 27.8904 377.47 27.8886 377.47 27.8867C377.47 27.8849 377.47 27.8831 377.47 27.8812C377.47 27.8794 377.47 27.8775 377.47 27.8757C377.47 27.8739 377.47 27.872 377.47 27.8702C377.47 27.8684 377.47 27.8665 377.47 27.8647C377.47 27.8628 377.47 27.861 377.47 27.8592C377.47 27.8573 377.47 27.8555 377.47 27.8537C377.47 27.8518 377.47 27.85 377.47 27.8481C377.47 27.8463 377.47 27.8445 377.47 27.8426C377.47 27.8408 377.47 27.839 377.47 27.8371C377.47 27.8353 377.47 27.8335 377.47 27.8316C377.47 27.8298 377.47 27.828 377.47 27.8261C377.47 27.8243 377.47 27.8225 377.47 27.8206C377.47 27.8188 377.47 27.817 377.47 27.8151C377.47 27.8133 377.47 27.8115 377.47 27.8097C377.47 27.8078 377.47 27.806 377.47 27.8042C377.47 27.8023 377.47 27.8005 377.47 27.7987C377.47 27.7968 377.47 27.795 377.47 27.7932C377.47 27.7914 377.47 27.7895 377.47 27.7877C377.47 27.7859 377.47 27.784 377.47 27.7822C377.47 27.7804 377.47 27.7786 377.47 27.7767C377.47 27.7749 377.47 27.7731 377.47 27.7712C377.47 27.7694 377.47 27.7676 377.47 27.7658C377.47 27.7639 377.47 27.7621 377.47 27.7603C377.47 27.7585 377.47 27.7566 377.47 27.7548C377.47 27.753 377.47 27.7512 377.47 27.7494C377.47 27.7475 377.47 27.7457 377.47 27.7439C377.47 27.7421 377.47 27.7402 377.47 27.7384C377.47 27.7366 377.47 27.7348 377.47 27.7329C377.47 27.7311 377.47 27.7293 377.47 27.7275C377.47 27.7257 377.47 27.7238 377.47 27.722C377.47 27.7202 377.47 27.7184 377.47 27.7166C377.47 27.7147 377.47 27.7129 377.47 27.7111C377.47 27.7093 377.47 27.7075 377.47 27.7056C377.47 27.7038 377.47 27.702 377.47 27.7002C377.47 27.6984 377.47 27.6966 377.47 27.6947C377.47 27.6929 377.47 27.6911 377.47 27.6893C377.47 27.6875 377.47 27.6857 377.47 27.6838C377.47 27.682 377.47 27.6802 377.47 27.6784C377.47 27.6766 377.47 27.6748 377.47 27.673C377.47 27.6711 377.47 27.6693 377.47 27.6675C377.47 27.6657 377.47 27.6639 377.47 27.6621C377.47 27.6603 377.47 27.6584 377.47 27.6566C377.47 27.6548 377.47 27.653 377.47 27.6512C377.47 27.6494 377.47 27.6476 377.47 27.6458C377.47 27.644 377.47 27.6421 377.47 27.6403C377.47 27.6385 377.47 27.6367 377.47 27.6349C377.47 27.6331 377.47 27.6313 377.47 27.6295C377.47 27.6277 377.47 27.6259 377.47 27.624C377.47 27.6222 377.47 27.6204 377.47 27.6186C377.47 27.6168 377.47 27.615 377.47 27.6132C377.47 27.6114 377.47 27.6096 377.47 27.6078C377.47 27.606 377.47 27.6042 377.47 27.6024C377.47 27.6006 377.47 27.5987 377.47 27.5969C377.47 27.5951 377.47 27.5933 377.47 27.5915C377.47 27.5897 377.47 27.5879 377.47 27.5861C377.47 27.5843 377.47 27.5825 377.47 27.5807C377.47 27.5789 377.47 27.5771 377.47 27.5753C377.47 27.5735 377.47 27.5717 377.47 27.5699C377.47 27.5681 377.47 27.5663 377.47 27.5645C377.47 27.5627 377.47 27.5609 377.47 27.5591C377.47 27.5573 377.47 27.5555 377.47 27.5537C377.47 27.5519 377.47 27.5501 377.47 27.5483C377.47 27.5465 377.47 27.5447 377.47 27.5429C377.47 27.5411 377.47 27.5393 377.47 27.5375C377.47 27.5357 377.47 27.5339 377.47 27.5321C377.47 27.5303 377.47 27.5285 377.47 27.5267C377.47 27.5249 377.47 27.5231 377.47 27.5213C377.47 27.5195 377.47 27.5177 377.47 27.5159C377.47 27.5141 377.47 27.5123 377.47 27.5106C377.47 27.5088 377.47 27.507 377.47 27.5052C377.47 27.5034 377.47 27.5016 377.47 27.4998C377.47 27.498 377.47 27.4962 377.47 27.4944C377.47 27.4926 377.47 27.4908 377.47 27.489C377.47 27.4872 377.47 27.4855 377.47 27.4837C377.47 27.4819 377.47 27.4801 377.47 27.4783C377.47 27.4765 377.47 27.4747 377.47 27.4729C377.47 27.4711 377.47 27.4693 377.47 27.4675C377.47 27.4658 377.47 27.464 377.47 27.4622C377.47 27.4604 377.47 27.4586 377.47 27.4568C377.47 27.455 377.47 27.4532 377.47 27.4515C377.47 27.4497 377.47 27.4479 377.47 27.4461C377.47 27.4443 377.47 27.4425 377.47 27.4407C377.47 27.4389 377.47 27.4372 377.47 27.4354C377.47 27.4336 377.47 27.4318 377.47 27.43C377.47 27.4282 377.47 27.4265 377.47 27.4247C377.47 27.4229 377.47 27.4211 377.47 27.4193C377.47 27.4175 377.47 27.4158 377.47 27.414C377.47 27.4122 377.47 27.4104 377.47 27.4086C377.47 27.4068 377.47 27.4051 377.47 27.4033C377.47 27.4015 377.47 27.3997 377.47 27.3979C377.47 27.3962 377.47 27.3944 377.47 27.3926C377.47 27.3908 377.47 27.389 377.47 27.3873C377.47 27.3855 377.47 27.3837 377.47 27.3819C377.47 27.3801 377.47 27.3784 377.47 27.3766C377.47 27.3748 377.47 27.373 377.47 27.3712C377.47 27.3695 377.47 27.3677 377.47 27.3659C377.47 27.3641 377.47 27.3624 377.47 27.3606C377.47 27.3588 377.47 27.357 377.47 27.3553C377.47 27.3535 377.47 27.3517 377.47 27.3499C377.47 27.3482 377.47 27.3464 377.47 27.3446C377.47 27.3428 377.47 27.3411 377.47 27.3393C377.47 27.3375 377.47 27.3357 377.47 27.334C377.47 27.3322 377.47 27.3304 377.47 27.3287C377.47 27.3269 377.47 27.3251 377.47 27.3233C377.47 27.3216 377.47 27.3198 377.47 27.318C377.47 27.3163 377.47 27.3145 377.47 27.3127C377.47 27.3109 377.47 27.3092 377.47 27.3074C377.47 27.3056 377.47 27.3039 377.47 27.3021C377.47 27.3003 377.47 27.2986 377.47 27.2968C377.47 27.295 377.47 27.2933 377.47 27.2915C377.47 27.2897 377.47 27.288 377.47 27.2862C377.47 27.2844 377.47 27.2827 377.47 27.2809C377.47 27.2791 377.47 27.2774 377.47 27.2756C377.47 27.2738 377.47 27.2721 377.47 27.2703C377.47 27.2685 377.47 27.2668 377.47 27.265C377.47 27.2632 377.47 27.2615 377.47 27.2597C377.47 27.2579 377.47 27.2562 377.47 27.2544C377.47 27.2527 377.47 27.2509 377.47 27.2491C377.47 27.2474 377.47 27.2456 377.47 27.2439C377.47 27.2421 377.47 27.2403 377.47 27.2386C377.47 27.2368 377.47 27.235 377.47 27.2333C377.47 27.2315 377.47 27.2298 377.47 27.228C377.47 27.2262 377.47 27.2245 377.47 27.2227C377.47 27.221 377.47 27.2192 377.47 27.2175C377.47 27.2157 377.47 27.2139 377.47 27.2122C377.47 27.2104 377.47 27.2087 377.47 27.2069C377.47 27.2052 377.47 27.2034 377.47 27.2016C377.47 27.1999 377.47 27.1981 377.47 27.1964C377.47 27.1946 377.47 27.1929 377.47 27.1911C377.47 27.1894 377.47 27.1876 377.47 27.1858C377.47 27.1841 377.47 27.1823 377.47 27.1806C377.47 27.1788 377.47 27.1771 377.47 27.1753C377.47 27.1736 377.47 27.1718 377.47 27.1701C377.47 27.1683 377.47 27.1666 377.47 27.1648C377.47 27.1631 377.47 27.1613 377.47 27.1596C377.47 27.1578 377.47 27.1561 377.47 27.1543C377.47 27.1526 377.47 27.1508 377.47 27.1491C377.47 27.1473 377.47 27.1456 377.47 27.1438C377.47 27.1421 377.47 27.1403 377.47 27.1386C377.47 27.1368 377.47 27.1351 377.47 27.1333C377.47 27.1316 377.47 27.1298 377.47 27.1281C377.47 27.1263 377.47 27.1246 377.47 27.1228C377.47 27.1211 377.47 27.1193 377.47 27.1176C377.47 27.1159 377.47 27.1141 377.47 27.1124C377.47 27.1106 377.47 27.1089 377.47 27.1071C377.47 27.1054 377.47 27.1036 377.47 27.1019C377.47 27.1002 377.47 27.0984 377.47 27.0967C377.47 27.0949 377.47 27.0932 377.47 27.0914C377.47 27.0897 377.47 27.088 377.47 27.0862C377.47 27.0845 377.47 27.0827 377.47 27.081C377.47 27.0792 377.47 27.0775 377.47 27.0758C377.47 27.074 377.47 27.0723 377.47 27.0705C377.47 27.0688 377.47 27.0671 377.47 27.0653C377.47 27.0636 377.47 27.0618 377.47 27.0601C377.47 27.0584 377.47 27.0566 377.47 27.0549C377.47 27.0532 377.47 27.0514 377.47 27.0497C377.47 27.0479 377.47 27.0462 377.47 27.0445C377.47 27.0427 377.47 27.041 377.47 27.0393C377.47 27.0375 377.47 27.0358 377.47 27.0341C377.47 27.0323 377.47 27.0306 377.47 27.0289C377.47 27.0271 377.47 27.0254 377.47 27.0237C377.47 27.0219 377.47 27.0202 377.47 27.0185C377.47 27.0167 377.47 27.015 377.47 27.0133C377.47 27.0115 377.47 27.0098 377.47 27.0081C377.47 27.0063 377.47 27.0046 377.47 27.0029C377.47 27.0011 377.47 26.9994 377.47 26.9977C377.47 26.9959 377.47 26.9942 377.47 26.9925C377.47 26.9908 377.47 26.989 377.47 26.9873C377.47 26.9856 377.47 26.9838 377.47 26.9821C377.47 26.9804 377.47 26.9787 377.47 26.9769C377.47 26.9752 377.47 26.9735 377.47 26.9717C377.47 26.97 377.47 26.9683 377.47 26.9666C377.47 26.9648 377.47 26.9631 377.47 26.9614C377.47 26.9597 377.47 26.9579 377.47 26.9562C377.47 26.9545 377.47 26.9528 377.47 26.951C377.47 26.9493 377.47 26.9476 377.47 26.9459C377.47 26.9441 377.47 26.9424 377.47 26.9407C377.47 26.939 377.47 26.9372 377.47 26.9355C377.47 26.9338 377.47 26.9321 377.47 26.9304C377.47 26.9286 377.47 26.9269 377.47 26.9252C377.47 26.9235 377.47 26.9218 377.47 26.92C377.47 26.9183 377.47 26.9166 377.47 26.9149C377.47 26.9131 377.47 26.9114 377.47 26.9097C377.47 26.908 377.47 26.9063 377.47 26.9046C377.47 26.9028 377.47 26.9011 377.47 26.8994C377.47 26.8977 377.47 26.896 377.47 26.8942C377.47 26.8925 377.47 26.8908 377.47 26.8891C377.47 26.8874 377.47 26.8857 377.47 26.8839C377.47 26.8822 377.47 26.8805 377.47 26.8788C377.47 26.8771 377.47 26.8754 377.47 26.8737C377.47 26.8719 377.47 26.8702 377.47 26.8685C377.47 26.8668 377.47 26.8651 377.47 26.8634C377.47 26.8617 377.47 26.8599 377.47 26.8582C377.47 26.8565 377.47 26.8548 377.47 26.8531C377.47 26.8514 377.47 26.8497 377.47 26.848C377.47 26.8463 377.47 26.8445 377.47 26.8428C377.47 26.8411 377.47 26.8394 377.47 26.8377C377.47 26.836 377.47 26.8343 377.47 26.8326C377.47 26.8309 377.47 26.8292 377.47 26.8274C377.47 26.8257 377.47 26.824 377.47 26.8223C377.47 26.8206 377.47 26.8189 377.47 26.8172C377.47 26.8155 377.47 26.8138 377.47 26.8121C377.47 26.8104 377.47 26.8087 377.47 26.807C377.47 26.8053 377.47 26.8035 377.47 26.8018C377.47 26.8001 377.47 26.7984 377.47 26.7967C377.47 26.795 377.47 26.7933 377.47 26.7916C377.47 26.7899 377.47 26.7882 377.47 26.7865C377.47 26.7848 377.47 26.7831 377.47 26.7814C377.47 26.7797 377.47 26.778 377.47 26.7763C377.47 26.7746 377.47 26.7729 377.47 26.7712C377.47 26.7695 377.47 26.7678 377.47 26.7661C377.47 26.7644 377.47 26.7627 377.47 26.761C377.47 26.7593 377.47 26.7576 377.47 26.7559C377.47 26.7542 377.47 26.7525 377.47 26.7508C377.47 26.7491 377.47 26.7474 377.47 26.7457C377.47 26.744 377.47 26.7423 377.47 26.7406C377.47 26.7389 377.47 26.7372 377.47 26.7355C377.47 26.7338 377.47 26.7321 377.47 26.7304C377.47 26.7287 377.47 26.727 377.47 26.7253C377.47 26.7236 377.47 26.7219 377.47 26.7202C377.47 26.7185 377.47 26.7169 377.47 26.7152C377.47 26.7135 377.47 26.7118 377.47 26.7101C377.47 26.7084 377.47 26.7067 377.47 26.705C377.47 26.7033 377.47 26.7016 377.47 26.6999C377.47 26.6982 377.47 26.6965 377.47 26.6948C377.47 26.6932 377.47 26.6915 377.47 26.6898C377.47 26.6881 377.47 26.6864 377.47 26.6847C377.47 26.683 377.47 26.6813 377.47 26.6796C377.47 26.6779 377.47 26.6763 377.47 26.6746C377.47 26.6729 377.47 26.6712 377.47 26.6695C377.47 26.6678 377.47 26.6661 377.47 26.6644C377.47 26.6628 377.47 26.6611 377.47 26.6594C377.47 26.6577 377.47 26.656 377.47 26.6543C377.47 26.6526 377.47 26.6509 377.47 26.6493C377.47 26.6476 377.47 26.6459 377.47 26.6442C377.47 26.6425 377.47 26.6408 377.47 26.6392C377.47 26.6375 377.47 26.6358 377.47 26.6341C377.47 26.6324 377.47 26.6307 377.47 26.629C377.47 26.6274 377.47 26.6257 377.47 26.624C377.47 26.6223 377.47 26.6206 377.47 26.619C377.47 26.6173 377.47 26.6156 377.47 26.6139C377.47 26.6122 377.47 26.6106 377.47 26.6089C377.47 26.6072 377.47 26.6055 377.47 26.6038C377.47 26.6022 377.47 26.6005 377.47 26.5988C377.47 26.5971 377.47 26.5954 377.47 26.5938C377.47 26.5921 377.47 26.5904 377.47 26.5887C377.47 26.587 377.47 26.5854 377.47 26.5837C377.47 26.582 377.47 26.5803 377.47 26.5787C377.47 26.577 377.47 26.5753 377.47 26.5736C377.47 26.572 377.47 26.5703 377.47 26.5686C377.47 26.5669 377.47 26.5653 377.47 26.5636C377.47 26.5619 377.47 26.5602 377.47 26.5586C377.47 26.5569 377.47 26.5552 377.47 26.5535C377.47 26.5519 377.47 26.5502 377.47 26.5485C377.47 26.5469 377.47 26.5452 377.47 26.5435C377.47 26.5418 377.47 26.5402 377.47 26.5385C377.47 26.5368 377.47 26.5352 377.47 26.5335C377.47 26.5318 377.47 26.5301 377.47 26.5285C377.47 26.5268 377.47 26.5251 377.47 26.5235C377.47 26.5218 377.47 26.5201 377.47 26.5185C377.47 26.5168 377.47 26.5151 377.47 26.5135C377.47 26.5118 377.47 26.5101 377.47 26.5085C377.47 26.5068 377.47 26.5051 377.47 26.5035C377.47 26.5018 377.47 26.5001 377.47 26.4985C377.47 26.4968 377.47 26.4951 377.47 26.4935C377.47 26.4918 377.47 26.4901 377.47 26.4885C377.47 26.4868 377.47 26.4851 377.47 26.4835C377.47 26.4818 377.47 26.4802 377.47 26.4785C377.47 26.4768 377.47 26.4752 377.47 26.4735C377.47 26.4718 377.47 26.4702 377.47 26.4685C377.47 26.4669 377.47 26.4652 377.47 26.4635C377.47 26.4619 377.47 26.4602 377.47 26.4586C377.47 26.4569 377.47 26.4552 377.47 26.4536C377.47 26.4519 377.47 26.4503 377.47 26.4486C377.47 26.4469 377.47 26.4453 377.47 26.4436C377.47 26.442 377.47 26.4403 377.47 26.4386C377.47 26.437 377.47 26.4353 377.47 26.4337C377.47 26.432 377.47 26.4304 377.47 26.4287C377.47 26.427 377.47 26.4254 377.47 26.4237C377.47 26.4221 377.47 26.4204 377.47 26.4188C377.47 26.4171 377.47 26.4155 377.47 26.4138C377.47 26.4121 377.47 26.4105 377.47 26.4088C377.47 26.4072 377.47 26.4055 377.47 26.4039C377.47 26.4022 377.47 26.4006 377.47 26.3989C377.47 26.3973 377.47 26.3956 377.47 26.394C377.47 26.3923 377.47 26.3907 377.47 26.389C377.47 26.3874 377.47 26.3857 377.47 26.3841C377.47 26.3824 377.47 26.3808 377.47 26.3791C377.47 26.3775 377.47 26.3758 377.47 26.3742C377.47 26.3725 377.47 26.3709 377.47 26.3692C377.47 26.3676 377.47 26.3659 377.47 26.3643C377.47 26.3626 377.47 26.361 377.47 26.3593C377.47 26.3577 377.47 26.356 377.47 26.3544C377.47 26.3527 377.47 26.3511 377.47 26.3495C377.47 26.3478 377.47 26.3462 377.47 26.3445C377.47 26.3429 377.47 26.3412 377.47 26.3396C377.47 26.3379 377.47 26.3363 377.47 26.3346C377.47 26.333 377.47 26.3314 377.47 26.3297C377.47 26.3281 377.47 26.3264 377.47 26.3248C377.47 26.3231 377.47 26.3215 377.47 26.3199C377.47 26.3182 377.47 26.3166 377.47 26.3149C377.47 26.3133 377.47 26.3117 377.47 26.31C377.47 26.3084 377.47 26.3067 377.47 26.3051C377.47 26.3035 377.47 26.3018 377.47 26.3002C377.47 26.2985 377.47 26.2969 377.47 26.2953C377.47 26.2936 377.47 26.292 377.47 26.2903C377.47 26.2887 377.47 26.2871 377.47 26.2854C377.47 26.2838 377.47 26.2822 377.47 26.2805C377.47 26.2789 377.47 26.2773 377.47 26.2756C377.47 26.274 377.47 26.2723 377.47 26.2707C377.47 26.2691 377.47 26.2674 377.47 26.2658C377.47 26.2642 377.47 26.2625 377.47 26.2609C377.47 26.2593 377.47 26.2576 377.47 26.256C377.47 26.2544 377.47 26.2527 377.47 26.2511C377.47 26.2495 377.47 26.2478 377.47 26.2462C377.47 26.2446 377.47 26.2429 377.47 26.2413C377.47 26.2397 377.47 26.238 377.47 26.2364C377.47 26.2348 377.47 26.2332 377.47 26.2315C377.47 26.2299 377.47 26.2283 377.47 26.2266C377.47 26.225 377.47 26.2234 377.47 26.2218C377.47 26.2201 377.47 26.2185 377.47 26.2169C377.47 26.2152 377.47 26.2136 377.47 26.212C377.47 26.2104 377.47 26.2087 377.47 26.2071C377.47 26.2055 377.47 26.2039 377.47 26.2022C377.47 26.2006 377.47 26.199 377.47 26.1973C377.47 26.1957 377.47 26.1941 377.47 26.1925C377.47 26.1908 377.47 26.1892 377.47 26.1876C377.47 26.186 377.47 26.1844 377.47 26.1827C377.47 26.1811 377.47 26.1795 377.47 26.1779C377.47 26.1762 377.47 26.1746 377.47 26.173C377.47 26.1714 377.47 26.1698 377.47 26.1681C377.47 26.1665 377.47 26.1649 377.47 26.1633C377.47 26.1616 377.47 26.16 377.47 26.1584C377.47 26.1568 377.47 26.1552 377.47 26.1535C377.47 26.1519 377.47 26.1503 377.47 26.1487C377.47 26.1471 377.47 26.1455 377.47 26.1438C377.47 26.1422 377.47 26.1406 377.47 26.139C377.47 26.1374 377.47 26.1357 377.47 26.1341C377.47 26.1325 377.47 26.1309 377.47 26.1293C377.47 26.1277 377.47 26.1261 377.47 26.1244C377.47 26.1228 377.47 26.1212 377.47 26.1196C377.47 26.118 377.47 26.1164 377.47 26.1147C377.47 26.1131 377.47 26.1115 377.47 26.1099C377.47 26.1083 377.47 26.1067 377.47 26.1051C377.47 26.1035 377.47 26.1018 377.47 26.1002C377.47 26.0986 377.47 26.097 377.47 26.0954C377.47 26.0938 377.47 26.0922 377.47 26.0906C377.47 26.089 377.47 26.0873 377.47 26.0857C377.47 26.0841 377.47 26.0825 377.47 26.0809C377.47 26.0793 377.47 26.0777 377.47 26.0761C377.47 26.0745 377.47 26.0729 377.47 26.0712C377.47 26.0696 377.47 26.068 377.47 26.0664C377.47 26.0648 377.47 26.0632 377.47 26.0616C377.47 26.06 377.47 26.0584 377.47 26.0568C377.47 26.0552 377.47 26.0536 377.47 26.052C377.47 26.0504 377.47 26.0488 377.47 26.0472C377.47 26.0455 377.47 26.0439 377.47 26.0423C377.47 26.0407 377.47 26.0391 377.47 26.0375C377.47 26.0359 377.47 26.0343 377.47 26.0327C377.47 26.0311 377.47 26.0295 377.47 26.0279C377.47 26.0263 377.47 26.0247 377.47 26.0231C377.47 26.0215 377.47 26.0199 377.47 26.0183C377.47 26.0167 377.47 26.0151 377.47 26.0135C377.47 26.0119 377.47 26.0103 377.47 26.0087C377.47 26.0071 377.47 26.0055 377.47 26.0039C377.47 26.0023 377.47 26.0007 377.47 25.9991C377.47 25.9975 377.47 25.9959 377.47 25.9943C377.47 25.9927 377.47 25.9911 377.47 25.9895C377.47 25.9879 377.47 25.9863 377.47 25.9847C377.47 25.9831 377.47 25.9815 377.47 25.9799C377.47 25.9784 377.47 25.9768 377.47 25.9752C377.47 25.9736 377.47 25.972 377.47 25.9704C377.47 25.9688 377.47 25.9672 377.47 25.9656C377.47 25.964 377.47 25.9624 377.47 25.9608C377.47 25.9592 377.47 25.9576 377.47 25.956C377.47 25.9544 377.47 25.9529 377.47 25.9513C377.47 25.9497 377.47 25.9481 377.47 25.9465C377.47 25.9449 377.47 25.9433 377.47 25.9417C377.47 25.9401 377.47 25.9385 377.47 25.9369C377.47 25.9354 377.47 25.9338 377.47 25.9322C377.47 25.9306 377.47 25.929 377.47 25.9274C377.47 25.9258 377.47 25.9242 377.47 25.9227C377.47 25.9211 377.47 25.9195 377.47 25.9179C377.47 25.9163 377.47 25.9147 377.47 25.9131C377.47 25.9115 377.47 25.91 377.47 25.9084C377.47 25.9068 377.47 25.9052 377.47 25.9036C377.47 25.902 377.47 25.9004 377.47 25.8989C377.47 25.8973 377.47 25.8957 377.47 25.8941C377.47 25.8925 377.47 25.8909 377.47 25.8894C377.47 25.8878 377.47 25.8862 377.47 25.8846C377.47 25.883 377.47 25.8814 377.47 25.8799C377.47 25.8783 377.47 25.8767 377.47 25.8751C377.47 25.8735 377.47 25.872 377.47 25.8704C377.47 25.8688 377.47 25.8672 377.47 25.8656C377.47 25.8641 377.47 25.8625 377.47 25.8609C377.47 25.8593 377.47 25.8577 377.47 25.8562C377.47 25.8546 377.47 25.853 377.47 25.8514C377.47 25.8499 377.47 25.8483 377.47 25.8467C377.47 25.8451 377.47 25.8435 377.47 25.842C377.47 25.8404 377.47 25.8388 377.47 25.8372C377.47 25.8357 377.47 25.8341 377.47 25.8325C377.47 25.8309 377.47 25.8294 377.47 25.8278C377.47 25.8262 377.47 25.8246 377.47 25.8231C377.47 25.8215 377.47 25.8199 377.47 25.8184C377.47 25.8168 377.47 25.8152 377.47 25.8136C377.47 25.8121 377.47 25.8105 377.47 25.8089C377.47 25.8073 377.47 25.8058 377.47 25.8042C377.47 25.8026 377.47 25.8011 377.47 25.7995C377.47 25.7979 377.47 25.7964 377.47 25.7948C377.47 25.7932 377.47 25.7916 377.47 25.7901C377.47 25.7885 377.47 25.7869 377.47 25.7854C377.47 25.7838 377.47 25.7822 377.47 25.7807C377.47 25.7791 377.47 25.7775 377.47 25.776C377.47 25.7744 377.47 25.7728 377.47 25.7713C377.47 25.7697 377.47 25.7681 377.47 25.7666C377.47 25.765 377.47 25.7634 377.47 25.7619C377.47 25.7603 377.47 25.7587 377.47 25.7572C377.47 25.7556 377.47 25.754 377.47 25.7525C377.47 25.7509 377.47 25.7494 377.47 25.7478C377.47 25.7462 377.47 25.7447 377.47 25.7431C377.47 25.7415 377.47 25.74 377.47 25.7384C377.47 25.7369 377.47 25.7353 377.47 25.7337C377.47 25.7322 377.47 25.7306 377.47 25.729C377.47 25.7275 377.47 25.7259 377.47 25.7244C377.47 25.7228 377.47 25.7212 377.47 25.7197C377.47 25.7181 377.47 25.7166 377.47 25.715C377.47 25.7135 377.47 25.7119 377.47 25.7103C377.47 25.7088 377.47 25.7072 377.47 25.7057C377.47 25.7041 377.47 25.7026 377.47 25.701C377.47 25.6994 377.47 25.6979 377.47 25.6963C377.47 25.6948 377.47 25.6932 377.47 25.6917C377.47 25.6901 377.47 25.6885 377.47 25.687C377.47 25.6854 377.47 25.6839 377.47 25.6823C377.47 25.6808 377.47 25.6792 377.47 25.6777C377.47 25.6761 377.47 25.6746 377.47 25.673C377.47 25.6715 377.47 25.6699 377.47 25.6684C377.47 25.6668 377.47 25.6653 377.47 25.6637C377.47 25.6621 377.47 25.6606 377.47 25.659C377.47 25.6575 377.47 25.6559 377.47 25.6544C377.47 25.6528 377.47 25.6513 377.47 25.6497C377.47 25.6482 377.47 25.6467 377.47 25.6451C377.47 25.6436 377.47 25.642 377.47 25.6405C377.47 25.6389 377.47 25.6374 377.47 25.6358C377.47 25.6343 377.47 25.6327 377.47 25.6312C377.47 25.6296 377.47 25.6281 377.47 25.6265C377.47 25.625 377.47 25.6234 377.47 25.6219C377.47 25.6204 377.47 25.6188 377.47 25.6173C377.47 25.6157 377.47 25.6142 377.47 25.6126C377.47 25.6111 377.47 25.6095 377.47 25.608C377.47 25.6065 377.47 25.6049 377.47 25.6034C377.47 25.6018 377.47 25.6003 377.47 25.5987C377.47 25.5972 377.47 25.5957 377.47 25.5941C377.47 25.5926 377.47 25.591 377.47 25.5895C377.47 25.588 377.47 25.5864 377.47 25.5849C377.47 25.5833 377.47 25.5818 377.47 25.5803C377.47 25.5787 377.47 25.5772 377.47 25.5756C377.47 25.5741 377.47 25.5726 377.47 25.571C377.47 25.5695 377.47 25.5679 377.47 25.5664C377.47 25.5649 377.47 25.5633 377.47 25.5618C377.47 25.5603 377.47 25.5587 377.47 25.5572C377.47 25.5557 377.47 25.5541 377.47 25.5526C377.47 25.5511 377.47 25.5495 377.47 25.548C377.47 25.5464 377.47 25.5449 377.47 25.5434C377.47 25.5418 377.47 25.5403 377.47 25.5388C377.47 25.5372 377.47 25.5357 377.47 25.5342C377.47 25.5326 377.47 25.5311 377.47 25.5296C377.47 25.528 377.47 25.5265 377.47 25.525C377.47 25.5235 377.47 25.5219 377.47 25.5204C377.47 25.5189 377.47 25.5173 377.47 25.5158C377.47 25.5143 377.47 25.5127 377.47 25.5112C377.47 25.5097 377.47 25.5082 377.47 25.5066C377.47 25.5051 377.47 25.5036 377.47 25.502C377.47 25.5005 377.47 25.499 377.47 25.4975C377.47 25.4959 377.47 25.4944 377.47 25.4929C377.47 25.4913 377.47 25.4898 377.47 25.4883C377.47 25.4868 377.47 25.4852 377.47 25.4837C377.47 25.4822 377.47 25.4807 377.47 25.4791C377.47 25.4776 377.47 25.4761 377.47 25.4746C377.47 25.473 377.47 25.4715 377.47 25.47H375.47ZM375.471 28.1154C375.518 29.1295 375.656 30.1418 375.885 31.1516L377.836 30.7084C377.632 29.8115 377.51 28.9172 377.469 28.0246L375.471 28.1154ZM377.543 30.1989L374.618 27.4689L373.253 28.9311L376.178 31.6611L377.543 30.1989ZM374.834 28.638C375.604 27.0579 376.586 25.7611 377.775 24.7307L376.465 23.2193C375.054 24.4422 373.913 25.9621 373.036 27.762L374.834 28.638ZM377.789 24.7183C378.977 23.6498 380.388 22.8514 382.038 22.3282L381.433 20.4218C379.53 21.0253 377.864 21.9602 376.451 23.2317L377.789 24.7183ZM382.052 22.3237C383.757 21.7551 385.642 21.465 387.715 21.465V19.465C385.455 19.465 383.353 19.7816 381.419 20.4263L382.052 22.3237ZM387.715 21.465C390.527 21.465 393.014 22.0222 395.198 23.1144L396.093 21.3256C393.597 20.0778 390.798 19.465 387.715 19.465V21.465ZM395.198 23.1144C397.385 24.2078 399.112 25.7367 400.398 27.7068L402.073 26.6132C400.586 24.3366 398.586 22.5722 396.093 21.3256L395.198 23.1144ZM400.406 27.7186C401.712 29.6579 402.38 31.9498 402.38 34.635H404.38C404.38 31.6002 403.619 28.9088 402.065 26.6014L400.406 27.7186ZM402.38 34.635C402.38 37.5339 401.649 40.0199 400.213 42.1331L401.868 43.2569C403.552 40.7767 404.38 37.8895 404.38 34.635H402.38ZM400.211 42.1366C398.799 44.2337 396.881 45.875 394.43 47.0597L395.301 48.8603C398.05 47.5317 400.248 45.663 401.87 43.2534L400.211 42.1366ZM394.437 47.0566C392.033 48.1975 389.279 48.78 386.155 48.78V50.78C389.532 50.78 392.585 50.1491 395.294 48.8634L394.437 47.0566ZM385.57 42.915C387.162 42.915 388.609 42.6339 389.889 42.043L389.051 40.227C388.078 40.6761 386.926 40.915 385.57 40.915V42.915ZM389.904 42.036C391.234 41.3957 392.292 40.4699 393.048 39.26L391.352 38.2C390.809 39.0701 390.047 39.7476 389.037 40.234L389.904 42.036ZM393.048 39.26C393.807 38.0461 394.175 36.6672 394.175 35.155H392.175C392.175 36.3294 391.894 37.3339 391.352 38.2L393.048 39.26ZM394.175 35.155C394.175 32.8174 393.357 30.878 391.677 29.4525L390.383 30.9775C391.563 31.9787 392.175 33.3326 392.175 35.155H394.175ZM391.702 29.474C390.088 28.0118 387.964 27.33 385.44 27.33V29.33C387.597 29.33 389.199 29.9049 390.359 30.956L391.702 29.474ZM385.44 27.33C383.75 27.33 382.221 27.6594 380.885 28.3522L381.806 30.1278C382.81 29.6072 384.011 29.33 385.44 29.33V27.33ZM380.912 28.339C379.587 28.9769 378.515 29.8953 377.718 31.0903L379.382 32.1997C379.972 31.3147 380.764 30.6298 381.779 30.141L380.912 28.339ZM377.713 31.0987C376.944 32.2782 376.575 33.6435 376.575 35.155H378.575C378.575 33.9799 378.857 33.0051 379.388 32.1913L377.713 31.0987ZM376.575 35.155C376.575 36.6307 376.947 37.9864 377.702 39.195L379.398 38.135C378.854 37.2636 378.575 36.2793 378.575 35.155H376.575ZM377.713 39.2113C378.467 40.3675 379.514 41.2804 380.82 41.9578L381.741 40.1822C380.707 39.6462 379.934 38.9558 379.388 38.1187L377.713 39.2113ZM380.847 41.971C382.186 42.6161 383.774 42.915 385.57 42.915V40.915C383.987 40.915 382.714 40.6506 381.714 40.169L380.847 41.971ZM408.359 34.765H407.359V35.765H408.359V34.765ZM408.359 26.64V25.64H407.359V26.64H408.359ZM426.754 26.64H427.754V25.64H426.754V26.64ZM426.754 34.765V35.765H427.754V34.765H426.754ZM409.359 34.765V26.64H407.359V34.765H409.359ZM408.359 27.64H426.754V25.64H408.359V27.64ZM425.754 26.64V34.765H427.754V26.64H425.754ZM426.754 33.765H408.359V35.765H426.754V33.765ZM441.428 48.09L441.049 49.0156L441.061 49.0204L441.428 48.09ZM434.733 43.215L433.935 43.8176L433.941 43.8255L434.733 43.215ZM434.668 28.655L433.889 28.0282L433.887 28.0303L434.668 28.655ZM441.363 24.17L441.692 25.1144L441.704 25.1098L441.363 24.17ZM461.578 24.17L461.236 25.1098L461.245 25.1129L461.253 25.1158L461.578 24.17ZM468.273 28.655L467.485 29.2713L467.493 29.2808L467.5 29.2901L468.273 28.655ZM468.273 43.215L469.065 43.8255L469.071 43.8176L468.273 43.215ZM461.513 48.09L461.879 49.0204L461.887 49.0175L461.513 48.09ZM457.678 40.29L457.078 39.4899L457.067 39.4982L457.678 40.29ZM457.678 30.735L457.067 31.5268L457.079 31.5364L457.092 31.5457L457.678 30.735ZM445.263 30.735L445.859 31.5377L445.866 31.5323L445.874 31.5268L445.263 30.735ZM445.263 40.29L444.652 41.0818H444.652L445.263 40.29ZM442.208 26.51L441.863 27.4489L441.868 27.4507L442.208 26.51ZM436.098 22.35L435.304 22.9588L435.312 22.9691L435.32 22.9792L436.098 22.35ZM436.163 8.83L436.954 9.44148L436.961 9.43283L436.163 8.83ZM442.338 4.345L442.704 5.27566L442.717 5.2703L442.338 4.345ZM460.603 4.345L460.218 5.26807L460.227 5.27191L460.237 5.27556L460.603 4.345ZM466.778 8.83L465.98 9.43283L465.987 9.44277L465.995 9.45252L466.778 8.83ZM466.843 22.35L466.058 21.7298L466.056 21.7322L466.843 22.35ZM456.638 20.27L456.029 19.4764L456.023 19.4814L456.016 19.4865L456.638 20.27ZM456.573 11.95L455.964 12.7436L455.971 12.7484L455.977 12.7531L456.573 11.95ZM446.368 11.95L446.976 12.7436L446.368 11.95ZM446.303 20.27L445.681 21.0535L446.303 20.27ZM451.438 48.78C447.721 48.78 444.513 48.2307 441.794 47.1596L441.061 49.0204C444.062 50.2027 447.528 50.78 451.438 50.78V48.78ZM441.806 47.1645C439.08 46.0493 437.003 44.522 435.525 42.6045L433.941 43.8255C435.669 46.068 438.055 47.7907 441.049 49.0155L441.806 47.1645ZM435.531 42.6124C434.066 40.6732 433.328 38.4178 433.328 35.805H431.328C431.328 38.8255 432.192 41.5102 433.935 43.8176L435.531 42.6124ZM433.328 35.805C433.328 33.1847 434.048 31.0298 435.449 29.2797L433.887 28.0303C432.167 30.1802 431.328 32.7919 431.328 35.805H433.328ZM435.447 29.2818C436.913 27.4593 438.976 26.0608 441.692 25.1143L441.034 23.2257C438.03 24.2725 435.629 25.864 433.889 28.0282L435.447 29.2818ZM441.704 25.1098C444.43 24.1187 447.668 23.61 451.438 23.61V21.61C447.494 21.61 444.015 22.1413 441.021 23.2302L441.704 25.1098ZM451.438 23.61C455.252 23.61 458.511 24.1191 461.236 25.1098L461.919 23.2302C458.924 22.1409 455.423 21.61 451.438 21.61V23.61ZM461.253 25.1158C464.013 26.0632 466.068 27.4599 467.485 29.2713L469.06 28.0387C467.358 25.8634 464.949 24.2702 461.902 23.2242L461.253 25.1158ZM467.5 29.2901C468.939 31.0403 469.678 33.1915 469.678 35.805H471.678C471.678 32.7852 470.813 30.1697 469.045 28.0199L467.5 29.2901ZM469.678 35.805C469.678 38.4178 468.939 40.6732 467.475 42.6124L469.071 43.8176C470.813 41.5102 471.678 38.8255 471.678 35.805H469.678ZM467.481 42.6045C466.005 44.5186 463.909 46.0462 461.139 47.1625L461.887 49.0175C464.923 47.7938 467.333 46.0714 469.065 43.8255L467.481 42.6045ZM461.146 47.1596C458.428 48.2302 455.2 48.78 451.438 48.78V50.78C455.389 50.78 458.877 50.2031 461.879 49.0204L461.146 47.1596ZM451.438 43.045C454.219 43.045 456.541 42.4298 458.289 41.0818L457.067 39.4982C455.781 40.4902 453.943 41.045 451.438 41.045V43.045ZM458.278 41.09C460.102 39.7215 461.018 37.815 461.018 35.48H459.018C459.018 37.2183 458.373 38.5185 457.078 39.49L458.278 41.09ZM461.018 35.48C461.018 33.1443 460.101 31.2515 458.263 29.9243L457.092 31.5457C458.375 32.4718 459.018 33.7424 459.018 35.48H461.018ZM458.289 29.9432C456.541 28.5952 454.219 27.98 451.438 27.98V29.98C453.943 29.98 455.781 30.5348 457.067 31.5268L458.289 29.9432ZM451.438 27.98C448.695 27.98 446.397 28.5972 444.652 29.9432L445.874 31.5268C447.162 30.5328 448.981 29.98 451.438 29.98V27.98ZM444.666 29.9323C442.874 31.2641 441.988 33.1556 441.988 35.48H443.988C443.988 33.731 444.619 32.4593 445.859 31.5377L444.666 29.9323ZM441.988 35.48C441.988 37.8039 442.872 39.709 444.652 41.0818L445.874 39.4982C444.62 38.531 443.988 37.2294 443.988 35.48H441.988ZM444.652 41.0818C446.397 42.4278 448.695 43.045 451.438 43.045V41.045C448.981 41.045 447.162 40.4922 445.874 39.4982L444.652 41.0818ZM451.438 26.94C448.016 26.94 445.058 26.475 442.547 25.5693L441.868 27.4507C444.644 28.4517 447.84 28.94 451.438 28.94V26.94ZM442.552 25.5711C440.09 24.6685 438.215 23.3766 436.875 21.7208L435.32 22.9792C436.927 24.9634 439.125 26.4448 441.863 27.4489L442.552 25.5711ZM436.891 21.7412C435.607 20.0682 434.953 18.0772 434.953 15.72H432.953C432.953 18.4761 433.728 20.9051 435.304 22.9588L436.891 21.7412ZM434.953 15.72C434.953 13.2278 435.632 11.1529 436.954 9.44145L435.371 8.21855C433.747 10.3204 432.953 12.8389 432.953 15.72H434.953ZM436.961 9.43283C438.306 7.65221 440.204 6.25926 442.704 5.27556L441.972 3.41443C439.185 4.51073 436.966 6.10779 435.365 8.22717L436.961 9.43283ZM442.717 5.2703C445.219 4.24504 448.119 3.72 451.438 3.72V1.72C447.91 1.72 444.744 2.27829 441.959 3.41969L442.717 5.2703ZM451.438 3.72C454.847 3.72 457.766 4.24635 460.218 5.26807L460.987 3.42192C458.239 2.27698 455.048 1.72 451.438 1.72V3.72ZM460.237 5.27556C462.737 6.25926 464.635 7.65221 465.98 9.43283L467.576 8.22717C465.974 6.10779 463.755 4.51073 460.969 3.41443L460.237 5.27556ZM465.995 9.45252C467.356 11.1638 468.053 13.2348 468.053 15.72H470.053C470.053 12.8319 469.232 10.3095 467.56 8.20747L465.995 9.45252ZM468.053 15.72C468.053 18.0699 467.381 20.0569 466.058 21.7298L467.627 22.9702C469.251 20.9164 470.053 18.4834 470.053 15.72H468.053ZM466.056 21.7322C464.765 23.376 462.898 24.6659 460.393 25.5693L461.072 27.4507C463.854 26.4474 466.061 24.964 467.629 22.9678L466.056 21.7322ZM460.393 25.5693C457.883 26.4746 454.905 26.94 451.438 26.94V28.94C455.077 28.94 458.295 28.4521 461.072 27.4507L460.393 25.5693ZM451.438 22.765C453.789 22.765 455.769 22.235 457.259 21.0535L456.016 19.4865C454.993 20.2983 453.506 20.765 451.438 20.765V22.765ZM457.246 21.0636C458.809 19.8653 459.588 18.1984 459.588 16.175H457.588C457.588 17.6183 457.066 18.6814 456.029 19.4764L457.246 21.0636ZM459.588 16.175C459.588 14.0708 458.791 12.3507 457.169 11.1469L455.977 12.7531C457.041 13.5427 457.588 14.6392 457.588 16.175H459.588ZM457.181 11.1564C455.661 9.99084 453.716 9.455 451.438 9.455V11.455C453.407 11.455 454.885 11.9158 455.964 12.7436L457.181 11.1564ZM451.438 9.455C449.198 9.455 447.276 9.99341 445.759 11.1564L446.976 12.7436C448.059 11.9132 449.518 11.455 451.438 11.455V9.455ZM445.759 11.1564C444.183 12.3652 443.418 14.0836 443.418 16.175H445.418C445.418 14.6264 445.953 13.5282 446.976 12.7436L445.759 11.1564ZM443.418 16.175C443.418 18.1853 444.164 19.8502 445.681 21.0535L446.924 19.4865C445.928 18.6964 445.418 17.6314 445.418 16.175H443.418ZM445.681 21.0535C447.168 22.2325 449.124 22.765 451.438 22.765V20.765C449.418 20.765 447.951 20.3008 446.924 19.4865L445.681 21.0535ZM480.828 48.545L480.56 49.5086L480.573 49.5119L480.828 48.545ZM472.898 44.905L472.006 44.452L471.618 45.2159L472.314 45.7165L472.898 44.905ZM476.993 36.845L477.58 36.0354L476.632 35.348L476.101 36.392L476.993 36.845ZM483.038 39.835L482.732 40.7872L483.038 39.835ZM496.233 39.38L496.798 40.2047L496.233 39.38ZM485.183 29.5H484.183V30.5H485.183V29.5ZM485.183 22.545L484.433 21.8834L484.183 22.1669V22.545H485.183ZM497.858 8.18L498.813 7.8836L498.285 6.18396L497.108 7.51838L497.858 8.18ZM499.028 11.95V12.95H500.385L499.983 11.6536L499.028 11.95ZM475.173 11.95H474.173V12.95H475.173V11.95ZM475.173 3.5V2.5H474.173V3.5H475.173ZM507.023 3.5H508.023V2.5H507.023V3.5ZM507.023 10.325L507.774 10.9847L508.023 10.7016V10.325H507.023ZM494.413 24.69L493.916 25.5576L494.625 25.9642L495.164 25.3497L494.413 24.69ZM489.083 21.635V20.635H485.327L488.586 22.5026L489.083 21.635ZM504.813 25.405L504.153 26.1562L504.813 25.405ZM507.088 42.305L507.942 42.8244L507.947 42.8171L507.088 42.305ZM500.913 47.7L500.466 46.8056L500.913 47.7ZM490.253 48.78C487.177 48.78 484.121 48.3799 481.083 47.5781L480.573 49.5119C483.774 50.3568 487.002 50.78 490.253 50.78V48.78ZM481.096 47.5815C478.066 46.7399 475.535 45.5716 473.482 44.0935L472.314 45.7165C474.594 47.3584 477.35 48.6168 480.56 49.5085L481.096 47.5815ZM473.789 45.358L477.884 37.298L476.101 36.392L472.006 44.452L473.789 45.358ZM476.406 37.6546C478.235 38.9807 480.348 40.0223 482.732 40.7872L483.343 38.8828C481.135 38.1744 479.217 37.2226 477.58 36.0354L476.406 37.6546ZM482.732 40.7872C485.125 41.5546 487.546 41.94 489.993 41.94V39.94C487.76 39.94 485.544 39.5888 483.343 38.8828L482.732 40.7872ZM489.993 41.94C492.754 41.94 495.057 41.3988 496.798 40.2047L495.667 38.5553C494.375 39.4412 492.519 39.94 489.993 39.94V41.94ZM496.798 40.2047C498.584 38.9806 499.508 37.2438 499.508 35.09H497.508C497.508 36.5762 496.915 37.6994 495.667 38.5553L496.798 40.2047ZM499.508 35.09C499.508 33.0536 498.697 31.3851 497.089 30.1919L495.897 31.7981C496.975 32.5982 497.508 33.6598 497.508 35.09H499.508ZM497.089 30.1919C495.483 29.0006 493.049 28.5 489.993 28.5V30.5C492.917 30.5 494.816 30.9961 495.897 31.7981L497.089 30.1919ZM489.993 28.5H485.183V30.5H489.993V28.5ZM486.183 29.5V22.545H484.183V29.5H486.183ZM485.933 23.2066L498.608 8.84162L497.108 7.51838L484.433 21.8834L485.933 23.2066ZM496.903 8.4764L498.073 12.2464L499.983 11.6536L498.813 7.8836L496.903 8.4764ZM499.028 10.95H475.173V12.95H499.028V10.95ZM476.173 11.95V3.5H474.173V11.95H476.173ZM475.173 4.5H507.023V2.5H475.173V4.5ZM506.023 3.5V10.325H508.023V3.5H506.023ZM506.271 9.66529L493.661 24.0303L495.164 25.3497L507.774 10.9847L506.271 9.66529ZM494.91 23.8224L489.58 20.7674L488.586 22.5026L493.916 25.5576L494.91 23.8224ZM489.083 22.635H492.138V20.635H489.083V22.635ZM492.138 22.635C497.596 22.635 501.544 23.8639 504.153 26.1562L505.473 24.6538C502.361 21.9194 497.86 20.635 492.138 20.635V22.635ZM504.153 26.1562C506.788 28.472 508.103 31.4226 508.103 35.09H510.103C510.103 30.8708 508.558 27.3646 505.473 24.6538L504.153 26.1562ZM508.103 35.09C508.103 37.4615 507.482 39.6902 506.229 41.7929L507.947 42.8171C509.38 40.4131 510.103 37.8318 510.103 35.09H508.103ZM506.233 41.7856C505.006 43.8052 503.104 45.4862 500.466 46.8056L501.36 48.5944C504.268 47.1405 506.483 45.2248 507.942 42.8244L506.233 41.7856ZM500.466 46.8056C497.875 48.1008 494.489 48.78 490.253 48.78V50.78C494.683 50.78 498.404 50.0725 501.36 48.5944L500.466 46.8056ZM514.81 34.765H513.81V35.765H514.81V34.765ZM514.81 26.64V25.64H513.81V26.64H514.81ZM533.205 26.64H534.205V25.64H533.205V26.64ZM533.205 34.765V35.765H534.205V34.765H533.205ZM515.81 34.765V26.64H513.81V34.765H515.81ZM514.81 27.64H533.205V25.64H514.81V27.64ZM532.205 26.64V34.765H534.205V26.64H532.205ZM533.205 33.765H514.81V35.765H533.205V33.765ZM537.569 49H536.569V50H537.569V49ZM537.569 42.175L536.882 41.448L536.569 41.744V42.175H537.569ZM555.119 25.6L554.447 24.859L554.44 24.8659L554.432 24.873L555.119 25.6ZM558.174 22.22L559.011 22.7663L558.174 22.22ZM559.474 19.49L558.52 19.1889L558.513 19.212L558.507 19.2355L559.474 19.49ZM557.979 13.055L557.344 13.8277L557.359 13.84L557.374 13.8517L557.979 13.055ZM547.254 12.665L546.845 11.7521L546.836 11.7563L547.254 12.665ZM543.159 16.11L542.617 16.9507L543.414 17.4641L543.969 16.6955L543.159 16.11ZM535.489 11.17L534.657 10.6153L534.093 11.4606L534.947 12.0107L535.489 11.17ZM542.769 4.995L542.332 4.09563L542.769 4.995ZM562.399 4.41L561.99 5.32251L561.999 5.32673L562.009 5.33075L562.399 4.41ZM568.314 9.025L567.493 9.59606L567.497 9.60202L567.501 9.60791L568.314 9.025ZM569.874 20.595L568.907 20.3391L568.904 20.3492L568.902 20.3594L569.874 20.595ZM567.664 25.145L566.846 24.5701L566.84 24.5776L566.835 24.5851L567.664 25.145ZM562.854 30.54L562.169 29.8109L562.168 29.8121L562.854 30.54ZM548.294 44.255L547.409 44.7201L548.021 45.8858L548.979 44.9829L548.294 44.255ZM546.279 40.42V39.42H544.624L545.394 40.8851L546.279 40.42ZM571.954 40.42H572.954V39.42H571.954V40.42ZM571.954 49V50H572.954V49H571.954ZM538.569 49V42.175H536.569V49H538.569ZM538.255 42.902L555.805 26.327L554.432 24.873L536.882 41.448L538.255 42.902ZM555.79 26.341C557.209 25.0556 558.296 23.8634 559.011 22.7663L557.336 21.6737C556.752 22.5699 555.802 23.6311 554.447 24.859L555.79 26.341ZM559.011 22.7663C559.699 21.7127 560.189 20.7035 560.441 19.7445L558.507 19.2355C558.326 19.9232 557.949 20.7339 557.336 21.6737L559.011 22.7663ZM560.427 19.7911C560.711 18.8932 560.864 18.032 560.864 17.215H558.864C558.864 17.7847 558.757 18.4401 558.52 19.1889L560.427 19.7911ZM560.864 17.215C560.864 15.1368 560.13 13.4315 558.583 12.2583L557.374 13.8517C558.341 14.5852 558.864 15.6532 558.864 17.215H560.864ZM558.614 12.2823C557.149 11.0794 555.084 10.56 552.584 10.56V12.56C554.85 12.56 556.382 13.0372 557.344 13.8277L558.614 12.2823ZM552.584 10.56C550.545 10.56 548.628 10.9548 546.845 11.7522L547.662 13.5778C549.173 12.9019 550.81 12.56 552.584 12.56V10.56ZM546.836 11.7563C545.062 12.5714 543.566 13.8377 542.348 15.5245L543.969 16.6955C545.005 15.2623 546.239 14.2319 547.671 13.5737L546.836 11.7563ZM543.7 15.2693L536.03 10.3293L534.947 12.0107L542.617 16.9507L543.7 15.2693ZM536.321 11.7247C537.945 9.28852 540.228 7.34208 543.206 5.89436L542.332 4.09563C539.07 5.68125 536.499 7.85147 534.657 10.6153L536.321 11.7247ZM543.206 5.89437C546.168 4.45451 549.611 3.72 553.559 3.72V1.72C549.36 1.72 545.61 2.50216 542.332 4.09563L543.206 5.89437ZM553.559 3.72C556.829 3.72 559.631 4.26506 561.99 5.32251L562.808 3.49749C560.14 2.3016 557.049 1.72 553.559 1.72V3.72ZM562.009 5.33075C564.417 6.3513 566.229 7.77887 567.493 9.59606L569.135 8.45393C567.626 6.28446 565.494 4.63536 562.789 3.48925L562.009 5.33075ZM567.501 9.60791C568.794 11.4096 569.459 13.5824 569.459 16.175H571.459C571.459 13.221 570.694 10.6271 569.126 8.44209L567.501 9.60791ZM569.459 16.175C569.459 17.559 569.276 18.9464 568.907 20.3391L570.841 20.8509C571.252 19.2969 571.459 17.7376 571.459 16.175H569.459ZM568.902 20.3594C568.593 21.6346 567.923 23.0371 566.846 24.5701L568.482 25.7199C569.658 24.0462 570.461 22.4154 570.846 20.8306L568.902 20.3594ZM566.835 24.5851C565.809 26.1044 564.263 27.8457 562.169 29.8109L563.538 31.2691C565.692 29.2477 567.352 27.3923 568.492 25.7049L566.835 24.5851ZM562.168 29.8121L547.608 43.5271L548.979 44.9829L563.539 31.2679L562.168 29.8121ZM549.179 43.7899L547.164 39.9549L545.394 40.8851L547.409 44.7201L549.179 43.7899ZM546.279 41.42H571.954V39.42H546.279V41.42ZM570.954 40.42V49H572.954V40.42H570.954ZM571.954 48H537.569V50H571.954V48ZM575.909 49H574.909V50H575.909V49ZM575.909 42.175L575.222 41.448L574.909 41.744V42.175H575.909ZM593.459 25.6L592.787 24.859L592.78 24.8659L592.772 24.873L593.459 25.6ZM596.514 22.22L597.351 22.7663L596.514 22.22ZM597.814 19.49L596.86 19.1889L596.853 19.212L596.847 19.2355L597.814 19.49ZM596.319 13.055L595.684 13.8277L595.699 13.84L595.714 13.8517L596.319 13.055ZM585.594 12.665L585.185 11.7521L585.176 11.7563L585.594 12.665ZM581.499 16.11L580.957 16.9507L581.754 17.4641L582.309 16.6955L581.499 16.11ZM573.829 11.17L572.997 10.6153L572.433 11.4606L573.287 12.0107L573.829 11.17ZM581.109 4.995L580.672 4.09563L581.109 4.995ZM600.739 4.41L600.33 5.32251L600.339 5.32673L600.349 5.33075L600.739 4.41ZM606.654 9.025L605.833 9.59606L605.837 9.60202L605.841 9.60791L606.654 9.025ZM608.214 20.595L607.247 20.3391L607.244 20.3492L607.242 20.3594L608.214 20.595ZM606.004 25.145L605.185 24.5701L605.18 24.5776L605.175 24.5851L606.004 25.145ZM601.194 30.54L600.509 29.8109L600.508 29.8121L601.194 30.54ZM586.634 44.255L585.748 44.7201L586.361 45.8858L587.319 44.9829L586.634 44.255ZM584.619 40.42V39.42H582.964L583.733 40.8851L584.619 40.42ZM610.294 40.42H611.294V39.42H610.294V40.42ZM610.294 49V50H611.294V49H610.294ZM576.909 49V42.175H574.909V49H576.909ZM576.595 42.902L594.145 26.327L592.772 24.873L575.222 41.448L576.595 42.902ZM594.13 26.341C595.549 25.0556 596.636 23.8634 597.351 22.7663L595.676 21.6737C595.092 22.5699 594.142 23.6311 592.787 24.859L594.13 26.341ZM597.351 22.7663C598.038 21.7127 598.528 20.7035 598.781 19.7445L596.847 19.2355C596.666 19.9232 596.289 20.7339 595.676 21.6737L597.351 22.7663ZM598.767 19.7911C599.051 18.8932 599.204 18.032 599.204 17.215H597.204C597.204 17.7847 597.097 18.4401 596.86 19.1889L598.767 19.7911ZM599.204 17.215C599.204 15.1368 598.469 13.4315 596.923 12.2583L595.714 13.8517C596.681 14.5852 597.204 15.6532 597.204 17.215H599.204ZM596.953 12.2823C595.489 11.0794 593.424 10.56 590.924 10.56V12.56C593.19 12.56 594.722 13.0372 595.684 13.8277L596.953 12.2823ZM590.924 10.56C588.884 10.56 586.968 10.9548 585.185 11.7522L586.002 13.5778C587.513 12.9019 589.15 12.56 590.924 12.56V10.56ZM585.176 11.7563C583.402 12.5714 581.906 13.8377 580.688 15.5245L582.309 16.6955C583.344 15.2623 584.579 14.2319 586.011 13.5737L585.176 11.7563ZM582.04 15.2693L574.37 10.3293L573.287 12.0107L580.957 16.9507L582.04 15.2693ZM574.661 11.7247C576.285 9.28852 578.568 7.34208 581.546 5.89436L580.672 4.09563C577.41 5.68125 574.839 7.85147 572.997 10.6153L574.661 11.7247ZM581.546 5.89437C584.508 4.45451 587.951 3.72 591.899 3.72V1.72C587.7 1.72 583.949 2.50216 580.672 4.09563L581.546 5.89437ZM591.899 3.72C595.169 3.72 597.971 4.26506 600.33 5.32251L601.148 3.49749C598.48 2.3016 595.388 1.72 591.899 1.72V3.72ZM600.349 5.33075C602.757 6.3513 604.569 7.77887 605.833 9.59606L607.475 8.45393C605.965 6.28446 603.834 4.63536 601.129 3.48925L600.349 5.33075ZM605.841 9.60791C607.134 11.4096 607.799 13.5824 607.799 16.175H609.799C609.799 13.221 609.034 10.6271 607.466 8.44209L605.841 9.60791ZM607.799 16.175C607.799 17.559 607.616 18.9464 607.247 20.3391L609.18 20.8509C609.592 19.2969 609.799 17.7376 609.799 16.175H607.799ZM607.242 20.3594C606.933 21.6346 606.263 23.0371 605.185 24.5701L606.822 25.7199C607.998 24.0462 608.801 22.4154 609.186 20.8306L607.242 20.3594ZM605.175 24.5851C604.149 26.1044 602.603 27.8457 600.509 29.8109L601.878 31.2691C604.031 29.2477 605.692 27.3923 606.832 25.7049L605.175 24.5851ZM600.508 29.8121L585.948 43.5271L587.319 44.9829L601.879 31.2679L600.508 29.8121ZM587.519 43.7899L585.504 39.9549L583.733 40.8851L585.748 44.7201L587.519 43.7899ZM584.619 41.42H610.294V39.42H584.619V41.42ZM609.294 40.42V49H611.294V40.42H609.294ZM610.294 48H575.909V50H610.294V48Z" fill="#02735E"/>
</svg>
