<svg width="110" height="110" viewBox="0 0 110 110" fill="none" xmlns="http://www.w3.org/2000/svg">
<path d="M14.3 36.85V39.6H18.15H22L22.11 57.31L22.275 75.075L24.915 75.24L27.5 75.405V54.78V34.1H20.9H14.3V36.85Z" fill="#FF0000"/>
<path d="M49.17 34.6499C45.375 35.4199 41.58 37.7299 38.61 40.9199C34.815 45.0999 33.385 48.9499 33.33 54.9999C33.275 59.2349 33.44 60.0599 35.09 63.3599C37.18 67.5949 40.15 70.5099 44.495 72.5449L47.575 73.9749L74.415 74.1399L101.2 74.3049V71.7749V69.2999H76.56C49.28 69.2999 48.29 69.1899 43.89 65.8349C33.66 58.0249 38.775 40.9199 51.7 39.7649C56.1 39.3249 59.4 40.3699 62.48 43.0649C65.285 45.5399 66.825 48.2349 67.705 52.2499L68.31 54.9999H70.785H73.315L72.93 51.9749C72.105 44.9899 66.99 38.1149 60.83 35.8049C57.09 34.4299 52.415 33.9349 49.17 34.6499Z" fill="#FF0000"/>
<path d="M82.61 36.8501C81.07 38.3351 81.07 40.2601 82.665 41.5801C83.875 42.6251 83.875 42.6251 82.94 41.4701C81.125 39.3801 82.115 36.8501 84.975 36.1351C86.02 35.8601 86.02 35.8601 84.92 35.8051C84.315 35.8051 83.27 36.2451 82.61 36.8501Z" fill="#FF0000"/>
<path d="M87.23 37.62C88.165 39.105 88.165 39.27 87.285 40.92L86.35 42.625L87.45 41.305C88.825 39.71 88.825 38.94 87.395 37.345L86.295 36.025L87.23 37.62Z" fill="#FF0000"/>
<path d="M83.655 39.1601C83.655 40.1501 83.82 40.6451 83.985 40.2601C84.095 39.9301 84.59 39.6001 84.975 39.6001C85.36 39.6001 85.855 39.9301 85.965 40.2601C86.13 40.6451 86.185 40.2051 86.13 39.3251C86.075 38.0601 85.745 37.6201 84.81 37.5101C83.765 37.3451 83.6 37.5651 83.655 39.1601ZM85.8 38.5001C85.8 38.7751 85.415 39.0501 84.975 39.0501C84.535 39.0501 84.15 38.7751 84.15 38.5001C84.15 38.1701 84.535 37.9501 84.975 37.9501C85.415 37.9501 85.8 38.1701 85.8 38.5001Z" fill="#FF0000"/>
<path d="M84.59 42.7351C84.975 42.9001 85.47 42.8451 85.635 42.6801C85.855 42.5151 85.525 42.3501 84.92 42.4051C84.315 42.4051 84.15 42.5701 84.59 42.7351Z" fill="#FF0000"/>
<path d="M8.8 45.375V47.85H11.55H14.3L14.41 61.435L14.575 75.075H17.05H19.525L19.69 58.96L19.8 42.9H14.3H8.8V45.375Z" fill="#FF0000"/>
<path d="M47.85 44.11C44.165 46.09 42.185 49.28 41.91 53.57C41.745 56.265 41.91 57.475 42.79 59.235C44.275 62.04 47.245 64.68 49.885 65.395C51.205 65.78 61.105 66 76.615 66H101.2V63.25V60.5H75.845H50.49L48.565 58.575C46.805 56.815 46.64 56.375 46.915 54.395C47.08 53.185 47.63 51.59 48.125 50.82C49.28 49.005 52.36 47.74 54.34 48.18C56.485 48.675 58.795 51.04 59.18 53.185C59.51 54.945 59.62 55 62.205 55H64.9L64.515 53.185C63.965 50.215 61.545 46.31 59.29 44.715C56.1 42.57 51.26 42.295 47.85 44.11Z" fill="#FF0000"/>
</svg>
