<svg width="110" height="115" viewBox="0 0 110 115" fill="none" xmlns="http://www.w3.org/2000/svg">
<g clip-path="url(#clip0_2_291)">
<path d="M85.3496 16.15C85.6158 15.4944 85.0737 14.851 85.0737 14.851C85.0737 14.851 80.8158 7.60737 65.7508 6.00038C57.6846 5.14073 46.7034 6.77269 39.0065 10.9234C25.0604 18.4379 22.9722 30.8167 22.9722 30.8167C22.8937 31.1198 22.76 32.0426 23.0736 32.4362C23.393 32.8368 23.8577 32.8294 24.4343 32.6348C29.3563 30.9721 44.0261 26.1073 53.2836 23.6504C66.4583 20.1576 77.281 18.0322 84.2277 16.8486C84.7207 16.765 85.1633 16.6034 85.3495 16.15" fill="#FFBB36"/>
<path d="M100.393 74.4908C92.5077 92.2 77.3793 104.524 57.5526 104.805C43.1146 105.01 30.3732 100.064 21.1713 91.4361L15.6059 93.8173L15.6152 85.2004C9.55163 77.0216 6.03592 66.6761 6.03592 54.9236C6.03592 24.8223 29.0914 1.0943 61.2458 1.0943C66.4941 1.0943 71.2376 1.91105 74.814 2.7212C69.3038 0.957902 63.8286 0.00244141 57.7339 0.00244141C23.2247 0.00244141 0.00121 27.9845 0 56.8415C0 88.2883 24.6695 114.629 57.0501 114.629C87.9778 114.629 104.664 92.8236 110 79.71L100.393 74.4908Z" fill="#0066B3"/>
<path d="M92.3883 68.2691C96.9264 67.7543 100.066 65.9303 101.789 64.2385C103.36 62.6955 103.726 60.5708 103.729 58.9926C103.792 56.6735 103.729 49.3557 103.729 49.3557L91.7193 51.954C91.7193 51.954 91.7182 52.8593 91.7147 54.7594C91.7368 56.6152 92.6313 57.6255 94.5764 57.2677C95.1861 57.1678 96.1245 56.8686 96.1245 56.8686L96.1407 59.1619C96.1303 59.0962 96.3184 60.4406 93.2918 61.039C89.3312 61.6607 87.5314 59.2237 87.4844 54.9172C87.5625 50.3019 90.172 47.6402 93.3377 46.9113C96.8993 46.0945 98.9152 46.9432 100.1 47.1238C104.078 47.7194 105.206 41.7558 101.587 40.3569C98.9124 39.2795 95.4421 39.0848 92.1339 39.7453C87.7167 40.6262 79.03 44.3235 79.0059 56.3366C79.0296 65.8824 86.0673 68.9933 92.3885 68.2691H92.3883ZM53.3502 78.5003C53.3502 78.5003 57.0349 77.2364 57.3535 77.1244C60.3152 76.1025 61.3942 74.3414 61.381 71.2936C61.3436 67.9842 61.3382 61.5309 61.3382 61.5309L69.9061 71.4032C71.2979 72.8405 73.0422 72.9632 74.6392 72.4946C76.2901 72.0113 77.6649 70.5018 77.7065 68.3728C77.72 61.2437 77.703 43.8447 77.703 43.8447C77.703 43.8447 75.4889 44.3144 73.651 44.8356C71.5365 45.4347 69.9096 46.783 69.9096 50.3423C69.9096 51.6024 69.9049 58.8335 69.9049 58.8335C69.9049 58.8335 65.0828 52.7859 61.9296 49.6316C60.2437 47.9475 57.4542 48.9529 57.4542 48.9529L53.3432 50.197L53.3502 78.5003ZM50.7561 50.8346C50.7561 50.8346 48.1757 51.5914 46.0758 52.3496C43.3493 53.3354 41.7775 54.913 41.7775 59.0403C41.7775 62.8311 41.7709 82.5612 41.7709 82.5612C41.7709 82.5612 44.1595 81.7444 46.3863 80.9043C49.5523 79.7107 50.7467 78.0822 50.7467 74.7577C50.7467 71.9005 50.7561 50.8346 50.7561 50.8346ZM37.951 56.4314C35.5827 55.3555 33.5498 56.5554 32.6864 57.8816L25.4066 70.2632L25.3938 60.2813L16.8119 63.8363L16.7851 92.0638L22.8304 89.5297C22.8304 89.5297 24.017 89.1932 24.7333 88.0679C25.3914 87.0312 25.3669 85.2924 25.3669 85.2924L25.3743 76.3414L32.1306 83.5108C33.6142 85.0515 36.34 85.8426 38.7452 83.8998C40.92 82.1435 40.5832 79.1492 39.37 77.8083L33.2151 71.6126C33.2151 71.6126 38.6318 63.0759 39.5173 61.6495C40.6927 59.7549 40.1014 57.4083 37.951 56.4314Z" fill="#EC1D23"/>
<path d="M34.59 89.6115C34.2705 90.3474 34.9992 91.0776 34.9992 91.0776C38.1227 94.9969 51.9917 99.9667 67.0455 96.3282C90.0348 90.7683 94.8923 74.5042 95.4425 72.2078C95.5556 71.7395 95.6449 70.9865 95.2105 70.5347C94.8461 70.1574 94.3281 70.1534 93.6092 70.3197C77.642 74.0732 51.0716 82.1838 35.7529 88.7474C35.0935 89.0298 34.7951 89.1336 34.59 89.6115Z" fill="#FFBB36"/>
<path d="M20.9557 52.618C20.9346 51.0621 19.7251 50.2132 17.635 51.2622L17.6306 56.2639C17.6306 56.2639 18.3064 55.9647 18.8022 55.7338C20.0243 55.1669 20.9844 54.1473 20.9557 52.618ZM17.5937 48.097C17.9191 47.971 18.2388 47.8309 18.5519 47.677C19.6843 47.1256 20.4901 46.1029 20.4995 44.7787C20.5111 43.2706 19.2692 42.8809 17.5961 43.7458L17.5937 48.097ZM26.4418 51.9034C26.5098 55.8508 23.6663 57.951 19.962 59.4857L12.3742 62.7094L12.3566 42.1524C12.3566 42.1524 17.1372 40.2034 18.6969 39.636C23.1304 38.0227 25.7372 39.9674 25.7372 42.9291C25.7372 44.9053 24.8913 46.5851 23.0554 48.0612C24.8634 48.3627 26.4071 49.8478 26.4418 51.9034ZM40.8457 34.5525C40.8457 32.8211 39.6549 32.3606 38.2144 32.7752C37.0499 33.1085 35.6935 33.6381 35.6935 33.6381L35.6841 46.4184C35.6701 47.6913 35.4731 49.2849 33.9049 49.6797C32.7011 49.9831 32.1319 49.1799 32.1307 47.9093L32.1136 37.4488C32.1136 35.7084 30.9028 35.1874 29.467 35.6638C27.853 36.2028 26.8831 36.5909 26.8831 36.5909C26.8831 36.5909 26.9018 45.6409 26.8797 49.26C26.859 53.5023 29.7841 55.6204 34.2426 54.3035C38.1756 53.1406 40.8019 50.9397 40.8516 45.2897L40.8457 34.5525ZM83.0158 39.8342C84.1488 39.5898 84.8556 38.7886 84.8556 37.4041C84.8556 36.1568 84.8604 35.2084 84.8604 35.2084L78.7054 36.5531L78.7168 32.9322C78.7168 32.9322 81.7335 32.2926 82.5713 32.1099C83.624 31.8791 84.1753 31.3053 84.1753 30.1022C84.1753 28.9801 84.1683 28.009 84.1683 28.009L78.7148 29.1662L78.7137 26.2952C78.7137 26.2952 81.5486 25.7034 83.0764 25.3823C84.2666 25.1322 84.6594 24.317 84.6594 23.1952C84.6594 22.4647 84.6711 21.0188 84.6711 21.0188C81.9508 21.4991 76.7797 22.5322 73.555 23.2709L73.5111 42.0105C73.5111 42.0105 79.6431 40.5662 83.0158 39.8342ZM47.4494 39.0773C47.4538 39.0738 50.4942 37.5032 50.4608 35.0117C50.4309 32.8812 48.4686 33.3475 47.4506 33.721L47.4494 39.0773ZM47.4572 41.9681C47.4572 41.9681 47.4471 45.557 47.442 47.0051C47.4296 48.3627 46.5026 49.3432 45.329 49.7915C44.3479 50.1281 42.2629 50.8457 42.2629 50.8457L42.271 31.5485C42.271 31.5485 46.5764 30.0486 49.1082 29.4603C53.0424 28.5452 55.8405 30.3354 55.7899 33.5134C55.7655 36.5392 54.0775 38.3752 52.5614 39.6321L55.8933 42.8312C56.9172 43.8231 56.9887 45.6164 55.837 46.7001C55.1542 47.3416 53.328 48.0064 51.8981 46.5513L47.4572 41.9681ZM91.0191 28.6984C91.0253 28.6984 94.0226 27.5568 93.9885 25.1535C93.9574 23.1209 91.9559 23.4889 91.0112 23.6999L91.0191 28.6983V28.6984ZM85.9891 39.2723L85.9972 20.7689C85.9972 20.7689 91.3999 19.8139 92.7952 19.6344C96.6683 19.1369 99.2671 21.2866 99.2138 24.3402C99.1933 27.0256 97.5061 28.6416 96.0722 29.6111C96.0722 29.6111 98.7067 32.5794 99.4128 33.3646C100.361 34.4231 100.319 36.2326 98.9158 37.1189C97.5368 37.9885 96.1707 37.5336 95.3776 36.6577L91.0284 31.557C91.0284 31.557 91.0424 34.6942 91.0389 36.064C91.0261 37.4274 90.2373 38.4214 88.8229 38.714L85.9891 39.2723Z" fill="#EC1D23"/>
<path d="M72.2996 31.5061L64.6355 33.2465C64.6355 33.2465 64.6263 34.0563 64.6251 35.3781C64.6355 36.3693 65.3307 37.0128 66.3308 36.8069C66.9615 36.676 67.4663 36.559 67.4663 36.559L67.4779 38.6875C67.4861 39.5295 66.2225 40.081 64.9103 40.0506C63.0715 40.0029 62.052 38.5741 62.0256 35.8553C62.0828 32.2805 63.7644 30.1819 66.055 29.596C67.199 29.3014 68.2399 29.4448 69.0485 29.5498C71.0231 29.8688 72.1601 28.9167 72.2006 27.2849C72.2417 25.537 70.6914 24.456 67.3636 24.5714C60.1481 24.8205 56.4587 30.0047 56.4587 36.1918C56.4587 42.5281 60.598 45.327 65.6505 44.4139C68.5057 43.838 69.9259 42.9108 70.91 42.0478C71.8939 41.1848 72.2996 39.894 72.2996 38.7918V31.5061Z" fill="#EC1D23"/>
<path d="M42.1047 10.7815C33.6528 14.5125 27.9463 23.3936 27.6327 27.1528C27.5091 28.6473 29.4905 28.8618 29.6769 27.2749C31.4605 20.4175 36.919 13.9523 42.1047 10.7815ZM70.1124 17.1536C74.6711 16.0353 77.1746 15.8666 77.2197 13.8302C77.2989 10.4202 67.57 6.46609 58.6618 7.1823C67.7383 7.78884 73.1829 11.2831 73.2127 13.7183C73.2299 15.2585 71.8951 16.6178 70.1124 17.1536ZM72.9373 92.5256C79.7775 89.8352 86.3509 84.696 89.9875 76.9982C91.0369 74.7737 88.0022 73.6371 87.1455 76.2494C85.017 81.7224 80.6424 88.1483 72.9373 92.5256Z" fill="white"/>
</g>
<defs>
<clipPath id="clip0_2_291">
<rect width="110" height="114.631" fill="white"/>
</clipPath>
</defs>
</svg>
