<svg width="887" height="724" viewBox="0 0 887 724" fill="none" xmlns="http://www.w3.org/2000/svg">
<path d="M167.602 581.214C231.958 614.983 331.922 616.452 447.892 600.464C537.729 588.065 716.422 521.831 746.151 497.358C783.066 467.015 810.343 407.469 817.367 361.298C824.228 315.619 817.693 273.039 794.336 232.581C716.26 96.5209 406.73 -19.9619 184.426 2.87787C122.194 9.24038 66.4948 46.926 32.1934 98.6417C-11.9082 165.04 0.668946 232.907 5.4058 306.321C9.48928 367.825 21.413 436.507 49.3442 491.976C72.3751 537.655 122.03 557.232 167.602 581.214Z" fill="#034159"/>
<path d="M632.14 498.175C630.832 533.739 627.73 556.09 627.73 556.09L553.9 578.441C553.9 578.441 562.067 526.072 562.557 494.585C562.557 493.606 566.966 496.869 567.784 496.379" fill="#025CF5"/>
<path d="M467.984 272.55L443.973 537.001C443.809 539.123 445.444 540.917 447.566 540.917L745.171 542.55C746.968 542.55 748.6 541.081 748.764 539.287L774.083 276.302C774.245 274.182 772.612 272.388 770.488 272.388L471.576 269.287C469.616 269.125 468.146 270.592 467.984 272.55Z" fill="#025CF5"/>
<path d="M458.184 272.55L434.172 537.001C434.009 539.123 435.642 540.917 437.766 540.917L735.37 542.55C737.168 542.55 738.8 541.081 738.964 539.287L764.281 276.302C764.445 274.182 762.811 272.388 760.688 272.388L461.777 269.287C459.98 269.125 458.346 270.592 458.184 272.55Z" fill="#5C9FDB"/>
<path d="M752.031 281.522L467.656 277.934L444.952 496.054L732.757 498.99L752.031 281.522Z" fill="#AAD5FB"/>
<path d="M341.396 532.923C337.966 535.207 334.373 536.839 330.452 537.165C317.712 538.308 308.4 525.909 302.357 514.652C288.31 488.385 272.793 462.12 263.482 434.387C253.682 405.021 246.333 375.33 232.938 347.594C223.79 328.672 213.991 308.279 217.421 287.56C218.727 279.403 222.81 271.081 230.326 267.819C236.369 265.209 239.961 262.108 246.495 263.577C268.709 268.472 268.547 270.755 277.53 279.892C286.84 289.354 350.542 437.16 347.603 440.259C366.223 420.519 406.242 390.992 433.355 369.62C439.563 381.04 443.645 389.685 451.487 399.801C460.306 411.221 460.634 421.498 459.164 422.967C426.496 455.595 384.028 496.707 349.236 526.888C346.623 529.008 344.173 531.129 341.396 532.923Z" fill="#0CF25D"/>
<path d="M148.817 264.72C170.378 258.194 194.715 257.215 217.257 258.031C233.916 258.684 260.051 261.129 271.649 274.508C282.919 287.722 291.575 316.434 295.496 333.239C300.233 353.632 298.11 353.632 299.09 374.513C302.847 451.19 291.955 534.613 305.512 610.148C257.001 612.269 224.497 603.622 186.275 590.572C157.363 580.782 137.273 566.79 119.305 557.126C108.688 551.418 95.6212 541.628 95.6212 541.628C95.6212 541.628 102.919 483.982 102.755 480.066C102.429 418.725 94.2618 414.809 97.6919 353.468C98.6718 335.033 90.3417 311.541 96.0585 293.922C100.632 279.564 134.933 268.797 148.817 264.72Z" fill="#038C3E"/>
<path d="M165.479 260.642C179.853 262.762 184.917 266.024 203.047 268.797C221.178 271.571 229.507 259.825 229.507 259.825C229.507 259.825 220.524 226.055 218.891 211.373C235.388 209.251 241.922 208.599 246.823 196.2C248.945 190.654 251.395 169.119 242.412 121.808C240.451 111.204 235.225 85.5903 231.796 74.3335C228.529 63.5662 216.931 72.0496 205.661 71.5601C178.383 70.5813 155.352 83.9589 140.978 107.288C127.421 129.149 139.182 159.493 152.412 178.744C160.579 190.816 164.989 197.669 167.276 212.841C168.093 217.083 165.479 260.642 165.479 260.642Z" fill="#FFCDD4"/>
<path d="M233.102 109.735C229.998 110.877 218.564 116.75 218.564 117.403C218.867 120.733 230.423 137.55 236.915 150.776C237.75 152.477 237.088 154.506 235.353 155.273C233.505 156.089 231.636 156.804 229.834 157.862C231.794 167.161 231.794 167.324 234.408 181.68C235.225 186.085 235.879 189.511 236.369 193.917C237.021 199.952 234.408 203.215 230.652 205.663C225.261 209.251 206.803 206.967 193.411 204.684C199.616 207.621 221.994 236.822 224.118 242.694C223.3 234.701 220.362 219.366 219.382 211.373C227.875 210.719 232.122 210.23 237.021 208.272C244.534 205.337 246.985 200.606 249.109 194.406C251.232 188.368 250.415 170.424 249.599 164.061C248.129 151.336 248.619 146.442 246.005 133.88C240.616 108.43 239.307 98.1523 235.715 80.696C236.205 82.3276 216.113 90.8108 219.544 89.3425C221.504 88.8532 232.122 107.125 233.102 109.735Z" fill="#FFB8B8"/>
<path d="M149.472 63.0768C139.671 68.7869 131.994 81.675 134.281 92.4423C125.461 93.0949 121.377 100.436 119.417 109.083C115.007 128.17 130.688 157.536 142.285 175.318C152.248 190.654 164.009 205.988 163.682 225.238C164.989 226.217 166.786 225.566 167.766 224.261C168.746 222.955 168.909 221.486 168.909 219.856C170.379 198.32 162.375 177.276 154.698 157.046C150.125 159.82 143.428 158.515 140.488 153.947C137.548 149.542 138.201 142.2 142.938 139.59C149.635 136.001 152.902 139.59 154.535 143.342C155.842 141.222 158.129 137.143 158.292 129.802C158.619 119.687 155.352 106.472 156.332 105.33C157.475 104.025 197.33 113.324 234.244 92.9316C251.069 83.6326 262.176 57.8564 253.846 40.5634C250.251 51.0044 242.576 54.2673 235.062 56.5513C237.675 49.6994 235.225 39.0951 230.162 33.7114C227.547 44.3157 221.342 48.8836 214.155 52.3095C214.317 46.9258 214.971 40.7266 210.888 37.3005C206.151 46.7628 199.78 48.2311 190.306 51.8202C180.833 55.4093 163.845 54.5935 149.472 63.0768Z" fill="#038C3E"/>
<path d="M623.809 470.278H466.84L477.294 354.611H634.263L623.809 470.278Z" fill="#5C9FDB"/>
<path d="M243.228 325.245C245.678 305.178 241.268 289.191 238.655 278.913C237.511 274.671 233.428 261.783 229.671 259.663C216.603 267.329 207.457 268.472 193.083 265.371C185.733 263.741 172.502 261.619 164.989 260.804C179.363 265.371 188.346 274.671 199.454 283.155C205.823 287.886 243.882 321.819 243.228 325.245Z" fill="#02735E"/>
<path d="M216.767 177.765C225.261 185.27 234.408 185.27 241.596 176.46C241.758 176.297 241.922 176.134 241.922 175.808C241.922 175.155 241.106 174.992 240.451 175.155C232.448 175.971 224.608 176.786 216.767 177.765Z" fill="#DE1414"/>
<path d="M207.784 127.354C202.557 128.007 179.853 132.575 179.853 132.575C183.119 143.179 197.656 147.095 204.027 138.285C206.151 135.185 207.293 131.107 207.784 127.354Z" fill="#FFB8B8"/>
<path d="M198.01 141.582C200.606 140.488 202.189 137.102 201.548 134.021C200.909 130.94 198.286 129.33 195.692 130.424C193.096 131.519 191.512 134.904 192.151 137.985C192.792 141.067 195.414 142.677 198.01 141.582Z" fill="#02735E"/>
<path d="M237.151 131.252C239.723 130.559 241.465 127.437 241.046 124.28C240.627 121.122 238.202 119.125 235.633 119.818C233.061 120.511 231.319 123.633 231.738 126.79C232.157 129.948 234.582 131.945 237.151 131.252Z" fill="#02735E"/>
<path d="M458.02 408.937C467.494 402.738 475.987 395.233 484.317 387.891C487.421 385.118 490.524 382.345 493.629 379.733C495.261 378.267 497.057 376.798 497.711 374.677C498.528 372.557 498.365 370.761 495.425 369.294C491.014 368.641 481.866 375.33 475.823 377.777C471.74 379.408 463.737 381.855 467.004 369.62C468.474 364.235 470.434 359.994 475.007 356.731C485.951 348.737 495.751 355.101 506.531 355.263C509.636 354.284 510.288 353.468 508.981 350.859C500.814 343.68 489.218 341.069 478.438 339.928C483.991 339.111 488.402 341.069 493.955 341.559C496.077 340.418 497.547 339.275 496.567 337.155C487.911 332.424 477.784 330.628 467.984 331.281C462.593 331.607 457.204 332.586 453.119 336.012C450.179 338.46 448.056 341.886 446.096 345.311C440.215 355.916 435.316 367.008 431.721 378.592C426.332 395.885 437.602 422.313 458.02 408.937Z" fill="#FFCDD4"/>
<path d="M307.094 492.627C313.953 490.018 321.305 488.385 328.654 488.06C339.436 487.57 350.052 489.854 360.506 492.465C361.812 492.791 363.12 493.117 364.263 494.096C365.407 495.075 365.897 496.543 365.243 497.686C354.299 501.274 341.558 497.358 331.104 502.417C337.638 503.722 344.173 505.026 350.378 507.638C356.423 510.247 362.14 514.489 365.407 520.199C366.387 522.157 367.203 524.276 366.549 526.398C365.897 528.518 363.282 529.987 361.486 528.682C361.976 530.64 362.466 532.76 361.812 534.718C361.16 536.676 358.873 538.144 357.075 537.329C357.565 539.613 357.403 542.875 355.115 543.691C354.299 544.016 353.483 543.854 352.666 543.691C343.519 541.571 337.802 531.945 328.492 530.476C312.975 527.867 295.498 544.18 280.633 547.77C277.366 548.585 273.936 548.911 270.505 548.911C269.525 548.911 268.547 548.911 267.566 548.422C265.116 547.281 264.788 544.016 264.788 541.407C264.788 538.144 264.626 534.718 264.626 531.455C264.626 530.476 264.626 529.661 264.952 528.682C265.442 527.213 266.912 526.234 268.057 525.419C281.287 514.814 290.433 498.827 307.094 492.627Z" fill="#FFCDD4"/>
<path d="M272.956 563.268L278.019 513.348L121.54 477.129C121.54 477.129 148.001 382.834 149.798 374.351C156.331 344.006 160.415 324.428 152.738 308.605C144.734 291.964 134.28 276.466 112.883 281.85C98.3458 285.439 92.3022 297.348 88.2187 307.136C76.1316 336.338 72.3747 347.595 62.0844 385.282C57.0209 404.042 49.8339 436.671 45.2605 455.431C40.5236 474.52 30.3965 506.821 51.9573 522.646C67.9647 534.228 93.2822 534.882 115.66 539.287C178.056 551.684 272.956 563.268 272.956 563.268Z" fill="#0CF25D"/>
<path fill-rule="evenodd" clip-rule="evenodd" d="M690.943 290.006H618.584L612.867 336.338H685.226L690.943 290.006Z" stroke="#034159" stroke-miterlimit="10" stroke-linecap="round" stroke-linejoin="round"/>
<path d="M651.414 326.061L679.999 325.897L651.414 326.061ZM635.407 297.838C641.776 297.838 646.351 303.058 645.535 309.42C644.717 315.783 638.838 321.004 632.466 321.004C626.097 321.004 621.522 315.783 622.34 309.42C623.157 303.058 629.036 297.838 635.407 297.838ZM634.917 302.079C637.039 302.079 638.674 303.873 638.347 305.995C638.019 308.115 636.061 309.909 633.937 309.909C631.814 309.909 630.18 308.115 630.506 305.995C630.834 303.873 632.792 302.079 634.917 302.079ZM639.654 316.273C637.693 311.216 629.854 311.378 627.567 316.598L639.654 316.273ZM654.681 299.306L683.266 299.142L654.681 299.306ZM653.864 305.995L682.448 305.831L653.864 305.995ZM653.048 312.682L681.632 312.521L653.048 312.682ZM652.23 319.372L680.815 319.21L652.23 319.372Z" stroke="#034159" stroke-miterlimit="10" stroke-linecap="round" stroke-linejoin="round"/>
<path fill-rule="evenodd" clip-rule="evenodd" d="M719.363 363.256H647.167L641.45 409.589H713.81L719.363 363.256Z" stroke="#034159" stroke-miterlimit="10" stroke-linecap="round" stroke-linejoin="round"/>
<path d="M679.835 399.147L708.419 398.985L679.835 399.147ZM663.99 371.088C670.362 371.088 674.934 376.309 674.118 382.67C673.302 389.034 667.421 394.254 661.052 394.254C654.681 394.254 650.108 389.034 650.924 382.67C651.74 376.309 657.621 371.088 663.99 371.088ZM663.5 375.33C665.625 375.33 667.257 377.124 666.931 379.244C666.605 381.366 664.644 383.16 662.52 383.16C660.398 383.16 658.763 381.366 659.091 379.244C659.254 376.96 661.214 375.33 663.5 375.33ZM668.075 389.523C666.115 384.464 658.273 384.628 655.987 389.849L668.075 389.523ZM683.102 372.557L711.685 372.393L683.102 372.557ZM682.286 379.082L710.869 378.918L682.286 379.082ZM681.468 385.771L710.053 385.607L681.468 385.771ZM680.651 392.458L709.237 392.296L680.651 392.458Z" stroke="#034159" stroke-miterlimit="10" stroke-linecap="round" stroke-linejoin="round"/>
<path fill-rule="evenodd" clip-rule="evenodd" d="M600.943 290.495H528.747L523.03 336.827H595.39L600.943 290.495Z" stroke="#034159" stroke-miterlimit="10" stroke-linecap="round" stroke-linejoin="round"/>
<path d="M561.413 326.55L589.999 326.386L561.413 326.55ZM545.57 298.327C551.939 298.327 556.514 303.548 555.698 309.909C554.88 316.273 549.001 321.493 542.63 321.493C536.26 321.493 531.686 316.273 532.504 309.909C533.32 303.548 539.199 298.327 545.57 298.327ZM545.08 302.569C547.204 302.569 548.837 304.363 548.511 306.483C548.183 308.605 546.224 310.399 544.1 310.399C541.978 310.399 540.343 308.605 540.669 306.483C540.833 304.363 542.794 302.569 545.08 302.569ZM549.653 316.924C547.693 311.867 539.853 312.031 537.567 317.252L549.653 316.924ZM564.682 299.796L593.265 299.632L564.682 299.796ZM563.864 306.483L592.449 306.321L563.864 306.483ZM563.047 313.172L591.633 313.01L563.047 313.172ZM562.231 319.861L590.815 319.697L562.231 319.861Z" stroke="#034159" stroke-miterlimit="10" stroke-linecap="round" stroke-linejoin="round"/>
<path fill-rule="evenodd" clip-rule="evenodd" d="M729.981 426.229H657.621L652.068 472.562H724.263L729.981 426.229Z" stroke="#034159" stroke-miterlimit="10" stroke-linecap="round" stroke-linejoin="round"/>
<path d="M690.453 462.284L719.036 462.12L690.453 462.284ZM674.608 434.059C680.979 434.059 685.552 439.28 684.736 445.643C683.918 452.005 678.039 457.225 671.668 457.225C665.298 457.225 660.724 452.005 661.542 445.643C662.358 439.28 668.237 434.059 674.608 434.059ZM673.954 438.301C676.078 438.301 677.711 440.097 677.385 442.217C677.059 444.339 675.098 446.133 672.974 446.133C670.851 446.133 669.217 444.339 669.545 442.217C669.871 440.097 671.832 438.301 673.954 438.301ZM678.691 452.494C676.733 447.438 668.891 447.601 666.605 452.822L678.691 452.494ZM693.72 435.528L722.303 435.366L693.72 435.528ZM692.902 442.217L721.487 442.053L692.902 442.217ZM692.085 448.906L720.671 448.742L692.085 448.906ZM691.269 455.595L719.853 455.431L691.269 455.595Z" stroke="#034159" stroke-miterlimit="10" stroke-linecap="round" stroke-linejoin="round"/>
<path d="M596.204 394.744H508.655C503.755 394.744 499.672 390.664 499.672 385.771C499.672 380.876 503.755 376.798 508.655 376.798H596.204C601.105 376.798 605.187 380.876 605.187 385.771C605.351 390.664 601.269 394.744 596.204 394.744Z" fill="#AAD5FB"/>
<path d="M593.429 422.967H505.879C500.978 422.967 496.895 418.889 496.895 413.994C496.895 409.099 500.978 405.021 505.879 405.021H593.429C598.328 405.021 602.413 409.099 602.413 413.994C602.413 418.889 598.328 422.967 593.429 422.967Z" fill="#AAD5FB"/>
<path d="M591.141 451.19H503.591C498.692 451.19 494.607 447.112 494.607 442.217C494.607 437.322 498.692 433.244 503.591 433.244H591.141C596.042 433.244 600.124 437.322 600.124 442.217C600.288 447.112 596.204 451.19 591.141 451.19Z" stroke="#AAD5FB" stroke-miterlimit="10" stroke-linecap="round" stroke-linejoin="round"/>
<path d="M565.597 164.446H357.176C352.601 164.446 349.172 160.531 349.663 156.126L363.055 18.2719C363.383 14.3565 366.65 11.4199 370.568 11.4199H578.827C583.4 11.4199 586.831 15.3353 586.341 19.74L572.948 157.594C572.784 161.347 569.517 164.446 565.597 164.446Z" fill="#D4EAFF"/>
<path d="M459.054 39.1538H537.457" stroke="#02735E" stroke-miterlimit="10" stroke-linecap="round" stroke-linejoin="round"/>
<path d="M455.506 54.6523H546.813" stroke="#02735E" stroke-miterlimit="10" stroke-linecap="round" stroke-linejoin="round"/>
<path d="M454.153 70.1509H532.556" stroke="#02735E" stroke-miterlimit="10" stroke-linecap="round" stroke-linejoin="round"/>
<path d="M451.75 84.9966H542.893" stroke="#02735E" stroke-miterlimit="10" stroke-linecap="round" stroke-linejoin="round"/>
<path d="M450.887 99.5164H529.289" stroke="#02735E" stroke-miterlimit="10" stroke-linecap="round" stroke-linejoin="round"/>
<path d="M447.829 115.341H533.372" stroke="#02735E" stroke-miterlimit="10" stroke-linecap="round" stroke-linejoin="round"/>
<path d="M445.986 130.513H521.122" stroke="#02735E" stroke-miterlimit="10" stroke-linecap="round" stroke-linejoin="round"/>
<path d="M404.218 90.2172C420.546 90.2172 433.782 76.9968 433.782 60.6887C433.782 44.3805 420.546 31.1602 404.218 31.1602C387.889 31.1602 374.653 44.3805 374.653 60.6887C374.653 76.9968 387.889 90.2172 404.218 90.2172Z" fill="#034159"/>
<path d="M392.294 64.7672C392.62 67.7038 396.051 69.3351 398.992 68.6826C399.154 72.4349 398.337 75.8608 397.357 79.4499C400.298 79.7762 403.074 80.1024 406.015 80.4287C406.995 80.5919 407.975 80.5919 408.627 79.7762C408.955 79.4499 408.955 78.9604 409.118 78.4711C410.426 72.1085 411.404 65.9092 413.364 59.7098C414.182 57.0995 415.161 54.4892 415.325 51.7159C415.489 48.9425 414.508 46.0059 412.384 44.3746C411.242 43.5589 409.608 43.0694 408.137 42.7431C404.871 42.0906 401.604 41.6011 398.337 41.6011C397.521 41.6011 396.541 41.6011 395.725 42.0906C394.745 42.5801 394.907 44.0482 394.581 45.1902C393.601 50.7371 391.968 61.1781 392.294 64.7672Z" fill="#FFCDD4"/>
<path d="M398.011 75.3711C397.847 75.2079 396.703 75.3711 396.541 75.5341C396.377 75.5341 396.377 75.6973 396.215 75.8606C395.561 77.1656 395.071 78.4707 394.581 79.7759C394.091 81.4073 393.601 83.365 394.581 84.6701C395.397 85.9752 397.031 86.4647 398.664 86.6279C401.604 86.9542 404.709 86.3016 406.995 84.3438C408.627 82.8756 413.202 74.7186 410.098 75.6973C406.831 76.6761 403.891 77.3287 402.42 77.1656C400.298 77.0024 399.154 76.8394 398.011 75.3711Z" fill="#02735E"/>
<path d="M404.219 90.3802C410.262 90.3802 415.815 88.5857 420.552 85.486C419.735 84.0178 418.755 82.5495 417.611 81.4075C415.489 78.9604 413.038 76.8396 410.098 74.8818C409.118 76.5133 400.298 82.5495 398.174 84.9966C398.011 81.5707 398.338 77.6553 398.828 74.2292C396.215 75.045 392.62 77.9816 390.66 79.9392C389.028 81.5707 387.884 83.039 386.741 84.6703C391.478 88.0964 397.521 90.3802 404.219 90.3802Z" fill="#5C9FDB"/>
<path d="M411.242 41.4378C409.282 40.6223 407.159 40.459 405.035 40.1328C402.912 39.8065 400.788 38.9907 399.318 37.5225C399.154 38.175 399.154 38.8277 399.482 39.4802C398.175 38.8277 397.031 38.3382 395.725 37.8487C395.887 38.6645 396.051 39.4802 396.215 40.296C395.235 39.9695 394.255 39.4802 393.111 39.154C392.458 40.9485 391.804 42.9061 392.458 44.7007C392.948 46.169 394.255 47.1478 395.561 47.8005C397.031 48.453 398.502 48.616 399.972 48.616C401.932 48.7793 403.728 48.616 405.689 48.453C407.159 48.2898 408.955 48.2898 409.608 49.595C410.098 50.4106 409.936 51.5526 409.446 52.3684C409.118 53.1841 408.465 54.1629 408.465 55.1417C408.465 55.468 408.465 55.7943 408.791 55.9575C409.446 56.2837 409.772 55.1417 410.426 54.9787C411.078 54.8155 411.406 55.7943 411.406 56.447C411.406 60.1991 410.262 64.1145 411.242 67.7036C413.038 64.2777 414.835 61.0149 415.815 57.2625C417.611 51.5526 417.939 44.0481 411.242 41.4378Z" fill="#038C3E"/>
<path d="M395.071 53.6736C395.071 54.1629 394.907 54.6524 394.907 54.9786" stroke="#038C3E" stroke-miterlimit="10" stroke-linecap="round" stroke-linejoin="round"/>
<path d="M402.256 54.8154C402.256 55.1417 402.094 55.6312 402.094 55.9575" stroke="#038C3E" stroke-miterlimit="10" stroke-linecap="round" stroke-linejoin="round"/>
<path d="M395.399 63.4622C396.215 63.6252 397.031 63.7884 397.848 63.7884" stroke="#FFB8B8" stroke-miterlimit="10" stroke-linecap="round" stroke-linejoin="round"/>
<path d="M694.473 257.437H486.214C481.641 257.437 478.21 253.521 478.7 249.117L492.093 111.262C492.421 107.347 495.688 104.41 499.608 104.41H707.865C712.44 104.41 715.869 108.326 715.378 112.731L701.986 250.586C701.658 254.5 698.391 257.437 694.473 257.437Z" fill="#D4EAFF"/>
<path d="M535.053 182.881C551.38 182.881 564.617 169.661 564.617 153.353C564.617 137.045 551.38 123.824 535.053 123.824C518.724 123.824 505.488 137.045 505.488 153.353C505.488 169.661 518.724 182.881 535.053 182.881Z" fill="#034159"/>
<path d="M519.862 149.601C519.862 149.764 519.698 149.927 519.698 150.09C519.534 150.416 519.372 150.906 519.372 151.232C519.534 152.537 521.168 153.027 522.475 153.027C521.985 155.963 521.985 159.063 522.639 161.999C522.803 162.978 523.129 163.957 523.945 164.284C524.435 164.447 524.761 164.447 525.251 164.61C526.885 164.61 528.356 164.61 529.988 164.61C530.152 168.362 529.336 171.951 528.682 175.703C531.786 176.519 534.889 176.845 537.992 176.845C539.3 176.845 540.442 176.682 541.586 176.03C542.728 175.214 543.383 173.746 543.873 172.277C545.507 167.546 546.649 162.489 547.793 157.595C548.936 152.864 551.06 146.664 550.08 141.933C549.426 138.833 547.465 136.06 544.689 134.265C541.912 132.471 538.646 131.818 535.543 131.981C533.093 131.981 530.642 132.634 528.682 134.102C526.069 135.897 526.069 138.344 524.925 141.117C523.619 144.217 521.332 146.664 519.862 149.601Z" fill="#FFCDD4"/>
<path d="M530.478 131.329C528.682 131.818 526.722 132.634 524.925 132.144C523.783 133.449 524.599 135.897 526.231 136.712C527.866 137.691 529.662 137.528 531.622 137.528C533.419 137.365 535.379 137.365 537.175 137.202C538.81 137.202 540.606 137.202 541.75 138.344C542.893 139.812 542.402 141.933 541.75 143.564C540.932 145.196 539.952 146.99 540.116 148.785C540.116 149.274 540.442 149.763 540.932 149.763C541.586 149.763 541.586 148.948 541.912 148.458C542.402 147.643 543.873 147.969 544.199 148.948C544.527 149.927 544.199 150.906 543.547 151.721C542.893 152.537 542.24 153.19 541.75 154.005C540.28 156.615 541.096 160.205 543.221 162.162C544.199 163.141 545.833 163.631 546.977 162.815C547.467 162.489 547.629 161.836 547.956 161.183C549.754 155.963 551.06 150.579 551.714 145.196C552.04 142.422 552.366 139.486 551.224 136.875C549.754 133.286 546.649 132.797 543.383 131.981C538.972 130.676 534.889 130.187 530.478 131.329Z" fill="#025CF5"/>
<path d="M521.331 154.984C521.331 155.637 521.821 156.126 522.801 156.452C523.781 156.779 524.597 156.779 525.251 157.594C525.905 158.41 526.067 160.042 524.761 160.531C523.781 160.857 522.637 160.205 521.821 160.694C520.514 161.51 521.004 166.404 522.311 166.567C522.801 166.567 523.455 166.404 523.781 166.078C524.761 165.425 525.741 164.773 526.557 164.12C527.374 163.304 528.354 162.489 528.518 161.347C528.682 160.368 528.518 159.552 528.192 158.573C527.374 156.452 525.905 154.495 523.781 153.679C522.149 153.027 521.168 154.005 521.331 154.984Z" fill="#025CF5"/>
<path d="M526.885 145.196C526.885 145.359 526.885 145.522 526.885 145.685C527.212 147.316 528.52 147.806 528.846 145.848C529.336 144.054 526.885 143.238 526.885 145.196Z" fill="#025CF5"/>
<path d="M527.212 142.096C526.721 142.259 526.395 142.422 526.067 142.748C525.741 143.075 525.741 143.401 525.577 143.89C525.415 144.869 525.251 145.685 525.251 146.664C525.251 147.479 525.415 148.295 525.741 149.111C526.231 149.763 526.885 150.416 527.866 150.416C528.518 150.416 529.172 149.927 529.662 149.274C530.152 148.621 530.314 147.969 530.478 147.316C531.294 144.217 531.132 141.28 527.212 142.096Z" stroke="#025CF5" stroke-miterlimit="10" stroke-linecap="round" stroke-linejoin="round"/>
<path d="M541.586 145.848C538.646 145.848 535.869 145.522 532.929 145.196C532.275 145.196 531.785 145.032 531.132 145.032" stroke="#025CF5" stroke-miterlimit="10" stroke-linecap="round" stroke-linejoin="round"/>
<path d="M524.761 144.38C524.435 144.217 523.945 144.217 523.619 144.054" stroke="#025CF5" stroke-miterlimit="10" stroke-linecap="round" stroke-linejoin="round"/>
<path d="M535.051 183.044C540.604 183.044 545.831 181.576 550.242 178.803C549.262 175.54 547.465 171.788 544.689 170.972C542.892 170.482 540.604 172.603 538.808 173.093C536.521 173.909 533.909 174.235 531.458 174.072C530.642 174.072 529.662 173.909 528.844 173.909C528.028 174.072 527.212 174.398 526.393 174.561C524.925 175.214 523.455 175.703 521.985 176.356C520.84 176.845 519.698 177.334 519.044 178.15C523.781 181.25 529.172 183.044 535.051 183.044Z" fill="#DE1414"/>
<path d="M588.627 131.165H679.934" stroke="#02735E" stroke-miterlimit="10" stroke-linecap="round" stroke-linejoin="round"/>
<path d="M586.458 146.827H669.761" stroke="#02735E" stroke-miterlimit="10" stroke-linecap="round" stroke-linejoin="round"/>
<path d="M584.824 161.51H653.426" stroke="#02735E" stroke-miterlimit="10" stroke-linecap="round" stroke-linejoin="round"/>
<path d="M582.094 176.682H673.401" stroke="#02735E" stroke-miterlimit="10" stroke-linecap="round" stroke-linejoin="round"/>
<path d="M581.114 192.016H672.257" stroke="#02735E" stroke-miterlimit="10" stroke-linecap="round" stroke-linejoin="round"/>
<path d="M578.291 207.189H651.794" stroke="#02735E" stroke-miterlimit="10" stroke-linecap="round" stroke-linejoin="round"/>
<path d="M575.024 221.872H633.827" stroke="#02735E" stroke-miterlimit="10" stroke-linecap="round" stroke-linejoin="round"/>
<path d="M865.978 327.587H657.72C653.147 327.587 649.716 323.673 650.206 319.267L663.601 181.413C663.927 177.498 667.193 174.561 671.114 174.561H879.371C883.946 174.561 887.374 178.476 886.884 182.881L873.492 320.736C873.164 324.488 869.897 327.587 865.978 327.587Z" fill="#D4EAFF"/>
<path d="M705.579 250.912C721.906 250.912 735.142 237.692 735.142 221.382C735.142 205.074 721.906 191.854 705.579 191.854C689.251 191.854 676.013 205.074 676.013 221.382C676.013 237.692 689.251 250.912 705.579 250.912Z" fill="#034159"/>
<path d="M688.266 219.424C688.754 217.63 689.244 215.836 689.244 213.878C689.244 211.594 689.244 209.147 690.062 206.863C690.878 204.743 692.348 202.947 693.981 201.478C695.125 200.501 696.269 199.522 697.737 198.869C698.882 198.38 700.352 198.216 701.658 198.216C703.128 198.216 704.763 198.216 706.233 198.705C709.5 199.684 711.948 202.296 715.217 203.6C716.849 204.253 718.483 204.579 719.789 205.72C722.076 207.516 722.73 210.779 722.566 213.716C722.402 217.14 722.076 220.241 723.056 223.504C723.71 225.787 724.688 227.909 725.342 230.193C725.997 232.313 726.323 234.434 725.997 236.554C725.669 238.676 724.526 240.634 722.566 241.775C719.789 243.407 716.195 242.59 713.256 243.569C710.642 244.386 709.336 246.996 706.559 247.485C702.474 248.3 700.026 246.832 697.411 243.897C695.451 241.775 693.165 240.145 691.042 238.187C690.062 237.37 688.918 236.718 688.428 235.575C687.938 234.596 687.611 233.292 687.447 232.151C686.957 228.724 686.795 225.462 687.775 222.035C687.775 221.22 688.102 220.403 688.266 219.424Z" fill="#DE1414"/>
<path d="M705.579 250.912C711.296 250.912 716.523 249.279 721.095 246.506C721.095 246.017 720.932 245.365 720.769 244.876C717.829 238.187 710.642 234.107 703.454 234.107C699.862 234.107 696.105 235.086 692.838 236.718C691.368 237.533 685.977 240.145 684.835 242.101C690.062 247.649 697.411 250.912 705.579 250.912Z" fill="#025CF5"/>
<path d="M692.512 218.773C692.186 221.056 692.022 223.34 693.002 225.298C693.982 227.256 696.595 228.724 698.555 227.582C697.085 232.477 695.289 236.718 696.595 241.613C696.923 242.754 697.739 244.712 698.881 244.876C699.536 244.876 700.842 243.08 701.17 242.754C705.417 239.166 704.926 238.023 706.559 231.334C707.375 228.071 710.316 223.014 710.48 219.752C712.602 220.567 715.38 218.773 715.216 216.325C715.216 214.042 712.276 212.247 710.316 213.226C711.46 208.985 709.825 203.926 706.069 201.968C696.269 197.401 693.328 212.737 692.512 218.773Z" fill="#FFCDD4"/>
<path d="M705.579 206.863C704.435 207.516 703.128 207.842 701.82 207.842C701.984 207.352 702.31 207.027 702.638 206.537C701.494 207.516 699.698 207.189 698.391 207.678C695.777 208.331 693.981 210.779 692.674 213.062C692.674 213.062 692.02 210.941 692.02 210.615C692.02 209.636 692.348 208.985 692.674 208.168C693.655 206.537 693.164 204.579 694.145 202.947C695.287 201.153 697.411 200.174 699.534 200.012C701.658 199.848 703.78 200.499 705.741 200.989C708.681 201.968 711.948 203.275 713.582 205.884C714.398 207.352 715.215 209.147 714.562 210.779C714.072 211.92 712.274 213.226 711.132 213.878C710.968 214.041 710.642 214.041 710.478 214.041C710.152 214.041 709.825 213.716 709.498 213.388C708.027 211.268 707.375 208.495 706.885 206.048C706.395 206.373 706.069 206.699 705.579 206.863Z" fill="#DE1414"/>
<path d="M695.615 222.035C696.431 222.687 697.737 223.014 699.535 222.525" stroke="#DE1414" stroke-miterlimit="10" stroke-linecap="round" stroke-linejoin="round"/>
<path d="M702.476 214.367C702.148 215.02 702.312 215.182 702.148 215.672" stroke="#025CF5" stroke-miterlimit="10" stroke-linecap="round" stroke-linejoin="round"/>
<path d="M696.431 213.716C696.431 214.042 696.267 214.203 696.105 214.857" stroke="#025CF5" stroke-miterlimit="10" stroke-linecap="round" stroke-linejoin="round"/>
<path d="M759.479 203.764H850.786" stroke="#02735E" stroke-miterlimit="10" stroke-linecap="round" stroke-linejoin="round"/>
<path d="M756.33 218.609H831.466" stroke="#02735E" stroke-miterlimit="10" stroke-linecap="round" stroke-linejoin="round"/>
<path d="M755.722 234.271H847.029" stroke="#02735E" stroke-miterlimit="10" stroke-linecap="round" stroke-linejoin="round"/>
<path d="M753.063 249.607H837.999" stroke="#02735E" stroke-miterlimit="10" stroke-linecap="round" stroke-linejoin="round"/>
<path d="M751.965 264.615H843.272" stroke="#02735E" stroke-miterlimit="10" stroke-linecap="round" stroke-linejoin="round"/>
<path d="M749.796 278.973H823.298" stroke="#02735E" stroke-miterlimit="10" stroke-linecap="round" stroke-linejoin="round"/>
<path d="M746.576 294.96H837.719" stroke="#02735E" stroke-miterlimit="10" stroke-linecap="round" stroke-linejoin="round"/>
<path fill-rule="evenodd" clip-rule="evenodd" d="M432.972 610.107C432.972 610.107 442.794 599.386 447.862 590.401C450.557 585.515 454.675 573.376 451.507 567.071C451.507 566.914 449.923 571.013 447.704 574.007C445.328 577.475 442.16 579.84 442.002 579.682C441.21 578.578 443.902 575.111 446.12 570.382C447.546 567.387 449.446 561.24 449.446 561.24C449.446 561.24 445.328 553.516 442.477 550.205C429.802 535.86 402.711 533.18 384.969 531.604C379.899 531.131 376.889 537.12 371.819 537.435C371.185 537.435 367.542 537.435 367.384 538.224C367.067 539.17 381.483 540.746 384.017 542.164C390.513 545.79 393.206 550.205 393.206 550.205C393.206 550.205 408.89 555.248 408.257 559.505C407.94 561.554 393.683 553.672 393.683 553.672C393.683 553.672 399.068 573.062 408.415 585.199C417.445 597.179 430.911 607.427 432.972 610.107Z" fill="#AAD5FB"/>
<path opacity="0.2" fill-rule="evenodd" clip-rule="evenodd" d="M432.972 610.107C432.972 610.107 442.794 599.388 447.862 590.402C450.557 585.515 454.675 573.378 451.507 567.072C451.507 566.914 449.923 571.013 447.704 574.009C445.328 577.477 442.16 579.84 442.002 579.684C441.21 578.58 443.902 575.111 446.12 570.384C447.546 567.387 449.446 561.24 449.446 561.24C449.446 561.24 445.328 553.516 442.477 550.205C429.802 535.86 402.711 533.18 384.969 531.604C379.899 531.131 376.889 537.122 371.819 537.437C371.185 537.437 367.542 537.437 367.384 538.224C367.067 539.171 381.483 540.748 384.019 542.166C390.513 545.792 393.206 550.205 393.206 550.205C393.206 550.205 408.89 555.25 408.257 559.505C407.94 561.556 393.683 553.674 393.683 553.674C393.683 553.674 399.068 573.062 408.415 585.2C417.445 597.181 430.911 607.427 432.972 610.107Z" fill="#5C9FDB"/>
<path fill-rule="evenodd" clip-rule="evenodd" d="M443.425 551.15C443.425 551.15 435.031 537.593 421.088 530.342C397.009 517.889 387.503 518.047 373.878 517.26C345.837 515.683 328.251 526.56 328.251 526.56C328.251 526.56 337.599 525.298 342.035 525.456C349.48 525.771 356.134 526.875 356.134 526.875C356.134 526.875 345.203 527.347 338.232 528.609C329.202 530.186 320.805 532.235 320.805 532.235C320.805 532.235 309.557 546.106 304.806 554.303C299.577 563.13 295.934 574.953 297.359 576.373C298.468 577.633 315.261 575.427 316.529 575.111C326.509 573.062 345.995 564.234 345.995 564.234C345.995 564.234 349.957 558.718 349.48 554.776C349.005 550.994 348.371 544.372 348.371 544.372C348.371 544.372 351.541 548.47 352.65 552.254C353.917 556.668 353.917 560.136 353.917 560.136C353.917 560.136 371.819 545.161 391.146 541.693C420.93 536.964 443.425 551.15 443.425 551.15Z" fill="#D4EAFF"/>
<path fill-rule="evenodd" clip-rule="evenodd" d="M342.376 539.363C353.702 532.631 381.757 518.455 417.166 529.367C417.674 529.523 418.213 529.24 418.37 528.734C418.528 528.228 418.243 527.69 417.734 527.534C381.539 516.378 352.877 530.889 341.389 537.714L341.385 537.718C320.546 550.221 307.927 561.495 297.223 575.96C296.906 576.386 296.998 576.987 297.426 577.302C297.855 577.616 298.459 577.525 298.774 577.099C309.298 562.876 321.709 551.764 342.376 539.363Z" fill="#AAD5FB"/>
<path fill-rule="evenodd" clip-rule="evenodd" d="M468.621 556.825C468.621 556.825 476.224 542.323 478.443 528.766C482.403 504.647 483.353 472.962 483.353 472.962C483.353 472.962 472.898 487.15 468.463 484.784C464.026 482.262 482.562 465.711 482.562 465.711C482.562 465.711 475.749 435.917 470.047 420.786C454.679 379.484 438.202 355.523 438.202 355.523C438.202 355.523 429.172 363.72 422.044 383.268C416.974 397.297 415.39 426.302 415.39 426.302C415.39 426.302 431.391 435.13 430.599 442.223C429.807 449.159 414.756 433.553 414.756 433.553C414.756 433.553 415.865 452.312 418.716 470.755C423.787 503.229 433.45 515.682 433.45 515.682C433.45 515.682 454.045 517.258 454.362 522.775C454.679 528.135 435.351 521.198 435.351 521.198C435.351 521.198 435.193 518.993 446.282 531.446C457.371 543.741 468.621 556.825 468.621 556.825Z" fill="#D4EAFF"/>
<path fill-rule="evenodd" clip-rule="evenodd" d="M404.973 546.453C404.554 546.778 404.479 547.381 404.806 547.8C420.214 567.51 430.294 590.201 435.185 624.097C435.515 627.191 436.65 631.363 437.912 635.601L437.913 635.603C438.702 638.22 439.786 642.117 440.798 645.758C441.307 647.589 441.799 649.355 442.225 650.859C442.542 651.98 442.824 652.955 443.049 653.701C443.263 654.41 443.452 654.995 443.576 655.263C443.595 655.302 443.623 655.361 443.662 655.423L443.664 655.425C443.681 655.453 443.796 655.643 444.022 655.773C444.171 655.858 444.473 655.972 444.832 655.845C445.164 655.728 445.319 655.479 445.376 655.367C445.475 655.173 445.483 654.987 445.485 654.95V654.946C445.494 654.753 445.455 654.485 445.417 654.25C445.33 653.703 445.144 652.765 444.847 651.366C444.771 651.004 444.499 650.735 444.165 650.64C444.137 650.541 444.107 650.44 444.08 650.338C443.658 648.855 443.172 647.103 442.663 645.278C441.648 641.626 440.552 637.688 439.758 635.054C438.487 630.788 437.407 626.772 437.099 623.878C437.099 623.867 437.097 623.854 437.095 623.842C432.163 589.649 421.966 566.63 406.326 546.62C405.998 546.201 405.394 546.127 404.973 546.453ZM445.322 654.453V654.455V654.453Z" fill="#AAD5FB"/>
<path fill-rule="evenodd" clip-rule="evenodd" d="M572.704 501.337C589.18 498.343 587.595 486.835 612.468 493.77C631.004 498.815 636.074 515.209 653.816 518.678C663.005 520.569 686.294 518.203 668.233 526.402C650.014 534.599 622.765 534.599 610.726 527.978C598.686 521.514 590.289 509.692 585.694 512.056C582.526 513.791 594.249 524.509 594.249 524.509C594.249 524.509 584.902 524.036 551.317 509.692C535.316 502.756 556.227 504.332 572.704 501.337Z" fill="#AAD5FB"/>
<path fill-rule="evenodd" clip-rule="evenodd" d="M567.473 649.516C567.315 649.516 570.483 639.27 571.435 632.491C573.019 621.456 569.849 605.534 560.977 599.703C553.216 594.501 529.293 599.703 529.293 599.703C529.293 599.703 511.708 604.588 524.383 609.003C537.056 613.416 547.987 613.889 555.592 628.708C560.344 638.008 563.513 647.466 567.473 649.516Z" fill="#AAD5FB"/>
<path fill-rule="evenodd" clip-rule="evenodd" d="M497.767 631.544C497.767 631.544 495.391 625.082 495.867 620.036C497.134 608.529 503.628 603.012 503.628 603.012C503.628 603.012 502.519 613.416 504.738 611.681C506.956 609.949 505.53 600.805 505.53 600.805C505.53 600.805 511.074 593.87 518.996 592.923C526.917 591.977 536.581 596.706 536.581 596.706C536.581 596.706 540.382 594.499 545.77 594.343C556.542 594.184 562.088 600.174 562.088 600.174C562.088 600.174 554.166 596.234 541.174 602.225C531.035 607.11 522.639 612.312 516.303 619.405C509.807 626.815 497.767 631.544 497.767 631.544Z" fill="#D4EAFF"/>
<path fill-rule="evenodd" clip-rule="evenodd" d="M490.604 585.115C490.604 585.115 486.011 566.671 488.704 549.961C492.347 526.631 507.714 507.716 507.714 507.716C507.714 507.716 511.041 525.527 515.161 521.114C519.279 516.7 512.308 502.514 512.308 502.514C512.308 502.514 513.733 496.366 527.042 492.741C543.994 488.168 556.825 494.632 565.697 494.473C574.569 494.317 577.42 491.952 595.956 490.692C608.473 489.902 618.77 496.05 618.77 496.05C618.77 496.05 589.143 494.001 563.638 519.696C551.915 531.518 540.666 543.972 540.666 543.972C540.666 543.972 521.496 540.504 517.537 548.07C515.002 553.114 537.023 550.277 537.023 550.277C537.023 550.277 530.685 558.947 518.487 567.932C506.289 576.918 490.604 585.115 490.604 585.115Z" fill="#D4EAFF"/>
<path fill-rule="evenodd" clip-rule="evenodd" d="M438.715 356.476C438.195 356.368 437.684 356.701 437.574 357.218C431.507 386.138 438.374 421.016 443.595 446.043C446.709 461.3 450.257 474.343 453.678 486.926C454.789 491.011 455.888 495.048 456.952 499.098C461.303 515.624 465.131 532.397 467.184 553.607V553.609C469.396 575.926 469.238 599.025 466.394 621.335C465.708 626.801 464.609 632.335 463.508 637.872C463.094 639.96 462.679 642.05 462.285 644.135C462.22 644.479 462.155 644.827 462.09 645.173C461.676 647.388 461.253 649.655 460.713 651.803C460.584 652.318 460.897 652.839 461.413 652.968C461.929 653.096 462.453 652.784 462.582 652.27C463.137 650.059 463.573 647.729 463.985 645.518C464.05 645.171 464.113 644.829 464.179 644.49C464.562 642.445 464.974 640.383 465.386 638.307C466.491 632.75 467.611 627.114 468.306 621.575C471.167 599.116 471.327 575.872 469.102 553.423C467.035 532.069 463.18 515.188 458.816 498.611C457.744 494.535 456.641 490.481 455.527 486.385C452.109 473.814 448.583 460.851 445.481 445.658V445.654C440.245 420.553 433.488 386.072 439.46 357.611C439.57 357.094 439.235 356.586 438.715 356.476ZM567.33 495.173C567.32 494.643 566.881 494.22 566.349 494.229C537.88 494.713 514.356 520.085 501.319 550.458C495.492 564.039 490.79 584.03 486.976 603.259C485.045 612.995 483.348 622.506 481.842 630.931C480.361 639.227 479.068 646.469 477.925 651.838C477.815 652.355 478.147 652.865 478.667 652.975C479.189 653.085 479.699 652.754 479.809 652.235C480.95 646.882 482.254 639.573 483.747 631.226C485.256 622.776 486.957 613.261 488.867 603.632C492.682 584.396 497.352 564.586 503.089 551.211C516.035 521.053 539.085 496.612 566.383 496.148C566.914 496.139 567.337 495.704 567.33 495.173ZM536.59 596.771C536.538 596.243 536.067 595.857 535.537 595.91C524.673 596.965 515.753 603.297 509.106 610.79C502.459 618.283 497.998 627.032 496.058 633.146L496.055 633.154C494.776 637.289 493.819 641.421 492.868 645.676C492.401 647.695 491.89 650.025 492.052 652.231V652.51C492.052 653.039 492.482 653.469 493.015 653.469C493.546 653.469 493.979 653.039 493.979 652.51V652.194C493.979 652.169 493.977 652.145 493.975 652.121C493.83 650.239 494.266 648.172 494.747 646.104L494.748 646.096C495.697 641.844 496.642 637.779 497.896 633.721C499.757 627.853 504.088 619.344 510.55 612.061C517.013 604.774 525.52 598.811 535.726 597.819C536.255 597.767 536.642 597.298 536.59 596.771Z" fill="#AAD5FB"/>
<path fill-rule="evenodd" clip-rule="evenodd" d="M510.649 649.687H432.12L442.591 723.228H500.178L510.649 649.687Z" fill="#D4EAFF"/>
</svg>
