<svg width="20" height="20" viewBox="0 0 10 10" fill="none" xmlns="http://www.w3.org/2000/svg">
<path fill-rule="evenodd" clip-rule="evenodd" d="M0.266267 0.266267C0.621289 -0.0887555 1.19689 -0.0887555 1.55192 0.266267L9.73373 8.44808C10.0888 8.80311 10.0888 9.37871 9.73373 9.73373C9.37871 10.0888 8.80311 10.0888 8.44808 9.73373L0.266267 1.55192C-0.0887555 1.19689 -0.0887555 0.621289 0.266267 0.266267Z" fill="#ACACAC"/>
<path fill-rule="evenodd" clip-rule="evenodd" d="M9.73373 0.266267C10.0888 0.621289 10.0888 1.19689 9.73373 1.55192L1.55191 9.73373C1.19689 10.0888 0.621288 10.0888 0.266266 9.73373C-0.088757 9.37871 -0.0887569 8.80311 0.266266 8.44808L8.44808 0.266267C8.80311 -0.0887556 9.37871 -0.0887556 9.73373 0.266267Z" fill="#ACACAC"/>
</svg>
