<svg width="89" height="110" viewBox="0 0 89 110" fill="none" xmlns="http://www.w3.org/2000/svg">
<g clip-path="url(#clip0_2_301)">
<path d="M51.3035 82.759C50.7856 82.759 50.2676 82.759 49.7496 82.759C49.161 82.7119 48.5724 82.9238 47.9602 82.9003C46.9478 82.8532 45.9589 82.9474 44.9465 82.9709C43.6516 82.9945 42.3331 83.0651 41.0381 83.1357C39.4371 83.2299 37.8361 83.3241 36.235 83.4654C33.2213 83.7008 30.2077 83.9598 27.2175 84.4307C23.521 84.9958 19.8716 85.7963 16.2222 86.6203C15.8926 86.691 15.563 86.8087 15.2333 86.7851C14.786 86.7616 14.5035 86.5261 14.3857 86.1023C14.2445 85.5608 14.3622 85.0193 14.4093 84.5013C14.6212 82.0056 15.0214 79.5334 15.5394 77.0848C16.2222 73.9063 16.9756 70.7749 17.9174 67.667C17.9174 67.6199 17.941 67.5963 17.941 67.5493C17.988 67.3138 17.941 67.2667 17.7291 67.3138C17.3523 67.408 17.0227 67.6199 16.8344 67.9966C16.6225 68.3969 16.4341 68.8207 16.2458 69.2445C15.5159 71.0103 14.8802 72.7997 14.2445 74.5891C13.5852 76.402 12.9495 78.2149 12.3374 80.0514C11.8429 81.5347 11.4662 83.0651 11.066 84.572C10.8776 85.2783 10.6657 86.0082 10.5009 86.738C10.4303 87.0677 10.4303 87.0677 10.7599 87.1148C12.5728 87.3502 14.3622 87.5856 16.1751 87.8211C18.4354 88.1036 20.7192 88.4097 22.9795 88.6922C25.8755 89.069 28.7479 89.4457 31.6439 89.7988C33.4332 90.0343 35.1991 90.2697 36.9885 90.4816C37.1297 90.5052 37.2946 90.4816 37.4358 90.6229C37.3887 90.7171 37.3181 90.6935 37.2475 90.6935C35.1049 90.6935 32.9624 90.6935 30.7963 90.6935C30.7727 90.6935 30.7492 90.6935 30.7021 90.6935C30.0428 90.6935 29.36 90.67 28.7008 90.6935C27.5236 90.7406 26.3699 90.5052 25.1927 90.3639C24.1096 90.2462 23.0266 90.0814 21.9671 89.9401C20.884 89.7988 19.801 89.6576 18.7415 89.5163C17.682 89.375 16.5989 89.2338 15.5394 89.0925C14.4799 88.9512 13.4204 88.81 12.3609 88.6687C11.2779 88.5274 10.1948 88.3862 9.08821 88.2449C8.02871 88.1036 6.94566 87.9624 5.88616 87.8211C4.82666 87.6798 3.76715 87.5386 2.70765 87.3973C2.09549 87.3267 1.45979 87.256 0.847632 87.1618C0.494464 87.1148 0.400286 86.9499 0.400286 86.5497C0.400286 82.9709 0.400286 79.4157 0.376742 75.8369C0.306108 55.7064 0.259019 35.5758 0.188385 15.4452C0.188385 12.3844 0.164841 9.30012 0.164841 6.23933C0.164841 6.14515 0.164841 6.02743 0.164841 5.93325C0.117752 5.08565 0.164841 4.2145 0.141296 3.3669C0.141296 3.20209 0.141296 3.03727 0.141296 2.89601C0.141296 2.09549 0.141296 1.27143 0.141296 0.470921C0.141296 0.282564 0.164841 0.117753 0.400286 0.0471191C0.612187 0.0471191 0.824088 0.0471191 1.01244 0.0471191C1.93068 0.117753 2.84892 0.235475 3.7907 0.353198C6.75731 0.753455 9.72392 1.13017 12.6905 1.53042C16.5283 2.02486 20.3425 2.51929 24.1803 3.03727C24.9101 3.13145 25.5458 3.01373 26.2286 2.73119C29.1481 1.50688 32.1854 0.659277 35.3404 0.306109C37.9067 3.00854e-05 40.4731 0.164842 42.9923 0.776999C46.1708 1.53042 49.1374 2.77828 51.8686 4.56767C52.9517 5.274 53.9876 6.05097 54.9294 6.92212C55.0942 7.08693 55.3061 7.13402 55.518 7.15756C58.8142 7.58137 62.134 8.02871 65.4303 8.45251C69.0326 8.9234 72.6349 9.39429 76.2372 9.86518C79.557 10.289 82.8532 10.7363 86.173 11.1601C86.9499 11.2543 87.7505 11.372 88.5274 11.4662C88.7629 11.4898 88.9512 11.5604 88.9983 11.8194C88.9983 11.9606 88.9983 12.0784 88.9983 12.2196C88.7629 12.8789 88.6216 13.5617 88.4333 14.2209C86.8087 20.366 85.2076 26.5112 83.5831 32.6563C81.9821 38.8014 80.3575 44.923 78.7565 51.0681C77.1554 57.1426 75.5779 63.1935 73.9769 69.268C72.3759 75.3425 70.7984 81.3934 69.1974 87.4679C68.5146 90.1285 67.8083 92.7654 67.1019 95.4024C67.0077 95.7321 66.8429 95.8498 66.5133 95.8262C65.9482 95.7556 65.3596 95.6614 64.771 95.5908C64.8887 95.1434 65.0065 94.6961 65.1242 94.2487C65.1948 94.1781 65.289 94.1781 65.3832 94.1781C65.7834 94.2017 65.8776 94.131 65.9718 93.7543C66.1601 93.0009 66.372 92.271 66.5604 91.5176C67.0548 89.6105 67.5728 87.7034 68.0672 85.8198C68.1143 85.6315 68.1143 85.4431 68.0672 85.2547C67.1961 81.9821 66.372 78.7094 65.5715 75.4367C64.9358 72.7997 64.2766 70.1392 63.6409 67.5022C63.3819 66.4191 63.0993 65.3596 62.8168 64.2766C62.6991 63.7586 62.4166 63.4054 61.9692 63.1464C61.6867 62.9816 61.3806 62.8404 61.051 62.7697C60.6272 62.6755 60.4859 62.8168 60.533 63.2406C60.6507 63.9705 60.7684 64.7004 60.8862 65.4067C61.2393 67.4551 61.569 69.4799 61.8044 71.5518C61.9692 72.9645 62.1105 74.3772 62.2282 75.7898C62.3459 76.9906 62.4166 78.1914 62.4872 79.3922C62.5343 79.9572 62.5107 80.5458 62.5578 81.1109C62.6049 81.6289 62.7226 81.8172 63.2406 81.9114C63.7821 82.0056 64.3001 82.0762 64.8181 82.241C64.9594 82.2881 65.1006 82.3117 65.2184 82.3823C65.3596 82.4529 65.4773 82.5236 65.4538 82.6884C65.4303 82.8532 65.3125 82.9238 65.1713 82.9474C64.8887 83.018 64.5826 83.018 64.3001 82.9709C63.8999 82.9238 63.4996 82.9238 63.0993 82.9238C62.9816 82.9238 62.8639 82.9238 62.7462 82.8532C61.8986 82.8532 61.0274 82.8532 60.1798 82.8532C60.1563 82.8767 60.1092 82.9003 60.0856 82.9238C59.0732 82.9474 58.0844 83.018 57.0719 82.8532C57.0249 82.8532 57.0013 82.8297 56.9542 82.8297C56.2008 82.8297 55.4474 82.7826 54.694 82.8532C53.6815 82.9474 52.6927 82.8767 51.6803 82.9003C51.539 82.8297 51.4213 82.8297 51.3035 82.759Z" fill="#242220"/>
<path d="M0.0706486 2.84871C0.0706486 3.86113 0.0706486 4.87354 0.0706486 5.9095H0.0471041H0.0235596C0.0235596 4.89709 0.0235596 3.88467 0.0235596 2.84871C0.0471041 2.82517 0.0706486 2.82517 0.0706486 2.84871Z" fill="#EDEDEC"/>
<path d="M0.0706486 2.84883H0.0471041H0.0235596C0.0235596 2.02477 0.0235596 1.20071 0.0235596 0.353108C0.0471041 0.329563 0.0471041 0.329563 0.0706486 0.353108C0.0706486 1.17717 0.0706486 2.02477 0.0706486 2.84883Z" fill="#D5D5D4"/>
<path d="M0.070661 0.353112H0.0235719C2.73921e-05 0.141212 -0.0235171 -0.070689 0.306106 0.023489C0.211928 0.117667 0.0942055 0.211845 0.070661 0.353112Z" fill="#F6F6F5"/>
<path d="M30.6786 90.6698C31.1495 90.6698 31.6203 90.6462 32.0912 90.6462C33.7393 90.6462 35.3875 90.6462 37.0356 90.6462C37.1298 90.6462 37.2239 90.6462 37.3181 90.6462C37.3181 90.6227 37.3181 90.6227 37.3181 90.5992C36.2351 90.4579 35.1285 90.3166 34.0454 90.1754C33.1036 90.0576 32.1619 89.9164 31.2436 89.7986C30.3018 89.6809 29.3365 89.5632 28.3947 89.4455C27.3117 89.3042 26.2286 89.1629 25.1456 89.0217C24.1803 88.904 23.2385 88.7862 22.2732 88.6685C21.4727 88.5743 20.6957 88.4566 19.8952 88.3624C19.0947 88.2682 18.2706 88.1505 17.4701 88.0563C16.5518 87.9386 15.6101 87.8209 14.6918 87.7032C13.8913 87.609 13.0908 87.4913 12.2903 87.3971C11.6781 87.3265 11.0424 87.2323 10.4303 87.1617C10.2419 87.1381 10.3125 87.0439 10.3361 86.9498C10.6186 85.8667 10.9012 84.7837 11.1837 83.7006C11.631 82.0054 12.1255 80.3102 12.6905 78.6621C13.7971 75.5071 14.9037 72.3286 16.1516 69.2207C16.3635 68.6792 16.5754 68.1377 16.9521 67.6668C17.1875 67.3607 17.5643 67.2665 17.9174 67.1959C18.1293 67.1488 18.0822 67.3607 18.0352 67.502C17.9174 67.9258 17.7762 68.326 17.6584 68.7498C16.8815 71.3397 16.2693 73.9767 15.6807 76.6137C15.304 78.3089 15.0215 80.0277 14.7625 81.7464C14.5977 82.9707 14.4799 84.195 14.3858 85.4194C14.3622 85.6783 14.3858 85.9373 14.4564 86.1728C14.5506 86.6201 14.9744 86.832 15.5394 86.7143C16.9756 86.4082 18.3883 86.0786 19.8245 85.7725C21.9906 85.3016 24.1567 84.8543 26.3464 84.5011C27.8061 84.2421 29.2894 84.0773 30.7727 83.9125C32.1619 83.7712 33.5274 83.63 34.9166 83.5123C36.188 83.4181 37.4358 83.3239 38.7072 83.2297C39.6961 83.1591 40.685 83.112 41.6974 83.0649C43.2278 82.9943 44.7346 82.9236 46.265 82.8766C46.9714 82.853 47.6542 82.853 48.3605 82.8295C48.8314 82.8295 49.3023 82.7117 49.7732 82.7824C49.5377 82.7824 49.3258 82.8059 49.0904 82.8059C48.9491 82.8059 48.902 82.853 48.902 82.9943C48.902 83.1591 48.902 83.3239 48.902 83.4652C48.8785 86.3376 48.8549 89.21 48.8314 92.106C48.7137 92.2237 48.5489 92.1766 48.4076 92.1531C47.8425 91.1642 46.9949 90.7169 45.8648 90.7169C41.0382 90.7404 36.188 90.7404 31.3614 90.7404C31.1024 90.6933 30.8905 90.7404 30.6786 90.6698Z" fill="#9B2D35"/>
<path d="M15.351 100.912C15.7748 100.582 16.1751 100.276 16.5518 99.9698C18.4118 98.5336 20.2954 97.0973 22.1554 95.6847C22.3908 95.4963 22.6498 95.3315 22.5792 94.9783C22.5086 94.6252 22.2025 94.4839 21.8964 94.4133C21.6139 94.3662 21.5903 94.2485 21.6845 94.013C21.7787 93.7776 21.7551 93.4479 21.92 93.3067C22.0848 93.1654 22.4144 93.2596 22.6498 93.2596C25.1926 93.2596 27.7355 93.2596 30.2783 93.236C30.5137 93.236 30.5608 93.2831 30.5137 93.5186C30.4195 94.013 30.3018 94.3662 29.6661 94.4368C29.0775 94.4839 28.6066 94.9312 28.1357 95.308C25.9225 97.0738 23.7329 98.8396 21.5197 100.605C21.3313 100.747 21.3078 100.841 21.4491 101.076C22.6734 102.96 23.8977 104.843 25.1691 106.704C25.6164 107.386 26.158 107.951 26.9114 108.305C27.1468 108.422 27.3823 108.469 27.6413 108.493C27.7825 108.493 27.8061 108.564 27.759 108.681V108.705C27.6884 109.011 27.6884 109.411 27.4765 109.599C27.2646 109.788 26.8643 109.67 26.5582 109.67C25.1691 109.647 23.78 109.717 22.3908 109.599C20.9075 109.458 19.6832 108.893 18.7885 107.669C17.5407 105.974 16.2222 104.302 15.1391 102.489C15.1156 102.442 15.0685 102.371 14.9979 102.277C14.8566 102.819 14.7389 103.29 14.5976 103.784C14.2915 104.891 13.9854 105.997 13.6794 107.127C13.5381 107.669 13.75 108.069 14.3622 108.352C14.786 108.54 14.786 108.54 14.6682 108.987C14.5034 109.647 14.5034 109.647 13.8206 109.647C11.2543 109.647 8.68793 109.647 6.14513 109.647C5.86259 109.647 5.8155 109.576 5.90968 109.34C5.93322 109.293 5.93322 109.246 5.93322 109.199C6.00386 108.752 6.12158 108.469 6.68665 108.375C7.41653 108.281 7.79324 107.645 8.07578 107.01C8.57021 105.927 8.80566 104.749 9.11173 103.619C9.79453 101.171 10.4538 98.7219 11.1366 96.2497C11.1837 96.1085 11.2072 95.9672 11.2307 95.8495C11.3485 95.0961 11.0424 94.6252 10.2654 94.3897C10.0771 94.3426 10.0064 94.2955 10.0771 94.0836C10.1712 93.8247 10.1477 93.4715 10.3125 93.2831C10.5009 93.1183 10.854 93.236 11.1366 93.236C13.5146 93.236 15.8926 93.236 18.2706 93.2125C18.5531 93.2125 18.6002 93.2831 18.506 93.5186C18.506 93.5421 18.506 93.5657 18.506 93.5657C18.4354 93.9895 18.3176 94.3426 17.7761 94.4604C17.2581 94.5781 16.9756 95.049 16.8343 95.567C16.3634 97.2857 15.8926 98.9809 15.4217 100.676C15.3746 100.794 15.351 100.817 15.351 100.912Z" fill="#242220"/>
<path d="M37.012 99.7578C38.9191 99.7578 40.8027 99.7578 42.7333 99.7578C42.4037 101.1 42.0741 102.395 41.7445 103.737C41.0146 102.96 40.0964 102.866 39.131 102.866C38.1893 102.866 37.2475 102.866 36.3057 102.866C36.1644 102.866 36.0702 102.889 36.0232 103.054C35.6935 104.325 35.3404 105.573 35.0107 106.845C34.8224 107.598 35.0814 108.116 35.8113 108.422C35.9996 108.493 36.0232 108.587 35.9761 108.752C35.9054 108.987 35.8583 109.223 35.8113 109.458C35.7877 109.623 35.7171 109.67 35.5523 109.67C33.2214 109.67 30.914 109.647 28.5831 109.67C28.3947 109.67 28.3476 109.647 28.3947 109.435C28.9363 107.48 29.4778 105.503 30.0193 103.549C30.7021 101.076 31.3849 98.6042 32.0677 96.132C32.3267 95.1902 32.0206 94.6722 31.1024 94.4132C30.9611 94.3661 30.9611 94.3191 30.9846 94.2013C31.1494 93.3066 31.1494 93.3066 32.0677 93.3066C35.7406 93.3066 39.39 93.3066 43.063 93.3066C44.0047 93.3066 44.923 93.3066 45.8648 93.3066C46.0531 93.3066 46.1238 93.3302 46.0767 93.5656C45.747 94.8841 45.4174 96.1791 45.0878 97.4976C45.0643 97.6153 45.0407 97.7566 44.8524 97.7095C44.7111 97.6624 44.5227 97.8272 44.4285 97.5447C44.2637 97.0267 43.8164 96.8148 43.322 96.6971C43.1336 96.65 42.9217 96.65 42.7333 96.65C41.203 96.65 39.6726 96.65 38.1657 96.65C38.0244 96.65 37.9303 96.65 37.8832 96.8383C37.6477 97.7801 37.3887 98.7219 37.1297 99.6637C37.0356 99.6401 37.0356 99.6872 37.012 99.7578Z" fill="#242220"/>
<path d="M60.4624 105.974C60.2269 106.939 59.9679 107.834 59.8267 108.752C59.7325 109.294 59.497 109.435 59.0026 109.529C56.9071 109.882 54.8117 110.094 52.6691 109.976C50.7385 109.859 48.8785 109.458 47.2068 108.399C44.3108 106.562 43.2513 103.196 44.6169 100.017C45.4645 98.0393 46.9007 96.556 48.6901 95.4259C50.6207 94.2016 52.7633 93.5423 55.0236 93.2598C57.4016 92.9537 59.7325 93.0714 62.0398 93.6836C62.5107 93.8248 62.5107 93.8013 62.393 94.2957C62.0869 95.4023 61.7809 96.5089 61.4748 97.6155C61.4041 97.8745 60.9332 98.0158 60.7684 97.8039C59.8973 96.7208 58.7436 96.3206 57.4251 96.2735C55.6357 96.2028 53.9405 96.4618 52.3866 97.4272C50.5266 98.5808 49.6319 100.606 50.0557 102.701C50.3618 104.232 51.3035 105.291 52.6456 105.997C54.176 106.774 55.8005 106.892 57.4487 106.657C58.4611 106.539 59.4264 106.28 60.4624 105.974Z" fill="#242220"/>
<path d="M62.7226 82.8059C63.429 82.7588 64.1118 82.8295 64.8181 82.853C64.9594 82.853 65.0771 82.853 65.2184 82.8059C65.3125 82.7588 65.4303 82.7353 65.4303 82.6176C65.4303 82.4998 65.3361 82.4292 65.2419 82.4057C64.8652 82.2409 64.4649 82.1467 64.0411 82.076C63.735 82.0054 63.4054 81.9819 63.0993 81.9112C62.6755 81.8406 62.5107 81.6522 62.4872 81.2284C62.4401 80.3573 62.4166 79.5097 62.3695 78.6385C62.2988 77.5084 62.2282 76.4018 62.1105 75.2717C62.0163 74.4241 61.9692 73.5765 61.875 72.7289C61.7808 71.8342 61.6631 70.963 61.569 70.0683C61.4041 68.6792 61.1451 67.2901 60.9332 65.901C60.792 65.0298 60.6507 64.1587 60.5094 63.2875C60.4388 62.8402 60.4859 62.6754 60.7684 62.6047C60.8862 62.5812 60.9803 62.6047 61.0745 62.6283C61.7573 62.8166 62.4166 63.0756 62.7697 63.7349C62.9816 64.1351 63.0287 64.5825 63.1464 65.0063C63.7586 67.4784 64.3707 69.9506 64.9829 72.4228C65.7834 75.6719 66.5604 78.9211 67.408 82.1467C67.6905 83.2062 67.9495 84.2421 68.232 85.3016C68.2556 85.4194 68.2556 85.5371 68.232 85.6548C67.5257 88.3389 66.8194 91.0465 66.113 93.7306C65.9953 94.2015 65.8776 94.2721 65.3832 94.2015C65.3125 94.2015 65.2419 94.2015 65.1477 94.2015C65.2184 93.4716 65.0771 92.7888 64.6062 92.2237C64.4178 92.0118 64.2295 91.7999 63.9705 91.6587C63.7821 91.5645 63.7115 91.4232 63.688 91.2113C63.5231 89.5867 63.3348 87.9857 63.1464 86.3611C62.9581 85.1839 62.8404 84.0067 62.7226 82.8059Z" fill="#9B2D35"/>
<path d="M51.3036 82.759C53.2107 82.759 55.1178 82.7355 57.0249 82.759C58.0609 82.7825 59.0733 82.7825 60.1092 82.8061C60.1799 82.9003 60.1092 82.9944 60.1563 83.0886C60.1563 83.2063 60.1563 83.3005 60.1799 83.4182C60.2269 83.536 60.1799 83.6537 60.2269 83.7714C60.2269 83.8891 60.2269 83.9833 60.2505 84.101C60.274 84.1952 60.274 84.2894 60.2269 84.3836C60.1799 84.5013 60.2034 84.5955 60.2976 84.6661C60.2976 84.6897 60.2976 84.7367 60.2976 84.7603C60.3447 84.9016 60.2976 85.0428 60.3447 85.1605C60.3447 85.2547 60.3447 85.3724 60.3682 85.4666C60.4153 85.5843 60.3682 85.7021 60.4153 85.8198C60.4153 85.914 60.4153 86.0317 60.4389 86.1259C60.4859 86.2436 60.4388 86.3613 60.4859 86.479C60.4859 86.5968 60.4859 86.6909 60.5095 86.8087C60.533 86.9028 60.533 86.997 60.4859 87.0912C60.4388 87.2089 60.4624 87.3031 60.5566 87.3973C60.5566 87.4208 60.5566 87.4679 60.5566 87.4914C60.5801 87.5856 60.5801 87.6798 60.5566 87.774C60.5095 87.8682 60.533 87.9623 60.6037 88.033C60.6037 88.0801 60.6037 88.1272 60.6037 88.1742C60.6272 88.2684 60.6272 88.3626 60.6037 88.4568C60.5566 88.551 60.5801 88.6451 60.6507 88.7158C60.6507 88.7628 60.6507 88.8099 60.6507 88.857C60.6743 88.9512 60.6743 89.0454 60.6272 89.1396C60.5801 89.2573 60.6037 89.3515 60.6978 89.4221C60.6978 89.4456 60.6978 89.4927 60.6978 89.5163C60.7214 89.6105 60.7214 89.7046 60.6743 89.7988C60.6272 89.9165 60.6507 90.0107 60.7449 90.0813C60.7449 90.1049 60.7449 90.152 60.7449 90.1755C60.792 90.411 60.7449 90.5758 60.5095 90.6464C60.2976 90.67 60.1092 90.6229 59.8973 90.5758C59.8031 90.5287 59.6854 90.5758 59.5912 90.5287C59.4971 90.5287 59.4029 90.5287 59.3323 90.5051C59.191 90.4581 59.0497 90.5287 58.9085 90.4581C58.8143 90.4581 58.7436 90.4581 58.6495 90.4581C58.5553 90.3639 58.4376 90.3874 58.3198 90.411C58.1315 90.4345 57.896 90.5758 57.7548 90.2932C57.7548 90.1991 57.7548 90.0813 57.7312 89.9872C57.6841 89.8694 57.7312 89.7517 57.6841 89.634C57.6841 89.5398 57.6841 89.4221 57.6606 89.3279C57.6135 89.2102 57.6606 89.0925 57.6135 88.9748C57.6135 88.8806 57.6135 88.7864 57.59 88.7158C57.5429 88.6216 57.5664 88.5274 57.59 88.4332C57.6371 88.3391 57.6135 88.2449 57.5429 88.1742C57.5429 88.1272 57.5429 88.0801 57.5429 88.033C57.5193 87.9388 57.5193 87.8446 57.5664 87.7504C57.6135 87.6327 57.59 87.5385 57.4958 87.4679C57.4958 87.4444 57.4958 87.3973 57.4958 87.3737C57.4487 87.256 57.4958 87.1383 57.4487 87.0206C57.4487 86.9264 57.4487 86.8322 57.4251 86.7616C57.3781 86.6438 57.4251 86.5261 57.3781 86.4084C57.3781 86.3142 57.3781 86.1965 57.3545 86.1023C57.331 86.0317 57.331 85.9375 57.3781 85.8669C57.4487 85.7492 57.4016 85.655 57.3074 85.5608C57.3074 85.5373 57.3074 85.4902 57.3074 85.4666C57.2132 85.3254 57.4487 85.137 57.2603 84.9957C57.2603 84.9486 57.2603 84.9015 57.2603 84.8545C57.2132 84.7367 57.2603 84.619 57.2132 84.5013C57.2132 84.4071 57.2132 84.3365 57.1897 84.2423C57.1426 84.1246 57.1897 84.0069 57.1426 83.8891C57.1426 83.795 57.1426 83.7008 57.1191 83.6301C57.072 83.5124 57.1191 83.3947 57.072 83.277C57.072 83.2534 57.072 83.2299 57.072 83.2299C57.0249 82.8296 57.0249 82.8296 56.6246 82.8296C55.9889 82.8296 55.3532 82.8296 54.7411 82.8296C54.5527 82.8296 54.5056 82.8767 54.5056 83.0651C54.6469 85.2783 54.8117 87.4679 54.953 89.6811C54.9765 89.9636 54.9765 90.2226 55.0236 90.5051C55.0472 90.6464 55.0236 90.6935 54.8588 90.717C53.8228 90.8348 52.7633 91.0231 51.7509 91.3292C51.5626 91.3763 51.5861 91.2821 51.5626 91.1644C51.5155 89.7046 51.4448 88.2213 51.3978 86.7616C51.3507 85.5137 51.3036 84.2659 51.28 83.0415C51.3271 82.9003 51.3036 82.8296 51.3036 82.759Z" fill="#9B2D35"/>
<path d="M62.911 93.9191C62.911 93.4717 63.2171 93.1421 63.6644 93.1421C64.1118 93.1421 64.4649 93.4717 64.4649 93.9191C64.4649 94.3429 64.1118 94.696 63.688 94.696C63.2406 94.6725 62.911 94.3429 62.911 93.9191Z" fill="#333130"/>
<path d="M48.384 92.1298C48.5018 92.0356 48.6666 92.1062 48.8078 92.0827C48.902 92.1533 49.1139 92.0827 49.1139 92.1769C49.1375 92.3181 48.9256 92.3181 48.8314 92.3888C48.7372 92.4358 48.643 92.4829 48.5488 92.53C48.4782 92.3888 48.4311 92.2475 48.384 92.1298Z" fill="#292624"/>
<path d="M57.7312 90.3637C57.896 90.5521 58.1079 90.5285 58.2727 90.4108C58.4611 90.2931 58.5553 90.3166 58.6259 90.5285C58.3904 90.5285 58.1315 90.5285 57.896 90.5285C57.7783 90.5285 57.7077 90.505 57.7312 90.3637Z" fill="#9B2D35"/>
<path d="M60.4859 90.717C60.5801 90.5522 60.7449 90.458 60.7213 90.2461C60.7449 90.3167 60.7684 90.4109 60.7684 90.4815C60.792 90.8112 60.792 90.8112 60.4859 90.717Z" fill="#9B2D35"/>
<path d="M60.6507 89.469C60.4624 89.4219 60.3917 89.3042 60.533 89.1394C60.6036 89.0452 60.6036 88.9745 60.6036 88.8804C60.6743 89.0687 60.6507 89.2806 60.6507 89.469Z" fill="#9B2D35"/>
<path d="M60.274 84.666C60.0857 84.6189 60.015 84.5012 60.1563 84.3364C60.2269 84.2658 60.2034 84.1716 60.2269 84.0774C60.274 84.2657 60.274 84.4776 60.274 84.666Z" fill="#9B2D35"/>
<path d="M57.4958 87.4912C57.6841 87.5383 57.7548 87.656 57.6135 87.8208C57.5429 87.8915 57.5664 87.9856 57.5429 88.0798C57.4722 87.8915 57.4958 87.6796 57.4958 87.4912Z" fill="#9B2D35"/>
<path d="M60.4859 87.4441C60.2975 87.397 60.2269 87.2793 60.3682 87.1145C60.4388 87.0438 60.4153 86.9496 60.4388 86.8555C60.5094 87.0438 60.4859 87.2322 60.4859 87.4441Z" fill="#9B2D35"/>
<path d="M60.7214 90.1521C60.533 90.105 60.4624 89.9873 60.6036 89.8225C60.6743 89.7283 60.6743 89.6577 60.6743 89.5635C60.7214 89.7518 60.7214 89.9637 60.7214 90.1521Z" fill="#9B2D35"/>
<path d="M57.3309 85.5608C57.5193 85.6079 57.6135 85.7256 57.4486 85.8904C57.4015 85.961 57.378 86.0081 57.378 86.1023C57.3074 85.9375 57.3309 85.7491 57.3309 85.5608Z" fill="#9B2D35"/>
<path d="M60.6036 88.7392C60.4623 88.7156 60.3917 88.645 60.4859 88.5037C60.5565 88.4095 60.5565 88.3154 60.5565 88.2212C60.6271 88.386 60.6036 88.5508 60.6036 88.7392Z" fill="#9B2D35"/>
<path d="M60.5565 88.0566C60.4153 88.033 60.3446 87.9624 60.4388 87.8211C60.5095 87.7269 60.5094 87.6328 60.5094 87.5386C60.5565 87.7034 60.5565 87.8917 60.5565 88.0566Z" fill="#9B2D35"/>
<path d="M57.5664 88.2212C57.7077 88.2447 57.7783 88.3154 57.6841 88.4566C57.6135 88.5508 57.6135 88.645 57.6135 88.7392C57.5428 88.5744 57.5664 88.4095 57.5664 88.2212Z" fill="#9B2D35"/>
<path d="M57.2839 84.9956C57.4487 85.0191 57.4958 85.1133 57.4016 85.2311C57.3545 85.3017 57.3309 85.3723 57.3309 85.4665C57.2603 85.3252 57.2839 85.1604 57.2839 84.9956Z" fill="#9B2D35"/>
<path d="M60.3211 85.1839C60.2269 85.0662 60.2976 84.9014 60.274 84.7837C60.3211 84.9014 60.3211 85.0427 60.3211 85.1839Z" fill="#9B2D35"/>
<path d="M58.8849 90.5523C59.0262 90.5523 59.1674 90.5052 59.3087 90.5994C59.1674 90.5994 59.0262 90.5994 58.8849 90.5523Z" fill="#9B2D35"/>
<path d="M57.2132 84.5012C57.3074 84.6189 57.2367 84.7367 57.2603 84.8544C57.2132 84.7367 57.2132 84.6189 57.2132 84.5012Z" fill="#9B2D35"/>
<path d="M60.3682 85.8432C60.274 85.7254 60.3446 85.6077 60.3211 85.49C60.3917 85.6077 60.3682 85.7254 60.3682 85.8432Z" fill="#9B2D35"/>
<path d="M60.4153 86.526C60.3211 86.4083 60.3917 86.2906 60.3682 86.1729C60.4388 86.2906 60.4388 86.4083 60.4153 86.526Z" fill="#9B2D35"/>
<path d="M57.4016 86.4082C57.4958 86.5259 57.4251 86.6436 57.4487 86.7614C57.378 86.6672 57.378 86.5495 57.4016 86.4082Z" fill="#9B2D35"/>
<path d="M57.4487 87.0439C57.5428 87.1617 57.4722 87.2794 57.4958 87.3971C57.4487 87.2794 57.4487 87.1617 57.4487 87.0439Z" fill="#9B2D35"/>
<path d="M60.2034 83.7714C60.1092 83.6537 60.1798 83.5359 60.1563 83.4182C60.2034 83.5124 60.2034 83.6301 60.2034 83.7714Z" fill="#9B2D35"/>
<path d="M57.6135 89.022C57.7076 89.1397 57.637 89.2574 57.6606 89.3751C57.6135 89.2574 57.6135 89.1397 57.6135 89.022Z" fill="#9B2D35"/>
<path d="M57.1661 83.8655C57.2603 83.9832 57.1897 84.1009 57.2132 84.2186C57.1661 84.1245 57.1661 84.0067 57.1661 83.8655Z" fill="#9B2D35"/>
<path d="M57.6841 89.7046C57.7783 89.8223 57.7077 89.94 57.7312 90.0578C57.6606 89.94 57.6606 89.8223 57.6841 89.7046Z" fill="#9B2D35"/>
<path d="M57.1191 83.2534C57.2132 83.3711 57.1426 83.4889 57.1662 83.6066C57.0955 83.4889 57.0955 83.3711 57.1191 83.2534Z" fill="#9B2D35"/>
<path d="M59.5677 90.5992C59.6619 90.5992 59.7796 90.5521 59.8738 90.6463C59.756 90.6463 59.6619 90.6463 59.5677 90.5992Z" fill="#9B2D35"/>
<path d="M60.1327 83.0884C60.0621 82.9943 60.1092 82.9001 60.0856 82.8059C60.1092 82.8059 60.1092 82.8059 60.1327 82.8059C60.1327 82.9001 60.1327 82.9943 60.1327 83.0884Z" fill="#9B2D35"/>
<path d="M57.5428 58.6257C57.2603 58.3903 57.0484 58.0842 56.86 57.7781C56.3891 56.9776 55.8005 56.2713 55.1648 55.5885C54.9529 55.353 54.9529 55.094 55.0471 54.835C55.3532 53.7991 55.6357 52.7631 55.8241 51.7036C55.9418 51.0679 56.036 50.4558 56.1301 49.8201C56.2243 49.2785 56.5069 48.9254 57.0484 48.737C57.8018 48.478 58.1314 47.9836 58.1314 47.2066C58.1079 45.4643 58.6965 43.9104 59.5205 42.4035C60.6978 40.261 61.616 38.0007 62.0634 35.5992C62.2753 34.4926 62.2988 33.386 61.9692 32.2794C61.8279 31.7614 61.5925 31.2905 61.2393 30.8903C60.7449 30.3252 60.6978 29.7366 61.0039 29.0538C61.6631 27.6882 62.0869 26.2285 62.2988 24.7216C62.393 24.0624 62.3694 23.3796 62.2517 22.7203C62.2282 22.5791 62.1575 22.4142 62.0398 22.3436C61.5454 22.014 61.357 21.496 61.3099 20.9545C61.098 18.4352 60.5565 16.0101 59.5441 13.6792C58.7907 11.8898 57.8018 10.2417 56.5539 8.75842C56.5068 8.71134 56.4598 8.66425 56.4833 8.57007C57.4015 8.68779 58.2962 8.80551 59.2145 8.92324C60.1798 9.04096 61.1216 9.18223 62.0869 9.29995C63.0287 9.41767 63.9705 9.53539 64.9122 9.65312C65.8776 9.77084 66.8193 9.91211 67.7847 10.0298C69.0325 10.1946 70.3039 10.3595 71.5518 10.5243C72.6348 10.6655 73.7179 10.8068 74.8009 10.9245C76.0488 11.0893 77.3202 11.2541 78.5681 11.419C79.6747 11.5602 80.7577 11.7015 81.8643 11.8428C82.9473 11.984 84.0304 12.1253 85.137 12.2666C85.7491 12.3372 86.3613 12.4314 86.9735 12.502C87.3031 12.5491 87.4679 12.761 87.3737 13.0906C86.9264 14.8094 86.479 16.5046 86.0317 18.1998C85.4431 20.413 84.8545 22.6261 84.2658 24.8393C83.2534 28.6771 82.241 32.5148 81.2286 36.3526C80.122 40.5671 79.0154 44.7815 77.9088 48.996C76.9435 52.6219 76.0017 56.2477 75.0364 59.8971C74.6361 61.404 74.2359 62.9108 73.8356 64.4177C73.765 64.6767 73.6473 64.6767 73.4354 64.6296C72.3994 64.3941 71.3634 64.1587 70.3275 63.8997C68.5381 63.4759 66.7723 63.0756 64.9829 62.6518C64.771 62.6047 64.5591 62.5341 64.4414 62.3693C64.0176 61.8042 63.4289 61.4981 62.8168 61.1685C61.2628 60.3445 59.6383 59.6852 58.0843 58.9082C57.9666 58.8376 57.8489 58.767 57.7312 58.6963C57.6134 58.6963 57.5664 58.6728 57.5428 58.6257Z" fill="#9B2D35"/>
<path d="M21.4491 58.72C20.9076 59.8266 20.4838 60.9803 20.0364 62.134C19.8245 62.6991 19.4714 63.0993 18.8828 63.2877C18.2706 63.4996 17.682 63.7586 17.0463 63.9469C16.3399 64.1824 15.7042 64.5591 15.1863 65.1006C14.7154 65.595 14.1503 65.8776 13.4911 66.0188C11.1602 66.5839 8.85279 67.2432 6.56897 68.0201C4.87376 68.6087 3.2021 69.2209 1.57753 69.9508C1.55399 69.9743 1.53044 69.9743 1.53044 69.9508C1.53044 62.0869 1.55399 54.1995 1.5069 46.3356C1.43626 34.4456 1.5069 22.5557 1.43626 10.6657C1.41272 7.81678 1.43626 4.99144 1.41272 2.14255C1.41272 1.64812 1.55399 1.50685 2.02488 1.55394C2.82539 1.64812 3.64945 1.76584 4.44996 1.86002C5.41529 1.97774 6.35707 2.09547 7.32239 2.23673C8.26418 2.35445 9.20596 2.47218 10.1477 2.5899C11.1131 2.70762 12.0548 2.84889 13.0202 2.96661C14.1032 3.10788 15.1863 3.24915 16.2929 3.39041C17.2582 3.50814 18.2 3.62586 19.1653 3.76713C20.0835 3.88485 21.0253 4.00257 22.0142 4.14384C21.7081 4.28511 21.4491 4.33219 21.1901 4.37928C20.5073 4.5441 19.801 4.68536 19.0947 4.85017C18.3883 5.01499 18.1293 5.50942 18.3177 6.30993C18.4825 6.96918 18.5531 7.60488 18.2941 8.24058C18.1293 8.66439 17.8468 9.0411 17.5643 9.39427C16.4106 10.7598 15.1863 12.0313 13.6794 13.0201C13.3262 13.2556 12.9495 13.4204 12.5493 13.6087C11.5369 14.1032 11.1837 14.9272 11.5369 16.0103C11.7723 16.7402 12.1255 17.3994 12.5022 18.0586C13.1143 19.1417 13.3027 20.2954 13.2085 21.5432C13.0673 23.0972 12.5493 24.5334 12.0313 25.9696C11.9607 26.1344 11.8665 26.3228 11.7723 26.464C11.3014 27.1704 11.3485 27.8767 11.7723 28.583C12.1961 29.3129 12.7612 29.9251 13.3262 30.5372C13.6794 30.914 13.703 31.0788 13.444 31.5026C13.1143 32.0676 13.0202 32.6798 12.9731 33.3155C12.9024 34.1631 13.0673 34.9636 13.2792 35.7877C13.8442 38.0009 14.8096 40.0257 16.0339 41.9328C16.1987 42.1682 16.387 42.4037 16.5518 42.6391C16.9286 43.2513 16.9286 43.9105 16.8344 44.5698C16.7167 45.4409 16.6696 46.2885 17.0934 47.1126C17.4465 47.7954 17.9645 48.3369 18.6238 48.6901C19.3536 49.0903 19.6597 49.7025 19.8245 50.4795C20.2012 52.2453 20.8369 53.9405 21.7552 55.518C21.92 55.777 22.0377 56.0595 22.2025 56.342C22.3438 56.5775 22.3203 56.7658 22.2025 57.0013C21.92 57.5428 21.661 58.0843 21.4491 58.6494C21.4727 58.6494 21.4962 58.6965 21.4491 58.72Z" fill="#9B2D35"/>
<path d="M31.2201 13.4203C33.4333 13.1378 35.5758 13.3497 37.6006 14.3621C37.6948 14.4092 37.7654 14.4327 37.8596 14.4798C38.1892 14.6446 38.4718 14.6211 38.7543 14.3621C39.0839 14.056 39.4606 13.7735 39.8374 13.4909C40.0493 13.3261 40.0964 13.1378 40.0022 12.9023C40.1905 12.6904 40.4495 12.5727 40.685 12.4079C41.2029 12.0547 41.7445 11.7486 42.3095 11.4897C43.1336 11.1129 43.9577 11.0423 44.8288 11.2542C46.524 11.678 48.1721 12.196 49.7496 12.9494C50.7856 13.4439 51.7509 14.0796 52.5749 14.9036C53.5403 15.8925 54.3879 16.9991 54.8823 18.3176C54.9529 18.4824 55.0707 18.6472 54.9529 18.812C54.7646 18.8826 54.7646 19.0474 54.7646 19.2123C54.8117 20.154 54.8588 21.0958 54.9059 22.0376C54.9294 22.2495 54.9059 22.4379 54.8823 22.6262C54.7881 23.5444 55.1178 24.345 55.5416 25.0984C55.8712 25.687 56.2714 26.2285 56.4833 26.8878C56.7423 27.7118 56.7894 28.5359 56.813 29.3835C56.813 29.5954 56.6717 29.6896 56.3892 29.6425C55.7535 29.5248 55.1178 29.4306 54.4821 29.2893C53.6109 29.101 52.7162 29.0539 51.8215 29.0303C49.8202 28.9597 47.8425 28.9126 45.8412 28.9832C44.5227 29.0303 43.2278 29.1716 42.027 29.7837C41.6032 29.9956 41.2265 30.2782 40.8498 30.5607C40.5202 30.8197 40.167 30.8903 39.7432 30.7962C38.9191 30.6078 38.0951 30.6078 37.271 30.8903C36.8237 31.0316 36.4234 30.9374 36.0467 30.6549C35.5052 30.2546 34.9872 29.8073 34.3986 29.4777C33.3626 28.8891 32.2325 28.583 31.0553 28.4653C29.4071 28.3004 27.759 28.1827 26.1109 28.1827C26.0167 28.0885 26.0638 27.9708 26.0874 27.8531C26.2522 26.9584 26.3699 26.0637 26.4405 25.1455C26.4876 24.4862 26.6995 23.8505 26.8643 23.2148C27.1233 22.1789 27.4294 21.1194 27.759 20.107C28.3476 18.3176 29.054 16.5753 30.1606 15.0213C30.2783 14.8565 30.396 14.6917 30.5373 14.5269C30.8669 14.2208 31.1494 13.8912 31.2201 13.4203Z" fill="#FDF1D6"/>
<path d="M50.7149 58.7435C49.4435 60.0384 48.0779 61.1921 46.5004 62.1103C46.1237 62.3458 45.7235 62.5341 45.3232 62.746C44.7817 63.005 44.2166 62.9108 43.8164 62.487C43.6751 62.3458 43.5574 62.2281 43.4161 62.0868C43.2984 61.922 43.3455 61.7336 43.3219 61.5688C43.1807 60.4622 42.8039 59.4263 42.3566 58.4374C42.1211 57.8959 42.0505 57.3543 42.0741 56.7893C42.0976 56.2242 42.1211 55.6591 42.2624 55.1176C42.286 55.047 42.333 54.9293 42.2624 54.8822C42.1682 54.8115 42.0976 54.9057 42.0034 54.9528C41.8386 55.0705 41.7444 55.2118 41.6973 55.4001C41.6267 55.7533 41.509 56.0594 41.2735 56.3419C41.1323 56.5067 40.9439 56.6009 40.732 56.5303C40.5201 56.4597 40.4024 56.2948 40.3789 56.0594C40.3553 55.871 40.3789 55.7062 40.3553 55.5179C40.3318 55.0941 40.1434 54.9057 39.7196 54.9999C39.0604 55.1412 38.4011 55.0234 37.7183 55.0234C37.6477 55.0234 37.6006 54.9999 37.53 54.9528C37.4358 54.4113 37.1297 54.1052 36.5882 53.9875C36.3292 53.9404 36.0702 53.8227 35.8583 53.6579C35.5993 53.446 35.5993 53.2811 35.8583 53.0928C36.6824 52.5277 37.5771 52.3394 38.5659 52.4571C40.214 52.6454 41.8622 52.7396 43.4867 52.2923C44.146 52.1039 44.8052 51.9156 45.488 51.7037C45.6999 51.633 45.8647 51.6801 46.0531 51.7743C46.1237 51.8214 46.1944 51.8449 46.2885 51.892C46.9242 52.1745 47.2303 52.6454 47.1832 53.3753C47.1361 54.011 47.1832 54.6467 47.348 55.2824C47.4658 55.7298 47.7012 55.7769 48.0308 55.4708C48.4311 55.0941 48.5488 54.5761 48.6665 54.0581C48.7842 53.493 48.8549 52.928 49.0668 52.3864C49.161 52.1039 49.3258 51.8449 49.5377 51.633C50.2911 50.9502 50.6207 50.0555 50.762 49.0667C50.7855 48.8077 50.8091 48.5251 50.8326 48.2426C50.8562 48.172 50.8562 48.1013 50.8562 48.0307C50.8326 47.8188 50.9268 47.6775 51.0916 47.5127C51.8215 46.8535 51.9863 45.8882 51.539 45.017C51.3741 44.7109 51.1858 44.4284 50.9268 44.1694C49.8202 43.1099 48.8313 41.9798 47.8189 40.8261C47.0655 39.9785 46.1237 39.4134 44.9229 39.3428C44.4285 39.3192 43.9812 39.437 43.6045 39.743C43.4867 39.8372 43.4161 39.9549 43.4161 40.0962C43.4161 40.2846 43.4161 40.4729 43.4396 40.6613C43.4867 41.038 43.6751 41.3676 43.628 41.7679C43.6045 41.9798 43.5574 42.1917 43.369 42.3094C42.4743 42.9686 41.509 43.4866 40.3789 43.675C39.3193 43.8633 38.354 43.5337 37.4358 43.0157C37.3652 42.9686 37.3181 42.898 37.2945 42.8038C37.0826 42.0033 36.753 41.2263 36.8001 40.3787C36.8236 39.9549 36.8943 39.5311 37.012 39.1309C37.0591 38.9896 37.0826 38.8484 37.1533 38.7306C37.53 37.8595 37.5771 36.9412 37.6241 35.9995C37.6712 35.0577 37.8125 34.1394 37.9302 33.1977C37.9538 32.9387 37.9302 32.6561 38.095 32.4442C38.5188 32.3501 38.9426 32.303 39.3664 32.4913C39.7431 32.6561 39.9786 32.9387 40.0728 33.3389C40.214 33.9746 40.4024 34.5868 40.8027 35.1048C41.3442 35.7876 41.4384 35.7876 42.1447 35.2696C42.5685 34.9635 42.592 34.7751 42.333 34.3043C42.3095 34.2572 42.2624 34.1865 42.2389 34.1394C42.1682 33.9746 42.0505 33.7863 42.2153 33.645C42.3566 33.5273 42.5449 33.5979 42.7098 33.6921C43.0865 33.904 43.4867 34.1159 43.887 34.2807C45.0407 34.7045 46.2414 34.7751 47.4658 34.5397C47.9366 34.4455 48.384 34.3749 48.8549 34.2807C49.3493 34.2101 49.6789 34.3749 49.9144 34.8222C50.0086 35.0106 50.1027 35.1754 50.244 35.3402C49.7496 35.5992 49.7496 35.5992 49.9615 36.1643C50.1498 36.6823 50.0321 37.1767 49.7731 37.6476C49.5612 37.9772 49.3258 38.3068 49.0432 38.5658C48.9255 38.6835 48.8078 38.8013 48.8313 38.9661C48.8549 39.3663 49.1374 39.6489 49.5377 39.6724C49.9144 39.6724 50.2676 39.5547 50.6443 39.5311C52.0569 38.8954 52.881 37.7888 53.3519 36.3762C53.7051 35.2931 53.9405 34.163 54.1995 33.0329C54.2701 32.6797 54.482 32.4207 54.7881 32.2559C55.259 31.9969 55.7534 31.7615 56.2714 31.5731C56.6246 31.4318 56.7894 31.526 56.9306 31.9027C57.0484 32.2088 57.0484 32.5384 57.0719 32.868C57.119 33.7863 57.1661 34.7281 57.1896 35.6698C57.1896 35.764 57.1896 35.8817 57.2367 35.9759C57.2838 36.1172 57.4015 36.1407 57.5193 36.1172C58.2021 35.9524 58.72 34.94 58.414 34.3043C58.3433 34.163 58.2491 34.0217 58.155 33.8569C57.8489 33.3154 58.0137 32.7739 58.6023 32.4678C59.1438 32.1852 59.6618 32.3501 59.9443 32.8916C60.2033 33.4096 60.2269 33.9746 60.2033 34.5397C60.1562 36.282 59.6383 37.883 58.979 39.4605C58.5788 40.4258 58.0372 41.3205 57.6134 42.2623C57.2603 43.0157 56.9777 43.7927 56.7423 44.5932C56.6952 44.7345 56.6481 44.8522 56.5775 44.9699C56.5068 45.1112 56.3656 45.1818 56.2243 45.1583C56.083 45.1347 55.9653 45.0406 55.9182 44.8993C55.8947 44.8287 55.8711 44.7345 55.8476 44.6638C55.8241 44.5697 55.8241 44.4284 55.7063 44.4284C55.6122 44.4284 55.5415 44.5461 55.4944 44.6403C55.259 45.2289 54.9058 45.7469 54.5056 46.2413C54.3408 46.4532 54.3172 46.7358 54.3172 46.9948C54.3172 48.1249 54.2701 49.2315 54.1288 50.3381C53.8228 52.9986 53.0929 55.5414 51.5154 57.7546C51.3035 58.0371 51.0681 58.3197 50.8562 58.6022C50.8091 58.6728 50.762 58.6964 50.7149 58.7435Z" fill="#FDF1D6"/>
<path d="M54.953 18.8356C54.8117 18.1292 54.4585 17.5171 54.0818 16.9284C53.658 16.2457 53.14 15.61 52.575 15.0449C51.9157 14.3856 51.1858 13.8206 50.3618 13.3732C48.6195 12.4314 46.7359 11.8428 44.8288 11.3484C43.581 11.0188 42.5215 11.419 41.4855 12.0076C40.9675 12.2902 40.5437 12.6669 40.0022 12.9259C39.4371 12.3137 38.7779 11.8193 38.0715 11.3719C36.4234 10.2653 34.634 9.48838 32.6563 9.1823C30.914 8.89976 29.1717 8.92331 27.4294 9.13521C26.3935 9.25293 25.381 9.46483 24.3451 9.70028C24.2274 9.72382 24.1096 9.74737 23.9919 9.74737C23.8506 9.74737 23.7094 9.67673 23.6387 9.55901C23.5446 9.41774 23.6623 9.32357 23.7329 9.22939C24.0155 8.89976 24.3451 8.64077 24.6983 8.40533C26.2757 7.29874 27.9239 6.35696 29.8074 5.83898C29.8545 5.81543 29.9251 5.81543 29.9722 5.79189C30.1606 5.69771 30.2312 5.55644 30.2312 5.36809C30.2077 5.15618 30.0429 5.08555 29.878 5.06201C29.5013 4.99137 29.1246 4.99137 28.7479 4.99137C28.5596 4.99137 28.3241 5.06201 28.2535 4.85011C28.1828 4.61466 28.4183 4.49694 28.5596 4.40276C29.2188 3.93187 29.9722 3.67288 30.7492 3.46098C33.2685 2.75464 35.8113 2.26021 38.4247 2.3073C41.509 2.35439 44.4756 3.06072 47.301 4.30858C49.2316 5.15618 51.0681 6.19214 52.6456 7.58127C55.777 10.3595 57.896 13.7735 58.7672 17.8938C59.2852 20.3424 59.4029 22.8146 59.2145 25.3103C59.191 25.687 59.1203 26.0402 59.0262 26.3933C59.0026 26.464 58.9791 26.5582 58.932 26.6288C58.8614 26.7701 58.7672 26.9584 58.5788 26.9349C58.3905 26.9349 58.3434 26.7465 58.2963 26.5817C57.9196 25.4516 57.4958 24.3214 57.0484 23.2384C56.5069 21.8963 55.9183 20.5543 55.259 19.2594C55.1884 19.0475 55.1178 18.9062 54.953 18.8356Z" fill="#FEFEFE"/>
<path d="M53.7051 58.6729C53.7757 58.5316 53.8699 58.3904 53.9405 58.2491C54.0582 58.0372 54.176 58.0372 54.3408 58.202C54.482 58.3433 54.5762 58.5081 54.6939 58.6729C54.7175 58.6965 54.7175 58.72 54.741 58.72C55.1178 59.497 55.2119 60.321 55.259 61.1922C55.4238 64.1588 54.8117 66.9841 53.9876 69.7859C53.3755 71.8814 52.6456 73.9533 51.6803 75.9075C51.5861 76.0958 51.4448 76.3313 51.6567 76.449C51.8686 76.5667 52.0099 76.3313 52.1276 76.19C52.6691 75.5308 53.0694 74.8009 53.4461 74.071C55.2355 70.5864 56.5775 66.9606 57.4016 63.1228C57.5899 63.0286 57.5664 63.1935 57.5899 63.2876C57.637 63.5702 57.6606 63.8762 57.7076 64.1588C58.0608 66.8429 58.0373 69.5505 57.9902 72.2345C57.9666 73.6001 57.9195 74.9657 57.8725 76.3313C57.8489 77.3202 57.7547 78.309 57.6841 79.2744C57.637 79.863 57.5899 80.4516 57.5428 81.0402C57.5193 81.4405 57.4722 81.4875 57.0719 81.4405C53.7757 81.3227 50.4795 81.2286 47.1597 81.1579C45.9354 81.1344 44.7346 81.1344 43.5103 81.1108C43.0159 81.1108 42.9688 81.0402 42.9452 80.5458C42.8746 78.4032 42.4743 76.3313 41.7209 74.33C41.6974 74.2829 41.6974 74.2358 41.6738 74.1887C41.7916 74.1417 41.8622 74.2594 41.9328 74.3065C42.4743 74.8244 42.9923 75.366 43.4868 75.931C44.2402 76.7786 45.1349 77.485 46.0767 78.1207C46.8065 78.6151 47.5129 78.6622 48.2427 78.1678C48.2898 78.1442 48.3369 78.1207 48.384 78.0971C48.5017 78.003 48.5017 77.9088 48.4547 77.7675C48.3369 77.4143 48.1486 77.1083 47.9367 76.8022C47.1362 75.6485 46.2415 74.589 45.3703 73.506C45.2997 73.4353 45.229 73.3411 45.182 73.2705C45.1349 73.1763 44.9936 73.0822 45.0878 72.9644C45.1584 72.8703 45.2997 72.8703 45.3939 72.8938C46.006 72.9644 46.6182 73.0586 47.2068 73.1057C47.4187 73.1292 47.6306 73.1528 47.8189 73.1292C48.5017 73.1057 48.9491 72.7054 48.9962 71.9991C49.0433 70.9867 49.0433 69.9743 49.0433 68.9619C49.0433 68.797 49.0668 68.6322 49.0433 68.4439C49.0433 67.8788 48.7843 67.5492 48.2192 67.4079C47.5129 67.2431 46.8065 67.2196 46.0767 67.2667C45.5587 67.2902 45.0172 67.3608 44.4992 67.455C44.3579 67.4786 44.146 67.5727 44.0989 67.4079C44.0283 67.2196 44.2637 67.1489 44.3814 67.0783C44.8759 66.7958 45.3939 66.5132 45.8883 66.2072C48.5253 64.6532 50.8091 62.6755 52.622 60.2033C52.9752 59.7324 53.3048 59.238 53.5638 58.6965C53.6815 58.7435 53.658 58.6965 53.7051 58.6729Z" fill="#FEFEFE"/>
<path d="M31.2201 81.0874C28.7243 81.1815 26.2286 81.2757 23.7565 81.3934C22.9088 81.4405 22.0612 81.4876 21.2136 81.5347C20.9076 81.5582 20.6015 81.5583 20.319 81.5583C19.7068 81.5347 19.4007 81.2757 19.3065 80.6871C19.1182 79.6276 19.0711 78.5446 19.1182 77.4615C19.1888 75.5073 19.3065 73.5767 19.5655 71.646C19.6597 70.8455 19.7774 70.045 19.9658 69.2445C20.0129 69.1032 20.0835 69.1032 20.1306 69.2209C20.2248 69.4093 20.2954 69.6212 20.366 69.8331C20.6015 70.5865 20.8605 71.3399 21.143 72.0698C21.661 73.4118 22.3673 74.6833 23.1914 75.8605C23.5446 76.3785 23.9448 76.8493 24.2744 77.3909C24.4863 77.744 24.7924 78.0266 25.0749 78.3327C25.5458 78.8742 25.9932 79.4392 26.5818 79.863C27.2175 80.3339 28.3005 80.2162 28.8185 79.6041C28.9362 79.4628 28.9598 79.298 29.0069 79.1332C29.0304 78.8271 28.8892 78.5681 28.7243 78.3327C27.5471 76.6375 26.4876 74.8716 25.7106 72.9645C24.863 70.8219 24.3451 68.6088 23.9919 66.3485C23.8035 65.1948 23.8742 64.0176 24.039 62.8639C24.1803 62.8404 24.2509 62.9581 24.3215 63.0287C25.2633 63.994 26.2522 64.8887 27.194 65.8541C27.8532 66.5133 28.6537 67.0077 29.3836 67.5728C29.4778 67.6434 29.619 67.667 29.5719 67.8318C29.36 67.9024 29.1717 68.0202 29.0069 68.185C28.8421 68.2791 28.6773 68.3027 28.4889 68.3262C27.8061 68.491 27.3588 68.9384 27.3352 69.6447C27.2881 70.8926 27.3823 72.1169 27.7119 73.3412C27.7355 73.4118 27.759 73.4589 27.7826 73.5296C28.0651 74.3301 28.6773 74.6362 29.5013 74.6597C30.3018 74.6597 31.1023 74.5891 31.9029 74.5184C32.1854 74.4949 32.4444 74.4949 32.7269 74.4478C32.8211 74.4243 32.9153 74.4478 32.9859 74.5184C32.3973 75.319 31.8322 76.143 31.4791 77.0848C31.432 77.2261 31.3613 77.3909 31.3142 77.5321C31.2672 77.6499 31.2436 77.7676 31.3613 77.8382C31.4791 77.9089 31.5497 77.8147 31.6203 77.744C31.7145 77.6499 31.8087 77.5321 31.9029 77.4144C32.7505 76.3078 33.6922 75.2719 34.7753 74.4007C34.9636 74.2594 35.1755 74.2359 35.3874 74.2359C35.5758 74.2359 35.6464 74.3536 35.5287 74.4949C34.634 75.5779 34.1396 76.8729 33.4097 78.0501C32.9153 78.8506 32.3973 79.6511 31.8558 80.4281C31.738 80.5929 31.6439 80.7342 31.5497 80.899C31.4555 80.9932 31.3613 81.0638 31.2201 81.0874Z" fill="#FEFEFE"/>
<path d="M37.53 54.953C37.9067 54.953 38.2599 54.9294 38.6366 55C38.9898 55.0471 39.3665 54.9765 39.7196 54.9059C40.1434 54.8352 40.4024 55.0236 40.426 55.4474C40.426 55.6357 40.426 55.8241 40.426 56.0125C40.426 56.2244 40.5201 56.3892 40.7085 56.4598C40.8969 56.5304 41.0852 56.4598 41.2029 56.2714C41.4148 55.9889 41.5561 55.6828 41.6032 55.3297C41.6267 55.1178 41.9564 54.7646 42.1683 54.7175C42.3331 54.694 42.4273 54.7411 42.3566 54.9294C42.1447 55.518 42.1683 56.1302 42.1212 56.7423C42.0505 57.5429 42.3566 58.2727 42.6627 59.0026C43.0865 59.9679 43.3926 60.9804 43.3926 62.0634C43.1571 62.0869 43.0394 62.2282 43.063 62.5107C43.0865 62.6991 43.1336 62.911 43.1571 63.0994C43.3219 63.9234 42.9688 64.5591 42.545 65.1948C42.1683 65.7599 41.6974 66.2543 41.3442 66.8194C40.991 67.3845 40.7085 67.9966 40.685 68.6794C40.685 68.8678 40.5672 68.9384 40.4024 68.9384C40.1434 68.9384 39.9315 68.8442 39.7667 68.6794C38.2599 67.3138 36.7059 66.0424 35.6464 64.253C34.9636 63.0994 34.7753 61.875 35.1285 60.6036C35.2933 59.9679 35.4816 59.3322 35.6464 58.6965C35.6229 58.673 35.6229 58.673 35.6229 58.6494L35.6464 58.6259C35.929 57.637 35.9054 56.6717 35.6935 55.6828C35.67 55.5416 35.5287 55.3532 35.7406 55.259C35.9054 55.1649 36.0702 55.3061 36.188 55.4238C36.494 55.7299 36.6588 56.1066 36.8943 56.4598C36.9885 56.6011 37.0591 56.813 37.2475 56.7894C37.4123 56.7423 37.4123 56.5304 37.4594 56.3656C37.6242 55.9183 37.5535 55.4238 37.53 54.953Z" fill="#FEFEFE"/>
<path d="M2.40157 86.1023C2.33094 86.1023 2.26031 86.1023 2.21322 86.0788C1.69524 86.0317 1.60106 85.9139 1.60106 85.396C1.60106 80.9696 1.57751 76.5668 1.57751 72.1404C1.60106 72.0698 1.67169 72.0933 1.71878 72.0698C2.80183 71.6931 3.86133 71.3399 4.94438 70.9632C5.53299 70.7513 6.14515 70.5629 6.71022 70.3275C7.67555 69.9508 8.61733 69.9743 9.55911 70.4217C9.62974 70.5158 9.55911 70.5865 9.51202 70.6571C8.75859 71.8343 8.2877 73.1293 7.79327 74.4242C7.36947 75.4837 6.99275 76.5903 6.63959 77.6734C6.56895 77.9088 6.47477 78.1207 6.35705 78.3562C5.60363 79.863 4.8502 81.3463 4.12032 82.8532C3.64943 83.842 3.155 84.8074 2.68411 85.7962C2.56638 85.8904 2.54284 86.0317 2.40157 86.1023Z" fill="#FEFEFE"/>
<path d="M69.5035 80.4516C68.9384 78.521 68.3733 76.6609 67.8083 74.8009C66.9371 71.9049 66.0424 69.009 65.1713 66.113C65.1007 65.8775 65.0536 65.6421 65.0065 65.4067C64.9594 65.1006 65.0771 64.9358 65.3832 64.9122C65.7835 64.8887 66.1602 65.0064 66.5369 65.1006C68.6794 65.5479 70.822 65.9953 72.9645 66.4191C73.2 66.4662 73.2 66.5368 73.1529 66.7251C71.9992 71.1044 70.8455 75.4837 69.6683 79.863C69.6212 80.0278 69.5741 80.2162 69.5035 80.4516Z" fill="#FEFEFE"/>
<path d="M16.8108 26.6993C16.8579 24.9099 17.0227 23.1206 17.2817 21.3312C17.423 20.4129 17.3288 19.5182 16.8579 18.6706C16.5989 18.2233 16.3635 17.7524 16.1516 17.3051C15.9632 16.9048 16.2222 16.5045 16.646 16.5281C18.1529 16.5752 19.4714 16.0101 20.7428 15.2802C22.0142 14.5503 23.1914 13.6321 24.4864 12.9964C25.6871 12.4078 26.935 11.9604 28.277 11.9604C28.4183 11.9604 28.5831 11.9604 28.7244 12.0075C28.9127 12.0782 28.9363 12.2194 28.7715 12.3372C28.6773 12.4078 28.5831 12.4549 28.4889 12.502C26.2286 13.4438 24.6041 15.0683 23.4269 17.1638C22.956 17.9878 22.438 18.7413 21.6375 19.3063C20.7428 19.9185 20.4132 20.8603 20.1071 21.8256C19.3536 24.133 19.0005 26.511 18.9769 28.9361C18.9769 29.1009 18.9769 29.2657 18.9298 29.4305C18.9063 29.5011 18.8828 29.5718 18.8357 29.6424C18.6944 29.8543 17.682 30.2075 17.4465 30.1368C17.2582 30.0662 17.2111 29.9249 17.164 29.7601C17.0227 29.2892 16.9286 28.7948 16.8815 28.3003C16.8344 27.7824 16.7873 27.2408 16.8108 26.6993Z" fill="#FEFEFE"/>
<path d="M47.2774 48.3132C45.7706 48.1955 44.2637 48.0307 42.7569 47.913C39.5313 47.7011 36.3292 47.654 33.1507 48.2897C32.6327 48.3839 32.1147 48.4309 31.5732 48.3368C31.2671 48.2661 31.0081 48.1249 30.8198 47.8894C30.6079 47.6304 30.655 47.4892 30.9611 47.3479C31.1965 47.2302 31.4555 47.136 31.6909 47.0418C32.1854 46.8064 32.6092 46.5003 32.9623 46.1C33.1272 45.9117 33.292 45.7469 33.4568 45.5585C34.116 44.8522 35.152 44.6874 35.9996 45.1583C37.012 45.7469 38.1186 45.9823 39.2958 46.0294C39.9551 46.0529 40.4966 45.8175 40.8733 45.276C41.1558 44.8757 41.5325 44.6403 41.9799 44.5461C42.6862 44.3813 43.2513 43.9575 43.8164 43.5337C44.1931 43.2511 44.4521 43.2511 44.8288 43.5337C45.229 43.8398 45.5587 44.24 45.8412 44.6638C46.1473 45.1112 46.4298 45.5585 46.7359 46.0059C47.1361 46.5709 47.7012 46.9476 48.3605 47.136C48.4311 47.1595 48.4782 47.1595 48.5488 47.2066C48.8549 47.3714 48.902 47.654 48.643 47.913C48.2663 48.2897 47.7718 48.3368 47.2774 48.3132Z" fill="#FEFEFE"/>
<path d="M25.8048 39.0133C25.4281 38.7307 24.9807 38.5188 24.6276 38.2127C23.8977 37.577 23.4033 36.8236 23.0736 35.9289C22.9795 35.6464 23.0501 35.4345 23.3091 35.2932H23.3326C23.8977 34.893 24.4157 34.8459 24.9101 35.4345C25.0514 35.5993 25.2397 35.717 25.4516 35.7641C25.7813 35.8583 26.0403 35.8348 26.2522 35.5522C26.6289 35.0813 27.0527 34.6811 27.5942 34.3985C28.3241 34.0218 29.101 34.0454 29.878 34.1631C30.6314 34.2808 31.3849 34.4927 32.1618 34.375C32.4444 34.3279 32.7034 34.2808 32.9859 34.1866C33.1036 34.1395 33.1978 34.0925 33.3155 34.0454C33.4332 34.0218 33.551 33.9747 33.6451 34.116C33.7158 34.2337 33.6451 34.3279 33.5745 34.4221C33.3861 34.634 33.1978 34.8459 33.033 35.0578C32.6798 35.3168 32.256 35.4345 31.8322 35.5522C31.4084 35.6699 31.2671 35.8348 31.3613 36.2586C31.4555 36.753 31.3613 37.1768 31.1023 37.6006C30.7021 38.2598 30.137 38.7072 29.4071 38.9662C29.2659 39.0133 29.1246 39.0368 29.101 39.2016C28.9598 39.5312 29.1481 39.8609 29.5484 39.908C29.8545 39.955 30.1605 39.8844 30.4666 39.8373C30.9846 39.7667 31.5261 39.6725 32.0206 39.4842C32.0912 39.4606 32.1854 39.4135 32.256 39.4842C31.5968 40.0728 31.1259 40.7791 30.9375 41.6502C30.8904 41.8857 30.7492 42.027 30.5373 42.0976C29.9957 42.286 29.5013 42.5449 29.0069 42.7804C28.6772 42.8746 28.4653 42.8039 28.277 42.5214C27.8532 41.8386 27.4294 41.1558 27.1233 40.4259C27.0291 40.214 26.9585 40.0021 26.9349 39.7667C26.9114 39.5548 26.8172 39.4371 26.6053 39.3664C26.3463 39.3193 26.0403 39.2252 25.8048 39.0133Z" fill="#FDF1D6"/>
<path d="M2.40155 86.1022C3.43751 84.0067 4.44992 81.9112 5.50943 79.8393C6.21576 78.4737 6.75729 77.0375 7.27527 75.6013C7.7697 74.1886 8.28768 72.7995 8.97047 71.4575C9.13528 71.1043 9.34718 70.7982 9.53554 70.4451C10.0064 70.5863 10.4773 70.7747 10.9482 70.9866C11.2543 71.1279 11.4191 71.5987 11.3249 72.0461C11.2307 72.5405 10.9718 72.9879 10.7834 73.4588C9.06465 77.4613 7.3459 81.4639 5.86259 85.5842C5.76842 85.8432 5.65069 86.0786 5.53297 86.3376C5.48588 86.4553 5.43879 86.526 5.29753 86.5024C4.3322 86.3612 3.36688 86.267 2.40155 86.1022Z" fill="#DFC091"/>
<path d="M31.2201 13.4204C31.3142 13.9148 30.9375 14.2209 30.6785 14.527C29.9251 15.4217 29.3365 16.4106 28.8656 17.4701C27.8767 19.7068 27.2646 22.0377 26.676 24.3922C26.5583 24.8395 26.5347 25.3104 26.5112 25.7813C26.4405 26.6053 26.3228 27.4059 26.158 28.2064C25.1456 28.2535 24.1332 28.3241 23.1208 28.3712C22.8147 28.3947 22.5557 28.2299 22.5557 27.9474C22.5321 27.4529 22.485 26.9585 22.6263 26.4641C22.6969 26.1815 22.8382 25.9225 23.1208 25.8048C23.9684 25.4281 24.1332 24.6982 24.2509 23.8742C24.6511 21.1901 25.4281 18.6473 27.0291 16.387C27.6178 15.5394 28.2535 14.7389 29.1246 14.1503C29.7368 13.7265 30.4431 13.4675 31.2201 13.4204Z" fill="#DFC091"/>
<path d="M31.3849 58.6258C29.9251 58.2255 28.795 57.3308 27.8532 56.2007C26.3464 54.3642 25.4517 52.2217 24.9808 49.9378C24.7689 48.9019 25.0749 47.8895 25.8519 47.1125C26.2286 46.7358 26.7231 46.6416 27.2175 46.6416C27.5942 46.6416 27.8061 46.9477 27.8297 47.395C27.9474 49.5611 28.3005 51.6801 29.0069 53.752C29.1952 54.27 29.4071 54.7645 29.7603 55.1883C30.0664 55.5885 30.3254 55.5414 30.5137 55.0941C30.655 54.788 30.7727 54.4819 30.914 54.1994C30.9846 54.011 31.1023 53.8698 31.3378 53.8698C31.5732 53.8698 31.5968 54.0817 31.6439 54.2465C31.9029 55.2589 32.1383 56.2713 32.4679 57.2837C32.5386 57.4956 32.6327 57.7311 32.7034 57.943C32.7975 58.202 32.7505 58.4374 32.5386 58.6258C32.4915 58.7199 32.3737 58.6728 32.3031 58.7199C32.1148 58.7199 31.9499 58.7199 31.7616 58.7199C31.6439 58.6728 31.4791 58.7435 31.3849 58.6258Z" fill="#DFC091"/>
<path d="M57.0484 81.464C57.4251 81.417 57.4251 81.417 57.4487 81.0402C57.5428 79.8395 57.637 78.6152 57.7076 77.4144C57.7312 77.0612 57.7547 76.708 57.7783 76.3549C57.8018 75.1541 57.8018 73.9533 57.8489 72.7526C57.9195 71.1515 57.896 69.5505 57.896 67.9495C57.8725 66.8194 57.7547 65.6892 57.637 64.5591C57.5899 64.1353 57.5428 63.7115 57.5193 63.2877C57.5193 63.2406 57.5664 63.1229 57.4251 63.1464C57.4957 62.7697 57.5664 62.393 57.637 62.0163C57.7076 61.6396 57.896 61.5689 58.2256 61.7808C58.7672 62.1104 58.932 62.652 59.0497 63.217C59.191 63.9234 59.2145 64.6533 59.2851 65.3596C59.3558 66.2307 59.4264 67.1254 59.497 67.9966C59.5441 68.7265 59.5912 69.4563 59.6148 70.1862C59.756 72.9409 59.8267 75.6956 59.8737 78.4503C59.8973 79.2038 59.8973 79.9572 59.8973 80.7106C59.8737 81.2521 59.756 81.4876 59.1203 81.5111C58.414 81.5582 57.7312 81.4876 57.0484 81.464Z" fill="#DFC091"/>
<path d="M28.9362 79.1331C29.0304 79.5098 28.7714 79.7217 28.5124 79.9101C27.8296 80.3809 26.8643 80.2868 26.2522 79.7452C25.6635 79.2037 25.122 78.6151 24.6276 77.9794C23.3562 76.3784 22.179 74.7067 21.3314 72.8467C20.884 71.8814 20.5779 70.8454 20.2248 69.833C20.1541 69.6446 20.0835 69.4563 20.0129 69.2444C19.9658 69.1031 19.9422 69.1973 19.8951 69.2208C19.9658 68.7264 20.107 68.2555 20.2483 67.7846C20.366 67.3844 21.0724 66.9606 21.4726 67.0312C21.6845 67.0548 21.7552 67.2196 21.8258 67.3844C22.4615 69.1502 23.1443 70.916 23.8742 72.6583C24.557 74.2594 25.5223 75.672 26.5347 77.0847C27.0291 77.791 27.5707 78.4738 28.2299 79.0389C28.3005 79.1095 28.3712 79.1566 28.4418 79.2273C28.7243 79.4156 28.795 79.3921 28.9362 79.1331Z" fill="#DFC091"/>
<path d="M29.5248 67.8082C29.2423 67.4786 28.8656 67.2667 28.5124 67.0313C27.6884 66.4426 26.9585 65.7598 26.2522 65.0535C25.5223 64.3001 24.7453 63.5938 23.9919 62.8639C24.039 62.2282 24.1802 61.616 24.5805 61.0745C24.7689 60.8155 24.9572 60.8155 25.1456 61.0509C27.0527 63.3583 29.4071 65.1241 31.9499 66.631C32.1383 66.7252 32.3031 66.8429 32.4679 66.9606C32.5856 67.0548 32.7034 67.1961 32.6563 67.3373C32.6092 67.5021 32.4444 67.4786 32.3031 67.5021C31.738 67.5492 31.173 67.5021 30.6079 67.5728C30.2547 67.6434 29.9016 67.7376 29.5248 67.8082Z" fill="#DFC091"/>
<path d="M43.4161 40.7084C43.3455 40.5672 43.3219 40.4024 43.3219 40.2611C43.2984 39.8608 43.7457 39.437 44.2637 39.3664C45.4409 39.1781 46.4298 39.6254 47.3245 40.3317C48.0544 40.9204 48.5724 41.7209 49.2081 42.4037C49.8202 43.0629 50.4795 43.6515 51.0681 44.3108C51.6331 44.9465 51.9392 45.6528 51.7273 46.5239C51.6331 46.9478 51.4212 47.3009 51.0916 47.5599C50.9033 47.7247 50.7855 47.8895 50.8326 48.125C50.8326 48.1721 50.8091 48.2192 50.7855 48.2427C50.7385 47.6776 50.8091 47.089 50.7149 46.5239C50.6443 45.9824 50.4088 45.5586 49.9144 45.3467C48.7843 44.8523 48.0073 44.0047 47.348 43.0158C46.8065 42.2388 46.2885 41.4619 45.5116 40.9204C45.0407 40.5907 44.5462 40.3317 43.9576 40.214C43.5338 40.1669 43.4397 40.2611 43.4161 40.7084Z" fill="#DFC091"/>
<path d="M32.9153 74.4947C32.0441 74.5654 31.1494 74.636 30.2783 74.7066C29.7839 74.7537 29.2894 74.7537 28.8185 74.6596C28.1357 74.5183 27.8061 74.0003 27.6178 73.4117C27.4059 72.7524 27.3352 72.0697 27.2881 71.3869C27.2646 70.8924 27.194 70.398 27.2175 69.9036C27.2411 68.8205 27.9003 68.1848 28.9833 68.1848C28.8892 68.4438 28.8656 68.7028 28.8656 68.9853C28.8656 69.9742 28.8892 70.9631 28.8185 71.9519C28.7479 72.9408 29.4071 73.2704 30.137 73.3882C31.1024 73.5294 32.0677 73.3411 33.033 73.3175C33.0801 73.3175 33.1272 73.294 33.1743 73.294C33.3626 73.294 33.5745 73.2704 33.6687 73.4352C33.7629 73.6001 33.5981 73.7178 33.5039 73.859C33.292 74.0474 33.1507 74.3064 32.9153 74.4947Z" fill="#DFC091"/>
<path d="M25.8048 39.0132C26.158 39.1545 26.4876 39.3193 26.8644 39.4134C27.0056 39.4605 27.0292 39.5783 27.0292 39.6724C27.0763 40.3552 27.453 40.8967 27.759 41.4854C27.9239 41.7914 28.1593 42.074 28.3006 42.4036C28.4654 42.7332 28.7008 42.8039 29.0305 42.8039C28.6302 43.0864 28.2299 43.3925 27.8061 43.6515C27.1469 44.0753 26.3228 44.0517 25.7813 43.5102C24.6983 42.4507 23.8271 41.2499 23.4504 39.7431C23.4033 39.6018 23.3798 39.4605 23.521 39.3664C23.6623 39.2722 23.78 39.3664 23.8977 39.437C24.1803 39.6489 24.4628 39.8372 24.7924 39.9785C25.0514 40.0962 25.3104 40.1904 25.5459 39.9785C25.8049 39.7666 25.9226 39.2957 25.8048 39.0132Z" fill="#DFC091"/>
<path d="M31.2201 81.0874C31.2672 81.0403 31.3378 81.0168 31.3614 80.9697C32.468 79.2745 33.5981 77.5557 34.5399 75.7663C34.7989 75.2954 35.0343 74.801 35.4346 74.4243C35.4581 74.4007 35.4581 74.3537 35.5052 74.3066C35.2227 74.2595 34.9637 74.3537 34.7282 74.4007C35.3639 73.8592 36.0232 73.3412 36.8001 73.0352C36.9414 72.9881 37.1062 72.8704 37.2475 73.0116C37.3888 73.1529 37.3417 73.3412 37.2946 73.4825C37.1769 73.9063 37.012 74.3066 36.8237 74.7068C35.929 76.6139 34.893 78.4504 33.6923 80.1927C33.551 80.4281 33.3626 80.6165 33.1507 80.7813C32.9388 80.9461 32.7034 81.0403 32.4209 81.0403C32.0441 81.0638 31.6439 81.1345 31.2201 81.0874Z" fill="#DFC091"/>
<path d="M48.4076 78.1207C48.0544 78.5916 46.9714 78.78 46.4298 78.4268C45.3468 77.744 44.3108 77.0141 43.4632 76.0253C42.9452 75.4367 42.3802 74.8716 41.8387 74.3065C41.7916 74.2594 41.7445 74.2359 41.6738 74.1888C41.509 73.8592 41.3442 73.5296 41.1794 73.1764C41.1323 73.0822 41.1088 72.9645 41.1794 72.8703C41.2736 72.7526 41.4149 72.7526 41.5326 72.7997C41.6738 72.8703 41.8151 72.941 41.9564 73.0351C43.4397 73.9298 44.8053 75.0364 46.1002 76.1901C46.7359 76.7552 47.3481 77.2967 47.9131 77.9324C48.0544 78.0737 48.2192 78.1207 48.4076 78.1207Z" fill="#DFC091"/>
<path d="M38.0715 32.4678C38.0009 33.0328 37.9303 33.5744 37.8832 34.1394C37.8125 34.7751 37.7184 35.4108 37.6948 36.0465C37.6477 36.9883 37.5771 37.9301 37.2239 38.8248C36.7766 39.9078 36.8001 41.0144 37.2004 42.121C37.3181 42.4271 37.3652 42.7332 37.4594 43.0393C36.5411 42.4977 35.9054 41.7443 35.6229 40.7084C35.5287 40.3552 35.6465 39.9785 35.7642 39.6018C35.9525 38.8954 36.2115 38.2126 36.3763 37.5063C36.4705 37.0825 36.5176 36.6587 36.5176 36.2349C36.5411 35.5521 36.5176 34.8693 36.6353 34.1865C36.7295 33.7156 36.9414 33.2918 37.2239 32.8916C37.3887 32.5855 37.7184 32.5149 38.0715 32.4678Z" fill="#DFC091"/>
<path d="M29.0775 39.1779C28.9833 39.0131 29.1246 38.9896 29.2423 38.9425C30.2077 38.6599 30.8905 38.0242 31.2672 37.106C31.3613 36.8706 31.3613 36.6116 31.3143 36.3526C31.2201 35.8111 31.3378 35.5992 31.8558 35.4579C32.2089 35.3637 32.5386 35.2931 32.8446 35.0812C32.8917 35.0576 32.9624 34.9635 33.033 35.0576C33.0565 35.5756 33.4333 35.8817 33.7629 36.2113C33.9277 36.3055 33.8335 36.4468 33.81 36.5645C33.5745 37.4121 33.1036 38.0949 32.3267 38.5422C31.4084 39.0602 30.4196 39.2721 29.3601 39.2486C29.2659 39.2486 29.1717 39.2721 29.0775 39.1779Z" fill="#FEFEFE"/>
<path d="M39.5313 49.985C40.7556 50.0085 41.9564 50.0792 43.1572 50.1969C43.2984 50.2204 43.4868 50.1969 43.4868 50.3852C43.5103 50.55 43.2984 50.5736 43.1807 50.5971C42.0741 50.9503 40.944 51.1151 39.7667 51.1622C39.1075 51.1858 38.4483 51.2328 37.789 51.2564C37.1298 51.2799 36.5647 51.0445 36.0467 50.6207C35.9525 50.55 35.8819 50.4559 35.9054 50.3381C35.929 50.1969 36.0703 50.1969 36.188 50.1733C37.2946 50.0792 38.4012 49.9614 39.5313 49.985Z" fill="#FEFEFE"/>
<path d="M29.0775 39.1781C30.1841 39.2016 31.2671 39.0368 32.256 38.4953C33.1036 38.0244 33.598 37.2945 33.7864 36.3527C33.7864 36.3057 33.7864 36.2586 33.7864 36.2115C34.1396 36.2115 34.375 35.976 34.634 35.7641C34.7046 35.717 34.7753 35.5993 34.8694 35.6464C34.9636 35.6935 34.9401 35.8112 34.9401 35.9289C34.7282 37.271 33.9747 38.3069 32.9152 39.1075C32.7033 39.2487 32.4914 39.39 32.2795 39.5313C31.5497 39.7902 30.7727 39.908 29.9957 40.0257C29.5013 40.0963 29.1717 39.9786 28.9833 39.6019C28.8891 39.4135 28.8891 39.2723 29.0775 39.1781Z" fill="#DFC091"/>
<path d="M29.7603 30.7961C30.3489 30.8668 30.914 31.008 31.2907 31.526C31.3378 31.5967 31.3849 31.6437 31.4084 31.7144C31.4555 31.8321 31.5026 31.9734 31.4084 32.0911C31.3142 32.1853 31.1965 32.1617 31.0553 32.1382C30.7727 32.0675 30.4666 32.044 30.1606 32.044C29.313 32.044 28.536 32.3265 27.759 32.6562C27.2881 32.8681 26.8172 33.1271 26.2993 33.2212C26.0638 33.2683 25.8048 33.3154 25.5694 33.1977C25.3104 33.08 25.2868 32.9151 25.4987 32.7268C25.5694 32.6797 25.64 32.6326 25.7106 32.6091C26.3228 32.3736 26.8643 32.0205 27.4059 31.6908C28.0416 31.3141 28.7243 31.008 29.4307 30.8432C29.5719 30.8197 29.6661 30.8197 29.7603 30.7961Z" fill="#DFC091"/>
<path d="M46.9478 32.3266C46.4769 32.3266 46.0296 32.4443 45.5822 32.5385C45.5116 32.5621 45.441 32.5621 45.3703 32.5621C45.2526 32.5621 45.1584 32.5385 45.1114 32.4444C45.0407 32.3266 45.0878 32.2325 45.1584 32.1618C45.9825 31.3848 47.042 30.8669 48.1721 31.5026C48.4311 31.6438 48.6666 31.8322 48.902 32.0205C49.4906 32.5385 50.0086 33.1507 50.7385 33.5039C50.9504 33.598 50.9269 33.7393 50.7385 33.857C50.5266 33.9983 50.3147 33.9041 50.1028 33.8335C49.4671 33.6451 48.9491 33.2684 48.4547 32.8446C48.0073 32.4914 47.5129 32.3266 46.9478 32.3266Z" fill="#DFC091"/>
<path d="M48.7372 39.0132C48.5959 38.8248 48.7607 38.7307 48.8549 38.6365C49.161 38.354 49.4435 38.0243 49.6554 37.6712C49.938 37.1532 50.0557 36.6352 49.7732 36.0701C49.5377 35.5992 49.6554 35.4109 50.197 35.4109C50.5501 35.5286 50.9268 35.5286 51.28 35.5757C51.8215 35.6463 51.9393 35.8347 51.798 36.3527C51.5861 37.2238 51.0681 37.8595 50.3618 38.3775C50.244 38.4717 50.1499 38.5423 50.0321 38.6365C49.6554 38.8955 49.2081 38.9661 48.7372 39.0132Z" fill="#FEFEFE"/>
<path d="M19.1182 32.821C19.0946 33.7863 19.3536 34.7046 19.542 35.6228C19.5891 35.8347 19.5655 36.0231 19.3536 36.1172C19.1417 36.2114 18.9769 36.0937 18.8592 35.9053C18.2706 34.94 17.8703 33.9041 17.6584 32.7975C17.5642 32.3501 17.682 32.2089 18.1058 32.0676C18.2941 31.997 18.4825 31.9263 18.6708 31.8792C18.9534 31.8321 19.0946 31.9499 19.1182 32.2324C19.1417 32.4443 19.1182 32.6327 19.1182 32.821Z" fill="#FEFEFE"/>
<path d="M23.3562 32.6327C22.8853 32.6327 22.6499 32.3031 22.7911 31.8793C23.0737 31.1259 23.6152 30.655 24.4393 30.5843C24.8866 30.5373 25.3104 30.4902 25.7578 30.4431C25.8755 30.4195 25.9932 30.4431 26.0874 30.4902C26.3228 30.5608 26.3699 30.7727 26.2051 30.9611C26.1345 31.0317 26.0638 31.0788 25.9932 31.1259C25.2398 31.5261 24.5334 31.997 23.8506 32.4679C23.6858 32.5621 23.5446 32.6563 23.3562 32.6327Z" fill="#DFC091"/>
<path d="M33.1978 41.4617C33.2213 40.9909 33.3155 40.6141 33.551 40.2845C33.8099 39.9549 34.2573 39.8607 34.6105 40.0726C34.7517 40.1668 34.7988 40.261 34.7282 40.4493C34.4692 41.0379 34.4456 41.6266 34.7046 42.2152C34.7517 42.3093 34.7753 42.4035 34.7753 42.5213C34.8224 42.9451 34.5634 43.157 34.1631 42.9921C33.6451 42.8038 33.4097 42.38 33.2684 41.8855C33.2213 41.7207 33.1742 41.5559 33.1978 41.4617Z" fill="#DFC091"/>
<path d="M49.7731 30.5371C50.3146 30.5842 50.8091 30.5842 51.28 30.7726C51.8215 30.9845 52.2218 31.4318 52.1982 31.9027C52.1747 32.4207 51.9392 32.7738 51.3271 32.4442C50.9268 32.2323 50.5736 31.9498 50.2205 31.6437C49.9379 31.4083 49.6789 31.1493 49.3493 30.9609C49.2551 30.9138 49.161 30.8432 49.1845 30.7255C49.2081 30.6077 49.3022 30.5607 49.42 30.5371C49.5612 30.5371 49.7025 30.5371 49.7731 30.5371Z" fill="#DFC091"/>
<path d="M37.8832 81.0402C37.6713 81.0402 37.4594 81.0638 37.271 81.0402C37.0356 81.0167 36.9649 80.8754 37.1297 80.7106C37.6948 80.0513 38.1186 79.3215 38.4482 78.521C38.4718 78.4503 38.4953 78.4032 38.5424 78.3561C38.566 78.3091 38.613 78.262 38.6837 78.262C38.7543 78.262 38.7779 78.3326 38.7779 78.3797C38.8014 78.6151 38.8485 78.8506 38.872 79.086C38.9191 79.5334 38.9427 79.9807 38.9662 80.4281C38.9898 80.8754 38.8485 81.0167 38.4011 81.0402C38.1892 81.0402 38.048 81.0402 37.8832 81.0402Z" fill="#FEFEFE"/>
<path d="M20.9782 31.267C20.7663 31.267 20.5544 31.267 20.366 31.267C20.1777 31.267 20.0835 31.2199 20.0835 31.008C20.0835 30.9138 20.0835 30.8432 20.0835 30.749C19.9893 30.1369 20.1306 30.2075 20.6015 30.1839C20.9311 30.1839 21.2372 30.1604 21.5668 30.1369C21.7552 30.1133 21.8729 30.2075 21.8964 30.3958C21.8964 30.4194 21.8964 30.4429 21.8964 30.4429C21.9435 31.3141 21.9906 31.1964 21.2372 31.1964C21.143 31.1964 21.0724 31.1964 20.9782 31.1964C20.9782 31.2434 20.9782 31.2434 20.9782 31.267Z" fill="#FEFEFE"/>
<path d="M54.0112 30.4666C54.2231 30.4666 54.435 30.4666 54.6469 30.4666C54.7175 30.4666 54.8117 30.4431 54.8588 30.5137C55.0236 30.7492 54.8823 30.9846 54.8588 31.2201C54.8352 31.3849 54.694 31.432 54.5527 31.432C54.1524 31.432 53.7522 31.432 53.3755 31.4084C53.1636 31.3849 53.0458 31.2671 53.0458 31.0317C53.0458 30.396 53.0458 30.396 53.6815 30.396C53.7993 30.396 53.917 30.396 54.0112 30.396C54.0112 30.4431 54.0112 30.4666 54.0112 30.4666Z" fill="#FEFEFE"/>
<path d="M48.7372 39.0133C49.161 38.8249 49.6319 38.8014 50.0557 38.613C49.9851 38.8956 50.0793 39.131 50.1734 39.3665C50.2441 39.5548 50.4089 39.5784 50.5972 39.5548C50.197 39.6961 49.7967 39.7903 49.3729 39.7667C49.1375 39.7667 48.7372 39.4135 48.6901 39.1781C48.6666 39.131 48.7137 39.0839 48.7372 39.0133Z" fill="#DFC092"/>
<path d="M31.3849 58.6258C31.5026 58.6729 31.6439 58.6258 31.738 58.72C30.7492 58.72 29.7838 58.72 28.795 58.72C26.3463 58.72 23.8742 58.72 21.4255 58.72C21.4491 58.6729 21.4491 58.6494 21.4726 58.6023C21.5433 58.6965 21.6374 58.6729 21.7316 58.6729C24.863 58.6729 27.9945 58.6729 31.1259 58.6729C31.2201 58.6729 31.3142 58.6965 31.3849 58.6258Z" fill="#422425"/>
<path d="M32.2795 58.7199C32.3502 58.6964 32.4444 58.6493 32.515 58.6257C32.6092 58.7199 32.7033 58.6728 32.8211 58.6728C33.7864 58.6728 34.7282 58.6728 35.6935 58.6728C35.6935 58.6964 35.6935 58.7199 35.67 58.7199C34.5398 58.7199 33.4097 58.7199 32.2795 58.7199Z" fill="#422425"/>
<path d="M53.7051 58.6728C53.7051 58.7199 53.6815 58.767 53.658 58.7905C53.5874 58.7199 53.4932 58.7435 53.4225 58.7435C52.5278 58.7435 51.6332 58.7435 50.7385 58.7435C50.762 58.6964 50.8091 58.6728 50.8326 58.6257C50.9268 58.7199 51.021 58.6728 51.1152 58.6728C51.9863 58.6728 52.8575 58.6728 53.7051 58.6728Z" fill="#432627"/>
<path d="M54.7175 58.7199C54.694 58.6964 54.694 58.6728 54.6704 58.6728C55.5416 58.6728 56.3892 58.6728 57.2603 58.6728C57.3545 58.6728 57.4487 58.6964 57.5193 58.6257C57.5664 58.6493 57.6135 58.6728 57.637 58.7435C56.6952 58.7199 55.7064 58.7199 54.7175 58.7199Z" fill="#432526"/>
<path d="M1.69522 72.0698C1.64813 72.0934 1.60104 72.1169 1.55396 72.1405C1.55396 71.4106 1.55396 70.6807 1.55396 69.9744C1.5775 69.9744 1.5775 69.9744 1.60104 69.9744C1.60104 70.5865 1.60104 71.1987 1.60104 71.7873C1.62459 71.905 1.5775 71.9992 1.69522 72.0698Z" fill="#3C2424"/>
<path d="M9.81812 87.0673C9.88875 87.0202 9.95938 87.0202 10.03 87.0438C9.95938 87.138 9.88875 87.0673 9.81812 87.0673Z" fill="#482426"/>
<path d="M64.3472 93.8954C64.3472 94.2721 64.0647 94.5546 63.7115 94.5782C63.3348 94.5782 63.0522 94.2956 63.0522 93.9425C63.0522 93.5658 63.3348 93.2361 63.7115 93.2597C64.0411 93.2126 64.3237 93.5187 64.3472 93.8954Z" fill="#FBFBFB"/>
<path d="M48.0544 74.3772C48.1486 74.1417 48.1957 74.0005 48.2428 73.8356C48.2898 73.6944 48.3369 73.6237 48.5017 73.6473C48.6901 73.6708 48.5959 73.7886 48.6195 73.8827C48.6195 74.1182 48.6195 74.3301 48.6195 74.5655C48.6195 74.6362 48.6195 74.7068 48.5253 74.7068C48.4311 74.7068 48.4311 74.6362 48.4311 74.5655C48.4311 74.3772 48.4311 74.2124 48.4311 73.9769C48.2898 74.1888 48.2663 74.4007 48.1957 74.5655C48.1721 74.6362 48.1486 74.6832 48.0779 74.6832C47.9838 74.6832 47.9602 74.6362 47.9602 74.5655C47.8896 74.3772 47.819 74.1888 47.7012 74.0005C47.7012 74.1888 47.7012 74.3536 47.7012 74.542C47.7012 74.6126 47.7012 74.6832 47.6071 74.6832C47.5129 74.6832 47.5129 74.6126 47.5129 74.542C47.5129 74.3065 47.5129 74.0475 47.5129 73.8121C47.5129 73.7415 47.4658 73.6237 47.6306 73.6473C47.7248 73.6473 47.8425 73.6237 47.866 73.765C47.8896 73.9534 47.9602 74.1417 48.0544 74.3772Z" fill="#262422"/>
<path d="M46.9007 73.6472C46.9949 73.6472 47.1126 73.6472 47.2068 73.6472C47.2539 73.6472 47.3245 73.6472 47.3245 73.7179C47.3245 73.7885 47.2774 73.8356 47.2303 73.812C46.9478 73.7649 46.9949 73.9533 46.9949 74.1181C46.9949 74.2123 47.0184 74.3065 46.9949 74.4006C46.9713 74.4948 47.0891 74.6832 46.8772 74.6832C46.6888 74.6832 46.8065 74.5184 46.783 74.4242C46.7594 74.33 46.783 74.2358 46.783 74.1417C46.783 73.9768 46.8301 73.7649 46.524 73.812C46.4769 73.812 46.4298 73.7885 46.4298 73.7414C46.4298 73.6708 46.4769 73.6472 46.524 73.6472C46.6417 73.6472 46.783 73.6472 46.9007 73.6472Z" fill="#282625"/>
<path d="M63.9705 94.3191C63.8528 94.2721 63.8763 94.1779 63.8763 94.1072C63.8292 93.9895 63.7351 93.966 63.6409 93.966C63.4996 93.966 63.5232 94.0601 63.5232 94.1308C63.5232 94.2014 63.5467 94.2721 63.4525 94.2721C63.3583 94.2721 63.3819 94.1779 63.3819 94.1308C63.3819 94.0131 63.3819 93.8953 63.3819 93.8012C63.3819 93.4715 63.5938 93.3303 63.8999 93.4715C63.9705 93.4951 63.994 93.5422 64.0176 93.6128C64.0882 93.7541 63.8528 93.8247 63.947 93.9424C64.0176 94.0837 64.0411 94.2014 63.9705 94.3191Z" fill="#2B2927"/>
<path d="M63.6879 93.5893C63.7821 93.5893 63.8763 93.6364 63.8527 93.7541C63.8292 93.8718 63.7115 93.8953 63.6173 93.8953C63.476 93.8953 63.4996 93.8012 63.4996 93.7305C63.4996 93.5657 63.5938 93.5657 63.6879 93.5893Z" fill="#EDECEC"/>
</g>
<defs>
<clipPath id="clip0_2_301">
<rect width="88.9983" height="110" fill="white"/>
</clipPath>
</defs>
</svg>
