<svg width="47" height="58" viewBox="0 0 47 58" fill="none" xmlns="http://www.w3.org/2000/svg">
<g filter="url(#filter0_b_41_7)">
<g filter="url(#filter1_b_41_7)">
<path d="M3.42645 8.99311L7.42626 9.03262L7.10522 41.531L7.60519 41.536L7.76571 25.2868L24.0149 25.4473L24.0199 24.9473L7.77065 24.7868L7.81016 20.787L24.0594 20.9475L24.0643 20.4475L7.8151 20.287L7.92623 9.03756L28.6752 9.24253L28.6802 8.74255L2.93141 8.48819L2.60544 41.4866L3.10541 41.4915L3.42645 8.99311ZM2.97093 4.48839L28.7197 4.74275L28.7246 4.24277L2.97587 3.98841L2.97093 4.48839Z" fill="white"/>
<path d="M3.42645 8.99311L3.43633 7.99316L2.43638 7.98328L2.4265 8.98323L3.42645 8.99311ZM7.42626 9.03262L8.42621 9.0425L8.43608 8.04255L7.43613 8.03267L7.42626 9.03262ZM7.10522 41.531L6.10527 41.5212L6.09539 42.5211L7.09534 42.531L7.10522 41.531ZM7.6052 41.536L7.59532 42.5359L8.59527 42.5458L8.60515 41.5459L7.6052 41.536ZM7.76571 25.2868L7.77559 24.2868L6.77564 24.2769L6.76576 25.2769L7.76571 25.2868ZM24.0149 25.4473L24.005 26.4472L25.005 26.4571L25.0149 25.4572L24.0149 25.4473ZM24.0199 24.9473L25.0198 24.9572L25.0297 23.9572L24.0297 23.9474L24.0199 24.9473ZM7.77065 24.7868L6.7707 24.7769L6.76082 25.7769L7.76077 25.7867L7.77065 24.7868ZM7.81016 20.787L7.82004 19.787L6.82009 19.7772L6.81021 20.7771L7.81016 20.787ZM24.0594 20.9475L24.0495 21.9475L25.0494 21.9573L25.0593 20.9574L24.0594 20.9475ZM24.0643 20.4475L25.0643 20.4574L25.0741 19.4575L24.0742 19.4476L24.0643 20.4475ZM7.8151 20.287L6.81515 20.2771L6.80527 21.2771L7.80523 21.287L7.8151 20.287ZM7.92623 9.03756L7.93611 8.03761L6.93616 8.02773L6.92628 9.02768L7.92623 9.03756ZM28.6752 9.24253L28.6653 10.2425L29.6653 10.2524L29.6752 9.25241L28.6752 9.24253ZM28.6802 8.74255L29.6801 8.75243L29.69 7.75248L28.69 7.7426L28.6802 8.74255ZM2.93141 8.48819L2.94129 7.48824L1.94134 7.47837L1.93146 8.47832L2.93141 8.48819ZM2.60544 41.4866L1.60549 41.4767L1.59561 42.4767L2.59556 42.4865L2.60544 41.4866ZM3.10541 41.4915L3.09554 42.4915L4.09549 42.5014L4.10537 41.5014L3.10541 41.4915ZM2.97093 4.48839L1.97098 4.47851L1.9611 5.47846L2.96105 5.48834L2.97093 4.48839ZM28.7197 4.74275L28.7098 5.7427L29.7097 5.75258L29.7196 4.75263L28.7197 4.74275ZM28.7246 4.24277L29.7246 4.25265L29.7344 3.2527L28.7345 3.24282L28.7246 4.24277ZM2.97587 3.98841L2.98574 2.98846L1.98579 2.97858L1.97591 3.97853L2.97587 3.98841ZM3.41657 9.99306L7.41638 10.0326L7.43613 8.03267L3.43633 7.99316L3.41657 9.99306ZM6.4263 9.02274L6.10527 41.5212L8.10517 41.5409L8.42621 9.0425L6.4263 9.02274ZM7.09534 42.531L7.59532 42.5359L7.61507 40.536L7.1151 40.5311L7.09534 42.531ZM8.60515 41.5459L8.76566 25.2966L6.76576 25.2769L6.60524 41.5261L8.60515 41.5459ZM7.75584 26.2867L24.005 26.4472L24.0248 24.4473L7.77559 24.2868L7.75584 26.2867ZM25.0149 25.4572L25.0198 24.9572L23.0199 24.9374L23.015 25.4374L25.0149 25.4572ZM24.0297 23.9474L7.78053 23.7868L7.76077 25.7867L24.01 25.9473L24.0297 23.9474ZM8.7706 24.7967L8.81012 20.7969L6.81021 20.7771L6.7707 24.7769L8.7706 24.7967ZM7.80029 21.7869L24.0495 21.9475L24.0693 19.9476L7.82004 19.787L7.80029 21.7869ZM25.0593 20.9574L25.0643 20.4574L23.0644 20.4377L23.0594 20.9376L25.0593 20.9574ZM24.0742 19.4476L7.82498 19.2871L7.80523 21.287L24.0544 21.4475L24.0742 19.4476ZM8.81505 20.2969L8.92618 9.04744L6.92628 9.02768L6.81515 20.2771L8.81505 20.2969ZM7.91635 10.0375L28.6653 10.2425L28.6851 8.24258L7.93611 8.03761L7.91635 10.0375ZM29.6752 9.25241L29.6801 8.75243L27.6802 8.73268L27.6753 9.23265L29.6752 9.25241ZM28.69 7.7426L2.94129 7.48824L2.92154 9.48815L28.6703 9.74251L28.69 7.7426ZM1.93146 8.47832L1.60549 41.4767L3.60539 41.4965L3.93137 8.49807L1.93146 8.47832ZM2.59556 42.4865L3.09554 42.4915L3.11529 40.4916L2.61532 40.4866L2.59556 42.4865ZM4.10537 41.5014L4.4264 9.00299L2.4265 8.98323L2.10546 41.4816L4.10537 41.5014ZM2.96105 5.48834L28.7098 5.7427L28.7295 3.7428L2.9808 3.48844L2.96105 5.48834ZM29.7196 4.75263L29.7246 4.25265L27.7247 4.23289L27.7197 4.73287L29.7196 4.75263ZM28.7345 3.24282L2.98574 2.98846L2.96599 4.98836L28.7147 5.24272L28.7345 3.24282ZM1.97591 3.97853L1.97098 4.47851L3.97088 4.49827L3.97582 3.99829L1.97591 3.97853Z" fill="white"/>
</g>
<g filter="url(#filter2_d_41_7)">
<path d="M13.6466 12L13.0966 12L22.7966 25.9C17.7466 27.3 13.9966 32 13.9966 37.5C13.9966 44.1 19.3966 49.5 25.9966 49.5L38.4966 49.5L38.4966 49L25.9966 49C19.6466 49 14.4966 43.85 14.4966 37.5C14.4966 32.15 18.1466 27.6 23.0966 26.35L25.6466 30C21.6966 30.15 18.4966 33.45 18.4966 37.5C18.4966 41.65 21.8466 45 25.9966 45L38.4966 45L38.4966 12L37.9966 12L37.9966 44.5L33.9966 44.5L33.9966 12L33.4966 12L33.4966 44.5L25.9966 44.5C22.1466 44.5 18.9966 41.35 18.9966 37.5C18.9966 33.65 22.1466 30.5 25.9966 30.5L26.5466 30.5L13.6466 12ZM19.1466 12L18.5966 12L28.3466 26L28.7966 25.65L19.1466 12Z" fill="#0CF25D"/>
<path d="M13.6466 12L14.4669 11.428L14.1685 11L13.6466 11L13.6466 12ZM13.0966 12L13.0966 11L11.1794 11L12.2766 12.5723L13.0966 12ZM22.7966 25.9L23.0638 26.8637L24.4252 26.4862L23.6167 25.3277L22.7966 25.9ZM38.4966 49.5L38.4966 50.5L39.4966 50.5L39.4966 49.5L38.4966 49.5ZM38.4966 49L39.4966 49L39.4966 48L38.4966 48L38.4966 49ZM23.0966 26.35L23.9164 25.7773L23.5211 25.2114L22.8518 25.3804L23.0966 26.35ZM25.6466 30L25.6846 30.9993L27.5161 30.9297L26.4664 29.4273L25.6466 30ZM38.4966 45L38.4966 46L39.4966 46L39.4966 45L38.4966 45ZM38.4966 12L39.4966 12L39.4966 11L38.4966 11L38.4966 12ZM37.9966 12L37.9966 11L36.9966 11L36.9966 12L37.9966 12ZM37.9966 44.5L37.9966 45.5L38.9966 45.5L38.9966 44.5L37.9966 44.5ZM33.9966 44.5L32.9966 44.5L32.9966 45.5L33.9966 45.5L33.9966 44.5ZM33.9966 12L34.9966 12L34.9966 11L33.9966 11L33.9966 12ZM33.4966 12L33.4966 11L32.4966 11L32.4966 12L33.4966 12ZM33.4966 44.5L33.4966 45.5L34.4966 45.5L34.4966 44.5L33.4966 44.5ZM26.5466 30.5L26.5466 31.5L28.463 31.5L27.3669 29.928L26.5466 30.5ZM19.1466 12L19.9632 11.4227L19.6643 11L19.1466 11L19.1466 12ZM18.5966 12L18.5966 11L16.6816 11L17.776 12.5715L18.5966 12ZM28.3466 26L27.526 26.5715L28.1285 27.4365L28.9606 26.7894L28.3466 26ZM28.7966 25.65L29.4106 26.4394L30.1647 25.8528L29.6132 25.0727L28.7966 25.65ZM13.6466 11L13.0966 11L13.0966 13L13.6466 13L13.6466 11ZM12.2766 12.5723L21.9766 26.4723L23.6167 25.3277L13.9167 11.4277L12.2766 12.5723ZM22.5295 24.9363C17.0561 26.4537 12.9966 31.5407 12.9966 37.5L14.9966 37.5C14.9966 32.4593 18.4372 28.1463 23.0638 26.8637L22.5295 24.9363ZM12.9966 37.5C12.9966 44.6523 18.8444 50.5 25.9966 50.5L25.9966 48.5C19.9489 48.5 14.9966 43.5477 14.9966 37.5L12.9966 37.5ZM25.9966 50.5L38.4966 50.5L38.4966 48.5L25.9966 48.5L25.9966 50.5ZM39.4966 49.5L39.4966 49L37.4966 49L37.4966 49.5L39.4966 49.5ZM38.4966 48L25.9966 48L25.9966 50L38.4966 50L38.4966 48ZM25.9966 48C20.1989 48 15.4966 43.2977 15.4966 37.5L13.4966 37.5C13.4966 44.4023 19.0944 50 25.9966 50L25.9966 48ZM15.4966 37.5C15.4966 32.6094 18.8341 28.4578 23.3415 27.3196L22.8518 25.3804C17.4592 26.7422 13.4966 31.6906 13.4966 37.5L15.4966 37.5ZM22.2769 26.9227L24.8269 30.5727L26.4664 29.4273L23.9164 25.7773L22.2769 26.9227ZM25.6087 29.0007C21.1173 29.1713 17.4966 32.9167 17.4966 37.5L19.4966 37.5C19.4966 33.9833 22.276 31.1287 25.6846 30.9993L25.6087 29.0007ZM17.4966 37.5C17.4966 42.2023 21.2944 46 25.9966 46L25.9966 44C22.3989 44 19.4966 41.0977 19.4966 37.5L17.4966 37.5ZM25.9966 46L38.4966 46L38.4966 44L25.9966 44L25.9966 46ZM39.4966 45L39.4966 12L37.4966 12L37.4966 45L39.4966 45ZM38.4966 11L37.9966 11L37.9966 13L38.4966 13L38.4966 11ZM36.9966 12L36.9966 44.5L38.9966 44.5L38.9966 12L36.9966 12ZM37.9966 43.5L33.9966 43.5L33.9966 45.5L37.9966 45.5L37.9966 43.5ZM34.9966 44.5L34.9966 12L32.9966 12L32.9966 44.5L34.9966 44.5ZM33.9966 11L33.4966 11L33.4966 13L33.9966 13L33.9966 11ZM32.4966 12L32.4966 44.5L34.4966 44.5L34.4966 12L32.4966 12ZM33.4966 43.5L25.9966 43.5L25.9966 45.5L33.4966 45.5L33.4966 43.5ZM25.9966 43.5C22.6989 43.5 19.9966 40.7977 19.9966 37.5L17.9966 37.5C17.9966 41.9023 21.5944 45.5 25.9966 45.5L25.9966 43.5ZM19.9966 37.5C19.9966 34.2023 22.6989 31.5 25.9966 31.5L25.9966 29.5C21.5944 29.5 17.9966 33.0977 17.9966 37.5L19.9966 37.5ZM25.9966 31.5L26.5466 31.5L26.5466 29.5L25.9966 29.5L25.9966 31.5ZM27.3669 29.928L14.4669 11.428L12.8264 12.572L25.7264 31.072L27.3669 29.928ZM19.1466 11L18.5966 11L18.5966 13L19.1466 13L19.1466 11ZM17.776 12.5715L27.526 26.5715L29.1673 25.4285L19.4173 11.4285L17.776 12.5715ZM28.9606 26.7894L29.4106 26.4394L28.1827 24.8606L27.7327 25.2106L28.9606 26.7894ZM29.6132 25.0727L19.9632 11.4227L18.3301 12.5773L27.9801 26.2273L29.6132 25.0727Z" fill="#0CF25D"/>
</g>
</g>
<defs>
<filter id="filter0_b_41_7" x="-1.39456" y="-0.0115967" width="43.8912" height="53.5116" filterUnits="userSpaceOnUse" color-interpolation-filters="sRGB">
<feFlood flood-opacity="0" result="BackgroundImageFix"/>
<feGaussianBlur in="BackgroundImage" stdDeviation="2"/>
<feComposite in2="SourceAlpha" operator="in" result="effect1_backgroundBlur_41_7"/>
<feBlend mode="normal" in="SourceGraphic" in2="effect1_backgroundBlur_41_7" result="shape"/>
</filter>
<filter id="filter1_b_41_7" x="-1.39456" y="-0.0115967" width="34.1192" height="45.7525" filterUnits="userSpaceOnUse" color-interpolation-filters="sRGB">
<feFlood flood-opacity="0" result="BackgroundImageFix"/>
<feGaussianBlur in="BackgroundImage" stdDeviation="2"/>
<feComposite in2="SourceAlpha" operator="in" result="effect1_backgroundBlur_41_7"/>
<feBlend mode="normal" in="SourceGraphic" in2="effect1_backgroundBlur_41_7" result="shape"/>
</filter>
<filter id="filter2_d_41_7" x="9.09665" y="12" width="33.4" height="45.5" filterUnits="userSpaceOnUse" color-interpolation-filters="sRGB">
<feFlood flood-opacity="0" result="BackgroundImageFix"/>
<feColorMatrix in="SourceAlpha" type="matrix" values="0 0 0 0 0 0 0 0 0 0 0 0 0 0 0 0 0 0 127 0" result="hardAlpha"/>
<feOffset dy="4"/>
<feGaussianBlur stdDeviation="2"/>
<feComposite in2="hardAlpha" operator="out"/>
<feColorMatrix type="matrix" values="0 0 0 0 0 0 0 0 0 0 0 0 0 0 0 0 0 0 0.25 0"/>
<feBlend mode="normal" in2="BackgroundImageFix" result="effect1_dropShadow_41_7"/>
<feBlend mode="normal" in="SourceGraphic" in2="effect1_dropShadow_41_7" result="shape"/>
</filter>
</defs>
</svg>
