<svg width="188" height="58" viewBox="0 0 188 58" fill="none" xmlns="http://www.w3.org/2000/svg">
<g filter="url(#filter0_b_61_2)">
<g filter="url(#filter1_b_61_2)">
<path d="M3.42645 8.99311L7.42626 9.03262L7.10522 41.531L7.60519 41.536L7.76571 25.2868L24.0149 25.4473L24.0199 24.9473L7.77065 24.7868L7.81016 20.787L24.0594 20.9475L24.0643 20.4475L7.8151 20.287L7.92623 9.03756L28.6752 9.24253L28.6802 8.74255L2.93141 8.48819L2.60544 41.4866L3.10541 41.4915L3.42645 8.99311ZM2.97093 4.48839L28.7197 4.74275L28.7246 4.24277L2.97587 3.98841L2.97093 4.48839Z" fill="white"/>
<path d="M3.42645 8.99311L3.43633 7.99316L2.43638 7.98328L2.4265 8.98323L3.42645 8.99311ZM7.42626 9.03262L8.42621 9.0425L8.43608 8.04255L7.43613 8.03267L7.42626 9.03262ZM7.10522 41.531L6.10527 41.5212L6.09539 42.5211L7.09534 42.531L7.10522 41.531ZM7.6052 41.536L7.59532 42.5359L8.59527 42.5458L8.60515 41.5459L7.6052 41.536ZM7.76571 25.2868L7.77559 24.2868L6.77564 24.2769L6.76576 25.2769L7.76571 25.2868ZM24.0149 25.4473L24.005 26.4472L25.005 26.4571L25.0149 25.4572L24.0149 25.4473ZM24.0199 24.9473L25.0198 24.9572L25.0297 23.9572L24.0297 23.9474L24.0199 24.9473ZM7.77065 24.7868L6.7707 24.7769L6.76082 25.7769L7.76077 25.7867L7.77065 24.7868ZM7.81016 20.787L7.82004 19.787L6.82009 19.7772L6.81021 20.7771L7.81016 20.787ZM24.0594 20.9475L24.0495 21.9475L25.0494 21.9573L25.0593 20.9574L24.0594 20.9475ZM24.0643 20.4475L25.0643 20.4574L25.0741 19.4575L24.0742 19.4476L24.0643 20.4475ZM7.8151 20.287L6.81515 20.2771L6.80527 21.2771L7.80523 21.287L7.8151 20.287ZM7.92623 9.03756L7.93611 8.03761L6.93616 8.02773L6.92628 9.02768L7.92623 9.03756ZM28.6752 9.24253L28.6653 10.2425L29.6653 10.2524L29.6752 9.25241L28.6752 9.24253ZM28.6802 8.74255L29.6801 8.75243L29.69 7.75248L28.69 7.7426L28.6802 8.74255ZM2.93141 8.48819L2.94129 7.48824L1.94134 7.47837L1.93146 8.47832L2.93141 8.48819ZM2.60544 41.4866L1.60549 41.4767L1.59561 42.4767L2.59556 42.4865L2.60544 41.4866ZM3.10541 41.4915L3.09554 42.4915L4.09549 42.5014L4.10537 41.5014L3.10541 41.4915ZM2.97093 4.48839L1.97098 4.47851L1.9611 5.47846L2.96105 5.48834L2.97093 4.48839ZM28.7197 4.74275L28.7098 5.7427L29.7097 5.75258L29.7196 4.75263L28.7197 4.74275ZM28.7246 4.24277L29.7246 4.25265L29.7344 3.2527L28.7345 3.24282L28.7246 4.24277ZM2.97587 3.98841L2.98574 2.98846L1.98579 2.97858L1.97591 3.97853L2.97587 3.98841ZM3.41657 9.99306L7.41638 10.0326L7.43613 8.03267L3.43633 7.99316L3.41657 9.99306ZM6.4263 9.02274L6.10527 41.5212L8.10517 41.5409L8.42621 9.0425L6.4263 9.02274ZM7.09534 42.531L7.59532 42.5359L7.61507 40.536L7.1151 40.5311L7.09534 42.531ZM8.60515 41.5459L8.76566 25.2966L6.76576 25.2769L6.60524 41.5261L8.60515 41.5459ZM7.75584 26.2867L24.005 26.4472L24.0248 24.4473L7.77559 24.2868L7.75584 26.2867ZM25.0149 25.4572L25.0198 24.9572L23.0199 24.9374L23.015 25.4374L25.0149 25.4572ZM24.0297 23.9474L7.78053 23.7868L7.76077 25.7867L24.01 25.9473L24.0297 23.9474ZM8.7706 24.7967L8.81012 20.7969L6.81021 20.7771L6.7707 24.7769L8.7706 24.7967ZM7.80029 21.7869L24.0495 21.9475L24.0693 19.9476L7.82004 19.787L7.80029 21.7869ZM25.0593 20.9574L25.0643 20.4574L23.0644 20.4377L23.0594 20.9376L25.0593 20.9574ZM24.0742 19.4476L7.82498 19.2871L7.80523 21.287L24.0544 21.4475L24.0742 19.4476ZM8.81505 20.2969L8.92618 9.04744L6.92628 9.02768L6.81515 20.2771L8.81505 20.2969ZM7.91635 10.0375L28.6653 10.2425L28.6851 8.24258L7.93611 8.03761L7.91635 10.0375ZM29.6752 9.25241L29.6801 8.75243L27.6802 8.73268L27.6753 9.23265L29.6752 9.25241ZM28.69 7.7426L2.94129 7.48824L2.92154 9.48815L28.6703 9.74251L28.69 7.7426ZM1.93146 8.47832L1.60549 41.4767L3.60539 41.4965L3.93137 8.49807L1.93146 8.47832ZM2.59556 42.4865L3.09554 42.4915L3.11529 40.4916L2.61532 40.4866L2.59556 42.4865ZM4.10537 41.5014L4.4264 9.00299L2.4265 8.98323L2.10546 41.4816L4.10537 41.5014ZM2.96105 5.48834L28.7098 5.7427L28.7295 3.7428L2.9808 3.48844L2.96105 5.48834ZM29.7196 4.75263L29.7246 4.25265L27.7247 4.23289L27.7197 4.73287L29.7196 4.75263ZM28.7345 3.24282L2.98574 2.98846L2.96599 4.98836L28.7147 5.24272L28.7345 3.24282ZM1.97591 3.97853L1.97098 4.47851L3.97088 4.49827L3.97582 3.99829L1.97591 3.97853Z" fill="white"/>
</g>
<g filter="url(#filter2_d_61_2)">
<path d="M13.6466 12L13.0966 12L22.7966 25.9C17.7466 27.3 13.9966 32 13.9966 37.5C13.9966 44.1 19.3966 49.5 25.9966 49.5L38.4966 49.5L38.4966 49L25.9966 49C19.6466 49 14.4966 43.85 14.4966 37.5C14.4966 32.15 18.1466 27.6 23.0966 26.35L25.6466 30C21.6966 30.15 18.4966 33.45 18.4966 37.5C18.4966 41.65 21.8466 45 25.9966 45L38.4966 45L38.4966 12L37.9966 12L37.9966 44.5L33.9966 44.5L33.9966 12L33.4966 12L33.4966 44.5L25.9966 44.5C22.1466 44.5 18.9966 41.35 18.9966 37.5C18.9966 33.65 22.1466 30.5 25.9966 30.5L26.5466 30.5L13.6466 12ZM19.1466 12L18.5966 12L28.3466 26L28.7966 25.65L19.1466 12Z" fill="#0CF25D"/>
<path d="M13.6466 12L14.4669 11.428L14.1685 11L13.6466 11L13.6466 12ZM13.0966 12L13.0966 11L11.1794 11L12.2766 12.5723L13.0966 12ZM22.7966 25.9L23.0638 26.8637L24.4252 26.4862L23.6167 25.3277L22.7966 25.9ZM38.4966 49.5L38.4966 50.5L39.4966 50.5L39.4966 49.5L38.4966 49.5ZM38.4966 49L39.4966 49L39.4966 48L38.4966 48L38.4966 49ZM23.0966 26.35L23.9164 25.7773L23.5211 25.2114L22.8518 25.3804L23.0966 26.35ZM25.6466 30L25.6846 30.9993L27.5161 30.9297L26.4664 29.4273L25.6466 30ZM38.4966 45L38.4966 46L39.4966 46L39.4966 45L38.4966 45ZM38.4966 12L39.4966 12L39.4966 11L38.4966 11L38.4966 12ZM37.9966 12L37.9966 11L36.9966 11L36.9966 12L37.9966 12ZM37.9966 44.5L37.9966 45.5L38.9966 45.5L38.9966 44.5L37.9966 44.5ZM33.9966 44.5L32.9966 44.5L32.9966 45.5L33.9966 45.5L33.9966 44.5ZM33.9966 12L34.9966 12L34.9966 11L33.9966 11L33.9966 12ZM33.4966 12L33.4966 11L32.4966 11L32.4966 12L33.4966 12ZM33.4966 44.5L33.4966 45.5L34.4966 45.5L34.4966 44.5L33.4966 44.5ZM26.5466 30.5L26.5466 31.5L28.463 31.5L27.3669 29.928L26.5466 30.5ZM19.1466 12L19.9632 11.4227L19.6643 11L19.1466 11L19.1466 12ZM18.5966 12L18.5966 11L16.6816 11L17.776 12.5715L18.5966 12ZM28.3466 26L27.526 26.5715L28.1285 27.4365L28.9606 26.7894L28.3466 26ZM28.7966 25.65L29.4106 26.4394L30.1647 25.8528L29.6132 25.0727L28.7966 25.65ZM13.6466 11L13.0966 11L13.0966 13L13.6466 13L13.6466 11ZM12.2766 12.5723L21.9766 26.4723L23.6167 25.3277L13.9167 11.4277L12.2766 12.5723ZM22.5295 24.9363C17.0561 26.4537 12.9966 31.5407 12.9966 37.5L14.9966 37.5C14.9966 32.4593 18.4372 28.1463 23.0638 26.8637L22.5295 24.9363ZM12.9966 37.5C12.9966 44.6523 18.8444 50.5 25.9966 50.5L25.9966 48.5C19.9489 48.5 14.9966 43.5477 14.9966 37.5L12.9966 37.5ZM25.9966 50.5L38.4966 50.5L38.4966 48.5L25.9966 48.5L25.9966 50.5ZM39.4966 49.5L39.4966 49L37.4966 49L37.4966 49.5L39.4966 49.5ZM38.4966 48L25.9966 48L25.9966 50L38.4966 50L38.4966 48ZM25.9966 48C20.1989 48 15.4966 43.2977 15.4966 37.5L13.4966 37.5C13.4966 44.4023 19.0944 50 25.9966 50L25.9966 48ZM15.4966 37.5C15.4966 32.6094 18.8341 28.4578 23.3415 27.3196L22.8518 25.3804C17.4592 26.7422 13.4966 31.6906 13.4966 37.5L15.4966 37.5ZM22.2769 26.9227L24.8269 30.5727L26.4664 29.4273L23.9164 25.7773L22.2769 26.9227ZM25.6087 29.0007C21.1173 29.1713 17.4966 32.9167 17.4966 37.5L19.4966 37.5C19.4966 33.9833 22.276 31.1287 25.6846 30.9993L25.6087 29.0007ZM17.4966 37.5C17.4966 42.2023 21.2944 46 25.9966 46L25.9966 44C22.3989 44 19.4966 41.0977 19.4966 37.5L17.4966 37.5ZM25.9966 46L38.4966 46L38.4966 44L25.9966 44L25.9966 46ZM39.4966 45L39.4966 12L37.4966 12L37.4966 45L39.4966 45ZM38.4966 11L37.9966 11L37.9966 13L38.4966 13L38.4966 11ZM36.9966 12L36.9966 44.5L38.9966 44.5L38.9966 12L36.9966 12ZM37.9966 43.5L33.9966 43.5L33.9966 45.5L37.9966 45.5L37.9966 43.5ZM34.9966 44.5L34.9966 12L32.9966 12L32.9966 44.5L34.9966 44.5ZM33.9966 11L33.4966 11L33.4966 13L33.9966 13L33.9966 11ZM32.4966 12L32.4966 44.5L34.4966 44.5L34.4966 12L32.4966 12ZM33.4966 43.5L25.9966 43.5L25.9966 45.5L33.4966 45.5L33.4966 43.5ZM25.9966 43.5C22.6989 43.5 19.9966 40.7977 19.9966 37.5L17.9966 37.5C17.9966 41.9023 21.5944 45.5 25.9966 45.5L25.9966 43.5ZM19.9966 37.5C19.9966 34.2023 22.6989 31.5 25.9966 31.5L25.9966 29.5C21.5944 29.5 17.9966 33.0977 17.9966 37.5L19.9966 37.5ZM25.9966 31.5L26.5466 31.5L26.5466 29.5L25.9966 29.5L25.9966 31.5ZM27.3669 29.928L14.4669 11.428L12.8264 12.572L25.7264 31.072L27.3669 29.928ZM19.1466 11L18.5966 11L18.5966 13L19.1466 13L19.1466 11ZM17.776 12.5715L27.526 26.5715L29.1673 25.4285L19.4173 11.4285L17.776 12.5715ZM28.9606 26.7894L29.4106 26.4394L28.1827 24.8606L27.7327 25.2106L28.9606 26.7894ZM29.6132 25.0727L19.9632 11.4227L18.3301 12.5773L27.9801 26.2273L29.6132 25.0727Z" fill="#0CF25D"/>
</g>
</g>
<path d="M64.62 26.21H74.31V30.8H64.62V26.21ZM65.04 38H59.1V17H75.57V21.59H65.04V38ZM85.8865 38.27C84.1065 38.27 82.5265 37.91 81.1465 37.19C79.7665 36.47 78.6765 35.48 77.8765 34.22C77.0965 32.94 76.7065 31.48 76.7065 29.84C76.7065 28.2 77.0965 26.75 77.8765 25.49C78.6765 24.23 79.7665 23.25 81.1465 22.55C82.5265 21.83 84.1065 21.47 85.8865 21.47C87.6665 21.47 89.2465 21.83 90.6265 22.55C92.0265 23.25 93.1165 24.23 93.8965 25.49C94.6765 26.75 95.0665 28.2 95.0665 29.84C95.0665 31.48 94.6765 32.94 93.8965 34.22C93.1165 35.48 92.0265 36.47 90.6265 37.19C89.2465 37.91 87.6665 38.27 85.8865 38.27ZM85.8865 33.74C86.5465 33.74 87.1265 33.59 87.6265 33.29C88.1465 32.99 88.5565 32.55 88.8565 31.97C89.1565 31.37 89.3065 30.66 89.3065 29.84C89.3065 29.02 89.1565 28.33 88.8565 27.77C88.5565 27.19 88.1465 26.75 87.6265 26.45C87.1265 26.15 86.5465 26 85.8865 26C85.2465 26 84.6665 26.15 84.1465 26.45C83.6465 26.75 83.2365 27.19 82.9165 27.77C82.6165 28.33 82.4665 29.02 82.4665 29.84C82.4665 30.66 82.6165 31.37 82.9165 31.97C83.2365 32.55 83.6465 32.99 84.1465 33.29C84.6665 33.59 85.2465 33.74 85.8865 33.74ZM105.867 38.27C104.087 38.27 102.507 37.91 101.127 37.19C99.747 36.47 98.657 35.48 97.857 34.22C97.077 32.94 96.687 31.48 96.687 29.84C96.687 28.2 97.077 26.75 97.857 25.49C98.657 24.23 99.747 23.25 101.127 22.55C102.507 21.83 104.087 21.47 105.867 21.47C107.647 21.47 109.227 21.83 110.607 22.55C112.007 23.25 113.097 24.23 113.877 25.49C114.657 26.75 115.047 28.2 115.047 29.84C115.047 31.48 114.657 32.94 113.877 34.22C113.097 35.48 112.007 36.47 110.607 37.19C109.227 37.91 107.647 38.27 105.867 38.27ZM105.867 33.74C106.527 33.74 107.107 33.59 107.607 33.29C108.127 32.99 108.537 32.55 108.837 31.97C109.137 31.37 109.287 30.66 109.287 29.84C109.287 29.02 109.137 28.33 108.837 27.77C108.537 27.19 108.127 26.75 107.607 26.45C107.107 26.15 106.527 26 105.867 26C105.227 26 104.647 26.15 104.127 26.45C103.627 26.75 103.217 27.19 102.897 27.77C102.597 28.33 102.447 29.02 102.447 29.84C102.447 30.66 102.597 31.37 102.897 31.97C103.217 32.55 103.627 32.99 104.127 33.29C104.647 33.59 105.227 33.74 105.867 33.74ZM127.917 38.27C126.537 38.27 125.357 37.97 124.377 37.37C123.397 36.75 122.647 35.83 122.127 34.61C121.627 33.37 121.377 31.79 121.377 29.87C121.377 27.93 121.617 26.35 122.097 25.13C122.577 23.89 123.297 22.97 124.257 22.37C125.237 21.77 126.457 21.47 127.917 21.47C129.397 21.47 130.737 21.82 131.937 22.52C133.157 23.2 134.117 24.17 134.817 25.43C135.537 26.67 135.897 28.15 135.897 29.87C135.897 31.59 135.537 33.08 134.817 34.34C134.117 35.6 133.157 36.57 131.937 37.25C130.737 37.93 129.397 38.27 127.917 38.27ZM117.687 43.82V21.74H123.117V24.5L123.087 29.87L123.387 35.27V43.82H117.687ZM126.717 33.74C127.357 33.74 127.927 33.59 128.427 33.29C128.947 32.99 129.357 32.55 129.657 31.97C129.977 31.39 130.137 30.69 130.137 29.87C130.137 29.05 129.977 28.35 129.657 27.77C129.357 27.19 128.947 26.75 128.427 26.45C127.927 26.15 127.357 26 126.717 26C126.077 26 125.497 26.15 124.977 26.45C124.477 26.75 124.067 27.19 123.747 27.77C123.447 28.35 123.297 29.05 123.297 29.87C123.297 30.69 123.447 31.39 123.747 31.97C124.067 32.55 124.477 32.99 124.977 33.29C125.497 33.59 126.077 33.74 126.717 33.74ZM138.547 38V21.74H143.977V26.48L143.167 25.13C143.647 23.91 144.427 23 145.507 22.4C146.587 21.78 147.897 21.47 149.437 21.47V26.6C149.177 26.56 148.947 26.54 148.747 26.54C148.567 26.52 148.367 26.51 148.147 26.51C146.987 26.51 146.047 26.83 145.327 27.47C144.607 28.09 144.247 29.11 144.247 30.53V38H138.547ZM160.163 38.27C158.243 38.27 156.563 37.91 155.123 37.19C153.703 36.45 152.593 35.45 151.792 34.19C151.013 32.91 150.623 31.46 150.623 29.84C150.623 28.22 151.003 26.78 151.763 25.52C152.543 24.24 153.613 23.25 154.973 22.55C156.333 21.83 157.863 21.47 159.563 21.47C161.163 21.47 162.623 21.8 163.943 22.46C165.263 23.1 166.313 24.05 167.093 25.31C167.873 26.57 168.263 28.1 168.263 29.9C168.263 30.1 168.253 30.33 168.233 30.59C168.213 30.85 168.193 31.09 168.173 31.31H155.303V28.31H165.143L162.983 29.15C163.003 28.41 162.863 27.77 162.563 27.23C162.283 26.69 161.883 26.27 161.363 25.97C160.863 25.67 160.273 25.52 159.593 25.52C158.913 25.52 158.313 25.67 157.793 25.97C157.293 26.27 156.903 26.7 156.623 27.26C156.343 27.8 156.203 28.44 156.203 29.18V30.05C156.203 30.85 156.363 31.54 156.683 32.12C157.023 32.7 157.503 33.15 158.123 33.47C158.743 33.77 159.483 33.92 160.343 33.92C161.143 33.92 161.823 33.81 162.383 33.59C162.963 33.35 163.533 32.99 164.093 32.51L167.093 35.63C166.313 36.49 165.353 37.15 164.213 37.61C163.073 38.05 161.723 38.27 160.163 38.27ZM176.801 38.27C175.421 38.27 174.071 38.11 172.751 37.79C171.451 37.47 170.401 37.07 169.601 36.59L171.311 32.69C172.071 33.15 172.961 33.52 173.981 33.8C175.001 34.06 176.001 34.19 176.981 34.19C177.941 34.19 178.601 34.09 178.961 33.89C179.341 33.69 179.531 33.42 179.531 33.08C179.531 32.76 179.351 32.53 178.991 32.39C178.651 32.23 178.191 32.11 177.611 32.03C177.051 31.95 176.431 31.86 175.751 31.76C175.071 31.66 174.381 31.53 173.681 31.37C173.001 31.19 172.371 30.93 171.791 30.59C171.231 30.23 170.781 29.75 170.441 29.15C170.101 28.55 169.931 27.79 169.931 26.87C169.931 25.83 170.231 24.91 170.831 24.11C171.451 23.29 172.351 22.65 173.531 22.19C174.711 21.71 176.151 21.47 177.851 21.47C178.991 21.47 180.141 21.59 181.301 21.83C182.481 22.05 183.471 22.39 184.271 22.85L182.561 26.72C181.761 26.26 180.961 25.95 180.161 25.79C179.361 25.61 178.601 25.52 177.881 25.52C176.921 25.52 176.241 25.63 175.841 25.85C175.461 26.07 175.271 26.34 175.271 26.66C175.271 26.98 175.441 27.23 175.781 27.41C176.121 27.57 176.571 27.7 177.131 27.8C177.711 27.88 178.341 27.97 179.021 28.07C179.701 28.15 180.381 28.28 181.061 28.46C181.761 28.64 182.391 28.91 182.951 29.27C183.531 29.61 183.991 30.08 184.331 30.68C184.671 31.26 184.841 32.01 184.841 32.93C184.841 33.93 184.531 34.83 183.911 35.63C183.311 36.43 182.411 37.07 181.211 37.55C180.031 38.03 178.561 38.27 176.801 38.27Z" fill="white"/>
<defs>
<filter id="filter0_b_61_2" x="-1.39456" y="-0.0115967" width="43.8912" height="53.5116" filterUnits="userSpaceOnUse" color-interpolation-filters="sRGB">
<feFlood flood-opacity="0" result="BackgroundImageFix"/>
<feGaussianBlur in="BackgroundImage" stdDeviation="2"/>
<feComposite in2="SourceAlpha" operator="in" result="effect1_backgroundBlur_61_2"/>
<feBlend mode="normal" in="SourceGraphic" in2="effect1_backgroundBlur_61_2" result="shape"/>
</filter>
<filter id="filter1_b_61_2" x="-1.39456" y="-0.0115967" width="34.1192" height="45.7525" filterUnits="userSpaceOnUse" color-interpolation-filters="sRGB">
<feFlood flood-opacity="0" result="BackgroundImageFix"/>
<feGaussianBlur in="BackgroundImage" stdDeviation="2"/>
<feComposite in2="SourceAlpha" operator="in" result="effect1_backgroundBlur_61_2"/>
<feBlend mode="normal" in="SourceGraphic" in2="effect1_backgroundBlur_61_2" result="shape"/>
</filter>
<filter id="filter2_d_61_2" x="9.09665" y="12" width="33.4" height="45.5" filterUnits="userSpaceOnUse" color-interpolation-filters="sRGB">
<feFlood flood-opacity="0" result="BackgroundImageFix"/>
<feColorMatrix in="SourceAlpha" type="matrix" values="0 0 0 0 0 0 0 0 0 0 0 0 0 0 0 0 0 0 127 0" result="hardAlpha"/>
<feOffset dy="4"/>
<feGaussianBlur stdDeviation="2"/>
<feComposite in2="hardAlpha" operator="out"/>
<feColorMatrix type="matrix" values="0 0 0 0 0 0 0 0 0 0 0 0 0 0 0 0 0 0 0.25 0"/>
<feBlend mode="normal" in2="BackgroundImageFix" result="effect1_dropShadow_61_2"/>
<feBlend mode="normal" in="SourceGraphic" in2="effect1_dropShadow_61_2" result="shape"/>
</filter>
</defs>
</svg>
