<svg width="110" height="110" viewBox="0 0 110 110" fill="none" xmlns="http://www.w3.org/2000/svg">
<path d="M50.961 0.188965C43.9141 0.721779 36.4719 2.80147 30.0781 6.01553C27.8266 7.1499 24.2688 9.40147 21.9313 11.1546C17.7375 14.3343 14.3344 17.7374 11.1547 21.9312C6.61721 27.9468 3.48908 34.5296 1.63283 41.989C-0.876542 52.0608 -0.378104 62.7686 3.02502 72.7374C4.41721 76.8108 5.82658 79.8186 8.06096 83.514C13.9219 93.1733 22.7906 100.908 33.1719 105.411C36.575 106.889 42.4188 108.676 45.1172 109.055C45.5985 109.123 46.0625 109.244 46.1485 109.312C46.2516 109.398 47.5063 109.587 48.95 109.742C52.5422 110.155 59.7094 110.034 62.9922 109.519C71.3625 108.212 78.7188 105.376 85.5938 100.805C88.7735 98.6905 91.0422 96.8171 93.9297 93.9296C96.3875 91.489 99.1719 88.2405 99.1719 87.8452C99.1719 87.7421 99.55 87.1233 100.014 86.4874C102.73 82.7233 105.273 77.6874 106.975 72.7374C110.928 61.1702 110.928 48.8296 106.975 37.2624C105.583 33.189 104.173 30.1812 101.939 26.4858C96.0781 16.8265 87.2094 9.09209 76.8281 4.58897C68.7672 1.09991 59.6063 -0.464157 50.961 0.188965ZM88.1891 40.7858C88.7563 41.164 88.825 41.3186 89.925 45.203C91.9188 52.2155 93.036 56.4952 92.9328 56.7874C92.8641 56.9421 92.675 57.0624 92.5031 57.0624C92.3141 57.0624 89.1688 55.739 85.5078 54.1405C81.8469 52.5249 78.8219 51.2358 78.8047 51.253C78.7875 51.2874 79.1828 52.8515 79.6813 54.7421C80.1969 56.6327 80.6094 58.4374 80.6094 58.764C80.6094 59.2108 80.4547 59.4858 79.9391 60.0015C79.3547 60.5858 79.1656 60.6718 78.4953 60.6718C77.6016 60.6718 76.8281 60.1561 76.5016 59.3483C76.0719 58.2655 72.5313 44.6874 72.6344 44.464C72.686 44.3093 72.8406 44.1546 72.9781 44.103C73.1156 44.0515 76.2094 45.3233 79.8703 46.9218C83.5313 48.5374 86.5735 49.8265 86.625 49.8093C86.6938 49.7749 86.3328 48.2108 85.8344 46.3202C85.3188 44.4296 84.9063 42.7108 84.9063 42.4874C84.9063 41.4733 86.0235 40.3905 87.0719 40.3905C87.3641 40.3905 87.8625 40.5624 88.1891 40.7858ZM65.7422 48.0218C68.4235 48.8811 70.4172 50.4624 71.4485 52.5593C71.8953 53.453 71.9297 53.6936 71.9297 55.4468C71.9297 57.3374 71.9297 57.3546 71.1735 58.8671C68.8703 63.5077 63.061 66.5499 56.9766 66.2921C53.7797 66.1546 51.4594 65.2952 49.5172 63.4905C48.0047 62.0983 47.386 60.7749 47.3 58.7124C47.2141 56.839 47.5922 55.5155 48.6578 53.8655C50.6172 50.8233 54.1922 48.6061 58.5406 47.6952C60.4485 47.2999 64.0063 47.4546 65.7422 48.0218ZM44.1375 52.2843C44.2578 52.4046 44.3438 52.6108 44.3438 52.7483C44.3438 52.8858 43.1063 56.1343 41.5938 59.9499C40.0641 63.7827 38.861 66.928 38.8953 66.9624C38.9125 66.9968 40.5281 66.5843 42.4531 66.0686C46.3547 65.0374 46.7672 65.003 47.5922 65.8452C48.8813 67.1343 48.2625 68.9561 46.3203 69.5233C45.8563 69.678 42.5391 70.5718 38.9641 71.5171C33.7047 72.9265 32.4328 73.2186 32.2266 73.0468C32.0891 72.9265 31.9688 72.7374 31.9688 72.6343C31.9688 72.5311 33.2406 69.2655 34.7875 65.3983C36.3344 61.514 37.5891 58.3343 37.5547 58.2999C37.5375 58.2655 36.1969 58.5921 34.5985 59.0218C33 59.4686 31.5563 59.8124 31.3844 59.8124C30.6797 59.8124 29.9235 59.2624 29.5453 58.489C29.2188 57.8186 29.2016 57.6296 29.3735 57.0796C29.7344 55.8421 29.8891 55.7733 36.9016 53.8827C40.4766 52.903 43.5188 52.1124 43.6735 52.0952C43.811 52.0952 44.0172 52.164 44.1375 52.2843ZM21.5188 58.7983C25.0422 59.5202 27.8438 62.4421 28.6344 66.1718C29.6141 70.8124 26.675 75.539 22.0516 76.7421C20.9172 77.0343 18.4938 77.0686 17.3594 76.8108C15.9672 76.4843 14.4031 75.5905 13.2172 74.4218C8.71408 70.0046 9.9344 62.3733 15.6063 59.4858C17.2219 58.6608 19.5594 58.3858 21.5188 58.7983Z" fill="#001AFF"/>
<path d="M59.7781 51.9061C55.2063 52.7311 51.5625 55.6186 51.5625 58.3858C51.5625 59.4514 52.0094 60.1905 53.0578 60.8608C54.3469 61.6686 55.5156 61.9436 57.6641 61.9436C59.8469 61.9436 61.1531 61.6514 63.0781 60.7405C66.5672 59.0905 68.5094 56.1686 67.4609 54.1233C67.0828 53.4014 65.9484 52.6452 64.6422 52.2327C63.3703 51.8374 60.9984 51.6827 59.7781 51.9061Z" fill="#001AFF"/>
<path d="M18.5625 63.0609C17.1703 63.3703 15.8813 64.3671 15.1766 65.7078C15.0219 66.0171 14.8672 66.8249 14.8156 67.564C14.7469 68.6984 14.7985 69.0078 15.1594 69.7984C15.675 70.9156 16.5 71.7578 17.5313 72.2562C18.1328 72.5312 18.6141 72.6171 19.6797 72.5999C21.3813 72.5656 22.3953 72.1359 23.375 71.0187C25.4547 68.664 24.6125 64.6765 21.7422 63.4046C20.9 63.0265 19.4219 62.8718 18.5625 63.0609Z" fill="#001AFF"/>
</svg>
