<svg width="111" height="114" viewBox="0 0 111 114" fill="none" xmlns="http://www.w3.org/2000/svg">
<path fill-rule="evenodd" clip-rule="evenodd" d="M100.177 80.3722C101.646 47.8208 75.1482 11.1632 39.0236 6.63208L39.0854 6.18726C74.6986 6.18726 102 41.1146 102 68.6691C101.966 74.4051 101.538 77.959 100.776 80.5392L100.177 80.3722ZM98.0193 84.5099C95.6499 87.577 92.6699 90.665 89.1786 93.5967C82.7558 54.4628 55.6108 20.243 36.4195 10.2549L36.0084 10.5584C55.3088 27.3391 78.3288 59.9302 87.2808 95.1319C82.7146 98.6855 77.7821 101.678 72.5782 104.052C54.3655 82.0488 37.386 39.6143 31.9142 12.6868L31.3577 12.8643C31.4811 39.0026 48.9984 83.3751 70.3608 105.027C65.4613 107.081 60.3677 108.572 55.1678 109.474C34.6903 100.88 20.1144 73.3543 20.1144 45.1577C20.1144 26.7507 25.4121 15.3639 26.437 13.0336L26.0006 12.8503C24.7607 14.8374 17 26.2183 17 46.0905C17 77.9625 31.8371 102.324 51.5354 109.996C44.4913 110.816 37.3692 110.462 30.4287 108.946L30.2821 109.432C32.3892 110.254 39.5383 113.433 50.4443 113.433C75.1118 113.433 91.7872 97.1961 98.4998 84.8543L98.0193 84.5099Z" fill="#28458E"/>
<path fill-rule="evenodd" clip-rule="evenodd" d="M53.7329 0C34.9841 0 13 14.0634 13 26.9187C13 31.8913 17.3767 36.0922 26.4351 36.0922C47.4634 36.0922 67 21.0768 67 9.40088C67 3.25689 61.3228 0 53.7329 0ZM61.2178 9.03799C61.2178 18.8799 43.0336 30.9106 27.8328 30.9106C21.117 30.9106 17.4883 28.1636 17.4883 23.6308C17.4883 13.6477 35.8791 1.82138 50.1374 1.82138C59.4333 1.82138 61.2178 6.73772 61.2178 9.03799Z" fill="#0096D6"/>
<path fill-rule="evenodd" clip-rule="evenodd" d="M5.6362 33.7464C5.1094 34.7193 3 39.1297 3 43.6485C3 52.0294 10.9307 59.8101 25.5176 59.8101C53.5793 59.8101 86 37.7547 86 17.2818C86 8.09197 77.8528 3.09552 72.1961 2.0625L72.0901 2.42099C73.8494 3.01533 80.2947 6.21462 80.2947 14.4009C80.2947 30.7134 51.6698 52.9398 23.1564 52.9398C12.2405 52.9398 5.36341 47.1863 5.36341 38.8054C5.36341 36.1544 5.88027 34.408 6.01722 33.9021L5.6362 33.7464Z" fill="#EB7B30"/>
<path fill-rule="evenodd" clip-rule="evenodd" d="M96.6499 18.5618C97.4137 19.1743 102 23.2129 102 30.8502C102 56.8905 63.383 82.4966 29.2427 82.4966C8.8832 82.4966 -0.397903 71.8755 0.0130558 62.4447H0.377988C1.1758 67.3425 7.78621 76.1063 25.6054 76.1063C59.7885 76.1063 97.9551 49.611 97.9551 26.397C97.9551 22.4151 96.9315 19.9338 96.3529 18.8304L96.6499 18.5618Z" fill="#00984A"/>
<path fill-rule="evenodd" clip-rule="evenodd" d="M110.005 42.2795C110.165 42.8541 111 45.4367 111 49.4815C111 79.4915 71.7762 105.183 37.6625 105.183C20.1047 105.183 10.9358 95.8819 9 92.1046L9.31237 91.8527C14.1707 96.4865 23.7399 100.007 34.9072 100.007C65.0359 100.007 109.992 75.0088 109.591 42.3887L110.005 42.2795Z" fill="#DF002C"/>
</svg>
