<svg width="110" height="110" viewBox="0 0 110 110" fill="none" xmlns="http://www.w3.org/2000/svg">
<path d="M52.69 6.06079C50.402 6.24779 47.553 6.87479 45.43 7.66679L44.352 8.06279L44.517 8.45879C44.616 8.67879 44.737 8.97579 44.803 9.12979C44.858 9.28379 44.935 9.52579 44.957 9.67979C45.1 10.6258 45.331 11.0878 45.958 11.7038C46.442 12.1768 46.662 12.4958 46.86 13.0348C47.003 13.4308 47.179 13.7498 47.245 13.7498C47.311 13.7498 47.806 13.5958 48.356 13.4198C48.895 13.2328 49.94 12.9578 50.677 12.8038C56.034 11.7258 61.468 12.6718 66.176 15.5208L67.111 16.0818L67.474 15.8288C67.672 15.6858 68.882 14.7948 70.158 13.8598L72.479 12.1548L72.127 11.8468C71.28 11.1208 69.003 9.70179 67.419 8.92079C62.755 6.59979 57.827 5.64279 52.69 6.06079Z" fill="#34C031"/>
<path d="M66.022 24.9808L55 33.0988L50.138 30.0518C47.454 28.3688 45.078 26.8838 44.858 26.7408L44.44 26.4878V30.4478V34.3968L49.72 37.7078L55 41.0188L67.705 31.6578L80.41 22.2858L79.739 21.0208C79.156 19.8988 77.33 17.0168 77.121 16.8958C77.088 16.8738 72.094 20.5038 66.022 24.9808Z" fill="#34C031"/>
<path d="M79.398 31.1079L76.461 33.2749L76.45 34.4299C76.428 37.3339 75.636 40.5789 74.25 43.3399C73.183 45.4849 72.138 46.9809 70.51 48.6639L69.465 49.7419L69.927 50.1489C70.18 50.3689 70.4 50.6219 70.422 50.7099C70.444 50.7979 70.477 50.8969 70.51 50.9299C70.829 51.2379 71.61 52.4699 71.61 52.6789C71.61 52.7339 71.72 52.9099 71.863 53.0529C71.995 53.1959 72.325 53.6689 72.589 54.0979C72.853 54.5379 73.128 54.8899 73.205 54.8899C73.447 54.8899 76.285 51.8759 77.286 50.5449C80.047 46.8599 81.774 42.7569 82.577 37.9829C82.731 37.0589 82.775 36.1789 82.775 33.9899C82.775 31.3829 82.599 28.9189 82.401 28.9409C82.368 28.9409 81.015 29.9199 79.398 31.1079Z" fill="#34C031"/>
<path d="M12.518 75.5148C9.05301 76.0098 6.21501 77.3738 3.96001 79.6398C2.06801 81.5318 0.924014 83.7208 0.319014 86.6028C1.44541e-05 88.0658 -0.0219855 90.6398 0.253014 92.1798C0.803014 95.1828 2.21101 97.8228 4.35601 99.8688C6.43501 101.86 8.96501 103.125 12.001 103.686C13.563 103.983 16.401 103.961 18.018 103.642C20.768 103.092 23.045 101.981 24.948 100.254L25.542 99.7148L24.343 98.8458C23.694 98.3618 22.825 97.7238 22.418 97.4268L21.681 96.8878L20.251 97.6028C18.304 98.5818 17.292 98.8238 15.18 98.8238C13.893 98.8238 13.398 98.7798 12.628 98.5818C9.28401 97.7458 6.93001 95.4468 6.03901 92.1248C5.69801 90.8708 5.69801 88.4398 6.02801 87.1748C7.09501 83.1928 10.307 80.6628 14.575 80.4428C16.566 80.3438 18.326 80.7398 19.844 81.6198C20.251 81.8618 20.647 82.0268 20.724 81.9828C20.79 81.9498 21.747 81.2458 22.858 80.4318L24.871 78.9468L24.508 78.6388C22.891 77.2308 20.614 76.1638 18.15 75.6688C16.753 75.3828 13.959 75.3058 12.518 75.5148Z" fill="#34C031"/>
<path d="M30.69 89.5948V103.51H37.873C43.604 103.51 45.254 103.477 46.09 103.345C50.281 102.707 52.987 100.672 53.944 97.4598C54.417 95.8758 54.384 93.5988 53.878 92.0368C53.163 89.8258 51.502 88.2088 49.06 87.3618C47.223 86.7238 46.497 86.6468 41.338 86.6028L36.63 86.5478V83.4238V80.2998H42.493H48.356L51.425 78.0448C53.108 76.8018 54.516 75.7568 54.549 75.7348C54.571 75.7018 49.214 75.6798 42.647 75.6798H30.69V89.5948ZM44.77 91.2998C46.794 91.6298 47.938 92.3998 48.411 93.7748C48.653 94.4898 48.598 95.9748 48.29 96.6678C47.839 97.7018 46.772 98.4388 45.21 98.8018C44.935 98.8678 42.9 98.9338 40.678 98.9668L36.63 99.0218V95.1058V91.1898H40.348C42.383 91.1898 44.374 91.2448 44.77 91.2998Z" fill="#34C031"/>
<path d="M59.95 89.5948V103.51H70.455H80.96V101.255V98.9998H73.425H65.89V95.3698V91.7398H72.325H78.76V89.4848V87.2298H72.325H65.89V83.7648V80.2998H70.301H74.712L77.781 78.0338C79.475 76.7908 80.85 75.7458 80.85 75.7238C80.85 75.7018 76.153 75.6798 70.4 75.6798H59.95V89.5948Z" fill="#34C031"/>
<path d="M86.68 89.5838V103.51H89.65H92.62V99.6158V95.7218L96.338 95.6668C100.32 95.6118 101.266 95.5128 103.015 94.9628C104.94 94.3578 106.777 93.1808 107.888 91.8498C110.121 89.1548 110.616 84.7108 109.054 81.4108C107.668 78.4738 105.116 76.7138 101.09 75.9438C100.309 75.7898 99.055 75.7568 93.423 75.7128L86.68 75.6578V89.5838ZM99.693 80.4648C102.498 80.9598 103.95 82.7418 103.95 85.6898C103.95 88.0548 103.081 89.5838 101.255 90.4418C100.122 90.9698 99.209 91.0688 95.733 91.0798H92.62V85.6898V80.2998H95.733C97.878 80.3108 99.099 80.3548 99.693 80.4648Z" fill="#34C031"/>
</svg>
