<svg width="100" height="100" viewBox="0 0 100 100" fill="none" xmlns="http://www.w3.org/2000/svg">
<path d="M49.9914 8.32495C55.0081 8.32495 59.8164 9.21245 64.2706 10.8333L59.2914 15.8083C51.756 13.7593 43.7548 14.2575 36.5319 17.2256C29.3089 20.1936 23.2691 25.4651 19.3516 32.2203C15.434 38.9755 13.8583 46.8358 14.8694 54.579C15.8806 62.3223 19.4219 69.5144 24.9427 75.0371C30.4636 80.5598 37.6546 84.1036 45.3974 85.1173C53.1403 86.131 61.0012 84.5579 67.7577 80.6426C74.5142 76.7273 79.7877 70.6893 82.7582 63.4673C85.7286 56.2454 86.2296 48.2443 84.1831 40.7083L89.1581 35.7333C90.8221 40.3056 91.6711 45.1343 91.6664 49.9999C91.6664 73.0166 73.0081 91.675 49.9914 91.675C26.9747 91.675 8.31641 73.0166 8.31641 49.9999C8.31641 26.9833 26.9747 8.32495 49.9914 8.32495V8.32495ZM49.9914 24.9999C52.1025 24.999 54.2053 25.265 56.2497 25.7916V32.3208C52.2403 30.9023 47.8678 30.889 43.8499 32.2831C39.832 33.6772 36.4073 36.3958 34.1381 39.9928C31.8689 43.5897 30.8899 47.8513 31.3619 52.0779C31.8339 56.3045 33.7287 60.2452 36.7354 63.253C39.7421 66.2608 43.6821 68.1571 47.9085 68.6306C52.135 69.1041 56.3969 68.1267 59.9947 65.8588C63.5924 63.5909 66.3123 60.1672 67.7079 56.1498C69.1034 52.1324 69.0917 47.7599 67.6747 43.7499H74.2039C75.5074 48.7983 75.1998 54.1279 73.3243 58.9928C71.4488 63.8578 68.0991 68.0146 63.7441 70.8815C59.3891 73.7484 54.2467 75.1819 49.0366 74.9815C43.8266 74.781 38.8095 72.9566 34.6877 69.7636C30.5658 66.5705 27.5454 62.1687 26.0492 57.174C24.553 52.1794 24.6559 46.8419 26.3434 41.9086C28.0309 36.9753 31.2186 32.6931 35.4604 29.6612C39.7022 26.6293 44.7858 24.9995 49.9997 24.9999H49.9914ZM58.3247 49.9999C58.3242 51.791 57.7465 53.5343 56.6775 54.9713C55.6084 56.4083 54.1048 57.4627 52.3894 57.9781C50.6741 58.4935 48.8384 58.4426 47.1543 57.8328C45.4702 57.223 44.0274 56.0869 43.0397 54.5927C42.052 53.0986 41.572 51.326 41.6708 49.5376C41.7695 47.7493 42.4419 46.0403 43.5882 44.6641C44.7344 43.2878 46.2936 42.3175 48.0346 41.8969C49.7756 41.4764 51.6058 41.6279 53.2539 42.3291L60.4206 35.1625L60.4164 21.875C60.4171 21.0464 60.7469 20.2521 61.3331 19.6666L71.7497 9.24995C72.1868 8.81347 72.7433 8.51628 73.3492 8.39593C73.955 8.27558 74.5829 8.33746 75.1536 8.57376C75.7243 8.81005 76.2121 9.21017 76.5555 9.72357C76.899 10.237 77.0825 10.8406 77.0831 11.4583V22.9166H88.5414C89.1591 22.9172 89.7627 23.1007 90.2761 23.4441C90.7895 23.7876 91.1896 24.2754 91.4259 24.8461C91.6622 25.4168 91.7241 26.0447 91.6038 26.6505C91.4834 27.2563 91.1862 27.8129 90.7497 28.25L80.3331 38.6666C79.7476 39.2528 78.9533 39.5826 78.1247 39.5833H64.8331L57.6664 46.75C58.0914 47.75 58.3247 48.8458 58.3247 49.9999V49.9999ZM76.8289 33.3333L80.9956 29.1666H73.9539C73.1251 29.1666 72.3302 28.8374 71.7442 28.2513C71.1581 27.6653 70.8289 26.8704 70.8289 26.0416V18.9999L66.6664 23.1666V33.0874C66.7533 33.1658 66.8354 33.2493 66.9122 33.3375H76.8289V33.3333Z" fill="#02735E"/>
</svg>
