<svg width="140" height="146" viewBox="0 0 140 146" fill="none" xmlns="http://www.w3.org/2000/svg">
<path d="M89.25 64.75C87.8576 64.75 86.5223 64.1969 85.5377 63.2123C84.5531 62.2277 84 60.8924 84 59.5C84 58.1076 84.5531 56.7723 85.5377 55.7877C86.5223 54.8031 87.8576 54.25 89.25 54.25C90.6424 54.25 91.9777 54.8031 92.9623 55.7877C93.9469 56.7723 94.5 58.1076 94.5 59.5C94.5 60.8924 93.9469 62.2277 92.9623 63.2123C91.9777 64.1969 90.6424 64.75 89.25 64.75ZM89.25 85.75C87.8576 85.75 86.5223 85.1969 85.5377 84.2123C84.5531 83.2277 84 81.8924 84 80.5C84 79.1076 84.5531 77.7723 85.5377 76.7877C86.5223 75.8031 87.8576 75.25 89.25 75.25C90.6424 75.25 91.9777 75.8031 92.9623 76.7877C93.9469 77.7723 94.5 79.1076 94.5 80.5C94.5 81.8924 93.9469 83.2277 92.9623 84.2123C91.9777 85.1969 90.6424 85.75 89.25 85.75ZM84 101.5C84 102.892 84.5531 104.228 85.5377 105.212C86.5223 106.197 87.8576 106.75 89.25 106.75C90.6424 106.75 91.9777 106.197 92.9623 105.212C93.9469 104.228 94.5 102.892 94.5 101.5C94.5 100.108 93.9469 98.7723 92.9623 97.7877C91.9777 96.8031 90.6424 96.25 89.25 96.25C87.8576 96.25 86.5223 96.8031 85.5377 97.7877C84.5531 98.7723 84 100.108 84 101.5ZM77 59.5C77 58.5717 76.6313 57.6815 75.9749 57.0251C75.3185 56.3687 74.4283 56 73.5 56H49C48.0717 56 47.1815 56.3687 46.5251 57.0251C45.8687 57.6815 45.5 58.5717 45.5 59.5C45.5 60.4283 45.8687 61.3185 46.5251 61.9749C47.1815 62.6313 48.0717 63 49 63H73.5C74.4283 63 75.3185 62.6313 75.9749 61.9749C76.6313 61.3185 77 60.4283 77 59.5ZM77 80.5C77 79.5717 76.6313 78.6815 75.9749 78.0251C75.3185 77.3687 74.4283 77 73.5 77H49C48.0717 77 47.1815 77.3687 46.5251 78.0251C45.8687 78.6815 45.5 79.5717 45.5 80.5C45.5 81.4283 45.8687 82.3185 46.5251 82.9749C47.1815 83.6313 48.0717 84 49 84H73.5C74.4283 84 75.3185 83.6313 75.9749 82.9749C76.6313 82.3185 77 81.4283 77 80.5ZM77 101.5C77 100.572 76.6313 99.6815 75.9749 99.0251C75.3185 98.3687 74.4283 98 73.5 98H49C48.0717 98 47.1815 98.3687 46.5251 99.0251C45.8687 99.6815 45.5 100.572 45.5 101.5C45.5 102.428 45.8687 103.318 46.5251 103.975C47.1815 104.631 48.0717 105 49 105H73.5C74.4283 105 75.3185 104.631 75.9749 103.975C76.6313 103.318 77 102.428 77 101.5ZM59.5 14C57.3277 13.9989 55.2086 14.6715 53.4346 15.9252C51.6606 17.1789 50.3191 18.952 49.595 21H38.5C35.7152 21 33.0445 22.1062 31.0754 24.0754C29.1062 26.0445 28 28.7152 28 31.5V115.5C28 118.285 29.1062 120.955 31.0754 122.925C33.0445 124.894 35.7152 126 38.5 126H101.5C104.285 126 106.955 124.894 108.925 122.925C110.894 120.955 112 118.285 112 115.5V31.5C112 28.7152 110.894 26.0445 108.925 24.0754C106.955 22.1062 104.285 21 101.5 21H90.405C89.6809 18.952 88.3394 17.1789 86.5654 15.9252C84.7914 14.6715 82.6723 13.9989 80.5 14H59.5ZM56 24.5C56 23.5717 56.3687 22.6815 57.0251 22.0251C57.6815 21.3688 58.5717 21 59.5 21H80.5C81.4283 21 82.3185 21.3688 82.9749 22.0251C83.6313 22.6815 84 23.5717 84 24.5C84 25.4283 83.6313 26.3185 82.9749 26.9749C82.3185 27.6313 81.4283 28 80.5 28H59.5C58.5717 28 57.6815 27.6313 57.0251 26.9749C56.3687 26.3185 56 25.4283 56 24.5ZM38.5 28H49.595C50.3191 30.048 51.6606 31.8211 53.4346 33.0748C55.2086 34.3285 57.3277 35.0011 59.5 35H80.5C82.6723 35.0011 84.7914 34.3285 86.5654 33.0748C88.3394 31.8211 89.6809 30.048 90.405 28H101.5C102.428 28 103.318 28.3688 103.975 29.0251C104.631 29.6815 105 30.5717 105 31.5V115.5C105 116.428 104.631 117.318 103.975 117.975C103.318 118.631 102.428 119 101.5 119H38.5C37.5717 119 36.6815 118.631 36.0251 117.975C35.3687 117.318 35 116.428 35 115.5V31.5C35 30.5717 35.3687 29.6815 36.0251 29.0251C36.6815 28.3688 37.5717 28 38.5 28V28Z" fill="#02735E"/>
</svg>
