<svg width="100" height="100" viewBox="0 0 100 100" fill="none" xmlns="http://www.w3.org/2000/svg">
<path d="M12.8639 43.1C12.1799 44.5092 11.8249 46.0555 11.8259 47.622L12.2119 71.872L3.80193 89.92C3.49747 90.4816 3.29372 91.0921 3.19993 91.724C3.0916 92.4334 3.12454 93.1572 3.29685 93.8538C3.46916 94.5504 3.77744 95.2061 4.20398 95.7832C4.63052 96.3603 5.1669 96.8474 5.7823 97.2165C6.3977 97.5856 7.07999 97.8294 7.78993 97.934C8.89593 98.1036 10.0273 97.9285 11.0303 97.4325C12.0333 96.9366 12.8593 96.1438 13.3959 95.162L22.6479 75.434C22.8399 74.976 23.0119 74.494 23.0819 73.966L23.1319 73.222L23.0599 58.23L37.2779 64.414L39.5739 79.066C39.8124 80.1428 40.372 81.1218 41.1786 81.8739C41.9853 82.6259 43.0011 83.1155 44.0919 83.278C45.5235 83.4894 46.9807 83.1283 48.1479 82.2729C49.3151 81.4175 50.0983 80.1367 50.3279 78.708C50.3979 78.202 50.3979 77.696 50.3499 77.216L47.5479 59.528C47.3796 58.6794 47.0142 57.8821 46.4813 57.2006C45.9484 56.519 45.2629 55.9721 44.4799 55.604L31.7719 49.98L39.8639 35.952L43.8779 41.03C44.2879 41.486 44.8199 41.872 45.4219 42.112L60.7179 46.562C61.7073 46.778 62.7411 46.6387 63.6379 46.1683C64.5347 45.698 65.2372 44.9267 65.6219 43.99C65.835 43.4666 65.9429 42.9063 65.9393 42.3412C65.9357 41.7761 65.8207 41.2172 65.601 40.6966C65.3812 40.1759 65.061 39.7037 64.6586 39.3069C64.2563 38.9101 63.7796 38.5965 63.2559 38.384L63.0379 38.312L49.7479 34.414L39.7439 22.456C38.2003 20.8095 36.1515 19.7249 33.9219 19.374C31.9968 19.0869 30.0298 19.3691 28.263 20.1857C26.4962 21.0023 25.0067 22.3177 23.9779 23.97L12.8639 43.1ZM56.7419 77.868L55.7759 85.134L29.4639 91.508L29.7179 96H93.8899C94.4283 96.0024 94.9619 95.8985 95.46 95.6943C95.9582 95.4901 96.4111 95.1896 96.7929 94.81C97.1747 94.4304 97.4779 93.9792 97.685 93.4823C97.8921 92.9853 97.9991 92.4524 97.9999 91.914L97.9279 5.776L89.1359 3.732L84.0839 26.378L75.6379 29.914L68.1479 50.796L75.2639 66.774L73.2599 72.908L56.7419 77.868ZM38.8759 18.314C43.3939 18.314 47.0659 14.658 47.0659 10.158C47.0639 5.66 43.3939 2 38.8759 2C34.3579 2 30.6839 5.66 30.6839 10.158C30.6819 14.658 34.3559 18.314 38.8759 18.314ZM22.5779 19.59C22.7305 19.3246 22.829 19.0317 22.8678 18.728C22.9066 18.4244 22.885 18.1161 22.8041 17.8209C22.7233 17.5257 22.5848 17.2494 22.3966 17.0079C22.2085 16.7664 21.9744 16.5646 21.7079 16.414L17.7439 14.104C17.2019 13.797 16.5608 13.7157 15.9593 13.8778C15.3578 14.0399 14.8443 14.4322 14.5299 14.97L2.30593 35.978C2.15411 36.2435 2.05612 36.5363 2.01757 36.8396C1.97903 37.143 2.00069 37.451 2.08131 37.746C2.16193 38.041 2.29993 38.3172 2.48742 38.5588C2.67491 38.8004 2.90819 39.0027 3.17393 39.154L7.16193 41.442C7.69699 41.7512 8.3327 41.836 8.93009 41.6778C9.52748 41.5197 10.038 41.1314 10.3499 40.598L22.5779 19.59Z" fill="#02735E"/>
</svg>
