<svg width="110" height="112" viewBox="0 0 110 112" fill="none" xmlns="http://www.w3.org/2000/svg">
<path d="M1.3988 55.445C1.3988 25.7173 25.4976 1.61597 55.2287 1.61597C84.9572 1.61597 109.057 25.7173 109.057 55.445C109.057 85.1752 84.9572 109.274 55.2287 109.274C25.4976 109.274 1.3988 85.1743 1.3988 55.445Z" fill="#397657"/>
<path d="M2.98571 55.445C2.98571 26.5941 26.3743 3.20459 55.2278 3.20459C84.0796 3.20459 107.47 26.5941 107.47 55.445C107.47 84.2967 84.0796 107.687 55.2278 107.687C26.3743 107.686 2.98571 84.2967 2.98571 55.445Z" fill="white"/>
<path d="M4.68739 55.4448C4.68739 27.5336 27.3149 4.90698 55.2287 4.90698C83.1407 4.90698 105.768 27.5336 105.768 55.4448C105.768 83.3577 83.1399 105.984 55.2287 105.984C27.314 105.984 4.68739 83.3577 4.68739 55.4448Z" fill="#397657"/>
<path d="M23.9875 55.2317C23.9875 38.0415 37.9219 24.107 55.1105 24.107C72.299 24.107 86.2326 38.0415 86.2326 55.2317C86.2326 72.4194 72.299 86.353 55.1105 86.353C37.9219 86.353 23.9875 72.4194 23.9875 55.2317ZM60.0317 9.35712C60.8843 10.1217 61.1259 11.1278 61.0819 12.2436C60.8411 13.0323 60.4045 13.7968 59.7029 14.3448C60.5572 14.9782 61.4106 15.6357 61.5409 16.7722C61.7826 17.888 61.4529 18.8933 60.8187 19.7251C59.4855 21.2335 57.3635 20.8409 55.4375 20.9047L50.3523 21.0385L50.3178 20.576L49.7949 9.02835L49.7733 8.77637C53.1197 8.7548 57.0563 7.88929 60.0317 9.35712ZM69.5048 10.9855C68.6065 13.5777 67.4269 16.138 66.7901 18.8717C66.7541 19.225 66.8475 19.5793 67.0528 19.869C67.2581 20.1588 67.5615 20.3642 67.9067 20.4474C68.4443 20.7434 69.2089 20.7986 69.6127 20.4474C71.342 18.02 72.1626 15.0006 73.2465 12.2764C74.6237 12.7588 75.6972 13.4474 77.0321 13.9504C75.6083 16.9698 74.7333 20.525 72.7641 23.0068C71.3429 24.2537 69.0898 23.9465 67.3846 23.5306C65.437 22.8316 63.3151 21.5856 62.7249 19.3972C62.2667 17.8992 64.3446 12.7579 65.481 9.68589L69.5048 10.9855Z" fill="white"/>
<path d="M37.9815 25.3712L35.0933 27.2722C34.0155 26.7044 33.3864 26.3213 32.5994 25.9606L29.4023 28.652C29.7311 29.4408 30.1505 30.402 30.4999 31.277L27.6445 34.469L27.415 33.9659L22.3609 21.9575L26.9766 17.9863L27.3486 18.2167C30.9702 20.4275 34.692 23.0344 38.3603 25.1218L37.9815 25.3712ZM38.7029 24.9311C37.1867 21.2335 35.3297 16.9146 33.9559 13.4465C37.4352 12.046 42.4669 8.60121 45.5717 11.807C46.3587 12.682 46.4683 13.9064 46.4899 15.0222C46.2949 15.7427 46.1171 16.4667 45.6373 17.057C46.6754 18.335 48.6032 19.7855 49.9364 21.054L49.7724 21.1092L45.8349 21.9782C44.4344 20.8521 43.6414 20.0573 42.4229 19.222C41.8974 19.2859 41.5358 19.594 41.0423 19.8123L42.3988 22.9197L38.7029 24.9311Z" fill="white"/>
<path d="M56.6197 11.391C56.9252 11.7171 56.8613 12.3971 56.6836 12.769C56.1166 13.4266 55.0665 13.4024 54.1914 13.2928C54.2553 12.5499 53.9809 11.8276 54.0361 11.063C54.78 11.1718 56.0726 10.799 56.6197 11.391ZM42.1822 14.4086C42.3988 14.9557 42.4117 15.8462 41.9457 16.1707L39.7807 17.0888C39.2405 16.0956 39.0109 15.4148 38.639 14.6071C39.6443 14.2351 41.371 12.7259 42.1822 14.4086ZM57.3411 16.3778C57.5146 17.1449 57.1668 17.9319 56.4221 18.0855C55.7223 18.1934 55.1985 18.1286 54.4538 18.1502C54.3442 17.3615 54.2803 16.3122 54.3442 15.6555C55.3495 15.7867 56.8613 15.2404 57.3411 16.3778Z" fill="#397657"/>
<path d="M86.8711 20.6449C87.6158 21.5631 88.1206 22.7004 88.4477 23.8593C87.5287 24.3529 86.8288 24.9112 85.953 25.3038C85.7364 23.9473 84.9917 22.5692 83.6576 21.8918C83.0234 21.5191 82.081 21.4535 81.3605 21.6942C80.2439 22.1093 79.2826 23.0723 78.8667 24.1881C78.4947 25.2598 78.9098 26.3091 79.5242 27.1401C80.3759 28.1031 81.5158 28.608 82.8024 28.6511C82.2243 29.602 81.9085 30.2026 81.3605 30.9482C79.2153 30.641 77.2038 29.4597 75.9793 27.4689C74.9292 25.7853 74.8644 23.2043 75.7834 21.4319C76.7447 19.4843 78.6492 18.2374 80.703 17.9526C83.1761 17.8654 85.4067 18.85 86.8711 20.6449Z" fill="white"/>
<path d="M30.04 24.3194C29.4218 24.8894 28.7643 25.4153 28.0726 25.8934C27.547 24.6464 27.0431 23.5307 26.4969 22.1526C27.7533 22.8214 28.8569 23.5963 30.04 24.3194Z" fill="#397657"/>
<path d="M93.4362 28.3879C92.4309 29.3941 91.0969 30.2484 90.0225 31.2105C91.7302 31.5816 93.6537 31.516 95.4046 31.8008C96.1924 32.9398 96.6075 34.0332 97.3737 35.4104L90.9424 34.9522C89.5203 37.1828 88.2302 39.4575 87.004 41.7761C86.2395 40.6604 85.6501 39.2185 84.9045 37.9715C85.7373 36.2862 86.8185 34.5035 87.6521 32.8182C86.2196 33.7052 84.9615 34.8529 83.5031 35.7711L81.2311 32.7189C84.2927 30.0939 87.596 27.7537 90.8121 25.3712L91.0727 25.2771L93.4362 28.3879ZM21.2244 27.5794C20.6437 28.7823 19.8782 29.6021 19.3441 30.7506L26.8248 35.6718C26.4304 36.7867 25.5778 37.8827 24.8547 38.9527L17.1773 34.1617C16.4887 35.0695 15.9951 35.9998 15.3056 37.1595C14.2995 36.4933 13.5884 36.055 12.7799 35.4768C14.6843 32.3021 16.4887 29.3285 18.5882 26.0347L21.2244 27.5794Z" fill="white"/>
<path d="M42.2711 56.8375C42.2844 57.3561 42.2316 57.8743 42.114 58.3796C40.9551 60.7207 39.0748 62.7753 38.7693 65.4685C37.4352 66.3193 36.3393 67.8079 34.4375 67.3056C34.371 67.8079 34.5246 68.5715 34.6989 69.1411C33.1905 69.0772 32.1611 70.1912 30.8917 70.7168C30.2143 70.4993 30.0391 69.6226 29.7777 69.0108C31.2636 68.5085 32.3354 67.02 34.0422 67.0442C34.2398 66.4945 33.9318 65.9923 33.8446 65.4685C31.7218 64.5262 28.3539 70.1265 28.0708 65.2709C30.1919 65.1397 31.5484 63.1705 33.6496 62.9738L33.7135 61.3981C31.3292 61.1573 29.7975 63.608 27.4141 63.3664L26.8878 61.2678C29.6439 61.4412 31.2861 58.9707 33.9111 58.8378C34.2597 58.3796 34.3037 57.7005 34.371 57.0662C31.5052 56.6934 29.5369 59.8673 26.496 58.9034C26.496 58.9034 26.3924 57.5822 26.3355 56.8367H42.2711" fill="black"/>
<path d="M45.633 56.8376C45.7296 58.0026 45.4449 59.1649 44.3472 60.3497C42.7715 62.2067 41.176 64.5478 42.3133 67.0443C43.5171 69.7979 47.301 71.9422 45.6597 75.3766C44.764 77.5426 42.6188 79.1839 42.7068 81.7424C42.139 81.5017 41.5496 81.26 41.0673 80.8243C41.0673 77.565 45.7029 75.5302 43.4938 72.0958C43.2988 72.7732 43.2548 73.6922 43.1012 74.4585C42.334 76.4493 40.6945 78.0448 40.081 80.1046C39.0549 79.7085 37.9815 78.8775 37.128 78.0025L38.3111 77.2794C38.1799 76.841 37.8287 76.47 37.5224 76.098C36.7553 75.9902 36.253 76.4924 35.6197 76.69C35.0726 76.2076 34.5462 75.7701 34.1104 75.1799C34.503 74.0624 37.5664 74.984 36.0123 73.146C34.963 72.4902 33.9137 73.4308 32.9946 73.8691L31.7477 72.2934C32.8195 71.6376 33.8904 70.7177 35.2236 70.9809C35.5523 71.5729 35.5756 72.4453 36.209 72.7542C38.4621 72.7102 40.0594 71.0034 41.7869 69.6684C40.5823 67.877 39.6003 65.403 40.6703 63.2371C41.5272 61.066 43.7622 59.2392 43.8631 56.8394H45.633" fill="black"/>
<path d="M48.8387 56.8376C48.9509 57.8386 48.7861 58.8655 48.0871 59.9537C46.6668 61.8814 44.8072 63.9127 45.6589 66.4506C46.4683 69.0109 49.6628 70.5633 49.4661 73.5395C49.4445 77.0602 45.3525 79.2494 46.5123 83.1869L44.4784 82.5294C43.6699 79.0302 47.3882 77.2371 47.4313 73.9994C47.9568 70.2785 43.2073 68.8996 43.4921 65.271C43.4722 62.5139 45.8996 60.7639 46.9714 58.4453C47.1434 57.9276 47.2183 57.3826 47.1923 56.8376H48.8387Z" fill="black"/>
<path d="M60.0843 56.8375C59.948 57.7513 60.1141 58.6846 60.5572 59.4953C61.9784 61.7467 64.4732 64.1335 62.9173 67.0442C61.2786 69.4474 58.544 71.7902 59.6365 74.9166C60.8403 77.6521 63.3557 80.2546 61.9983 83.6468L59.9652 84.105C61.5832 80.8 59.1567 77.5218 57.7355 74.6551C56.0062 70.5424 61.4529 68.5707 61.5401 64.8109C61.5194 62.3844 58.9375 61.0054 58.3921 58.7739C57.2755 57.8316 56.1158 59.1467 54.7808 58.9034C53.7962 59.1018 52.287 57.5469 51.6976 59.2321C50.9969 61.7027 47.8015 63.52 49.2038 66.4505C50.5387 69.0548 53.7522 70.9575 52.6796 74.3281C51.7183 77.476 48.5462 80.4747 50.5145 84.105C49.7051 83.8435 48.195 84.3457 48.2174 83.0548C46.9705 78.6574 52.287 76.0979 50.6448 71.7022C49.8803 69.0108 46.401 67.5222 47.1673 64.2845C47.7333 61.6198 50.7199 59.7559 50.3005 56.8367H60.0843" fill="black"/>
<path d="M63.2469 56.8376C63.2046 57.5858 63.3557 58.3296 63.838 59.0355C65.3481 61.4862 67.9732 64.1776 66.4639 67.3713C64.7579 69.9299 61.7826 72.5333 63.4437 75.903C64.6475 77.9154 66.5079 79.926 66.0057 82.4L64.0356 83.0558C65.3481 78.4409 58.9159 75.7261 61.6082 71.1112C63.2711 68.639 66.2447 66.3194 64.562 63.0386C63.5559 61.0064 61.4771 59.8026 61.5418 57.2631L61.6126 56.8385H63.2469" fill="black"/>
<path d="M66.5053 56.8375C66.4947 57.4927 66.6614 58.1385 66.9877 58.7066C68.4098 61.2686 70.9701 63.6952 70.0079 66.9096C69.743 67.8959 68.9586 68.6621 68.761 69.6666C70.4256 71.0455 71.9995 72.5971 74.2078 72.6851C74.9947 72.1829 74.5572 69.9513 76.1761 70.9791L78.5379 72.1621C78.3653 72.7955 77.8381 73.3659 77.3583 73.8017C76.4617 73.3651 75.5867 72.8395 74.4692 72.8818C74.1396 73.2322 73.8548 73.6265 73.8798 74.1287C74.6668 74.2582 75.3865 74.587 76.044 75.0469C75.7386 75.7044 75.1466 76.1186 74.5995 76.6226L72.7624 75.965C72.4569 76.4034 71.82 76.8633 72.0427 77.344C72.4569 77.5209 72.9177 77.7599 73.2223 78.0671C72.4129 78.9421 71.386 79.5082 70.3997 80.1028C69.5488 77.3233 66.7461 75.3748 66.9868 72.1613L66.8574 72.0301C66.1998 72.7714 66.4208 73.9544 66.4639 74.9157C67.2517 76.9281 69.1329 78.4839 69.4177 80.6913C69.0889 81.2591 68.3451 81.3687 67.7755 81.6094C67.842 77.6288 61.805 74.612 65.6769 70.5856C66.9678 68.6138 69.1329 66.7344 68.3658 64.0214C67.5788 61.4007 64.7916 59.7741 64.8157 56.8367H66.5053" fill="black"/>
<path d="M83.9881 56.8375C84.0097 57.5771 84.0779 58.213 83.7888 58.9715C80.7919 59.8241 78.8235 56.652 75.9155 57.1309L76.2425 58.7739C78.9331 58.8619 80.6175 61.4421 83.3961 61.3308C83.0018 62.1195 83.5713 64.1974 81.8222 63.3664C80.0066 62.9298 78.6932 61.3308 76.7025 61.3308C76.4626 61.7709 76.6145 62.3844 76.5722 62.9065C78.6717 63.2352 80.1809 65.0085 82.2795 65.3364C82.0819 66.0578 81.8852 66.8647 81.2949 67.3048C79.5872 66.8888 78.254 65.3563 76.4367 65.4003L76.1114 66.9087C77.8389 66.9527 78.9556 68.4844 80.508 68.9426C80.5502 69.5794 79.9833 70.1472 79.6554 70.7159C78.2782 70.3017 77.2271 69.1195 75.6523 69.2075C75.6299 68.6138 75.9802 67.9382 75.8473 67.3048C74.0783 67.8303 72.8944 66.189 71.5845 65.2027C71.5465 61.9771 68.1509 59.8586 67.9714 56.8367H83.9881" fill="black"/>
<path d="M26.3364 56.8376C26.3156 56.5459 26.2992 56.344 26.2992 56.344C29.0123 57.3959 31.3948 55.4483 33.7143 54.443C34.3046 54.2661 35.2227 54.5733 35.4876 53.9174C35.4643 53.4144 36.3833 52.8233 35.6188 52.4729C32.2267 52.013 29.9744 56.105 26.4969 54.2454L26.2328 53.7198C26.9559 43.8334 32.5339 34.2739 41.7861 29.5701C50.0555 24.8439 62.7439 25.2391 70.5309 30.7515C74.6668 33.2885 78.6251 37.4676 80.7711 41.7123C82.8249 45.4306 83.7672 49.6072 84.0494 54.0486C80.4613 56.7608 78.0555 51.4909 74.4011 52.6705C74.5987 53.2401 74.7083 53.8303 75.1259 54.3118C78.3644 54.2894 80.5942 57.6806 83.9847 56.344L83.9872 56.8376H67.9706C67.9365 56.1758 68.0497 55.5148 68.3019 54.902C69.4177 52.321 69.0665 48.972 67.842 46.5654C67.4701 45.932 66.8143 45.4298 66.2007 45.057C67.099 46.9614 68.1915 49.2137 67.6452 51.5539C67.5823 53.3609 66.5183 55.0953 66.5062 56.8376H64.8166L64.8235 56.608C65.4569 53.5447 67.3846 50.2846 65.809 47.0253C65.3706 45.7137 64.3886 44.226 63.0536 43.6789C65.0435 45.9553 65.8305 49.6727 64.6923 52.737C64.1185 53.9554 63.3272 55.4043 63.2487 56.8367H61.6126C62.29 53.234 65.0315 49.8255 63.1166 45.9751C62.6136 44.8378 61.6082 43.6789 60.4925 43.0213L60.4252 43.0887C62.6576 45.2546 63.335 48.821 62.132 51.6851C61.5694 53.3652 60.3363 55.0358 60.0861 56.8367H50.3014C50.2648 56.5801 50.205 56.3274 50.1228 56.0816C49.007 52.9311 46.7306 49.7823 48.0871 46.1054C48.4599 45.0553 49.2046 44.1578 49.8587 43.219C47.6928 44.3779 46.5995 46.8286 46.6435 49.3224C46.5494 52.0328 48.554 54.3558 48.8387 56.8367H47.1932C47.062 54.2721 44.752 52.271 45.1351 49.388C45.2645 47.2661 45.9859 45.4056 47.364 43.8101C45.4621 44.5746 44.6752 46.763 44.1496 48.6001C43.2375 51.547 45.4147 54.1962 45.633 56.8367H43.8631C43.8843 56.2418 43.7812 55.649 43.5603 55.0962C42.3798 52.0561 41.963 47.9452 44.2161 45.2537C42.9907 45.5825 42.2693 47.1116 41.8534 48.2714C40.4986 51.2398 42.2124 53.9908 42.2711 56.8367H26.3364" fill="black"/>
<path d="M56.6836 31.472L60.2284 31.6696L60.1629 31.9984L57.5378 34.4922C57.9961 35.6089 58.456 36.7246 58.9159 37.8378C60.9067 36.6806 62.8112 35.2361 65.217 35.0816C64.9978 36.3518 64.0356 37.6868 64.1651 38.9535C65.6536 38.5385 67.0119 37.6203 68.6307 37.7066C67.6228 39.5671 66.1567 41.4275 66.0687 43.7453C63.8596 42.9161 61.5841 41.9073 59.1135 41.5147C53.8411 40.6164 48.7645 41.7761 44.4102 43.8774C44.0392 41.6683 42.9683 39.7422 41.6549 37.9051C42.4419 37.6428 43.4041 38.0785 44.2152 38.3003C44.8935 38.4953 45.4621 38.9544 46.1844 39.0873C46.3138 37.7748 45.5501 36.4839 45.0039 35.2801C45.3758 34.9953 45.9661 35.2128 46.382 35.3465C48.1087 36.0015 49.6628 37.0292 51.2385 37.9715C52.0471 37.0292 52.3517 35.6727 52.6805 34.4258L49.9916 31.9984V31.7369L53.5348 31.5385C54.1241 30.4236 54.5185 29.2422 55.1096 28.1265C55.8319 29.1111 56.0726 30.402 56.6836 31.472Z" fill="white"/>
<path d="M57.9305 38.6258L57.6043 38.9537C55.963 38.7794 54.2355 38.9968 52.6805 39.021C52.5062 38.8458 52.1575 38.5826 52.4829 38.3635L54.9776 36.459C56.007 37.0527 57.0995 37.8172 57.9305 38.6258Z" fill="black"/>
<path d="M14.1579 39.5438C12.8006 40.5957 11.8384 42.1274 12.124 43.8765C12.2776 44.1389 12.4295 44.5315 12.7799 44.5971C13.8732 44.5971 14.2451 43.4175 14.7473 42.6943C15.3384 41.3818 16.4775 39.9589 18.0299 39.807C19.3639 39.7207 20.5039 40.0693 21.378 41.1195C22.7121 42.7176 22.4713 45.2986 21.8379 47.1591C21.2451 48.5372 20.327 49.9351 19.0153 50.8334L16.6518 49.3889C17.9427 48.494 19.3001 47.0262 19.4744 45.3858C19.4744 44.7955 19.345 44.0077 18.6201 43.9412C17.1117 44.3796 16.959 46.1943 15.9313 47.2229C15.1443 48.0332 14.1588 48.6442 12.911 48.469C11.7513 48.4026 10.7658 47.682 10.0884 46.763C8.79748 44.7955 9.43173 41.9056 10.2196 40.3981C10.702 39.5438 11.2715 38.6912 12.0585 38.0337C12.7134 38.4073 13.4806 38.9769 14.1579 39.5438ZM99.8676 41.2532C101.004 43.0895 101.444 45.5169 100.852 47.7493L98.4239 47.6182C98.7535 46.1521 98.9934 44.3149 97.9648 43.0895C97.6594 42.7176 97.1123 42.4976 96.7179 42.6952C95.3838 44.1829 96.8301 46.3281 95.9982 48.0116C95.603 48.7788 95.0128 49.6969 94.1594 50.0447C92.7795 50.5702 91.0735 50.3079 90.0234 49.2577C87.9688 47.1133 87.0049 43.7876 88.3191 40.9883H90.8777C90.4402 42.0842 90.1364 43.6358 90.5506 44.9267C90.7681 45.4738 91.0313 46.1736 91.6672 46.3704C93.7667 46.4463 92.3438 43.439 92.8469 42.0376C93.0445 40.9883 93.6123 39.895 94.6832 39.4126C96.6515 38.4505 98.9503 39.5438 99.8676 41.2532ZM35.4876 45.3858C37.6087 44.5755 40.496 43.1767 42.7715 44.6644C42.2892 45.3418 41.3512 45.7146 40.6703 46.3039C39.5563 47.3972 38.1998 48.7305 37.3912 50.1094C34.6566 49.5615 32.4674 51.1613 30.1712 52.0795C29.2962 52.2529 28.1364 52.3409 27.415 51.7507C29.5809 48.1834 32.6417 44.9025 31.8772 40.1996C32.1179 39.7837 32.533 40.1349 32.7953 40.2661C34.4815 41.5786 35.29 43.395 35.4876 45.3858ZM78.6699 40.726C77.8182 45.1882 80.879 48.3396 82.9353 51.7515C80.5744 53.3272 78.3403 50.8973 76.1105 50.307C75.1259 50.1551 73.9679 50.0223 73.0247 50.1759C71.6708 48.0772 69.8543 46.1072 67.6444 44.9267C67.7747 44.2062 68.7808 44.1596 69.4824 44.0724C71.4292 43.8774 73.1351 44.6859 74.7324 45.5178C75.0387 44.7973 75.1699 43.9861 75.3874 43.2216C75.9146 41.9306 76.9441 40.6164 78.2782 40.071C78.5612 40.1142 78.7579 40.4214 78.6699 40.726ZM60.4243 44.7964C60.4916 45.1675 60.8627 45.4962 60.6219 45.9122C59.331 45.5169 57.8666 45.7353 56.6188 46.2383C55.5022 47.0693 55.6774 48.7779 55.9622 49.9791L56.2909 50.2432C56.8372 50.1111 56.8605 49.4122 57.3402 49.2577C58.1505 49.4553 59.2654 49.7409 60.0308 49.2577C60.7082 49.2801 60.6884 50.2199 60.7522 50.7022C60.2716 53.2401 59.1998 55.9963 56.6188 57.1992C55.5462 57.7247 54.1673 57.3726 53.1395 57.0016C50.6026 55.4923 49.1805 52.4954 49.4652 49.7841C49.6628 49.3682 49.9692 49.0394 50.4515 49.3241C51.4767 50.0231 52.5924 48.7779 53.5348 49.6503C54.6712 49.1473 53.9938 47.7493 53.9938 46.6991C53.0757 45.5169 51.5 45.6913 50.1228 45.7793C49.5092 45.4065 50.1668 44.8171 50.3178 44.4012C51.8063 42.3017 54.6514 42.2586 57.1426 42.564C58.4129 42.8919 59.8134 43.439 60.4243 44.7964Z" fill="white"/>
<path d="M52.8116 47.8142V48.0782C52.0687 48.0118 50.8666 47.268 50.1875 48.2086C49.7508 48.4036 49.6853 47.9005 49.7293 47.6174C49.708 47.5484 49.7015 47.4757 49.7102 47.404C49.7189 47.3323 49.7426 47.2633 49.7798 47.2014C49.8171 47.1395 49.8669 47.0861 49.9262 47.0448C49.9854 47.0035 50.0527 46.9752 50.1236 46.9616C51.1496 46.7209 52.3094 47.0263 52.8116 47.8142ZM60.6219 47.4854C60.6012 47.7495 60.6659 48.055 60.3596 48.2086C59.5277 47.8806 58.368 47.4207 57.537 48.0782C57.0546 47.0496 58.3913 47.268 58.8495 46.9625C59.5286 46.9383 60.3165 46.9185 60.6219 47.4854Z" fill="white"/>
<path d="M56.4212 51.686C56.0286 52.517 54.7592 51.9924 54.0586 52.1442C53.8204 52.0562 53.9705 51.7956 53.9274 51.6204C54.6281 51.1381 55.875 51.0742 56.4212 51.686ZM57.4705 53.5249C56.9485 54.3119 56.1598 55.2948 55.1105 55.2318C53.9274 55.3189 53.6659 54.3559 52.8116 53.7872L52.7478 53.3912C54.3235 53.6328 56.051 53.3282 57.4705 53.5249Z" fill="black"/>
<path d="M16.5853 63.7617C17.9108 63.7547 19.1827 63.8057 20.5513 63.7737L17.5061 66.3202C17.7995 67.392 18.0532 68.6242 18.4242 70.0618L15.4049 67.9615C14.1355 68.5414 13.371 69.2524 12.0593 69.9298L13.1086 66.3194C12.112 65.5039 10.9979 64.7299 10.0556 63.8989C11.4294 63.8635 12.6323 63.9187 13.9603 63.892C14.5739 62.7443 14.8474 61.4292 15.4049 60.2815L16.5853 63.7617ZM32.1395 81.0218C32.4035 81.6552 32.7841 82.1574 32.9463 83.1083C32.2474 83.5484 31.3637 83.9091 30.5647 84.3035C30.3696 82.859 29.0994 81.4584 27.6782 81.0857C26.4977 80.7923 25.2068 81.3506 24.3326 82.3999C23.6095 83.2507 23.3903 84.4778 23.6095 85.5495C24.179 87.0346 25.7539 88.1564 27.3503 88.1564L27.8094 88.1702C27.4789 88.9892 27.0844 89.781 26.6297 90.5381C23.9814 90.4483 21.3133 88.8951 20.3278 86.3348C19.4753 84.2586 19.848 81.5672 21.1821 79.8379C22.801 77.7833 25.3828 77.2137 27.8767 77.7393C29.5576 78.2001 31.1333 79.4677 32.1395 81.0218ZM83.1304 79.6446L83.296 79.8068L79.3585 83.4725L80.671 85.0568C81.7859 84.1818 82.9906 83.2516 84.1823 82.1376C84.7949 82.6519 85.2885 83.2516 85.8667 83.9324C84.6871 85.0568 83.46 85.8231 82.4331 86.8957C82.8706 87.4437 83.208 88.065 83.8751 88.7225L88.1206 85.2216L89.9345 87.0925C87.5287 89.3775 84.9045 91.7306 82.4107 93.5557L74.9939 83.9739C77.3574 82.0038 79.3473 80.2107 81.4261 78.1319C82.0612 78.5495 82.5211 79.0949 83.1304 79.6446ZM41.3935 87.7163C42.7275 89.4223 42.7491 92.0681 41.9173 94.0148C40.9896 95.9952 39.206 97.2542 37.2583 97.6908C34.8983 98.0619 32.6659 97.2982 30.959 95.6587C29.4506 93.995 28.6188 91.6107 29.3833 89.2929C30.0616 86.7766 32.5114 84.9395 35.0286 84.6331C37.6303 84.4787 40.0369 85.6816 41.3935 87.7163Z" fill="white"/>
<path d="M38.6382 89.2923C39.3794 91.0198 38.5268 92.7258 37.3239 93.9503C36.5594 94.5621 35.5575 94.9479 34.5522 94.5759C33.9188 94.2696 33.1362 93.7096 32.961 93.0305C32.4786 91.2813 33.2786 89.6409 34.5022 88.438C35.246 87.8245 36.3186 87.4758 37.2575 87.9125C37.827 88.0868 38.4613 88.7228 38.6382 89.2923Z" fill="#397657"/>
<path d="M64.7579 92.068C62.9173 92.3329 61.1595 92.5521 59.4069 92.8369C59.5838 93.6998 59.5053 94.2779 59.6373 94.9355C61.2786 94.9036 62.7119 94.6119 64.2436 94.4143L64.6915 97.2205C63.1331 97.5104 61.5636 97.7369 59.9868 97.8996C60.0308 99.1673 60.1991 100.72 60.1792 102.12C58.8892 102.318 57.4964 102.459 56.1615 102.371L55.3745 90.4069L55.3641 90.1558C58.3095 89.8748 61.2449 89.4986 64.1659 89.0279C64.2876 89.9254 64.5612 90.9617 64.7579 92.068ZM74.7945 86.6894L74.905 86.8948L70.0994 89.3049L70.9131 91.1939C72.3792 90.6347 73.6451 90.1135 75.1017 89.3774C75.5461 90.0445 75.8508 90.7581 76.2166 91.5718C74.8955 92.276 73.5278 92.8222 72.0876 93.4547C72.3551 94.1019 72.4897 94.5739 72.96 95.612L78.0176 93.4426L79.2351 95.7501C76.2839 97.2671 73.1049 98.7876 70.1969 99.8403L65.7675 88.5637C68.5884 87.3366 71.0037 86.1725 73.5804 84.7634C74.0749 85.3398 74.3622 85.9939 74.7945 86.6894ZM53.5701 93.428C51.7399 93.1216 49.9933 92.7946 48.2407 92.5314C48.1432 93.4081 47.8956 93.9371 47.8222 94.6007C49.3953 95.0692 50.8485 95.228 52.3672 95.5059L51.9401 98.319C50.3668 98.1201 48.8022 97.8575 47.2501 97.532C46.9067 98.7522 46.5977 100.284 46.1533 101.613C44.8624 101.407 43.4912 101.117 42.2469 100.626L45.1342 88.9908L45.2024 88.7501C48.1122 89.3791 51.0927 89.928 53.9308 90.3525C53.7721 91.2439 53.7168 92.3174 53.5701 93.428ZM96.1001 63.7797C97.4229 63.7745 98.6051 63.8099 100.063 63.7935L97.0208 66.34C97.3168 67.41 97.5679 68.6423 97.9372 70.0816L94.9205 67.9796C93.6485 68.5577 92.8848 69.2705 91.5723 69.9479L92.6225 66.3391C91.6267 65.5254 90.5101 64.7479 89.5729 63.9169C90.9432 63.8815 92.147 63.9368 93.4742 63.91C94.0101 62.7149 94.3932 61.5672 94.9205 60.2996L96.1001 63.7797Z" fill="white"/>
<path d="M90.7387 100.681C92.449 100.681 93.9151 102.011 93.9151 103.815C93.9151 105.636 92.4499 106.965 90.7387 106.965C89.0112 106.965 87.5459 105.636 87.5459 103.815C87.5459 102.011 89.0112 100.681 90.7387 100.681ZM90.7387 101.189C89.2821 101.189 88.156 102.316 88.156 103.815C88.156 105.348 89.283 106.458 90.7387 106.458C92.1789 106.458 93.3051 105.349 93.3051 103.815C93.3042 102.316 92.1789 101.189 90.7387 101.189ZM90.0691 105.636H89.5108V102.011H90.8992C91.763 102.011 92.1867 102.333 92.1867 103.044C92.1867 103.696 91.7794 103.976 91.2375 104.043L92.2704 105.636H91.6612L90.6956 104.06H90.0682V105.636H90.0691ZM90.0691 103.604H90.7301C91.4075 103.604 91.6275 103.408 91.6275 103.01C91.6275 102.663 91.4584 102.468 90.8233 102.468H90.0691V103.604Z" fill="black"/>
</svg>
