<svg width="60" height="60" viewBox="0 0 60 60" fill="none" xmlns="http://www.w3.org/2000/svg">
<path d="M14.4356 33.7881L14.4319 33.7869C14.2753 33.7346 14.1233 33.6868 13.9701 33.6387C13.9078 33.6191 13.8453 33.5994 13.7822 33.5794C13.7819 33.5793 13.7815 33.5792 13.7811 33.579L13.7419 33.5667C12.9994 33.334 12.2806 33.1087 11.7665 32.8161C11.499 32.6639 11.2458 32.4718 11.0706 32.2137C10.8857 31.9415 10.8077 31.6251 10.8514 31.2776C10.9109 30.803 11.2497 30.4226 11.6586 30.1191C12.0793 29.8069 12.6633 29.5096 13.3876 29.2209C22.1278 25.413 27.9618 22.8999 30.8831 21.6858M14.4356 33.7881L43.4275 18.41C43.07 18.1175 42.515 18.055 42.265 18.06L42.2561 17.5601C42.2559 17.5601 42.2558 17.5601 42.2556 17.5601C41.602 17.5718 40.8197 17.7544 39.2013 18.3419C37.5737 18.9327 35.0475 19.9541 30.8831 21.6858M14.4356 33.7881C15.2086 34.039 16.1183 34.3126 16.9731 34.5269C17.8163 34.7382 18.6461 34.9024 19.242 34.9149L19.2422 34.9149M14.4356 33.7881L19.2422 34.9149M30.8831 21.6858L31.075 22.1475L30.883 21.6858C30.8831 21.6858 30.8831 21.6858 30.8831 21.6858ZM19.2422 34.9149C20.3585 34.9379 21.5456 34.4794 22.7885 33.6286M19.2422 34.9149L22.7885 33.6286M22.7885 33.6286C26.8726 30.8705 29.9674 28.7956 32.0739 27.403C33.1275 26.7065 33.9319 26.182 34.4883 25.8285C34.767 25.6514 34.9802 25.5193 35.1301 25.4306C35.2055 25.386 35.2605 25.3549 35.2975 25.3353C35.3022 25.3328 35.3064 25.3307 35.31 25.3288C35.3396 25.3223 35.366 25.317 35.3918 25.3128C35.4043 25.3108 35.4156 25.3092 35.4259 25.3081C35.3985 25.3459 35.3587 25.3966 35.3045 25.4612C35.1768 25.6131 34.9919 25.8149 34.7582 26.0584C34.2921 26.544 33.6537 27.1728 32.9419 27.8583C31.5195 29.228 29.8204 30.808 28.6575 31.8884C27.9456 32.5487 27.4164 33.0414 27.2948 33.1683C27.0666 33.4037 26.8326 33.6304 26.6024 33.8531L26.5959 33.8594C26.2476 34.1942 25.8943 34.5339 25.614 34.8734C25.333 35.2139 25.0852 35.6005 24.9988 36.0398C24.8087 37.0063 25.4364 37.8545 26.7349 38.71L22.7885 33.6286ZM59.5 30C59.5 46.2914 46.2914 59.5 30 59.5C13.7086 59.5 0.5 46.2914 0.5 30C0.5 13.7086 13.7086 0.5 30 0.5C46.2914 0.5 59.5 13.7086 59.5 30ZM35.2705 25.3376C35.2711 25.3375 35.2716 25.3374 35.2722 25.3373C35.2716 25.3374 35.271 25.3375 35.2704 25.3377L35.2705 25.3376Z" fill="#201B1B" stroke="#02735E"/>
</svg>
