<svg width="60" height="60" viewBox="0 0 60 60" fill="none" xmlns="http://www.w3.org/2000/svg">
<g clip-path="url(#clip0_5_73)">
<path d="M49.79 29.6925C49.3848 29.3995 49.3848 29.3995 49.3849 29.3995L49.3851 29.3991L49.3861 29.3977L49.3904 29.3919L49.4073 29.3684L49.4738 29.2759C49.5322 29.1944 49.6181 29.0743 49.7279 28.9199C49.9474 28.6112 50.2622 28.1657 50.6427 27.6192C51.4037 26.526 52.4266 25.03 53.4749 23.4178C54.5239 21.8045 55.5948 20.0801 56.4538 18.529C57.3219 16.9613 57.9437 15.6225 58.1343 14.7618L58.2211 14.37H58.2344C58.3139 13.9393 58.2563 13.6478 58.1249 13.4631C57.9648 13.2382 57.5709 13 56.6375 13H50.075C49.3319 13 48.8302 13.191 48.4746 13.4549C48.1142 13.7224 47.8638 14.0947 47.6773 14.5216L47.676 14.5245L47.6758 14.5248M49.79 29.6925L39.1525 27.505C43.88 22.315 47.2175 14.325 47.2175 14.325L47.6758 14.5248M49.79 29.6925L49.3848 29.3995L49.3761 29.4116L49.3681 29.4241C49.0358 29.9466 48.7128 30.4627 48.6663 31.0351C48.6166 31.6472 48.8803 32.215 49.392 32.8627C49.7643 33.3706 50.5164 34.0938 51.3174 34.8641L51.3924 34.9363C52.2481 35.7593 53.1868 36.6648 53.9338 37.5314L53.9337 37.5315L53.9415 37.5403C55.3472 39.0955 56.5709 40.5187 57.5152 41.7735C58.4636 43.0338 59.1007 44.0867 59.3727 44.9092M49.79 29.6925L59.3727 44.9092M47.6758 14.5248L47.6683 14.5428L47.6385 14.6128C47.6123 14.674 47.5735 14.7638 47.5226 14.8797C47.4208 15.1113 47.2704 15.447 47.0754 15.8657C46.6854 16.7028 46.1161 17.8726 45.398 19.2059C43.965 21.8665 41.9261 25.2026 39.5221 27.8417L39.5129 27.8518L39.5031 27.8615C38.0002 29.3398 37.1636 29.9875 36.0925 29.9875C35.2597 29.9875 34.5475 29.1225 34.5475 27.6425V14.87C34.5475 14.0708 34.4298 13.6196 34.2428 13.3688C34.0848 13.1567 33.8073 13 33.1975 13H22.8775C22.0997 13 21.7075 13.5475 21.7075 13.9825C21.7075 14.2267 21.7945 14.4395 21.9897 14.7168C22.09 14.8592 22.2103 15.007 22.3548 15.1828L22.379 15.2122C22.5143 15.3766 22.6664 15.5615 22.8206 15.7675C23.495 16.6685 24.187 17.9441 24.3142 20.2373L24.315 20.2511V20.265V29.76C24.315 30.7969 24.2263 31.5352 23.9549 32.0165C23.8061 32.2804 23.6016 32.4708 23.3426 32.5856C23.0977 32.6941 22.8374 32.72 22.5975 32.72C22.1791 32.72 21.7537 32.5363 21.3527 32.277C20.9429 32.012 20.5071 31.6343 20.0566 31.1706C19.1548 30.2422 18.149 28.9221 17.1225 27.3289C15.0677 24.1398 12.8944 19.801 11.2755 15.1726L11.2753 15.1719C10.9682 14.2901 10.6882 13.7675 10.3423 13.4539C10.0206 13.1622 9.58218 13 8.8175 13H2.25C1.37767 13 0.97442 13.2029 0.779887 13.4025C0.5854 13.602 0.5 13.8992 0.5 14.325C0.5 14.68 0.623089 15.4747 0.956569 16.6754C1.28597 17.8614 1.81103 19.4099 2.59039 21.2579C4.14888 24.9534 6.72061 29.8381 10.767 35.4086L10.7704 35.4132L10.7704 35.4133C16.1224 42.9605 23.62 47 30.3825 47C32.4692 47 33.5022 46.7624 34.0159 46.424C34.4478 46.1395 34.57 45.7401 34.57 44.9925V39.21C34.57 38.7362 34.595 38.3308 34.6618 37.991C34.7287 37.6503 34.8436 37.3442 35.0461 37.0971C35.4687 36.5814 36.1195 36.5 36.7875 36.5C37.9712 36.5 39.7639 37.1075 43.6688 40.8044L43.6755 40.8108L43.6754 40.8109C44.7966 41.9125 45.6833 42.8619 46.4195 43.6634C46.5613 43.8177 46.697 43.966 46.8273 44.1085C47.3781 44.7103 47.8329 45.2074 48.249 45.6172C48.7614 46.1218 49.1846 46.4627 49.6089 46.6807C50.0227 46.8934 50.4588 47 51.0125 47H57.575C58.4522 47 58.9794 46.782 59.2425 46.4825C59.4864 46.2048 59.6135 45.7259 59.3727 44.9092M47.6758 14.5248L59.3727 44.9092" fill="#201B1B" stroke="#02735E"/>
</g>
<defs>
<clipPath id="clip0_5_73">
<rect width="60" height="60" fill="white"/>
</clipPath>
</defs>
</svg>
