<svg width="110" height="110" viewBox="0 0 110 110" fill="none" xmlns="http://www.w3.org/2000/svg">
<path d="M53.147 0.150299C53.0503 0.15567 52.6824 0.171783 52.3279 0.187897C45.9148 0.477936 39.4587 1.95499 33.4753 4.50357C32.0413 5.11588 30.0862 6.06387 28.7542 6.79166C24.7795 8.96695 21.2454 11.5021 17.8455 14.6093C17.1257 15.2672 15.1277 17.2733 14.4644 18.0038C9.63574 23.3239 6.00488 29.2724 3.52612 35.9325C3.2146 36.7677 2.6748 38.3817 2.41968 39.2357C1.25952 43.1352 0.534424 47.1125 0.255127 51.1327C0.161133 52.5131 0.147705 52.9696 0.147705 54.9999C0.147705 57.0302 0.161133 57.4867 0.255127 58.8671C0.679443 64.9472 2.11353 70.9091 4.50366 76.5246C5.33081 78.4608 6.42383 80.6442 7.49536 82.4945C9.53101 86.0072 11.9802 89.3131 14.7947 92.3559C15.2808 92.8795 16.6021 94.2116 17.217 94.797C19.5562 97.0233 22.2659 99.1718 24.9648 100.939C32.812 106.074 41.8247 109.103 51.1462 109.745C52.395 109.831 52.8086 109.844 54.4709 109.858C57.2747 109.882 59.2539 109.774 61.7944 109.46C72.9395 108.085 83.3621 103.316 91.7544 95.7531C93.21 94.4398 94.8804 92.7506 96.199 91.2548C98.8953 88.1959 101.226 84.8659 103.211 81.2377C103.635 80.4669 104.521 78.6999 104.895 77.8808C107.645 71.8813 109.286 65.444 109.742 58.8671C109.839 57.4813 109.852 57.0302 109.852 54.9999C109.852 52.9669 109.839 52.5131 109.742 51.1327C109.006 40.5624 105.236 30.4728 98.863 22.016C97.0986 19.6742 95.2886 17.6305 93.0945 15.5036C88.4565 11.008 82.9673 7.32608 77.0215 4.7211C72.7944 2.86539 68.425 1.57632 63.8623 0.832428C61.8992 0.515533 60.0461 0.316803 57.7661 0.185211C57.3042 0.158356 53.5391 0.1315 53.147 0.150299ZM74.7925 54.9704C74.7925 87.7609 74.7952 89.4259 74.8408 89.4367C74.865 89.4447 72.1714 89.4501 68.8521 89.4528L62.8149 89.4555V59.6566V29.8578L59.5198 29.8712C56.2729 29.8847 55.9641 29.8927 54.9731 29.984C51.96 30.266 49.4087 31.0797 47.3999 32.3983C44.6177 34.2245 42.9553 36.996 42.5552 40.4711C42.3672 42.0878 42.4719 44.4135 42.8103 46.2289C43.624 50.5741 45.845 53.7323 50.5823 57.2692C51.7371 58.1313 52.0701 58.3595 56.9927 61.6735C58.3328 62.5731 59.4258 63.3197 59.4231 63.3305C59.4204 63.3385 55.5022 69.2199 50.7166 76.401L42.0154 89.4528L35.5325 89.4555C30.3601 89.4555 29.0549 89.4474 29.0657 89.4232C29.071 89.4044 32.4978 84.2992 36.6792 78.0768C40.8606 71.8544 44.3787 66.6203 44.4968 66.443L44.7117 66.1234L44.2363 65.7797C36.7947 60.4005 32.949 55.4967 31.4075 49.4274C30.8784 47.3407 30.6394 45.2917 30.6394 42.821C30.6394 41.6098 30.6797 40.8175 30.7925 39.8266C31.3967 34.4286 33.7117 29.89 37.5305 26.611C41.9133 22.8512 48.1653 20.786 55.8862 20.547C56.2488 20.5363 60.6504 20.5229 65.6697 20.5229L74.7925 20.5175V54.9704Z" fill="#FF0000"/>
</svg>
